<?xml version="1.0" encoding="iso-8859-1"?>
<!-- Generator: Adobe Illustrator 19.0.0, SVG Export Plug-In . SVG Version: 6.00 Build 0)  -->
<svg version="1.1" id="Layer_1" xmlns="http://www.w3.org/2000/svg" xmlns:xlink="http://www.w3.org/1999/xlink" x="0px" y="0px"
	 viewBox="0 0 512 512" style="enable-background:new 0 0 512 512;" xml:space="preserve">
<path style="fill:#FF709D;" d="M268.713,0l-12.716,10.062l12.718-10.06c8.785,11.101,19.717,24.917,19.717,51.051
	s-10.931,39.951-19.715,51.053c-7.383,9.331-12.717,16.072-12.717,30.927c0,14.854,5.334,21.594,12.716,30.925
	c8.784,11.101,19.716,24.917,19.716,51.05c0,26.135-10.931,39.949-19.715,51.051c-7.383,9.331-12.717,16.072-12.717,30.927
	c0,14.855,5.334,21.595,12.717,30.926c8.784,11.101,19.715,24.917,19.715,51.051c0,26.136-10.931,39.953-19.715,51.054
	c-7.383,9.333-12.717,16.075-12.717,30.933c0,14.859,5.333,21.6,12.714,30.929L243.28,512c-8.782-11.1-19.711-24.914-19.711-51.051
	c0-26.136,10.931-39.953,19.715-51.054C250.666,400.562,256,393.82,256,378.962c0-14.855-5.334-21.596-12.717-30.927
	c-8.784-11.101-19.715-24.917-19.715-51.05c0-26.135,10.931-39.95,19.715-51.051c7.383-9.331,12.717-16.072,12.717-30.927
	c0-14.855-5.334-21.595-12.717-30.926c-8.784-11.101-19.715-24.916-19.715-51.049c0-26.135,10.931-39.95,19.715-51.051
	C250.666,72.651,256,65.91,256,51.054c0-14.855-5.335-21.596-12.718-30.927L268.713,0z"/>
<g>
	<path style="fill:#F63E31;" d="M109.299,0L96.583,10.062l12.718-10.06c8.785,11.101,19.716,24.917,19.716,51.051
		s-10.932,39.951-19.716,51.053c-7.382,9.331-12.716,16.072-12.716,30.927c0,14.854,5.334,21.594,12.716,30.925
		c8.784,11.101,19.716,24.917,19.716,51.05c0,26.135-10.931,39.949-19.715,51.051c-7.383,9.331-12.717,16.072-12.717,30.927
		c0,14.855,5.332,21.593,12.711,30.919l-25.435,20.124c-8.781-11.097-19.708-24.909-19.708-51.042
		c0-26.135,10.931-39.949,19.715-51.051c7.383-9.331,12.717-16.072,12.717-30.927c0-14.855-5.335-21.595-12.717-30.926
		c-8.784-11.101-19.715-24.916-19.715-51.049s10.931-39.95,19.715-51.051c7.383-9.331,12.717-16.072,12.717-30.928
		c0-14.855-5.335-21.596-12.718-30.927L109.299,0z"/>
	<path style="fill:#F63E31;" d="M428.127,0l-12.716,10.062l12.718-10.06c8.785,11.101,19.716,24.917,19.716,51.051
		s-10.932,39.951-19.716,51.053c-7.382,9.331-12.716,16.072-12.716,30.927c0,14.854,5.334,21.594,12.716,30.925
		c8.784,11.101,19.716,24.917,19.716,51.05c0,26.135-10.931,39.949-19.715,51.051c-7.383,9.331-12.717,16.072-12.717,30.927
		c0,14.855,5.332,21.593,12.711,30.919l-25.435,20.124c-8.781-11.097-19.708-24.909-19.708-51.042
		c0-26.135,10.931-39.949,19.715-51.051c7.383-9.331,12.717-16.072,12.717-30.927c0-14.855-5.335-21.595-12.717-30.926
		c-8.784-11.101-19.715-24.916-19.715-51.049s10.931-39.95,19.715-51.051c7.383-9.331,12.717-16.072,12.717-30.928
		c0-14.855-5.335-21.596-12.718-30.927L428.127,0z"/>
</g>
<circle style="fill:#FFD102;" cx="33.094" cy="215.006" r="16.879"/>
<circle style="fill:#57BAB7;" cx="16.879" cy="460.946" r="16.879"/>
<circle style="fill:#FFD102;" cx="176.297" cy="378.97" r="16.879"/>
<circle style="fill:#57BAB7;" cx="160.082" cy="133.03" r="16.879"/>
<circle style="fill:#FFD102;" cx="192.512" cy="51.054" r="16.879"/>
<circle style="fill:#57BAB7;" cx="319.488" cy="297.241" r="16.879"/>
<g>
	<circle style="fill:#FFD102;" cx="319.488" cy="460.946" r="16.879"/>
	<circle style="fill:#FFD102;" cx="351.918" cy="215.006" r="16.879"/>
</g>
<circle style="fill:#57BAB7;" cx="462.69" cy="460.946" r="16.879"/>
<circle style="fill:#FFD102;" cx="495.121" cy="378.97" r="16.879"/>
<circle style="fill:#57BAB7;" cx="478.906" cy="133.03" r="16.879"/>
<g>
</g>
<g>
</g>
<g>
</g>
<g>
</g>
<g>
</g>
<g>
</g>
<g>
</g>
<g>
</g>
<g>
</g>
<g>
</g>
<g>
</g>
<g>
</g>
<g>
</g>
<g>
</g>
<g>
</g>
</svg>
