<?xml version="1.0" encoding="UTF-8" standalone="no"?>
<!DOCTYPE svg PUBLIC "-//W3C//DTD SVG 1.1//EN" "http://www.w3.org/Graphics/SVG/1.1/DTD/svg11.dtd">
<svg width="100%" height="100%" viewBox="0 0 112 185" version="1.1" xmlns="http://www.w3.org/2000/svg" xmlns:xlink="http://www.w3.org/1999/xlink" xml:space="preserve" xmlns:serif="http://www.serif.com/" style="fill-rule:evenodd;clip-rule:evenodd;">
    <g transform="matrix(1,0,0,1,0,35)">
        <path id="p2" d="M73.54,11.53C78.37,13.34 84.3,16.33 86.62,21.19C81.74,21.68 76.88,21.47 71.98,21.48C67.39,21.47 62.72,22.35 58.23,23.26C54.44,24.04 50.34,25.89 48.47,29.47C46.94,32.59 46.94,36.59 46.8,39.99C46.57,46.52 48.16,53.03 51.17,58.8C54.09,63.79 60.6,66.63 65.98,67.96C76.07,69.63 87.66,66.21 97.35,63.46C97.6,64.84 97.82,66.25 97.95,67.65C96.15,73.64 94.98,79.76 93.64,85.86C92.4,91.45 87.65,95.91 82.01,96.83C74.54,98.21 66.44,98.63 59.04,96.72C54.51,95.64 48.81,94.02 45.66,90.37C42.17,86.11 39.97,80.57 38.74,75.24C36.09,64.05 34.99,52.49 35.35,41C35.48,33.25 35.31,24.41 37.83,16.99C40.94,13.65 44.13,10.73 48.81,9.91C57.07,8.51 65.59,8.69 73.54,11.53Z" style="fill:rgb(215,225,241);fill-rule:nonzero;stroke:rgb(215,225,241);stroke-width:10px;"/>
        <path id="p3" d="M37.83,16.99C35.31,24.41 35.48,33.25 35.35,41C34.99,52.49 36.09,64.05 38.74,75.24C39.97,80.57 42.17,86.11 45.66,90.37C48.81,94.02 54.51,95.64 59.04,96.72C66.44,98.63 74.54,98.21 82.01,96.83C87.65,95.91 92.4,91.45 93.64,85.86C94.98,79.76 96.15,73.64 97.95,67.65C98.95,78.48 99.01,89.26 97.05,99.99C95.99,108.05 92.83,114.74 93.4,123.01C93.24,125.46 94.03,130.01 90.75,130.63C86.78,131.59 81.32,132.48 77.61,130.36C75.49,129.31 75.58,126 75.53,124C75.76,121.1 75.54,117.19 78.53,115.62C81.98,113.72 85.28,111.92 88.12,109.13C80.53,109.88 73.11,110.51 65.53,109.17C62.1,108.77 57.9,107.61 55.02,110.13C52.39,116.9 55.37,125.73 52.21,132.22C48.67,138.31 39.59,137.63 34.12,134.85C31.59,134.05 32.3,130.32 31.8,128.2C28.71,103.45 28.73,78.89 29.4,54C29.74,44.71 31.2,35.46 33.65,26.49C34.65,23.12 35.59,19.78 37.83,16.99Z" style="fill:rgb(132,149,192);fill-rule:nonzero;stroke:rgb(132,149,192);stroke-width:10px;"/>
        <path id="p4" d="M82,28.36C88.43,28.9 95.58,31.12 100.33,35.67C102.62,37.77 103.49,40.5 104.09,43.46C101.77,44.9 99.74,46.38 96.96,46.8C91.03,47.71 84.99,48.13 79,48.47C74.21,48.6 68.62,48.58 64.82,45.19C60.82,41.73 59.98,36.24 58.4,31.48C66.26,29.71 73.87,27.64 82,28.36ZM82,39.56C86.22,39.93 90.77,40.7 94.97,40.06C96.59,39.71 97.45,37.78 96.67,36.35C95.32,33.46 92.56,32.96 89.78,32.16C85.18,31.09 79.77,30.05 75.13,31.2C71.69,31.88 71.34,38.48 75.12,38.69C77.39,39.12 79.71,39.31 82,39.56Z" style="fill-rule:nonzero;stroke:rgb(152,199,220);stroke-width:10px;"/>
        <path id="p5" d="M58.09,31.55L58.4,31.48C59.98,36.24 60.82,41.73 64.82,45.19C68.62,48.58 74.21,48.6 79,48.47C84.99,48.13 91.03,47.71 96.96,46.8C99.74,46.38 101.77,44.9 104.09,43.46C104.71,48.27 102.65,52.13 98.53,54.53C92.55,57.71 85.78,59.91 79.01,60.39C72.91,60.73 66.77,59.94 61.69,56.31C58.71,54.17 55.48,51.24 54.55,47.54C53.25,42.09 54.38,35.87 58.09,31.55Z" style="fill-rule:nonzero;stroke:rgb(74,100,110);stroke-width:10px;"/>
        <path id="p6" d="M75.13,31.2C79.77,30.05 85.18,31.09 89.78,32.16C92.56,32.96 95.32,33.46 96.67,36.35C97.45,37.78 96.59,39.71 94.97,40.06C90.77,40.7 86.22,39.93 82,39.56C79.71,39.31 77.39,39.12 75.12,38.69C71.34,38.48 71.69,31.88 75.13,31.2Z" style="fill-rule:nonzero;stroke:white;stroke-width:10px;"/>
        <path id="p7" d="M22.15,47.91C22.01,50.74 21.76,53.56 21.59,56.39C17.35,55.36 13.91,57.02 9.84,57.81C10.44,54.58 11.16,50 14.24,48.18C16.77,46.63 19.44,47.5 22.15,47.91Z" style="fill:rgb(215,225,241);fill-rule:nonzero;stroke:rgb(215,225,241);stroke-width:10px;"/>
        <path id="p8" d="M21.59,56.39C21.45,71.92 21.26,87.52 22.22,103.03C22.39,105.21 21.58,107.93 18.99,108.02C13.86,107.96 10.03,103.96 9.41,98.98C7.42,85.55 8.94,71.3 9.84,57.81C13.91,57.02 17.35,55.36 21.59,56.39Z" style="fill:rgb(132,149,192);fill-rule:nonzero;stroke:rgb(132,149,192);stroke-width:10px;"/>
        <path id="p9" d="M63.25,118.24C64.12,117.82 65.13,117.69 66.28,117.83C67.29,122.2 67.03,126.53 68.84,130.74C66.67,130.74 64.5,130.76 62.33,130.78C63.23,126.61 62.75,122.42 63.25,118.24Z" style="fill-rule:nonzero;stroke:white;stroke-width:10px;"/>
    </g>
    <g id="p10" transform="matrix(1,0,0,1,0,35)">
        <path d="M62.33,130.78C64.5,130.76 66.67,130.74 68.84,130.74C70.41,134.38 77.17,131.66 81.46,132.38C86.42,132.98 83.86,134.93 88.83,134.47C91.89,134.22 96.79,135.62 98.66,133.49C103.19,134.27 107.76,134.25 110.6,138.47C112.33,140.73 110.81,143.4 108.57,144.55C104.08,146.78 99,147.99 94.03,148.54C86.37,149.31 78.71,149.93 71,149.75C54.01,149.52 38.27,150.77 21.5,147.23C18.22,146.38 14.37,145.46 11.69,143.29C9.58,141.48 10.16,137.98 12.51,136.69C15.92,135.17 19.86,134.56 23.49,133.77C24.09,136.43 28.63,137.28 31.03,138.92C34.2,141.11 35.23,141.24 38.95,142.08C45.07,143.28 48.8,143.96 53.8,139.83C57.46,137.09 61.33,135.14 62.33,130.78Z" style="fill:rgb(55,59,60);fill-rule:nonzero;"/>
    </g>
    <g transform="matrix(1,0,0,1,0,35)">
        <path id="p1" d="M55.99,0.68C63.32,0.29 71.11,0.73 78.16,2.9C85.49,5.42 92.43,9.78 96.71,16.4C98.81,19.65 99.46,23.05 102.17,25.83C104.53,28.31 106.96,30.36 108.59,33.46C111.75,38.78 111.64,46.06 110.93,52.01C110.46,56.63 106.73,59.93 106.11,64.33C106.46,69.16 107.95,74.07 107.95,78.99C108,87.9 106.21,97.15 104.92,105.99C103.75,113.16 102.91,120.44 101.33,127.53C100.84,129.74 99.93,131.63 98.66,133.49C96.79,135.62 94.89,138.22 91.83,138.47C86.86,138.93 81.42,138.98 76.46,138.38C72.17,137.66 70.41,134.38 68.84,130.74C67.03,126.53 67.29,122.2 66.28,117.83C65.13,117.69 64.12,117.82 63.25,118.24C62.75,122.42 63.23,126.61 62.33,130.78C61.33,135.14 59.46,139.09 55.8,141.83C50.8,145.96 44.07,146.28 37.95,145.08C34.23,144.24 30.2,143.11 27.03,140.92C24.63,139.28 24.09,136.43 23.49,133.77C22.99,128.91 22.95,124 22.34,119.15C22.21,117.86 21.74,117.15 20.53,116.63C17.8,116.05 14.9,116.75 12.15,115.78C6.56,113.84 2.85,108.8 1.86,103.06C-0.43,88.82 1.3,73.34 1.24,59C1.28,53.69 1.16,48.16 4.87,43.9C9.42,39.17 16.12,39.07 22.18,38.23C23.83,32 24.28,25.85 26.74,19.82C29.49,12.74 34.57,5.67 41.79,2.69C46.06,0.89 51.42,0.91 55.99,0.68ZM37.83,16.99C35.59,19.78 34.65,23.12 33.65,26.49C31.2,35.46 29.74,44.71 29.4,54C28.73,78.89 28.71,103.45 31.8,128.2C32.3,130.32 31.59,134.05 34.12,134.85C39.59,137.63 48.67,138.31 52.21,132.22C55.37,125.73 52.39,116.9 55.02,110.13C57.9,107.61 62.1,108.77 65.53,109.17C73.11,110.51 80.53,109.88 88.12,109.13C85.28,111.92 81.98,113.72 78.53,115.62C75.54,117.19 75.76,121.1 75.53,124C75.58,126 75.49,129.31 77.61,130.36C81.32,132.48 86.78,131.59 90.75,130.63C94.03,130.01 93.24,125.46 93.4,123.01C92.83,114.74 95.99,108.05 97.05,99.99C99.01,89.26 98.95,78.48 97.95,67.65C97.82,66.25 97.6,64.84 97.35,63.46C87.66,66.21 76.07,69.63 65.98,67.96C60.6,66.63 54.09,63.79 51.17,58.8C48.16,53.03 46.57,46.52 46.8,39.99C46.94,36.59 46.94,32.59 48.47,29.47C50.34,25.89 54.44,24.04 58.23,23.26C62.72,22.35 67.39,21.47 71.98,21.48C76.88,21.47 81.74,21.68 86.62,21.19C84.3,16.33 78.37,13.34 73.54,11.53C65.59,8.69 57.07,8.51 48.81,9.91C44.13,10.73 40.94,13.65 37.83,16.99ZM58.4,31.48L58.09,31.55C54.38,35.87 53.25,42.09 54.55,47.54C55.48,51.24 58.71,54.17 61.69,56.31C66.77,59.94 72.91,60.73 79.01,60.39C85.78,59.91 92.55,57.71 98.53,54.53C102.65,52.13 104.71,48.27 104.09,43.46C103.49,40.5 102.62,37.77 100.33,35.67C95.58,31.12 88.43,28.9 82,28.36C73.87,27.64 66.26,29.71 58.4,31.48ZM9.84,57.81C8.94,71.3 7.42,85.55 9.41,98.98C10.03,103.96 13.86,107.96 18.99,108.02C21.58,107.93 22.39,105.21 22.22,103.03C21.26,87.52 21.45,71.92 21.59,56.39C21.76,53.56 22.01,50.74 22.15,47.91C19.44,47.5 16.77,46.63 14.24,48.18C11.16,50 10.44,54.58 9.84,57.81Z" style="fill:rgb(1,0,0);fill-rule:nonzero;"/>
        <path id="p21" serif:id="p2" d="M73.54,11.53C78.37,13.34 84.3,16.33 86.62,21.19C81.74,21.68 76.88,21.47 71.98,21.48C67.39,21.47 62.72,22.35 58.23,23.26C54.44,24.04 50.34,25.89 48.47,29.47C46.94,32.59 46.94,36.59 46.8,39.99C46.57,46.52 48.16,53.03 51.17,58.8C54.09,63.79 60.6,66.63 65.98,67.96C76.07,69.63 87.66,66.21 97.35,63.46C97.6,64.84 97.82,66.25 97.95,67.65C96.15,73.64 94.98,79.76 93.64,85.86C92.4,91.45 87.65,95.91 82.01,96.83C74.54,98.21 66.44,98.63 59.04,96.72C54.51,95.64 48.81,94.02 45.66,90.37C42.17,86.11 39.97,80.57 38.74,75.24C36.09,64.05 34.99,52.49 35.35,41C35.48,33.25 35.31,24.41 37.83,16.99C40.94,13.65 44.13,10.73 48.81,9.91C57.07,8.51 65.59,8.69 73.54,11.53Z" style="fill:rgb(215,225,241);fill-rule:nonzero;"/>
        <path id="p31" serif:id="p3" d="M37.83,16.99C35.31,24.41 35.48,33.25 35.35,41C34.99,52.49 36.09,64.05 38.74,75.24C39.97,80.57 42.17,86.11 45.66,90.37C48.81,94.02 54.51,95.64 59.04,96.72C66.44,98.63 74.54,98.21 82.01,96.83C87.65,95.91 92.4,91.45 93.64,85.86C94.98,79.76 96.15,73.64 97.95,67.65C98.95,78.48 99.01,89.26 97.05,99.99C95.99,108.05 92.83,114.74 93.4,123.01C93.24,125.46 94.03,130.01 90.75,130.63C86.78,131.59 81.32,132.48 77.61,130.36C75.49,129.31 75.58,126 75.53,124C75.76,121.1 75.54,117.19 78.53,115.62C81.98,113.72 85.28,111.92 88.12,109.13C80.53,109.88 73.11,110.51 65.53,109.17C62.1,108.77 57.9,107.61 55.02,110.13C52.39,116.9 55.37,125.73 52.21,132.22C48.67,138.31 39.59,137.63 34.12,134.85C31.59,134.05 32.3,130.32 31.8,128.2C28.71,103.45 28.73,78.89 29.4,54C29.74,44.71 31.2,35.46 33.65,26.49C34.65,23.12 35.59,19.78 37.83,16.99Z" style="fill:rgb(132,149,192);fill-rule:nonzero;"/>
        <path id="p41" serif:id="p4" d="M82,28.36C88.43,28.9 95.58,31.12 100.33,35.67C102.62,37.77 103.49,40.5 104.09,43.46C101.77,44.9 99.74,46.38 96.96,46.8C91.03,47.71 84.99,48.13 79,48.47C74.21,48.6 68.62,48.58 64.82,45.19C60.82,41.73 59.98,36.24 58.4,31.48C66.26,29.71 73.87,27.64 82,28.36ZM82,39.56C86.22,39.93 90.77,40.7 94.97,40.06C96.59,39.71 97.45,37.78 96.67,36.35C95.32,33.46 92.56,32.96 89.78,32.16C85.18,31.09 79.77,30.05 75.13,31.2C71.69,31.88 71.34,38.48 75.12,38.69C77.39,39.12 79.71,39.31 82,39.56Z" style="fill:rgb(152,199,220);fill-rule:nonzero;"/>
        <path id="p51" serif:id="p5" d="M58.09,31.55L58.4,31.48C59.98,36.24 60.82,41.73 64.82,45.19C68.62,48.58 74.21,48.6 79,48.47C84.99,48.13 91.03,47.71 96.96,46.8C99.74,46.38 101.77,44.9 104.09,43.46C104.71,48.27 102.65,52.13 98.53,54.53C92.55,57.71 85.78,59.91 79.01,60.39C72.91,60.73 66.77,59.94 61.69,56.31C58.71,54.17 55.48,51.24 54.55,47.54C53.25,42.09 54.38,35.87 58.09,31.55Z" style="fill:rgb(74,100,110);fill-rule:nonzero;"/>
        <path id="p61" serif:id="p6" d="M75.13,31.2C79.77,30.05 85.18,31.09 89.78,32.16C92.56,32.96 95.32,33.46 96.67,36.35C97.45,37.78 96.59,39.71 94.97,40.06C90.77,40.7 86.22,39.93 82,39.56C79.71,39.31 77.39,39.12 75.12,38.69C71.34,38.48 71.69,31.88 75.13,31.2Z" style="fill:white;fill-rule:nonzero;"/>
        <path id="p71" serif:id="p7" d="M22.15,47.91C22.01,50.74 21.76,53.56 21.59,56.39C17.35,55.36 13.91,57.02 9.84,57.81C10.44,54.58 11.16,50 14.24,48.18C15.159,47.617 16.097,47.373 17.048,47.311C18.715,47.201 20.424,47.649 22.15,47.91Z" style="fill:rgb(215,225,241);fill-rule:nonzero;"/>
        <path id="p81" serif:id="p8" d="M21.59,56.39C21.45,71.92 21.26,87.52 22.22,103.03C22.39,105.21 21.58,107.93 18.99,108.02C13.86,107.96 10.03,103.96 9.41,98.98C7.42,85.55 8.94,71.3 9.84,57.81C13.91,57.02 17.35,55.36 21.59,56.39Z" style="fill:rgb(132,149,192);fill-rule:nonzero;"/>
        <path id="p91" serif:id="p9" d="M63.25,118.24C64.12,117.82 65.13,117.69 66.28,117.83C67.29,122.2 67.03,126.53 68.84,130.74C66.67,130.74 64.5,130.76 62.33,130.78C63.23,126.61 62.75,122.42 63.25,118.24Z" style="fill:white;fill-rule:nonzero;"/>
    </g>
    <g transform="matrix(0.608247,0,0,0.608247,-24.4654,-39.8619)">
        <g transform="matrix(1,0,0,1,25,72)">
            <path id="p11" serif:id="p1" d="M79,0.48C80.37,1.25 81.7,2.07 82.88,3.12C89.06,8.67 94.58,14.8 99.99,21.09C106.99,16.36 114.24,11.26 122.09,8.07C124.26,7.02 125.7,8.05 126.23,10.17C127.42,22.48 127.31,35.43 127.92,47.82C128.07,50.9 128.81,54.11 128.4,57.17C127.62,58.15 126.26,58.67 125.17,59.29C114.83,57.21 104.5,56.81 94.45,60.54C84.12,64.15 74.87,72.11 66.02,78.51C63.87,77.49 62.43,76.9 61.6,74.51C56.47,61.99 49.33,50.72 42.76,38.97C41.54,36.9 42.23,33.52 44.98,33.36C52.11,33.24 59.23,34.83 66.39,34.96C69.36,25.13 72.16,15.25 75.16,5.43C75.94,2.88 76.67,1.81 79,0.48ZM71.55,37.16C70.79,38.73 70.13,40.46 68.05,40.39C62.11,40.26 56.22,39.16 50.26,39.05C56.59,49.59 61.57,60.68 66.07,72.09C70.75,67.1 75.61,63.1 81.4,59.47C87.77,55.67 94.97,52.5 102.38,51.57C107.36,50.92 112.27,50.49 117.27,51.22C119.11,51.41 120.94,51.64 122.77,51.83C122.21,39.2 121.88,26.54 121.16,13.93C119.05,14.79 117.02,15.83 115.07,17C110.7,19.58 106.6,22.52 102.46,25.43C101.18,26.41 99.83,26.35 98.31,26.51C92.75,19.76 86.89,13.29 80.45,7.37C77.15,17.18 74.42,27.22 71.55,37.16Z" style="fill-rule:nonzero;stroke:black;stroke-width:10px;"/>
            <path id="p22" serif:id="p2" d="M80.45,7.37C86.89,13.29 92.75,19.76 98.31,26.51C100.48,34.65 101.08,43.25 102.38,51.57C94.97,52.5 87.77,55.67 81.4,59.47C79.86,56.91 78.63,54.22 77.56,51.43C75.67,46.59 73.08,42.15 71.55,37.16C74.42,27.22 77.15,17.18 80.45,7.37Z" style="fill-rule:nonzero;stroke:rgb(251,221,81);stroke-width:10px;"/>
            <path id="p32" serif:id="p3" d="M121.16,13.93C121.88,26.54 122.21,39.2 122.77,51.83C120.94,51.64 119.11,51.41 117.27,51.22C117.11,45.8 116.4,40.42 116.09,35C115.56,28.98 115.74,23.01 115.07,17C117.02,15.83 119.05,14.79 121.16,13.93Z" style="fill-rule:nonzero;stroke:rgb(251,221,81);stroke-width:10px;"/>
            <path id="p42" serif:id="p4" d="M115.07,17C115.74,23.01 115.56,28.98 116.09,35C116.4,40.42 117.11,45.8 117.27,51.22C112.27,50.49 107.36,50.92 102.38,51.57C101.08,43.25 100.48,34.65 98.31,26.51C99.83,26.35 101.18,26.41 102.46,25.43C106.6,22.52 110.7,19.58 115.07,17Z" style="fill-rule:nonzero;stroke:white;stroke-width:10px;"/>
            <path id="p52" serif:id="p5" d="M71.55,37.16C73.08,42.15 75.67,46.59 77.56,51.43C78.63,54.22 79.86,56.91 81.4,59.47C75.61,63.1 70.75,67.1 66.07,72.09C61.57,60.68 56.59,49.59 50.26,39.05C56.22,39.16 62.11,40.26 68.05,40.39C70.13,40.46 70.79,38.73 71.55,37.16Z" style="fill-rule:nonzero;stroke:rgb(161,106,38);stroke-width:10px;"/>
        </g>
        <g transform="matrix(1,0,0,1,25,72)">
            <g id="p12" serif:id="p1" transform="matrix(1.03475,0,0,1.08971,-3.46558,-4.04306)">
                <path d="M79,0.48C80.37,1.25 81.7,2.07 82.88,3.12C89.06,8.67 94.58,14.8 99.99,21.09C106.99,16.36 114.24,11.26 122.09,8.07C124.26,7.02 125.7,8.05 126.23,10.17C127.42,22.48 127.31,35.43 127.92,47.82C128.07,50.9 128.81,54.11 128.4,57.17C127.62,58.15 126.26,58.67 125.17,59.29C114.83,57.21 104.5,56.81 94.45,60.54C84.12,64.15 74.87,72.11 66.02,78.51C63.87,77.49 62.43,76.9 61.6,74.51C56.47,61.99 49.33,50.72 42.76,38.97C41.54,36.9 42.23,33.52 44.98,33.36C52.11,33.24 59.23,34.83 66.39,34.96C69.36,25.13 72.16,15.25 75.16,5.43C75.94,2.88 76.67,1.81 79,0.48ZM71.55,37.16C70.79,38.73 70.13,40.46 68.05,40.39C62.11,40.26 56.22,39.16 50.26,39.05C56.59,49.59 61.57,60.68 66.07,72.09C70.75,67.1 75.61,63.1 81.4,59.47C87.77,55.67 94.97,52.5 102.38,51.57C107.36,50.92 112.27,50.49 117.27,51.22C119.11,51.41 120.94,51.64 122.77,51.83C122.21,39.2 121.88,26.54 121.16,13.93C119.05,14.79 117.02,15.83 115.07,17C110.7,19.58 106.6,22.52 102.46,25.43C101.18,26.41 99.83,26.35 98.31,26.51C92.75,19.76 86.89,13.29 80.45,7.37C77.15,17.18 74.42,27.22 71.55,37.16Z" style="fill-rule:nonzero;"/>
            </g>
            <path id="p23" serif:id="p2" d="M80.45,7.37C86.89,13.29 92.75,19.76 98.31,26.51C100.48,34.65 101.08,43.25 102.38,51.57C94.97,52.5 87.77,55.67 81.4,59.47C79.86,56.91 78.63,54.22 77.56,51.43C75.67,46.59 73.08,42.15 71.55,37.16C74.42,27.22 77.15,17.18 80.45,7.37Z" style="fill:rgb(251,221,81);fill-rule:nonzero;"/>
            <path id="p33" serif:id="p3" d="M121.16,13.93C121.88,26.54 122.21,39.2 122.77,51.83C120.94,51.64 119.11,51.41 117.27,51.22C117.11,45.8 116.4,40.42 116.09,35C115.56,28.98 115.74,23.01 115.07,17C117.02,15.83 119.05,14.79 121.16,13.93Z" style="fill:rgb(251,221,81);fill-rule:nonzero;"/>
            <path id="p43" serif:id="p4" d="M115.07,17C115.74,23.01 115.56,28.98 116.09,35C116.4,40.42 117.11,45.8 117.27,51.22C112.27,50.49 107.36,50.92 102.38,51.57C101.08,43.25 100.48,34.65 98.31,26.51C99.83,26.35 101.18,26.41 102.46,25.43C106.6,22.52 110.7,19.58 115.07,17Z" style="fill:white;fill-rule:nonzero;"/>
            <path id="p53" serif:id="p5" d="M71.55,37.16C73.08,42.15 75.67,46.59 77.56,51.43C78.63,54.22 79.86,56.91 81.4,59.47C75.61,63.1 70.75,67.1 66.07,72.09C61.57,60.68 56.59,49.59 50.26,39.05C56.22,39.16 62.11,40.26 68.05,40.39C70.13,40.46 70.79,38.73 71.55,37.16Z" style="fill:rgb(161,106,38);fill-rule:nonzero;"/>
        </g>
    </g>
</svg>
