<?xml version="1.0" encoding="UTF-8" standalone="no"?>
<!DOCTYPE svg PUBLIC "-//W3C//DTD SVG 1.1//EN" "http://www.w3.org/Graphics/SVG/1.1/DTD/svg11.dtd">
<svg width="100%" height="100%" viewBox="0 0 592 121" version="1.1" xmlns="http://www.w3.org/2000/svg" xmlns:xlink="http://www.w3.org/1999/xlink" xml:space="preserve" xmlns:serif="http://www.serif.com/" style="fill-rule:evenodd;clip-rule:evenodd;">
    <g>
        <path id="p1" d="M55,7.99C212.66,8 370.33,7.99 528,8C535.33,8.06 542.34,7.54 549.49,9.39C564.43,13.01 577.14,24.13 582.69,38.47C586.72,48.27 586.3,59.13 585.67,69.51C584.96,67.22 584.1,64.99 583.23,62.75C582.45,69.75 581.24,76.51 577.96,82.82C572.52,93.88 562.24,103.15 550.22,106.35C543.49,108.47 536.97,107.91 530,107.98C374,107.97 218,107.97 62,107.98C54.99,107.91 48.45,108.48 41.68,106.33C29.46,103.05 19.07,93.52 13.66,82.22C11.86,78.45 9.76,75.52 6.8,72.57C5.64,65.17 5.76,57.42 6.41,49.98C8.04,36.16 16.09,23.32 27.81,15.81C35.84,10.47 45.38,7.85 55,7.99ZM15.82,33.94C19.65,30.57 22.95,27.11 27.19,24.22C34.18,19.45 42.52,16.53 50.99,16.12C55.98,15.86 61,16.01 66,15.98C220,15.98 374,15.99 528,15.98C534.81,16.02 542.24,15.61 548.86,17.21C555.67,18.81 562.2,21.91 567.63,26.33C570.58,28.73 573.3,31.42 576.18,33.91C570.24,24.31 561.18,16.87 550.27,13.72C542.8,11.51 535.67,12.03 528,12C370,12.01 212,11.99 54,12.01C38.29,11.87 23.87,20.61 15.82,33.94ZM47.37,47.56L47.23,48.52C45.72,52.55 45.24,55.51 45.51,59.83C44.52,68.18 42.5,76.45 42.01,84.85C46.7,85.05 51.38,85.01 56.07,84.98C55.73,87.26 55.45,89.54 55.2,91.83C59.64,91.97 64.34,92.4 68.72,91.59C70.76,86.15 70.49,80.07 72.29,74.48C78.85,74.07 85.28,74.21 90.36,69.34C95.73,64.1 96.42,57.34 96.08,50.2C96.3,45.57 94.7,43.26 91.83,39.93C91.32,35.53 91.49,31.31 87.94,28.07C82.99,23.71 77.22,23.86 71,23.95C64.44,24.24 57.75,23.52 51.24,24.3C50.09,25.94 49.76,28.26 49.38,30.2C48.54,36.01 47.33,41.66 47.37,47.56ZM125.62,35.6C125.43,37.16 125.31,38.73 125.17,40.3C123.6,53.37 121.11,66.35 119.23,79.39C122.62,79.7 125.88,79.69 129.27,79.34C129.97,75.02 130.66,70.7 131.52,66.4C137.54,65.99 143.85,66.87 148.86,62.85C153.97,58.6 154.9,51.72 154.22,45.46C153.95,43.44 154.07,40.98 152.67,39.35C150.02,36.12 146,35.36 142.03,35.26C136.57,35.16 131.05,35.05 125.62,35.6ZM227.99,45.22C226.52,56.63 224.46,67.97 222.75,79.34C226.18,79.7 229.5,79.73 232.92,79.33C233.67,75.14 233.69,70.42 235.41,66.51C239.79,65.81 244.62,66.61 248.83,64.9C251.99,63.7 253.94,61.39 256.1,58.91C256.05,61.02 256.06,63.14 255.99,65.25C255.65,69.9 255.81,74.18 259.42,77.58C264.2,81.75 271.73,80.76 276.44,76.94L277.13,79.28C279.77,79.89 282.72,79.82 285.4,79.36C286.78,76.49 286.9,72.92 287.47,69.81C288.22,64.14 289.58,58.47 289.83,52.76C289.84,51.44 289.85,50.13 289.84,48.81C286.18,48.5 282.98,48.44 279.57,50.01C275.42,48.21 271.29,47.28 266.86,48.79C261.84,50.26 259.27,54.35 256.33,58.32C257.63,54.27 258.24,50.24 257.87,45.99C257.62,43.15 257.71,40.63 255.52,38.51C252.08,35.44 247.37,35.23 243,35.21C238.5,35.28 233.87,34.96 229.41,35.61C228.05,38.52 228.24,42.06 227.99,45.22ZM296.01,45.2C294.64,56.48 292.25,67.67 290.99,78.94C292.92,80.18 296.36,79.68 298.59,79.47C299.93,79.5 300.01,77.77 300.31,76.82C301.75,68.22 303,59.58 304.41,50.98C305.01,47.15 305.81,43.2 305.88,39.35C305.85,37.99 305.8,36.64 305.74,35.28C302.94,35.25 300.04,35.1 297.26,35.46C296.08,38.49 296.22,41.98 296.01,45.2ZM331.85,53.43C331.06,59.38 330.38,65.01 333.57,70.43C337.85,78 350.04,79.17 355.75,72.73C357.79,70.54 358.58,67.81 359.62,65.08L358.31,65.05C358.54,63.71 358.77,62.36 358.99,61.02C356.92,61.04 354.84,61.07 352.77,61.11C351.18,63.81 350.53,66.57 347.01,67.17C342.06,67.93 339.84,64.51 337.93,60.62C338.1,55.95 339.37,49.85 345.04,49.37C349.39,48.98 351.04,51.3 352.79,54.83L359.38,54.83C359.25,53.77 359.12,52.7 358.97,51.64C358.59,49.18 358.68,46.95 357.11,44.89C353.58,39.94 346.72,38.91 341.17,40.32C335.42,42.06 331.7,47.43 331.85,53.43ZM364.27,40.19C364.25,41.54 364.23,42.9 364.21,44.25C364.16,54.83 364.21,65.41 364.19,75.99C366.34,75.99 368.49,75.98 370.64,75.98C370.72,71 370.28,65.92 370.84,60.97C371.09,58.17 374.02,56.19 376.64,57.34C378.55,58.26 378.47,60.11 378.62,61.94C378.74,66.63 378.57,71.32 378.61,76.01C380.87,76.01 383.13,76 385.4,76C385.26,69.48 385.61,62.9 385.07,56.4C384.72,53.41 384.79,50.81 381.85,49.15C377.82,46.85 374.39,48.38 370.62,50.21C370.63,48.19 370.61,46.17 370.55,44.16C370.49,42.82 370.41,41.48 370.34,40.14C368.31,40.16 366.29,40.18 364.27,40.19ZM440.03,40.22C440.02,41.54 440.01,42.85 440,44.17C440,54.78 439.99,65.4 440.01,76.01C442.13,75.99 444.26,75.98 446.39,75.96C446.39,73.47 446.4,70.98 446.43,68.49C447.13,67.69 447.83,66.89 448.54,66.09C450.36,69.4 452.19,72.7 454.01,76.01C456.43,76.01 458.85,76 461.26,76.01C460.75,74.96 460.28,73.89 459.81,72.81C460.01,72.05 460.15,71.3 460.22,70.57C458.85,66.76 456.26,63.35 454.42,59.74C456.66,57.32 458.92,54.91 461.15,52.48C460.07,52.45 458.99,52.43 457.9,52.41C458.7,51.12 459.5,49.83 460.3,48.54C458.2,48.51 456.1,48.49 454,48.47C451.69,51.24 449.33,53.95 446.88,56.59C446.75,51.12 446.77,45.68 446.05,40.24C444.05,40.23 442.04,40.23 440.03,40.22ZM531.28,41.75C531.26,43.06 531.24,44.36 531.22,45.67C531.2,46.46 531.18,47.25 531.18,48.03C530.14,48.23 529.1,48.42 528.06,48.61C528.04,49.86 528.03,51.11 528.01,52.36C528,53.84 527.99,55.32 527.98,56.8C529.06,56.82 530.14,56.84 531.22,56.87C531.48,62.51 530.49,68.71 531.71,74.2C533.65,77.04 538.5,76.27 541.44,76.11C541.42,74.56 541.4,73.01 541.38,71.46C540.15,71.41 538.92,71.36 537.69,71.31C537.57,66.48 537.62,61.66 537.6,56.84C538.87,56.83 540.14,56.82 541.41,56.81C541.39,55.32 541.37,53.84 541.34,52.35C541.32,51.13 541.29,49.91 541.27,48.69C540.04,48.61 538.82,48.52 537.6,48.44C537.6,47.49 537.59,46.54 537.58,45.59C537.57,44.35 537.56,43.11 537.55,41.87C535.46,41.83 533.37,41.79 531.28,41.75ZM152.36,65.55C152.04,70.45 152.52,75.12 156.73,78.28C162.09,81.78 168.23,80.37 173.21,76.94C173.28,77.84 173.33,78.74 173.38,79.64C176.35,79.64 179.32,79.59 182.28,79.42C183.73,70.57 185.56,61.67 186.29,52.74C186.3,51.4 186.3,50.07 186.28,48.73C182.69,48.62 179.43,48.34 176.16,50.14C172.55,48.65 169.17,47.41 165.18,48.31C157.16,49.84 151.86,57.53 152.36,65.55ZM389.78,59.44C389.34,63.57 388.84,68.18 391.12,71.89C394.69,77.43 403.44,78.48 408.5,74.45C410.11,73.1 411.21,70.98 412.33,69.22L410.04,69.1C410.65,68.07 411.24,67.03 411.82,65.99C411.98,63.95 411.97,61.88 411.82,59.85C411.58,57.09 411.49,54.58 409.73,52.3C405.72,46.6 396.16,46.41 391.97,51.98C390.13,54.23 390.13,56.7 389.78,59.44ZM413.97,61.27C413.9,66 413.69,71.01 417.47,74.49C421.97,78.14 430.36,77.8 433.69,72.65C434.85,71.08 435.36,69.25 435.59,67.33C435.47,66.09 435.33,64.84 435.19,63.6C433.43,63.54 431.68,63.47 429.92,63.42C428.2,65.46 427.54,68.5 424.24,67.68C420.9,67.02 421.04,63.65 420.8,60.95C421.36,59.16 422.38,57.71 424.22,57.08C425.46,57.1 426.72,57.46 427.93,57.72C428.31,58.82 428.68,59.92 429.06,61.02C431.25,61.01 433.44,61 435.64,61C435.41,59.66 435.2,58.32 434.98,56.98C434.44,54.15 434.81,51.66 432.12,49.89C427.82,47.13 420.7,47.07 417.1,51.1C414.36,54.01 414.11,57.47 413.97,61.27ZM475.03,64.1C475.19,69.12 477.16,73.98 482.07,75.98C486.84,77.74 493.54,77.12 496.73,72.7C499.5,69.02 499.61,64.83 499.13,60.42C498.87,55.45 497.24,50.66 492.24,48.74C487.89,47.26 481.61,47.7 478.44,51.44C475.27,55.11 474.99,59.46 475.03,64.1ZM190.06,48.77C190.01,50.09 189.98,51.41 189.97,52.73C190.97,60.08 194.51,67.1 196.62,74.2C194.39,77.1 192.24,80.06 190.14,83.06C190.45,84.04 190.76,85.02 191.07,86C190.58,86.92 190.16,87.89 189.71,88.84C192.96,89.01 196.2,89.01 199.45,88.9C207.35,77.32 215.67,65.94 223.31,54.2L223.21,52.66C223.09,51.34 222.96,50.02 222.82,48.7C219.9,48.7 216.99,48.72 214.08,48.76C210.67,53.64 207.53,58.68 203.94,63.44C202.66,59.82 201.67,56.11 200.54,52.44C199.92,50.99 199.81,49.22 198.01,48.84C195.42,48.42 192.67,48.69 190.06,48.77ZM503.85,48.51C503.28,55.51 502.82,62.77 503.69,69.76C504.27,73.9 506.73,76.74 511.04,76.87C514.51,77.22 516.51,75.53 518.85,73.32C518.75,74.21 518.65,75.1 518.55,75.99L524.82,75.99C524.79,68.16 524.88,60.34 524.77,52.52C524.74,51.16 524.69,49.8 524.64,48.45C522.61,48.47 520.58,48.49 518.56,48.52C518.06,53.97 518.42,59.48 517.8,64.91C517.98,67.7 512.62,68.49 511.28,66.9C510.2,60.91 510.99,54.65 510.19,48.58C508.08,48.55 505.96,48.53 503.85,48.51Z" style="fill-rule:nonzero;stroke:rgb(1,156,222);stroke-width:10px;"/>
        <path id="p2" d="M54,12.01C212,11.99 370,12.01 528,12C535.67,12.03 542.8,11.51 550.27,13.72C561.18,16.87 570.24,24.31 576.18,33.91C573.3,31.42 570.58,28.73 567.63,26.33C562.2,21.91 555.67,18.81 548.86,17.21C542.24,15.61 534.81,16.02 528,15.98C374,15.99 220,15.98 66,15.98C61,16.01 55.98,15.86 50.99,16.12C42.52,16.53 34.18,19.45 27.19,24.22C22.95,27.11 19.65,30.57 15.82,33.94C23.87,20.61 38.29,11.87 54,12.01Z" style="fill-rule:nonzero;stroke:rgb(78,186,233);stroke-width:10px;"/>
        <path id="p3" d="M51.24,24.3C57.75,23.52 64.44,24.24 71,23.95C77.22,23.86 82.99,23.71 87.94,28.07C91.49,31.31 91.32,35.53 91.83,39.93C94.7,43.26 96.3,45.57 96.08,50.2C94.94,47.74 93.25,45.9 91.23,44.15L91.29,43.72C91.47,40.39 91.5,37.27 89.62,34.36C86.91,30.05 81.87,28.41 77.03,28.1C71.69,27.84 66.34,28.09 61,28C57.8,28.02 54.45,27.77 51.28,28.32C50.18,29.66 50.09,31.33 49.74,32.98C48.96,37.85 48.33,42.73 47.37,47.56C47.33,41.66 48.54,36.01 49.38,30.2C49.76,28.26 50.09,25.94 51.24,24.3Z" style="fill-rule:nonzero;stroke:rgb(1,110,156);stroke-width:10px;"/>
        <path id="p4" d="M51.28,28.32C54.45,27.77 57.8,28.02 61,28C66.34,28.09 71.69,27.84 77.03,28.1C81.87,28.41 86.91,30.05 89.62,34.36C91.5,37.27 91.47,40.39 91.29,43.72C83.55,41.22 75.98,41.9 67.99,41.87C65.72,42.12 63.26,41.49 62.47,44.26C60.68,50.81 60.15,57.76 59.1,64.47C58.3,71.35 57.06,78.13 56.07,84.98C51.38,85.01 46.7,85.05 42.01,84.85C42.5,76.45 44.52,68.18 45.51,59.83C46.21,56.08 46.84,52.32 47.23,48.52L47.37,47.56C48.33,42.73 48.96,37.85 49.74,32.98C50.09,31.33 50.18,29.66 51.28,28.32Z" style="fill-rule:nonzero;stroke:white;stroke-width:10px;"/>
        <path id="p5" d="M142.03,35.26C146,35.36 150.02,36.12 152.67,39.35C154.07,40.98 153.95,43.44 154.22,45.46C152.65,43.33 151.22,41.35 148.63,40.41C144.22,38.75 138.68,39.36 134,39.21C131.05,39.34 127.72,38.71 125.17,40.3C125.31,38.73 125.43,37.16 125.62,35.6C131.05,35.05 136.57,35.16 142.03,35.26Z" style="fill-rule:nonzero;stroke:rgb(1,109,156);stroke-width:10px;"/>
        <path id="p6" d="M229.41,35.61C233.87,34.96 238.5,35.28 243,35.21C247.37,35.23 252.08,35.44 255.52,38.51C257.71,40.63 257.62,43.15 257.87,45.99C255.57,41.57 252.64,39.9 247.74,39.41C241.74,39.2 235.51,38.94 229.54,39.54C228.71,41.3 228.34,43.32 227.99,45.22C228.24,42.06 228.05,38.52 229.41,35.61Z" style="fill-rule:nonzero;stroke:rgb(1,109,155);stroke-width:10px;"/>
        <path id="p7" d="M297.26,35.46C300.04,35.1 302.94,35.25 305.74,35.28C305.8,36.64 305.85,37.99 305.88,39.35C302.98,39.25 300.11,39.18 297.22,39.35C296.73,41.28 296.33,43.23 296.01,45.2C296.22,41.98 296.08,38.49 297.26,35.46Z" style="fill-rule:nonzero;stroke:rgb(1,109,155);stroke-width:10px;"/>
        <path id="p8" d="M134,39.21C138.68,39.36 144.22,38.75 148.63,40.41C151.22,41.35 152.65,43.33 154.22,45.46C154.9,51.72 153.97,58.6 148.86,62.85C143.85,66.87 137.54,65.99 131.52,66.4C130.66,70.7 129.97,75.02 129.27,79.34C125.88,79.69 122.62,79.7 119.23,79.39C121.11,66.35 123.6,53.37 125.17,40.3C127.72,38.71 131.05,39.34 134,39.21ZM134.54,47.39C134.03,49.62 133.67,51.88 133.3,54.14C133.08,55.48 132.87,56.82 132.66,58.17C135.28,57.97 138.56,58.27 140.95,57.06C143.09,55.95 143.29,52.8 143.9,50.73C141.83,46.64 138.42,47.5 134.54,47.39Z" style="fill-rule:nonzero;stroke:rgb(254,254,254);stroke-width:10px;"/>
        <path id="p9" d="M247.74,39.41C252.64,39.9 255.57,41.57 257.87,45.99C258.24,50.24 257.63,54.27 256.33,58.32L256.1,58.91C253.94,61.39 251.99,63.7 248.83,64.9C244.62,66.61 239.79,65.81 235.41,66.51C233.69,70.42 233.67,75.14 232.92,79.33C229.5,79.73 226.18,79.7 222.75,79.34C224.46,67.97 226.52,56.63 227.99,45.22C228.34,43.32 228.71,41.3 229.54,39.54C235.51,38.94 241.74,39.2 247.74,39.41ZM236.8,54.25C236.61,55.56 236.43,56.87 236.26,58.19C238.8,57.98 241.78,58.22 244.16,57.23C246.74,56.04 246.78,53.11 247.43,50.72C245.47,46.86 241.96,47.23 238.22,47.46C237.4,49.6 237.17,52 236.8,54.25Z" style="fill-rule:nonzero;stroke:rgb(254,254,254);stroke-width:10px;"/>
        <path id="p10" d="M297.22,39.35C300.11,39.18 302.98,39.25 305.88,39.35C305.81,43.2 305.01,47.15 304.41,50.98C303,59.58 301.75,68.22 300.31,76.82C300.01,77.77 299.93,79.5 298.59,79.47C296.36,79.68 292.92,80.18 290.99,78.94C292.25,67.67 294.64,56.48 296.01,45.2C296.33,43.23 296.73,41.28 297.22,39.35Z" style="fill-rule:nonzero;stroke:rgb(254,254,254);stroke-width:10px;"/>
        <path id="p11" d="M341.17,40.32C346.72,38.91 353.58,39.94 357.11,44.89C358.68,46.95 358.59,49.18 358.97,51.64C357.2,48.78 355.39,46.21 352.17,44.87C347.32,42.98 341.54,43.11 337.2,46.19C334.64,48 333.24,50.71 331.85,53.43C331.7,47.43 335.42,42.06 341.17,40.32Z" style="fill-rule:nonzero;stroke:rgb(2,109,155);stroke-width:10px;"/>
        <path id="p12" d="M364.27,40.19C366.29,40.18 368.31,40.16 370.34,40.14C370.41,41.48 370.49,42.82 370.55,44.16C368.44,44.17 366.31,44.16 364.21,44.25C364.23,42.9 364.25,41.54 364.27,40.19Z" style="fill-rule:nonzero;stroke:rgb(1,109,159);stroke-width:10px;"/>
        <path id="p13" d="M440.03,40.22C442.04,40.23 444.05,40.23 446.05,40.24C446.77,45.68 446.75,51.12 446.88,56.59C449.33,53.95 451.69,51.24 454,48.47C456.1,48.49 458.2,48.51 460.3,48.54C459.5,49.83 458.7,51.12 457.9,52.41C456.54,52.39 455.17,52.39 453.8,52.39C451.36,55.45 448.82,58.44 446.33,61.47C446.45,55.71 446.41,49.95 446.38,44.18C444.26,44.18 442.13,44.18 440,44.17C440.01,42.85 440.02,41.54 440.03,40.22Z" style="fill-rule:nonzero;stroke:rgb(1,108,158);stroke-width:10px;"/>
        <path id="p14" d="M67.99,41.87C75.98,41.9 83.55,41.22 91.29,43.72L91.23,44.15C89.78,50.76 87.42,56.71 81.34,60.34C73.89,64.89 67.15,62.64 59.1,64.47C60.15,57.76 60.68,50.81 62.47,44.26C63.26,41.49 65.72,42.12 67.99,41.87Z" style="fill-rule:nonzero;stroke:rgb(230,245,252);stroke-width:10px;"/>
        <path id="p15" d="M531.28,41.75C533.37,41.79 535.46,41.83 537.55,41.87C537.56,43.11 537.57,44.35 537.58,45.59C535.46,45.6 533.34,45.59 531.22,45.67C531.24,44.36 531.26,43.06 531.28,41.75Z" style="fill-rule:nonzero;stroke:rgb(1,107,155);stroke-width:10px;"/>
        <path id="p16" d="M352.17,44.87C355.39,46.21 357.2,48.78 358.97,51.64C359.12,52.7 359.25,53.77 359.38,54.83L352.79,54.83C351.04,51.3 349.39,48.98 345.04,49.37C339.37,49.85 338.1,55.95 337.93,60.62C338.32,63.75 338.42,66.86 340.85,69.16C343.22,71.66 347.13,71.89 349.86,69.84C351.12,68.51 351.86,66.6 352.7,65C354.57,65.01 356.44,65.02 358.31,65.05L359.62,65.08C358.58,67.81 357.79,70.54 355.75,72.73C350.04,79.17 337.85,78 333.57,70.43C330.38,65.01 331.06,59.38 331.85,53.43C333.24,50.71 334.64,48 337.2,46.19C341.54,43.11 347.32,42.98 352.17,44.87Z" style="fill-rule:nonzero;stroke:rgb(253,254,253);stroke-width:10px;"/>
        <path id="p17" d="M364.21,44.25C366.31,44.16 368.44,44.17 370.55,44.16C370.61,46.17 370.63,48.19 370.62,50.21C370.59,51.75 370.56,53.29 370.5,54.83C372.87,53.02 374.88,51.62 378.04,51.99C381.29,52.03 383.25,53.97 385.07,56.4C385.61,62.9 385.26,69.48 385.4,76C383.13,76 380.87,76.01 378.61,76.01C378.57,71.32 378.74,66.63 378.62,61.94C378.47,60.11 378.55,58.26 376.64,57.34C374.02,56.19 371.09,58.17 370.84,60.97C370.28,65.92 370.72,71 370.64,75.98C368.49,75.98 366.34,75.99 364.19,75.99C364.21,65.41 364.16,54.83 364.21,44.25Z" style="fill-rule:nonzero;stroke:rgb(254,254,254);stroke-width:10px;"/>
        <path id="p18" d="M440,44.17C442.13,44.18 444.26,44.18 446.38,44.18C446.41,49.95 446.45,55.71 446.33,61.47C448.82,58.44 451.36,55.45 453.8,52.39C455.17,52.39 456.54,52.39 457.9,52.41C458.99,52.43 460.07,52.45 461.15,52.48C458.92,54.91 456.66,57.32 454.42,59.74C453.93,60.27 453.43,60.8 452.94,61.33C455.23,65.15 457.22,69.19 459.81,72.81C460.28,73.89 460.75,74.96 461.26,76.01C458.85,76 456.43,76.01 454.01,76.01C452.19,72.7 450.36,69.4 448.54,66.09C447.83,66.89 447.13,67.69 446.43,68.49C446.4,70.98 446.39,73.47 446.39,75.96C444.26,75.98 442.13,75.99 440.01,76.01C439.99,65.4 440,54.78 440,44.17Z" style="fill-rule:nonzero;stroke:rgb(253,254,253);stroke-width:10px;"/>
        <path id="p19" d="M91.23,44.15C93.25,45.9 94.94,47.74 96.08,50.2C96.42,57.34 95.73,64.1 90.36,69.34C85.28,74.21 78.85,74.07 72.29,74.48C70.49,80.07 70.76,86.15 68.72,91.59C64.34,92.4 59.64,91.97 55.2,91.83C55.45,89.54 55.73,87.26 56.07,84.98C57.06,78.13 58.3,71.35 59.1,64.47C67.15,62.64 73.89,64.89 81.34,60.34C87.42,56.71 89.78,50.76 91.23,44.15Z" style="fill-rule:nonzero;stroke:rgb(173,223,244);stroke-width:10px;"/>
        <path id="p20" d="M531.22,45.67C533.34,45.59 535.46,45.6 537.58,45.59C537.59,46.54 537.6,47.49 537.6,48.44C537.6,49.76 537.61,51.08 537.61,52.4C538.85,52.39 540.1,52.37 541.34,52.35C541.37,53.84 541.39,55.32 541.41,56.81C540.14,56.82 538.87,56.83 537.6,56.84C537.62,61.66 537.57,66.48 537.69,71.31C538.92,71.36 540.15,71.41 541.38,71.46C541.4,73.01 541.42,74.56 541.44,76.11C538.5,76.27 533.65,77.04 531.71,74.2C530.49,68.71 531.48,62.51 531.22,56.87C530.14,56.84 529.06,56.82 527.98,56.8C527.99,55.32 528,53.84 528.01,52.36C529.07,52.38 530.12,52.4 531.18,52.42C531.18,50.95 531.17,49.49 531.18,48.03C531.18,47.25 531.2,46.46 531.22,45.67Z" style="fill-rule:nonzero;stroke:rgb(254,254,253);stroke-width:10px;"/>
        <path id="p21" d="M143.9,50.73C140.29,53.8 138,54.14 133.3,54.14C133.67,51.88 134.03,49.62 134.54,47.39C138.42,47.5 141.83,46.64 143.9,50.73Z" style="fill-rule:nonzero;stroke:rgb(1,156,223);stroke-width:10px;"/>
        <path id="p22" d="M238.22,47.46C241.96,47.23 245.47,46.86 247.43,50.72C244.02,53.75 241.27,54.12 236.8,54.25C237.17,52 237.4,49.6 238.22,47.46Z" style="fill-rule:nonzero;stroke:rgb(2,156,222);stroke-width:10px;"/>
        <path id="p23" d="M165.18,48.31C169.17,47.41 172.55,48.65 176.16,50.14C179.43,48.34 182.69,48.62 186.28,48.73C186.3,50.07 186.3,51.4 186.29,52.74C183.5,52.75 180.42,52.36 177.7,53.02L176.47,54.8C171.05,50.47 162.93,51.43 157.92,55.9C154.93,58.48 153.49,61.87 152.36,65.55C151.86,57.53 157.16,49.84 165.18,48.31Z" style="fill-rule:nonzero;stroke:rgb(1,109,154);stroke-width:10px;"/>
        <path id="p24" d="M279.57,50.01C282.98,48.44 286.18,48.5 289.84,48.81C289.85,50.13 289.84,51.44 289.83,52.76C286.82,52.69 283.81,52.69 280.81,52.72C280.65,53.47 280.5,54.23 280.35,54.99C274.71,50.44 266.31,51.31 261.15,56.16C258.43,58.63 257.07,61.81 255.99,65.25C256.06,63.14 256.05,61.02 256.1,58.91L256.33,58.32C259.27,54.35 261.84,50.26 266.86,48.79C271.29,47.28 275.42,48.21 279.57,50.01Z" style="fill-rule:nonzero;stroke:rgb(2,109,155);stroke-width:10px;"/>
        <path id="p25" d="M381.85,49.15C384.79,50.81 384.72,53.41 385.07,56.4C383.25,53.97 381.29,52.03 378.04,51.99C374.88,51.62 372.87,53.02 370.5,54.83C370.56,53.29 370.59,51.75 370.62,50.21C374.39,48.38 377.82,46.85 381.85,49.15Z" style="fill-rule:nonzero;stroke:rgb(1,110,154);stroke-width:10px;"/>
        <path id="p26" d="M409.73,52.3C411.49,54.58 411.58,57.09 411.82,59.85C410.36,56.71 408.69,53.93 405.26,52.69C401.7,51.48 397.07,51.63 393.96,53.95C391.98,55.39 390.94,57.35 389.78,59.44C390.13,56.7 390.13,54.23 391.97,51.98C396.16,46.41 405.72,46.6 409.73,52.3Z" style="fill-rule:nonzero;stroke:rgb(1,109,155);stroke-width:10px;"/>
        <path id="p27" d="M432.12,49.89C434.81,51.66 434.44,54.15 434.98,56.98C431.8,51.65 425.31,50.92 419.92,52.95C416.35,54.6 415.11,57.76 413.97,61.27C414.11,57.47 414.36,54.01 417.1,51.1C420.7,47.07 427.82,47.13 432.12,49.89Z" style="fill-rule:nonzero;stroke:rgb(1,110,156);stroke-width:10px;"/>
        <path id="p28" d="M492.24,48.74C497.24,50.66 498.87,55.45 499.13,60.42C497.44,56.82 495.66,53.65 491.58,52.48C487.52,51.52 481.96,51.62 478.86,54.86C476.3,57.39 475.44,60.62 475.03,64.1C474.99,59.46 475.27,55.11 478.44,51.44C481.61,47.7 487.89,47.26 492.24,48.74Z" style="fill-rule:nonzero;stroke:rgb(1,109,155);stroke-width:10px;"/>
        <path id="p29" d="M528.06,48.61C529.1,48.42 530.14,48.23 531.18,48.03C531.17,49.49 531.18,50.95 531.18,52.42C530.12,52.4 529.07,52.38 528.01,52.36C528.03,51.11 528.04,49.86 528.06,48.61Z" style="fill-rule:nonzero;stroke:rgb(3,115,162);stroke-width:10px;"/>
        <path id="p30" d="M47.23,48.52C46.84,52.32 46.21,56.08 45.51,59.83C45.24,55.51 45.72,52.55 47.23,48.52Z" style="fill-rule:nonzero;stroke:rgb(41,142,187);stroke-width:10px;"/>
        <path id="p31" d="M190.06,48.77C192.67,48.69 195.42,48.42 198.01,48.84C199.81,49.22 199.92,50.99 200.54,52.44C201.67,56.11 202.66,59.82 203.94,63.44C207.53,58.68 210.67,53.64 214.08,48.76C216.99,48.72 219.9,48.7 222.82,48.7C222.96,50.02 223.09,51.34 223.21,52.66C220.24,52.7 217.09,52.42 214.17,53.02C210.36,57.54 207.42,62.85 203.92,67.63C202.19,62.83 201.41,57.39 199.01,52.9C196.04,52.51 192.96,52.68 189.97,52.73C189.98,51.41 190.01,50.09 190.06,48.77Z" style="fill-rule:nonzero;stroke:rgb(1,109,153);stroke-width:10px;"/>
        <path id="p32" d="M503.85,48.51C505.96,48.53 508.08,48.55 510.19,48.58C510.99,54.65 510.2,60.91 511.28,66.9C512.62,68.49 517.98,67.7 517.8,64.91C518.42,59.48 518.06,53.97 518.56,48.52C520.58,48.49 522.61,48.47 524.64,48.45C524.69,49.8 524.74,51.16 524.77,52.52C523,52.37 521.23,52.21 519.47,52.03C517.21,57.1 519.24,63.79 517.93,68.89C517.13,72.43 510.39,72.91 510.52,68.59C510.15,63.22 510.53,57.78 510.38,52.39C508.13,52.38 505.88,52.38 503.64,52.38C503.63,58.17 503.46,63.97 503.69,69.76C502.82,62.77 503.28,55.51 503.85,48.51Z" style="fill-rule:nonzero;stroke:rgb(1,110,157);stroke-width:10px;"/>
        <path id="p33" d="M537.6,48.44C538.82,48.52 540.04,48.61 541.27,48.69C541.29,49.91 541.32,51.13 541.34,52.35C540.1,52.37 538.85,52.39 537.61,52.4C537.61,51.08 537.6,49.76 537.6,48.44Z" style="fill-rule:nonzero;stroke:rgb(3,109,154);stroke-width:10px;"/>
        <path id="p34" d="M143.9,50.73C143.29,52.8 143.09,55.95 140.95,57.06C138.56,58.27 135.28,57.97 132.66,58.17C132.87,56.82 133.08,55.48 133.3,54.14C138,54.14 140.29,53.8 143.9,50.73Z" style="fill-rule:nonzero;stroke:rgb(1,109,155);stroke-width:10px;"/>
        <path id="p35" d="M247.43,50.72C246.78,53.11 246.74,56.04 244.16,57.23C241.78,58.22 238.8,57.98 236.26,58.19C236.43,56.87 236.61,55.56 236.8,54.25C241.27,54.12 244.02,53.75 247.43,50.72Z" style="fill-rule:nonzero;stroke:rgb(1,109,156);stroke-width:10px;"/>
        <path id="p36" d="M176.47,54.8L177.7,53.02C180.42,52.36 183.5,52.75 186.29,52.74C185.56,61.67 183.73,70.57 182.28,79.42C179.32,79.59 176.35,79.64 173.38,79.64C173.33,78.74 173.28,77.84 173.21,76.94C168.23,80.37 162.09,81.78 156.73,78.28C152.52,75.12 152.04,70.45 152.36,65.55C153.49,61.87 154.93,58.48 157.92,55.9C162.93,51.43 171.05,50.47 176.47,54.8ZM161.6,66.02C161.95,67.82 161.95,70.27 163.53,71.49C166.54,73.87 171.62,72.9 173.85,69.84C175.39,67.87 175.49,65.6 175.6,63.2C173.91,60.71 172.19,59.22 168.98,59.51C164.97,59.84 163.06,62.62 161.6,66.02Z" style="fill-rule:nonzero;stroke:rgb(254,254,254);stroke-width:10px;"/>
        <path id="p37" d="M280.35,54.99C280.5,54.23 280.65,53.47 280.81,52.72C283.81,52.69 286.82,52.69 289.83,52.76C289.58,58.47 288.22,64.14 287.47,69.81C286.9,72.92 286.78,76.49 285.4,79.36C282.72,79.82 279.77,79.89 277.13,79.28L276.44,76.94C271.73,80.76 264.2,81.75 259.42,77.58C255.81,74.18 255.65,69.9 255.99,65.25C257.07,61.81 258.43,58.63 261.15,56.16C266.31,51.31 274.71,50.44 280.35,54.99ZM265.29,65.32C265.43,67.57 265.27,70.21 267.33,71.68C270.97,74.17 276.65,72.37 278.32,68.32C278.86,66.86 279.07,65.23 279.32,63.7C277.81,61.19 276.24,59.3 273,59.49C269.04,59.58 267,62.09 265.29,65.32Z" style="fill-rule:nonzero;stroke:rgb(254,254,253);stroke-width:10px;"/>
        <path id="p38" d="M405.26,52.69C408.69,53.93 410.36,56.71 411.82,59.85C411.97,61.88 411.98,63.95 411.82,65.99C409.52,66.01 407.23,66.04 404.93,66.06C402.09,66.04 399.25,66.05 396.4,66.14L395.5,66.15C396.13,67.68 396.6,70 398.13,70.89C399.81,72 402.09,71.36 403.98,71.21C404.41,70.45 404.84,69.68 405.27,68.91C406.86,68.97 408.45,69.02 410.04,69.1L412.33,69.22C411.21,70.98 410.11,73.1 408.5,74.45C403.44,78.48 394.69,77.43 391.12,71.89C388.84,68.18 389.34,63.57 389.78,59.44C390.94,57.35 391.98,55.39 393.96,53.95C397.07,51.63 401.7,51.48 405.26,52.69ZM397.91,57.83C397,59.15 396.19,60.53 395.38,61.91C398.9,62.03 402.41,62.04 405.93,61.87C405.07,60.43 404.21,58.99 403.12,57.7C402.17,56.48 398.76,56.43 397.91,57.83Z" style="fill-rule:nonzero;stroke:rgb(253,254,253);stroke-width:10px;"/>
        <path id="p39" d="M434.98,56.98C435.2,58.32 435.41,59.66 435.64,61C433.44,61 431.25,61.01 429.06,61.02C428.68,59.92 428.31,58.82 427.93,57.72C426.72,57.46 425.46,57.1 424.22,57.08C422.38,57.71 421.36,59.16 420.8,60.95C420.61,63.32 420.42,65.86 420.94,68.19C421.53,70.41 423.4,72.04 425.79,71.63C427.97,71.61 428.4,68.92 429.37,67.4C431.44,67.38 433.52,67.36 435.59,67.33C435.36,69.25 434.85,71.08 433.69,72.65C430.36,77.8 421.97,78.14 417.47,74.49C413.69,71.01 413.9,66 413.97,61.27C415.11,57.76 416.35,54.6 419.92,52.95C425.31,50.92 431.8,51.65 434.98,56.98Z" style="fill-rule:nonzero;stroke:rgb(253,254,253);stroke-width:10px;"/>
        <path id="p40" d="M491.58,52.48C495.66,53.65 497.44,56.82 499.13,60.42C499.61,64.83 499.5,69.02 496.73,72.7C493.54,77.12 486.84,77.74 482.07,75.98C477.16,73.98 475.19,69.12 475.03,64.1C475.44,60.62 476.3,57.39 478.86,54.86C481.96,51.62 487.52,51.52 491.58,52.48ZM481.53,63.89C481.88,65.77 482.1,68.13 483.23,69.73C485.22,72.41 489.66,72.3 491.48,69.47C492.99,67.12 492.61,63.53 492.33,60.88C491.33,58.16 488.25,56.1 485.4,57.38C482.53,58.57 482.28,61.24 481.53,63.89Z" style="fill-rule:nonzero;stroke:rgb(253,254,253);stroke-width:10px;"/>
        <path id="p41" d="M503.64,52.38C505.88,52.38 508.13,52.38 510.38,52.39C510.53,57.78 510.15,63.22 510.52,68.59C510.39,72.91 517.13,72.43 517.93,68.89C519.24,63.79 517.21,57.1 519.47,52.03C521.23,52.21 523,52.37 524.77,52.52C524.88,60.34 524.79,68.16 524.82,75.99L518.55,75.99C518.65,75.1 518.75,74.21 518.85,73.32C516.51,75.53 514.51,77.22 511.04,76.87C506.73,76.74 504.27,73.9 503.69,69.76C503.46,63.97 503.63,58.17 503.64,52.38Z" style="fill-rule:nonzero;stroke:rgb(254,254,254);stroke-width:10px;"/>
        <path id="p42" d="M189.97,52.73C192.96,52.68 196.04,52.51 199.01,52.9C201.41,57.39 202.19,62.83 203.92,67.63C207.42,62.85 210.36,57.54 214.17,53.02C217.09,52.42 220.24,52.7 223.21,52.66L223.31,54.2C215.67,65.94 207.35,77.32 199.45,88.9C196.2,89.01 192.96,89.01 189.71,88.84C190.16,87.89 190.58,86.92 191.07,86C193.13,82.89 195.49,80.05 197.43,76.87C197.18,75.97 196.91,75.09 196.62,74.2C194.51,67.1 190.97,60.08 189.97,52.73Z" style="fill-rule:nonzero;stroke:rgb(253,254,253);stroke-width:10px;"/>
        <path id="p43" d="M403.12,57.7C401.35,58.24 399.71,58.27 397.91,57.83C398.76,56.43 402.17,56.48 403.12,57.7Z" style="fill-rule:nonzero;stroke:rgb(72,178,228);stroke-width:10px;"/>
        <path id="p44" d="M485.4,57.38C488.25,56.1 491.33,58.16 492.33,60.88C491.9,63.81 492.06,66.64 488.66,67.6C485.03,68.45 483.78,66.12 481.53,63.89C482.28,61.24 482.53,58.57 485.4,57.38Z" style="fill-rule:nonzero;stroke:rgb(1,156,223);stroke-width:10px;"/>
        <path id="p45" d="M397.91,57.83C399.71,58.27 401.35,58.24 403.12,57.7C404.21,58.99 405.07,60.43 405.93,61.87C402.41,62.04 398.9,62.03 395.38,61.91C396.19,60.53 397,59.15 397.91,57.83Z" style="fill-rule:nonzero;stroke:rgb(1,109,155);stroke-width:10px;"/>
        <path id="p46" d="M168.98,59.51C172.19,59.22 173.91,60.71 175.6,63.2C173.61,65.73 172.4,68.32 168.83,68.7C165.75,69.27 163.98,67.54 161.6,66.02C163.06,62.62 164.97,59.84 168.98,59.51Z" style="fill-rule:nonzero;stroke:rgb(2,156,223);stroke-width:10px;"/>
        <path id="p47" d="M273,59.49C276.24,59.3 277.81,61.19 279.32,63.7C276.8,66.27 275.04,68.97 271.01,68.81C268.19,68.92 267.03,67.15 265.29,65.32C267,62.09 269.04,59.58 273,59.49Z" style="fill-rule:nonzero;stroke:rgb(2,156,222);stroke-width:10px;"/>
        <path id="p48" d="M454.42,59.74C456.26,63.35 458.85,66.76 460.22,70.57C460.15,71.3 460.01,72.05 459.81,72.81C457.22,69.19 455.23,65.15 452.94,61.33C453.43,60.8 453.93,60.27 454.42,59.74Z" style="fill-rule:nonzero;stroke:rgb(15,117,163);stroke-width:10px;"/>
        <path id="p49" d="M337.93,60.62C339.84,64.51 342.06,67.93 347.01,67.17C350.53,66.57 351.18,63.81 352.77,61.11C354.84,61.07 356.92,61.04 358.99,61.02C358.77,62.36 358.54,63.71 358.31,65.05C356.44,65.02 354.57,65.01 352.7,65C351.86,66.6 351.12,68.51 349.86,69.84C347.13,71.89 343.22,71.66 340.85,69.16C338.42,66.86 338.32,63.75 337.93,60.62Z" style="fill-rule:nonzero;stroke:rgb(1,109,155);stroke-width:10px;"/>
        <path id="p50" d="M420.8,60.95C421.04,63.65 420.9,67.02 424.24,67.68C427.54,68.5 428.2,65.46 429.92,63.42C431.68,63.47 433.43,63.54 435.19,63.6C435.33,64.84 435.47,66.09 435.59,67.33C433.52,67.36 431.44,67.38 429.37,67.4C428.4,68.92 427.97,71.61 425.79,71.63C423.4,72.04 421.53,70.41 420.94,68.19C420.42,65.86 420.61,63.32 420.8,60.95Z" style="fill-rule:nonzero;stroke:rgb(2,110,156);stroke-width:10px;"/>
        <path id="p51" d="M492.33,60.88C492.61,63.53 492.99,67.12 491.48,69.47C489.66,72.3 485.22,72.41 483.23,69.73C482.1,68.13 481.88,65.77 481.53,63.89C483.78,66.12 485.03,68.45 488.66,67.6C492.06,66.64 491.9,63.81 492.33,60.88Z" style="fill-rule:nonzero;stroke:rgb(3,106,156);stroke-width:10px;"/>
        <path id="p52" d="M175.6,63.2C175.49,65.6 175.39,67.87 173.85,69.84C171.62,72.9 166.54,73.87 163.53,71.49C161.95,70.27 161.95,67.82 161.6,66.02C163.98,67.54 165.75,69.27 168.83,68.7C172.4,68.32 173.61,65.73 175.6,63.2Z" style="fill-rule:nonzero;stroke:rgb(1,108,154);stroke-width:10px;"/>
        <path id="p53" d="M583.23,62.75C584.1,64.99 584.96,67.22 585.67,69.51C583.72,88.22 569.93,104.61 551.92,109.94C544.28,112.37 536.89,112.03 529,112.01L64,112.01C56.03,111.97 48.71,112.48 40.94,110.19C23.56,105.41 9.83,90.36 6.8,72.57C9.76,75.52 11.86,78.45 13.66,82.22C19.07,93.52 29.46,103.05 41.68,106.33C48.45,108.48 54.99,107.91 62,107.98C218,107.97 374,107.97 530,107.98C536.97,107.91 543.49,108.47 550.22,106.35C562.24,103.15 572.52,93.88 577.96,82.82C581.24,76.51 582.45,69.75 583.23,62.75Z" style="fill-rule:nonzero;stroke:rgb(13,135,188);stroke-width:10px;"/>
        <path id="p54" d="M279.32,63.7C279.07,65.23 278.86,66.86 278.32,68.32C276.65,72.37 270.97,74.17 267.33,71.68C265.27,70.21 265.43,67.57 265.29,65.32C267.03,67.15 268.19,68.92 271.01,68.81C275.04,68.97 276.8,66.27 279.32,63.7Z" style="fill-rule:nonzero;stroke:rgb(2,109,153);stroke-width:10px;"/>
        <path id="p55" d="M395.5,66.15L396.4,66.14C397.9,66.74 399.44,67.47 401,67.87C402.41,67.43 403.62,66.74 404.93,66.06C407.23,66.04 409.52,66.01 411.82,65.99C411.24,67.03 410.65,68.07 410.04,69.1C408.45,69.02 406.86,68.97 405.27,68.91C404.84,69.68 404.41,70.45 403.98,71.21C402.09,71.36 399.81,72 398.13,70.89C396.6,70 396.13,67.68 395.5,66.15Z" style="fill-rule:nonzero;stroke:rgb(1,108,155);stroke-width:10px;"/>
        <path id="p56" d="M396.4,66.14C399.25,66.05 402.09,66.04 404.93,66.06C403.62,66.74 402.41,67.43 401,67.87C399.44,67.47 397.9,66.74 396.4,66.14Z" style="fill-rule:nonzero;stroke:rgb(3,147,207);stroke-width:10px;"/>
        <path id="p57" d="M196.62,74.2C196.91,75.09 197.18,75.97 197.43,76.87C195.49,80.05 193.13,82.89 191.07,86C190.76,85.02 190.45,84.04 190.14,83.06C192.24,80.06 194.39,77.1 196.62,74.2Z" style="fill-rule:nonzero;stroke:rgb(15,121,167);stroke-width:10px;"/>
    </g>
    <g>
        <path id="p110" serif:id="p1" d="M55,7.99C212.66,8 370.33,7.99 528,8C535.33,8.06 542.34,7.54 549.49,9.39C564.43,13.01 577.14,24.13 582.69,38.47C586.72,48.27 586.3,59.13 585.67,69.51C584.96,67.22 584.1,64.99 583.23,62.75C582.45,69.75 581.24,76.51 577.96,82.82C572.52,93.88 562.24,103.15 550.22,106.35C543.49,108.47 536.97,107.91 530,107.98C374,107.97 218,107.97 62,107.98C54.99,107.91 48.45,108.48 41.68,106.33C29.46,103.05 19.07,93.52 13.66,82.22C11.86,78.45 9.76,75.52 6.8,72.57C5.64,65.17 5.76,57.42 6.41,49.98C8.04,36.16 16.09,23.32 27.81,15.81C35.84,10.47 45.38,7.85 55,7.99ZM15.82,33.94C19.65,30.57 22.95,27.11 27.19,24.22C34.18,19.45 42.52,16.53 50.99,16.12C55.98,15.86 61,16.01 66,15.98C220,15.98 374,15.99 528,15.98C534.81,16.02 542.24,15.61 548.86,17.21C555.67,18.81 562.2,21.91 567.63,26.33C570.58,28.73 573.3,31.42 576.18,33.91C570.24,24.31 561.18,16.87 550.27,13.72C542.8,11.51 535.67,12.03 528,12C370,12.01 212,11.99 54,12.01C38.29,11.87 23.87,20.61 15.82,33.94ZM47.37,47.56L47.23,48.52C45.72,52.55 45.24,55.51 45.51,59.83C44.52,68.18 42.5,76.45 42.01,84.85C46.7,85.05 51.38,85.01 56.07,84.98C55.73,87.26 55.45,89.54 55.2,91.83C59.64,91.97 64.34,92.4 68.72,91.59C70.76,86.15 70.49,80.07 72.29,74.48C78.85,74.07 85.28,74.21 90.36,69.34C95.73,64.1 96.42,57.34 96.08,50.2C96.3,45.57 94.7,43.26 91.83,39.93C91.32,35.53 91.49,31.31 87.94,28.07C82.99,23.71 77.22,23.86 71,23.95C64.44,24.24 57.75,23.52 51.24,24.3C50.09,25.94 49.76,28.26 49.38,30.2C48.54,36.01 47.33,41.66 47.37,47.56ZM125.62,35.6C125.43,37.16 125.31,38.73 125.17,40.3C123.6,53.37 121.11,66.35 119.23,79.39C122.62,79.7 125.88,79.69 129.27,79.34C129.97,75.02 130.66,70.7 131.52,66.4C137.54,65.99 143.85,66.87 148.86,62.85C153.97,58.6 154.9,51.72 154.22,45.46C153.95,43.44 154.07,40.98 152.67,39.35C150.02,36.12 146,35.36 142.03,35.26C136.57,35.16 131.05,35.05 125.62,35.6ZM227.99,45.22C226.52,56.63 224.46,67.97 222.75,79.34C226.18,79.7 229.5,79.73 232.92,79.33C233.67,75.14 233.69,70.42 235.41,66.51C239.79,65.81 244.62,66.61 248.83,64.9C251.99,63.7 253.94,61.39 256.1,58.91C256.05,61.02 256.06,63.14 255.99,65.25C255.65,69.9 255.81,74.18 259.42,77.58C264.2,81.75 271.73,80.76 276.44,76.94L277.13,79.28C279.77,79.89 282.72,79.82 285.4,79.36C286.78,76.49 286.9,72.92 287.47,69.81C288.22,64.14 289.58,58.47 289.83,52.76C289.84,51.44 289.85,50.13 289.84,48.81C286.18,48.5 282.98,48.44 279.57,50.01C275.42,48.21 271.29,47.28 266.86,48.79C261.84,50.26 259.27,54.35 256.33,58.32C257.63,54.27 258.24,50.24 257.87,45.99C257.62,43.15 257.71,40.63 255.52,38.51C252.08,35.44 247.37,35.23 243,35.21C238.5,35.28 233.87,34.96 229.41,35.61C228.05,38.52 228.24,42.06 227.99,45.22ZM296.01,45.2C294.64,56.48 292.25,67.67 290.99,78.94C292.92,80.18 296.36,79.68 298.59,79.47C299.93,79.5 300.01,77.77 300.31,76.82C301.75,68.22 303,59.58 304.41,50.98C305.01,47.15 305.81,43.2 305.88,39.35C305.85,37.99 305.8,36.64 305.74,35.28C302.94,35.25 300.04,35.1 297.26,35.46C296.08,38.49 296.22,41.98 296.01,45.2ZM331.85,53.43C331.06,59.38 330.38,65.01 333.57,70.43C337.85,78 350.04,79.17 355.75,72.73C357.79,70.54 358.58,67.81 359.62,65.08L358.31,65.05C358.54,63.71 358.77,62.36 358.99,61.02C356.92,61.04 354.84,61.07 352.77,61.11C351.18,63.81 350.53,66.57 347.01,67.17C342.06,67.93 339.84,64.51 337.93,60.62C338.1,55.95 339.37,49.85 345.04,49.37C349.39,48.98 351.04,51.3 352.79,54.83L359.38,54.83C359.25,53.77 359.12,52.7 358.97,51.64C358.59,49.18 358.68,46.95 357.11,44.89C353.58,39.94 346.72,38.91 341.17,40.32C335.42,42.06 331.7,47.43 331.85,53.43ZM364.27,40.19C364.25,41.54 364.23,42.9 364.21,44.25C364.16,54.83 364.21,65.41 364.19,75.99C366.34,75.99 368.49,75.98 370.64,75.98C370.72,71 370.28,65.92 370.84,60.97C371.09,58.17 374.02,56.19 376.64,57.34C378.55,58.26 378.47,60.11 378.62,61.94C378.74,66.63 378.57,71.32 378.61,76.01C380.87,76.01 383.13,76 385.4,76C385.26,69.48 385.61,62.9 385.07,56.4C384.72,53.41 384.79,50.81 381.85,49.15C377.82,46.85 374.39,48.38 370.62,50.21C370.63,48.19 370.61,46.17 370.55,44.16C370.49,42.82 370.41,41.48 370.34,40.14C368.31,40.16 366.29,40.18 364.27,40.19ZM440.03,40.22C440.02,41.54 440.01,42.85 440,44.17C440,54.78 439.99,65.4 440.01,76.01C442.13,75.99 444.26,75.98 446.39,75.96C446.39,73.47 446.4,70.98 446.43,68.49C447.13,67.69 447.83,66.89 448.54,66.09C450.36,69.4 452.19,72.7 454.01,76.01C456.43,76.01 458.85,76 461.26,76.01C460.75,74.96 460.28,73.89 459.81,72.81C460.01,72.05 460.15,71.3 460.22,70.57C458.85,66.76 456.26,63.35 454.42,59.74C456.66,57.32 458.92,54.91 461.15,52.48C460.07,52.45 458.99,52.43 457.9,52.41C458.7,51.12 459.5,49.83 460.3,48.54C458.2,48.51 456.1,48.49 454,48.47C451.69,51.24 449.33,53.95 446.88,56.59C446.75,51.12 446.77,45.68 446.05,40.24C444.05,40.23 442.04,40.23 440.03,40.22ZM531.28,41.75C531.26,43.06 531.24,44.36 531.22,45.67C531.2,46.46 531.18,47.25 531.18,48.03C530.14,48.23 529.1,48.42 528.06,48.61C528.04,49.86 528.03,51.11 528.01,52.36C528,53.84 527.99,55.32 527.98,56.8C529.06,56.82 530.14,56.84 531.22,56.87C531.48,62.51 530.49,68.71 531.71,74.2C533.65,77.04 538.5,76.27 541.44,76.11C541.42,74.56 541.4,73.01 541.38,71.46C540.15,71.41 538.92,71.36 537.69,71.31C537.57,66.48 537.62,61.66 537.6,56.84C538.87,56.83 540.14,56.82 541.41,56.81C541.39,55.32 541.37,53.84 541.34,52.35C541.32,51.13 541.29,49.91 541.27,48.69C540.04,48.61 538.82,48.52 537.6,48.44C537.6,47.49 537.59,46.54 537.58,45.59C537.57,44.35 537.56,43.11 537.55,41.87C535.46,41.83 533.37,41.79 531.28,41.75ZM152.36,65.55C152.04,70.45 152.52,75.12 156.73,78.28C162.09,81.78 168.23,80.37 173.21,76.94C173.28,77.84 173.33,78.74 173.38,79.64C176.35,79.64 179.32,79.59 182.28,79.42C183.73,70.57 185.56,61.67 186.29,52.74C186.3,51.4 186.3,50.07 186.28,48.73C182.69,48.62 179.43,48.34 176.16,50.14C172.55,48.65 169.17,47.41 165.18,48.31C157.16,49.84 151.86,57.53 152.36,65.55ZM389.78,59.44C389.34,63.57 388.84,68.18 391.12,71.89C394.69,77.43 403.44,78.48 408.5,74.45C410.11,73.1 411.21,70.98 412.33,69.22L410.04,69.1C410.65,68.07 411.24,67.03 411.82,65.99C411.98,63.95 411.97,61.88 411.82,59.85C411.58,57.09 411.49,54.58 409.73,52.3C405.72,46.6 396.16,46.41 391.97,51.98C390.13,54.23 390.13,56.7 389.78,59.44ZM413.97,61.27C413.9,66 413.69,71.01 417.47,74.49C421.97,78.14 430.36,77.8 433.69,72.65C434.85,71.08 435.36,69.25 435.59,67.33C435.47,66.09 435.33,64.84 435.19,63.6C433.43,63.54 431.68,63.47 429.92,63.42C428.2,65.46 427.54,68.5 424.24,67.68C420.9,67.02 421.04,63.65 420.8,60.95C421.36,59.16 422.38,57.71 424.22,57.08C425.46,57.1 426.72,57.46 427.93,57.72C428.31,58.82 428.68,59.92 429.06,61.02C431.25,61.01 433.44,61 435.64,61C435.41,59.66 435.2,58.32 434.98,56.98C434.44,54.15 434.81,51.66 432.12,49.89C427.82,47.13 420.7,47.07 417.1,51.1C414.36,54.01 414.11,57.47 413.97,61.27ZM475.03,64.1C475.19,69.12 477.16,73.98 482.07,75.98C486.84,77.74 493.54,77.12 496.73,72.7C499.5,69.02 499.61,64.83 499.13,60.42C498.87,55.45 497.24,50.66 492.24,48.74C487.89,47.26 481.61,47.7 478.44,51.44C475.27,55.11 474.99,59.46 475.03,64.1ZM190.06,48.77C190.01,50.09 189.98,51.41 189.97,52.73C190.97,60.08 194.51,67.1 196.62,74.2C194.39,77.1 192.24,80.06 190.14,83.06C190.45,84.04 190.76,85.02 191.07,86C190.58,86.92 190.16,87.89 189.71,88.84C192.96,89.01 196.2,89.01 199.45,88.9C207.35,77.32 215.67,65.94 223.31,54.2L223.21,52.66C223.09,51.34 222.96,50.02 222.82,48.7C219.9,48.7 216.99,48.72 214.08,48.76C210.67,53.64 207.53,58.68 203.94,63.44C202.66,59.82 201.67,56.11 200.54,52.44C199.92,50.99 199.81,49.22 198.01,48.84C195.42,48.42 192.67,48.69 190.06,48.77ZM503.85,48.51C503.28,55.51 502.82,62.77 503.69,69.76C504.27,73.9 506.73,76.74 511.04,76.87C514.51,77.22 516.51,75.53 518.85,73.32C518.75,74.21 518.65,75.1 518.55,75.99L524.82,75.99C524.79,68.16 524.88,60.34 524.77,52.52C524.74,51.16 524.69,49.8 524.64,48.45C522.61,48.47 520.58,48.49 518.56,48.52C518.06,53.97 518.42,59.48 517.8,64.91C517.98,67.7 512.62,68.49 511.28,66.9C510.2,60.91 510.99,54.65 510.19,48.58C508.08,48.55 505.96,48.53 503.85,48.51Z" style="fill:rgb(1,156,222);fill-rule:nonzero;"/>
        <path id="p210" serif:id="p2" d="M54,12.01C212,11.99 370,12.01 528,12C535.67,12.03 542.8,11.51 550.27,13.72C561.18,16.87 570.24,24.31 576.18,33.91C573.3,31.42 570.58,28.73 567.63,26.33C562.2,21.91 555.67,18.81 548.86,17.21C542.24,15.61 534.81,16.02 528,15.98C374,15.99 220,15.98 66,15.98C61,16.01 55.98,15.86 50.99,16.12C42.52,16.53 34.18,19.45 27.19,24.22C22.95,27.11 19.65,30.57 15.82,33.94C23.87,20.61 38.29,11.87 54,12.01Z" style="fill:rgb(78,186,233);fill-rule:nonzero;"/>
        <path id="p310" serif:id="p3" d="M51.24,24.3C57.75,23.52 64.44,24.24 71,23.95C77.22,23.86 82.99,23.71 87.94,28.07C91.49,31.31 91.32,35.53 91.83,39.93C94.7,43.26 96.3,45.57 96.08,50.2C94.94,47.74 93.25,45.9 91.23,44.15L91.29,43.72C91.47,40.39 91.5,37.27 89.62,34.36C86.91,30.05 81.87,28.41 77.03,28.1C71.69,27.84 66.34,28.09 61,28C57.8,28.02 54.45,27.77 51.28,28.32C50.18,29.66 50.09,31.33 49.74,32.98C48.96,37.85 48.33,42.73 47.37,47.56C47.33,41.66 48.54,36.01 49.38,30.2C49.76,28.26 50.09,25.94 51.24,24.3Z" style="fill:rgb(1,110,156);fill-rule:nonzero;"/>
        <path id="p410" serif:id="p4" d="M51.28,28.32C54.45,27.77 57.8,28.02 61,28C66.34,28.09 71.69,27.84 77.03,28.1C81.87,28.41 86.91,30.05 89.62,34.36C91.5,37.27 91.47,40.39 91.29,43.72C83.55,41.22 75.98,41.9 67.99,41.87C65.72,42.12 63.26,41.49 62.47,44.26C60.68,50.81 60.15,57.76 59.1,64.47C58.3,71.35 57.06,78.13 56.07,84.98C51.38,85.01 46.7,85.05 42.01,84.85C42.5,76.45 44.52,68.18 45.51,59.83C46.21,56.08 46.84,52.32 47.23,48.52L47.37,47.56C48.33,42.73 48.96,37.85 49.74,32.98C50.09,31.33 50.18,29.66 51.28,28.32Z" style="fill:white;fill-rule:nonzero;"/>
        <path id="p58" serif:id="p5" d="M142.03,35.26C146,35.36 150.02,36.12 152.67,39.35C154.07,40.98 153.95,43.44 154.22,45.46C152.65,43.33 151.22,41.35 148.63,40.41C144.22,38.75 138.68,39.36 134,39.21C131.05,39.34 127.72,38.71 125.17,40.3C125.31,38.73 125.43,37.16 125.62,35.6C131.05,35.05 136.57,35.16 142.03,35.26Z" style="fill:rgb(1,109,156);fill-rule:nonzero;"/>
        <path id="p61" serif:id="p6" d="M229.41,35.61C233.87,34.96 238.5,35.28 243,35.21C247.37,35.23 252.08,35.44 255.52,38.51C257.71,40.63 257.62,43.15 257.87,45.99C255.57,41.57 252.64,39.9 247.74,39.41C241.74,39.2 235.51,38.94 229.54,39.54C228.71,41.3 228.34,43.32 227.99,45.22C228.24,42.06 228.05,38.52 229.41,35.61Z" style="fill:rgb(1,109,155);fill-rule:nonzero;"/>
        <path id="p71" serif:id="p7" d="M297.26,35.46C300.04,35.1 302.94,35.25 305.74,35.28C305.8,36.64 305.85,37.99 305.88,39.35C302.98,39.25 300.11,39.18 297.22,39.35C296.73,41.28 296.33,43.23 296.01,45.2C296.22,41.98 296.08,38.49 297.26,35.46Z" style="fill:rgb(1,109,155);fill-rule:nonzero;"/>
        <path id="p81" serif:id="p8" d="M134,39.21C138.68,39.36 144.22,38.75 148.63,40.41C151.22,41.35 152.65,43.33 154.22,45.46C154.9,51.72 153.97,58.6 148.86,62.85C143.85,66.87 137.54,65.99 131.52,66.4C130.66,70.7 129.97,75.02 129.27,79.34C125.88,79.69 122.62,79.7 119.23,79.39C121.11,66.35 123.6,53.37 125.17,40.3C127.72,38.71 131.05,39.34 134,39.21ZM134.54,47.39C134.03,49.62 133.67,51.88 133.3,54.14C133.08,55.48 132.87,56.82 132.66,58.17C135.28,57.97 138.56,58.27 140.95,57.06C143.09,55.95 143.29,52.8 143.9,50.73C141.83,46.64 138.42,47.5 134.54,47.39Z" style="fill:rgb(254,254,254);fill-rule:nonzero;"/>
        <path id="p91" serif:id="p9" d="M247.74,39.41C252.64,39.9 255.57,41.57 257.87,45.99C258.24,50.24 257.63,54.27 256.33,58.32L256.1,58.91C253.94,61.39 251.99,63.7 248.83,64.9C244.62,66.61 239.79,65.81 235.41,66.51C233.69,70.42 233.67,75.14 232.92,79.33C229.5,79.73 226.18,79.7 222.75,79.34C224.46,67.97 226.52,56.63 227.99,45.22C228.34,43.32 228.71,41.3 229.54,39.54C235.51,38.94 241.74,39.2 247.74,39.41ZM236.8,54.25C236.61,55.56 236.43,56.87 236.26,58.19C238.8,57.98 241.78,58.22 244.16,57.23C246.74,56.04 246.78,53.11 247.43,50.72C245.47,46.86 241.96,47.23 238.22,47.46C237.4,49.6 237.17,52 236.8,54.25Z" style="fill:rgb(254,254,254);fill-rule:nonzero;"/>
        <path id="p101" serif:id="p10" d="M297.22,39.35C300.11,39.18 302.98,39.25 305.88,39.35C305.81,43.2 305.01,47.15 304.41,50.98C303,59.58 301.75,68.22 300.31,76.82C300.01,77.77 299.93,79.5 298.59,79.47C296.36,79.68 292.92,80.18 290.99,78.94C292.25,67.67 294.64,56.48 296.01,45.2C296.33,43.23 296.73,41.28 297.22,39.35Z" style="fill:rgb(254,254,254);fill-rule:nonzero;"/>
        <path id="p111" serif:id="p11" d="M341.17,40.32C346.72,38.91 353.58,39.94 357.11,44.89C358.68,46.95 358.59,49.18 358.97,51.64C357.2,48.78 355.39,46.21 352.17,44.87C347.32,42.98 341.54,43.11 337.2,46.19C334.64,48 333.24,50.71 331.85,53.43C331.7,47.43 335.42,42.06 341.17,40.32Z" style="fill:rgb(2,109,155);fill-rule:nonzero;"/>
        <path id="p121" serif:id="p12" d="M364.27,40.19C366.29,40.18 368.31,40.16 370.34,40.14C370.41,41.48 370.49,42.82 370.55,44.16C368.44,44.17 366.31,44.16 364.21,44.25C364.23,42.9 364.25,41.54 364.27,40.19Z" style="fill:rgb(1,109,159);fill-rule:nonzero;"/>
        <path id="p131" serif:id="p13" d="M440.03,40.22C442.04,40.23 444.05,40.23 446.05,40.24C446.77,45.68 446.75,51.12 446.88,56.59C449.33,53.95 451.69,51.24 454,48.47C456.1,48.49 458.2,48.51 460.3,48.54C459.5,49.83 458.7,51.12 457.9,52.41C456.54,52.39 455.17,52.39 453.8,52.39C451.36,55.45 448.82,58.44 446.33,61.47C446.45,55.71 446.41,49.95 446.38,44.18C444.26,44.18 442.13,44.18 440,44.17C440.01,42.85 440.02,41.54 440.03,40.22Z" style="fill:rgb(1,108,158);fill-rule:nonzero;"/>
        <path id="p141" serif:id="p14" d="M67.99,41.87C75.98,41.9 83.55,41.22 91.29,43.72L91.23,44.15C89.78,50.76 87.42,56.71 81.34,60.34C73.89,64.89 67.15,62.64 59.1,64.47C60.15,57.76 60.68,50.81 62.47,44.26C63.26,41.49 65.72,42.12 67.99,41.87Z" style="fill:rgb(230,245,252);fill-rule:nonzero;"/>
        <path id="p151" serif:id="p15" d="M531.28,41.75C533.37,41.79 535.46,41.83 537.55,41.87C537.56,43.11 537.57,44.35 537.58,45.59C535.46,45.6 533.34,45.59 531.22,45.67C531.24,44.36 531.26,43.06 531.28,41.75Z" style="fill:rgb(1,107,155);fill-rule:nonzero;"/>
        <path id="p161" serif:id="p16" d="M352.17,44.87C355.39,46.21 357.2,48.78 358.97,51.64C359.12,52.7 359.25,53.77 359.38,54.83L352.79,54.83C351.04,51.3 349.39,48.98 345.04,49.37C339.37,49.85 338.1,55.95 337.93,60.62C338.32,63.75 338.42,66.86 340.85,69.16C343.22,71.66 347.13,71.89 349.86,69.84C351.12,68.51 351.86,66.6 352.7,65C354.57,65.01 356.44,65.02 358.31,65.05L359.62,65.08C358.58,67.81 357.79,70.54 355.75,72.73C350.04,79.17 337.85,78 333.57,70.43C330.38,65.01 331.06,59.38 331.85,53.43C333.24,50.71 334.64,48 337.2,46.19C341.54,43.11 347.32,42.98 352.17,44.87Z" style="fill:rgb(253,254,253);fill-rule:nonzero;"/>
        <path id="p171" serif:id="p17" d="M364.21,44.25C366.31,44.16 368.44,44.17 370.55,44.16C370.61,46.17 370.63,48.19 370.62,50.21C370.59,51.75 370.56,53.29 370.5,54.83C372.87,53.02 374.88,51.62 378.04,51.99C381.29,52.03 383.25,53.97 385.07,56.4C385.61,62.9 385.26,69.48 385.4,76C383.13,76 380.87,76.01 378.61,76.01C378.57,71.32 378.74,66.63 378.62,61.94C378.47,60.11 378.55,58.26 376.64,57.34C374.02,56.19 371.09,58.17 370.84,60.97C370.28,65.92 370.72,71 370.64,75.98C368.49,75.98 366.34,75.99 364.19,75.99C364.21,65.41 364.16,54.83 364.21,44.25Z" style="fill:rgb(254,254,254);fill-rule:nonzero;"/>
        <path id="p181" serif:id="p18" d="M440,44.17C442.13,44.18 444.26,44.18 446.38,44.18C446.41,49.95 446.45,55.71 446.33,61.47C448.82,58.44 451.36,55.45 453.8,52.39C455.17,52.39 456.54,52.39 457.9,52.41C458.99,52.43 460.07,52.45 461.15,52.48C458.92,54.91 456.66,57.32 454.42,59.74C453.93,60.27 453.43,60.8 452.94,61.33C455.23,65.15 457.22,69.19 459.81,72.81C460.28,73.89 460.75,74.96 461.26,76.01C458.85,76 456.43,76.01 454.01,76.01C452.19,72.7 450.36,69.4 448.54,66.09C447.83,66.89 447.13,67.69 446.43,68.49C446.4,70.98 446.39,73.47 446.39,75.96C444.26,75.98 442.13,75.99 440.01,76.01C439.99,65.4 440,54.78 440,44.17Z" style="fill:rgb(253,254,253);fill-rule:nonzero;"/>
        <path id="p191" serif:id="p19" d="M91.23,44.15C93.25,45.9 94.94,47.74 96.08,50.2C96.42,57.34 95.73,64.1 90.36,69.34C85.28,74.21 78.85,74.07 72.29,74.48C70.49,80.07 70.76,86.15 68.72,91.59C64.34,92.4 59.64,91.97 55.2,91.83C55.45,89.54 55.73,87.26 56.07,84.98C57.06,78.13 58.3,71.35 59.1,64.47C67.15,62.64 73.89,64.89 81.34,60.34C87.42,56.71 89.78,50.76 91.23,44.15Z" style="fill:rgb(173,223,244);fill-rule:nonzero;"/>
        <path id="p201" serif:id="p20" d="M531.22,45.67C533.34,45.59 535.46,45.6 537.58,45.59C537.59,46.54 537.6,47.49 537.6,48.44C537.6,49.76 537.61,51.08 537.61,52.4C538.85,52.39 540.1,52.37 541.34,52.35C541.37,53.84 541.39,55.32 541.41,56.81C540.14,56.82 538.87,56.83 537.6,56.84C537.62,61.66 537.57,66.48 537.69,71.31C538.92,71.36 540.15,71.41 541.38,71.46C541.4,73.01 541.42,74.56 541.44,76.11C538.5,76.27 533.65,77.04 531.71,74.2C530.49,68.71 531.48,62.51 531.22,56.87C530.14,56.84 529.06,56.82 527.98,56.8C527.99,55.32 528,53.84 528.01,52.36C529.07,52.38 530.12,52.4 531.18,52.42C531.18,50.95 531.17,49.49 531.18,48.03C531.18,47.25 531.2,46.46 531.22,45.67Z" style="fill:rgb(254,254,253);fill-rule:nonzero;"/>
        <path id="p211" serif:id="p21" d="M143.9,50.73C140.29,53.8 138,54.14 133.3,54.14C133.67,51.88 134.03,49.62 134.54,47.39C138.42,47.5 141.83,46.64 143.9,50.73Z" style="fill:rgb(1,156,223);fill-rule:nonzero;"/>
        <path id="p221" serif:id="p22" d="M238.22,47.46C241.96,47.23 245.47,46.86 247.43,50.72C244.02,53.75 241.27,54.12 236.8,54.25C237.17,52 237.4,49.6 238.22,47.46Z" style="fill:rgb(2,156,222);fill-rule:nonzero;"/>
        <path id="p231" serif:id="p23" d="M165.18,48.31C169.17,47.41 172.55,48.65 176.16,50.14C179.43,48.34 182.69,48.62 186.28,48.73C186.3,50.07 186.3,51.4 186.29,52.74C183.5,52.75 180.42,52.36 177.7,53.02L176.47,54.8C171.05,50.47 162.93,51.43 157.92,55.9C154.93,58.48 153.49,61.87 152.36,65.55C151.86,57.53 157.16,49.84 165.18,48.31Z" style="fill:rgb(1,109,154);fill-rule:nonzero;"/>
        <path id="p241" serif:id="p24" d="M279.57,50.01C282.98,48.44 286.18,48.5 289.84,48.81C289.85,50.13 289.84,51.44 289.83,52.76C286.82,52.69 283.81,52.69 280.81,52.72C280.65,53.47 280.5,54.23 280.35,54.99C274.71,50.44 266.31,51.31 261.15,56.16C258.43,58.63 257.07,61.81 255.99,65.25C256.06,63.14 256.05,61.02 256.1,58.91L256.33,58.32C259.27,54.35 261.84,50.26 266.86,48.79C271.29,47.28 275.42,48.21 279.57,50.01Z" style="fill:rgb(2,109,155);fill-rule:nonzero;"/>
        <path id="p251" serif:id="p25" d="M381.85,49.15C384.79,50.81 384.72,53.41 385.07,56.4C383.25,53.97 381.29,52.03 378.04,51.99C374.88,51.62 372.87,53.02 370.5,54.83C370.56,53.29 370.59,51.75 370.62,50.21C374.39,48.38 377.82,46.85 381.85,49.15Z" style="fill:rgb(1,110,154);fill-rule:nonzero;"/>
        <path id="p261" serif:id="p26" d="M409.73,52.3C411.49,54.58 411.58,57.09 411.82,59.85C410.36,56.71 408.69,53.93 405.26,52.69C401.7,51.48 397.07,51.63 393.96,53.95C391.98,55.39 390.94,57.35 389.78,59.44C390.13,56.7 390.13,54.23 391.97,51.98C396.16,46.41 405.72,46.6 409.73,52.3Z" style="fill:rgb(1,109,155);fill-rule:nonzero;"/>
        <path id="p271" serif:id="p27" d="M432.12,49.89C434.81,51.66 434.44,54.15 434.98,56.98C431.8,51.65 425.31,50.92 419.92,52.95C416.35,54.6 415.11,57.76 413.97,61.27C414.11,57.47 414.36,54.01 417.1,51.1C420.7,47.07 427.82,47.13 432.12,49.89Z" style="fill:rgb(1,110,156);fill-rule:nonzero;"/>
        <path id="p281" serif:id="p28" d="M492.24,48.74C497.24,50.66 498.87,55.45 499.13,60.42C497.44,56.82 495.66,53.65 491.58,52.48C487.52,51.52 481.96,51.62 478.86,54.86C476.3,57.39 475.44,60.62 475.03,64.1C474.99,59.46 475.27,55.11 478.44,51.44C481.61,47.7 487.89,47.26 492.24,48.74Z" style="fill:rgb(1,109,155);fill-rule:nonzero;"/>
        <path id="p291" serif:id="p29" d="M528.06,48.61C529.1,48.42 530.14,48.23 531.18,48.03C531.17,49.49 531.18,50.95 531.18,52.42C530.12,52.4 529.07,52.38 528.01,52.36C528.03,51.11 528.04,49.86 528.06,48.61Z" style="fill:rgb(3,115,162);fill-rule:nonzero;"/>
        <path id="p301" serif:id="p30" d="M47.23,48.52C46.84,52.32 46.21,56.08 45.51,59.83C45.24,55.51 45.72,52.55 47.23,48.52Z" style="fill:rgb(41,142,187);fill-rule:nonzero;"/>
        <path id="p311" serif:id="p31" d="M190.06,48.77C192.67,48.69 195.42,48.42 198.01,48.84C199.81,49.22 199.92,50.99 200.54,52.44C201.67,56.11 202.66,59.82 203.94,63.44C207.53,58.68 210.67,53.64 214.08,48.76C216.99,48.72 219.9,48.7 222.82,48.7C222.96,50.02 223.09,51.34 223.21,52.66C220.24,52.7 217.09,52.42 214.17,53.02C210.36,57.54 207.42,62.85 203.92,67.63C202.19,62.83 201.41,57.39 199.01,52.9C196.04,52.51 192.96,52.68 189.97,52.73C189.98,51.41 190.01,50.09 190.06,48.77Z" style="fill:rgb(1,109,153);fill-rule:nonzero;"/>
        <path id="p321" serif:id="p32" d="M503.85,48.51C505.96,48.53 508.08,48.55 510.19,48.58C510.99,54.65 510.2,60.91 511.28,66.9C512.62,68.49 517.98,67.7 517.8,64.91C518.42,59.48 518.06,53.97 518.56,48.52C520.58,48.49 522.61,48.47 524.64,48.45C524.69,49.8 524.74,51.16 524.77,52.52C523,52.37 521.23,52.21 519.47,52.03C517.21,57.1 519.24,63.79 517.93,68.89C517.13,72.43 510.39,72.91 510.52,68.59C510.15,63.22 510.53,57.78 510.38,52.39C508.13,52.38 505.88,52.38 503.64,52.38C503.63,58.17 503.46,63.97 503.69,69.76C502.82,62.77 503.28,55.51 503.85,48.51Z" style="fill:rgb(1,110,157);fill-rule:nonzero;"/>
        <path id="p331" serif:id="p33" d="M537.6,48.44C538.82,48.52 540.04,48.61 541.27,48.69C541.29,49.91 541.32,51.13 541.34,52.35C540.1,52.37 538.85,52.39 537.61,52.4C537.61,51.08 537.6,49.76 537.6,48.44Z" style="fill:rgb(3,109,154);fill-rule:nonzero;"/>
        <path id="p341" serif:id="p34" d="M143.9,50.73C143.29,52.8 143.09,55.95 140.95,57.06C138.56,58.27 135.28,57.97 132.66,58.17C132.87,56.82 133.08,55.48 133.3,54.14C138,54.14 140.29,53.8 143.9,50.73Z" style="fill:rgb(1,109,155);fill-rule:nonzero;"/>
        <path id="p351" serif:id="p35" d="M247.43,50.72C246.78,53.11 246.74,56.04 244.16,57.23C241.78,58.22 238.8,57.98 236.26,58.19C236.43,56.87 236.61,55.56 236.8,54.25C241.27,54.12 244.02,53.75 247.43,50.72Z" style="fill:rgb(1,109,156);fill-rule:nonzero;"/>
        <path id="p361" serif:id="p36" d="M176.47,54.8L177.7,53.02C180.42,52.36 183.5,52.75 186.29,52.74C185.56,61.67 183.73,70.57 182.28,79.42C179.32,79.59 176.35,79.64 173.38,79.64C173.33,78.74 173.28,77.84 173.21,76.94C168.23,80.37 162.09,81.78 156.73,78.28C152.52,75.12 152.04,70.45 152.36,65.55C153.49,61.87 154.93,58.48 157.92,55.9C162.93,51.43 171.05,50.47 176.47,54.8ZM161.6,66.02C161.95,67.82 161.95,70.27 163.53,71.49C166.54,73.87 171.62,72.9 173.85,69.84C175.39,67.87 175.49,65.6 175.6,63.2C173.91,60.71 172.19,59.22 168.98,59.51C164.97,59.84 163.06,62.62 161.6,66.02Z" style="fill:rgb(254,254,254);fill-rule:nonzero;"/>
        <path id="p371" serif:id="p37" d="M280.35,54.99C280.5,54.23 280.65,53.47 280.81,52.72C283.81,52.69 286.82,52.69 289.83,52.76C289.58,58.47 288.22,64.14 287.47,69.81C286.9,72.92 286.78,76.49 285.4,79.36C282.72,79.82 279.77,79.89 277.13,79.28L276.44,76.94C271.73,80.76 264.2,81.75 259.42,77.58C255.81,74.18 255.65,69.9 255.99,65.25C257.07,61.81 258.43,58.63 261.15,56.16C266.31,51.31 274.71,50.44 280.35,54.99ZM265.29,65.32C265.43,67.57 265.27,70.21 267.33,71.68C270.97,74.17 276.65,72.37 278.32,68.32C278.86,66.86 279.07,65.23 279.32,63.7C277.81,61.19 276.24,59.3 273,59.49C269.04,59.58 267,62.09 265.29,65.32Z" style="fill:rgb(254,254,253);fill-rule:nonzero;"/>
        <path id="p381" serif:id="p38" d="M405.26,52.69C408.69,53.93 410.36,56.71 411.82,59.85C411.97,61.88 411.98,63.95 411.82,65.99C409.52,66.01 407.23,66.04 404.93,66.06C402.09,66.04 399.25,66.05 396.4,66.14L395.5,66.15C396.13,67.68 396.6,70 398.13,70.89C399.81,72 402.09,71.36 403.98,71.21C404.41,70.45 404.84,69.68 405.27,68.91C406.86,68.97 408.45,69.02 410.04,69.1L412.33,69.22C411.21,70.98 410.11,73.1 408.5,74.45C403.44,78.48 394.69,77.43 391.12,71.89C388.84,68.18 389.34,63.57 389.78,59.44C390.94,57.35 391.98,55.39 393.96,53.95C397.07,51.63 401.7,51.48 405.26,52.69ZM397.91,57.83C397,59.15 396.19,60.53 395.38,61.91C398.9,62.03 402.41,62.04 405.93,61.87C405.07,60.43 404.21,58.99 403.12,57.7C402.17,56.48 398.76,56.43 397.91,57.83Z" style="fill:rgb(253,254,253);fill-rule:nonzero;"/>
        <path id="p391" serif:id="p39" d="M434.98,56.98C435.2,58.32 435.41,59.66 435.64,61C433.44,61 431.25,61.01 429.06,61.02C428.68,59.92 428.31,58.82 427.93,57.72C426.72,57.46 425.46,57.1 424.22,57.08C422.38,57.71 421.36,59.16 420.8,60.95C420.61,63.32 420.42,65.86 420.94,68.19C421.53,70.41 423.4,72.04 425.79,71.63C427.97,71.61 428.4,68.92 429.37,67.4C431.44,67.38 433.52,67.36 435.59,67.33C435.36,69.25 434.85,71.08 433.69,72.65C430.36,77.8 421.97,78.14 417.47,74.49C413.69,71.01 413.9,66 413.97,61.27C415.11,57.76 416.35,54.6 419.92,52.95C425.31,50.92 431.8,51.65 434.98,56.98Z" style="fill:rgb(253,254,253);fill-rule:nonzero;"/>
        <path id="p401" serif:id="p40" d="M491.58,52.48C495.66,53.65 497.44,56.82 499.13,60.42C499.61,64.83 499.5,69.02 496.73,72.7C493.54,77.12 486.84,77.74 482.07,75.98C477.16,73.98 475.19,69.12 475.03,64.1C475.44,60.62 476.3,57.39 478.86,54.86C481.96,51.62 487.52,51.52 491.58,52.48ZM481.53,63.89C481.88,65.77 482.1,68.13 483.23,69.73C485.22,72.41 489.66,72.3 491.48,69.47C492.99,67.12 492.61,63.53 492.33,60.88C491.33,58.16 488.25,56.1 485.4,57.38C482.53,58.57 482.28,61.24 481.53,63.89Z" style="fill:rgb(253,254,253);fill-rule:nonzero;"/>
        <path id="p411" serif:id="p41" d="M503.64,52.38C505.88,52.38 508.13,52.38 510.38,52.39C510.53,57.78 510.15,63.22 510.52,68.59C510.39,72.91 517.13,72.43 517.93,68.89C519.24,63.79 517.21,57.1 519.47,52.03C521.23,52.21 523,52.37 524.77,52.52C524.88,60.34 524.79,68.16 524.82,75.99L518.55,75.99C518.65,75.1 518.75,74.21 518.85,73.32C516.51,75.53 514.51,77.22 511.04,76.87C506.73,76.74 504.27,73.9 503.69,69.76C503.46,63.97 503.63,58.17 503.64,52.38Z" style="fill:rgb(254,254,254);fill-rule:nonzero;"/>
        <path id="p421" serif:id="p42" d="M189.97,52.73C192.96,52.68 196.04,52.51 199.01,52.9C201.41,57.39 202.19,62.83 203.92,67.63C207.42,62.85 210.36,57.54 214.17,53.02C217.09,52.42 220.24,52.7 223.21,52.66L223.31,54.2C215.67,65.94 207.35,77.32 199.45,88.9C196.2,89.01 192.96,89.01 189.71,88.84C190.16,87.89 190.58,86.92 191.07,86C193.13,82.89 195.49,80.05 197.43,76.87C197.18,75.97 196.91,75.09 196.62,74.2C194.51,67.1 190.97,60.08 189.97,52.73Z" style="fill:rgb(253,254,253);fill-rule:nonzero;"/>
        <path id="p431" serif:id="p43" d="M403.12,57.7C401.35,58.24 399.71,58.27 397.91,57.83C398.76,56.43 402.17,56.48 403.12,57.7Z" style="fill:rgb(72,178,228);fill-rule:nonzero;"/>
        <path id="p441" serif:id="p44" d="M485.4,57.38C488.25,56.1 491.33,58.16 492.33,60.88C491.9,63.81 492.06,66.64 488.66,67.6C485.03,68.45 483.78,66.12 481.53,63.89C482.28,61.24 482.53,58.57 485.4,57.38Z" style="fill:rgb(1,156,223);fill-rule:nonzero;"/>
        <path id="p451" serif:id="p45" d="M397.91,57.83C399.71,58.27 401.35,58.24 403.12,57.7C404.21,58.99 405.07,60.43 405.93,61.87C402.41,62.04 398.9,62.03 395.38,61.91C396.19,60.53 397,59.15 397.91,57.83Z" style="fill:rgb(1,109,155);fill-rule:nonzero;"/>
        <path id="p461" serif:id="p46" d="M168.98,59.51C172.19,59.22 173.91,60.71 175.6,63.2C173.61,65.73 172.4,68.32 168.83,68.7C165.75,69.27 163.98,67.54 161.6,66.02C163.06,62.62 164.97,59.84 168.98,59.51Z" style="fill:rgb(2,156,223);fill-rule:nonzero;"/>
        <path id="p471" serif:id="p47" d="M273,59.49C276.24,59.3 277.81,61.19 279.32,63.7C276.8,66.27 275.04,68.97 271.01,68.81C268.19,68.92 267.03,67.15 265.29,65.32C267,62.09 269.04,59.58 273,59.49Z" style="fill:rgb(2,156,222);fill-rule:nonzero;"/>
        <path id="p481" serif:id="p48" d="M454.42,59.74C456.26,63.35 458.85,66.76 460.22,70.57C460.15,71.3 460.01,72.05 459.81,72.81C457.22,69.19 455.23,65.15 452.94,61.33C453.43,60.8 453.93,60.27 454.42,59.74Z" style="fill:rgb(15,117,163);fill-rule:nonzero;"/>
        <path id="p491" serif:id="p49" d="M337.93,60.62C339.84,64.51 342.06,67.93 347.01,67.17C350.53,66.57 351.18,63.81 352.77,61.11C354.84,61.07 356.92,61.04 358.99,61.02C358.77,62.36 358.54,63.71 358.31,65.05C356.44,65.02 354.57,65.01 352.7,65C351.86,66.6 351.12,68.51 349.86,69.84C347.13,71.89 343.22,71.66 340.85,69.16C338.42,66.86 338.32,63.75 337.93,60.62Z" style="fill:rgb(1,109,155);fill-rule:nonzero;"/>
        <path id="p501" serif:id="p50" d="M420.8,60.95C421.04,63.65 420.9,67.02 424.24,67.68C427.54,68.5 428.2,65.46 429.92,63.42C431.68,63.47 433.43,63.54 435.19,63.6C435.33,64.84 435.47,66.09 435.59,67.33C433.52,67.36 431.44,67.38 429.37,67.4C428.4,68.92 427.97,71.61 425.79,71.63C423.4,72.04 421.53,70.41 420.94,68.19C420.42,65.86 420.61,63.32 420.8,60.95Z" style="fill:rgb(2,110,156);fill-rule:nonzero;"/>
        <path id="p511" serif:id="p51" d="M492.33,60.88C492.61,63.53 492.99,67.12 491.48,69.47C489.66,72.3 485.22,72.41 483.23,69.73C482.1,68.13 481.88,65.77 481.53,63.89C483.78,66.12 485.03,68.45 488.66,67.6C492.06,66.64 491.9,63.81 492.33,60.88Z" style="fill:rgb(3,106,156);fill-rule:nonzero;"/>
        <path id="p521" serif:id="p52" d="M175.6,63.2C175.49,65.6 175.39,67.87 173.85,69.84C171.62,72.9 166.54,73.87 163.53,71.49C161.95,70.27 161.95,67.82 161.6,66.02C163.98,67.54 165.75,69.27 168.83,68.7C172.4,68.32 173.61,65.73 175.6,63.2Z" style="fill:rgb(1,108,154);fill-rule:nonzero;"/>
        <path id="p531" serif:id="p53" d="M583.23,62.75C584.1,64.99 584.96,67.22 585.67,69.51C583.72,88.22 569.93,104.61 551.92,109.94C544.28,112.37 536.89,112.03 529,112.01L64,112.01C56.03,111.97 48.71,112.48 40.94,110.19C23.56,105.41 9.83,90.36 6.8,72.57C9.76,75.52 11.86,78.45 13.66,82.22C19.07,93.52 29.46,103.05 41.68,106.33C48.45,108.48 54.99,107.91 62,107.98C218,107.97 374,107.97 530,107.98C536.97,107.91 543.49,108.47 550.22,106.35C562.24,103.15 572.52,93.88 577.96,82.82C581.24,76.51 582.45,69.75 583.23,62.75Z" style="fill:rgb(13,135,188);fill-rule:nonzero;"/>
        <path id="p541" serif:id="p54" d="M279.32,63.7C279.07,65.23 278.86,66.86 278.32,68.32C276.65,72.37 270.97,74.17 267.33,71.68C265.27,70.21 265.43,67.57 265.29,65.32C267.03,67.15 268.19,68.92 271.01,68.81C275.04,68.97 276.8,66.27 279.32,63.7Z" style="fill:rgb(2,109,153);fill-rule:nonzero;"/>
        <path id="p551" serif:id="p55" d="M395.5,66.15L396.4,66.14C397.9,66.74 399.44,67.47 401,67.87C402.41,67.43 403.62,66.74 404.93,66.06C407.23,66.04 409.52,66.01 411.82,65.99C411.24,67.03 410.65,68.07 410.04,69.1C408.45,69.02 406.86,68.97 405.27,68.91C404.84,69.68 404.41,70.45 403.98,71.21C402.09,71.36 399.81,72 398.13,70.89C396.6,70 396.13,67.68 395.5,66.15Z" style="fill:rgb(1,108,155);fill-rule:nonzero;"/>
        <path id="p561" serif:id="p56" d="M396.4,66.14C399.25,66.05 402.09,66.04 404.93,66.06C403.62,66.74 402.41,67.43 401,67.87C399.44,67.47 397.9,66.74 396.4,66.14Z" style="fill:rgb(3,147,207);fill-rule:nonzero;"/>
        <path id="p571" serif:id="p57" d="M196.62,74.2C196.91,75.09 197.18,75.97 197.43,76.87C195.49,80.05 193.13,82.89 191.07,86C190.76,85.02 190.45,84.04 190.14,83.06C192.24,80.06 194.39,77.1 196.62,74.2Z" style="fill:rgb(15,121,167);fill-rule:nonzero;"/>
    </g>
</svg>
