<svg width="100%" height="100%" viewBox="0 0 1031 972" version="1.1" xmlns="http://www.w3.org/2000/svg" xmlns:xlink="http://www.w3.org/1999/xlink" xml:space="preserve" xmlns:serif="http://www.serif.com/" style="fill-rule:evenodd;clip-rule:evenodd;">
    <g>
        <path id="p1" d="M622.18,51.11C639.23,49.31 656.29,50.91 672.93,54.9C675.3,55.6 677.69,56.24 680.09,56.81C699.85,63.15 719.26,70.89 736.69,82.29C744.94,87.54 752.64,93.56 759.9,100.08C783.36,122.19 801.64,149.89 812.79,180.14C813.62,182.39 814.37,184.66 815.21,186.9C819.61,199.38 823.03,212.13 826.1,224.99C832.17,251.4 836.56,278.01 838.56,305.04C843.73,305.74 846.95,309.08 850.87,312.16C870.12,327.55 884.09,348.92 895.52,370.49C904.67,387.27 910.19,405.91 911.45,425C911.97,435.99 911.82,447.02 911.32,458C910.03,473.11 908.11,488.13 904.77,502.94C898.25,534.81 886.29,564.21 872.66,593.61C862.79,614.77 851.15,634.93 838.41,654.48C830.05,667.12 820.3,678.87 809.49,689.5C798.5,700.75 785.6,710.5 771.4,717.34C759.73,722.7 746.74,725.9 733.93,726.76C723.4,728.08 712.61,727.54 702,727.64C695.72,727.48 689.29,727.76 683.07,726.87C680.96,726.71 678.86,726.57 676.75,726.45C667.53,735.22 657.41,742.45 646.06,748.21C643.75,749.24 641.42,750.21 639.11,751.24C632.8,753.51 626.46,755.12 619.68,754.64C597.64,776.09 572.92,793.81 546.58,809.58C514.19,828.25 481.29,845.94 447.16,861.24C424.22,871.6 400.87,880.85 377.15,889.22C357.05,896.4 336.49,901.74 315.8,906.88C310.84,907.97 306.01,907.53 301.01,908C298.64,908.22 296.28,908.33 293.9,908.11C288.52,907.47 283.16,907.65 277.83,906.55C267.17,904.9 258.92,899.46 249.75,894.23C235.42,885.36 220.76,876.05 208.25,864.7C195.41,853.51 184.51,839.95 175.57,825.49C169.84,815.63 165.07,805.31 162.8,794.07C162.51,792.05 162.21,790.03 161.79,788.03C161.5,781.67 160.8,775.03 162.75,768.93C167.21,766.07 172.11,765.37 177.16,764.22C197.42,760.02 217.26,755.54 236.85,748.79C245.56,745.86 254.28,742.97 262.9,739.81C269.26,737.57 275.6,735.22 281.9,732.82C286.27,731.25 290.57,729.52 294.9,727.82C298.95,726.35 302.93,724.71 306.88,722.99C321.49,716.54 336.19,710.03 350.3,702.55C366.54,693.84 382.48,684.62 397.71,674.24C397.58,673.84 397.45,673.45 397.32,673.06C390.26,669.61 383.62,665.2 376.98,661C371.57,657.26 365.92,653.7 360.94,649.38C355.88,648.95 350.88,651.95 345.83,652.81L345.12,653.14C328.93,657.28 312.54,660.43 296.07,663.15C294.05,663.46 292.02,663.74 290.01,664.12C287.68,664.42 285.35,664.67 283.04,665.1C274.68,666.04 266.37,667.55 258,668.39C252.62,668.54 247.38,669.61 241.99,669.56C226.72,670.83 211.28,670.51 195.97,670.15C189.95,669.23 183.87,669.7 177.83,668.69C170.99,668.59 164.57,666.8 157.98,665.2C152.3,663.17 146.78,661.47 141.46,658.54C134.3,654.61 127.35,650.15 121.01,644.98C105.31,632.46 93.54,616.61 83.6,599.3C75.96,585.06 70.23,569.86 68.36,553.73C68.17,553.48 67.97,553.23 67.78,552.98C67.79,549.27 65.57,545.03 67.67,541.8C69.74,541.03 72.76,540.94 74.91,540.45C80.31,540.48 85.58,541.62 91.01,541.4C104.68,541.77 118.13,540.39 131.72,539.12C146.17,537.06 160.7,535.03 174.95,531.87C182.01,530.49 188.97,528.83 195.88,526.87C201.3,525.37 206.65,523.62 212.07,522.16C237.17,514.35 261.71,504.62 285.46,493.36C310.75,481.32 333.75,464.27 353.29,444.25C370.31,426.52 385.28,406.77 397.78,385.61C398.75,384.18 398.71,382.77 398.65,381.11C393.73,376.1 389.64,370.19 385.7,364.4C378.07,353.39 373.04,340.77 368.77,328.15C364.01,311.38 363.55,294.27 364.7,276.98C365.74,266.42 367.94,256.05 370.78,245.83C375.58,227.66 384.42,210.12 394.34,194.23C412.85,164.39 442.11,141.19 475.69,130.74C478.97,129.58 483.44,129.46 485.67,126.6C495.43,115.9 504.79,105.31 515.91,95.89C532.6,81.04 551.98,71.05 572.55,62.72C580.34,59.79 588.03,57.07 596.13,55.18C604.59,52.87 613.45,51.74 622.18,51.11ZM496.08,130.25C505.23,128.63 515.4,127.45 524.56,129.45C527.18,136.21 524.36,141.85 522.12,148.21C543.26,151.28 563.44,159.19 582.43,168.78C588.9,172.28 595.15,175.19 600.74,180.05C597.62,176.02 594.47,171.73 590.67,168.31C588.57,166.32 586.18,165.23 585.65,162.1C586.04,158.76 587.14,155.46 588.25,152.29C589.17,149.84 590.24,147.64 592.82,146.63C595.23,146.09 598.01,147.83 600.2,148.76C615.86,156.4 631.52,165.78 644.19,177.84C652.14,184.81 659.4,192.51 666.03,200.73C673.77,210.49 680.5,220.54 684.47,232.46C687.14,240.71 689.31,249.34 689.76,258.02C691.11,269.92 690.12,281.24 689.26,293.08C688.81,296.92 688.11,300.73 687.52,304.55C684.76,313.79 683.41,323.68 679.93,332.6C674.57,346.25 665.58,358.94 656.32,370.23C651.83,375.37 647.27,380.53 642.14,385.05C634.77,391.66 627.76,398.33 619.15,403.1C610.93,407.67 603.26,412.98 594.83,416.99C584.41,422.01 573.11,425.8 561.81,428.29C546.65,431.54 531.23,430.67 516.15,427.47C512.83,426.73 510.3,424.51 509.93,421C508.61,412.17 506.76,403.74 507.51,394.74C509.64,393.27 511.39,392.41 514.02,392.15C521.02,391.22 527.79,389.34 534.54,387.31C545.06,383.87 555.36,379.87 564.98,374.35C557.47,377.51 548.97,378.48 540.99,379.94C529.8,382.05 518.43,381.89 507,381.44C488.94,379.8 471.37,376.14 454.7,368.85C440.03,362.18 426.44,353.94 415.17,342.28C417.24,345.63 418.28,349.33 419.98,352.85C423.13,359.23 427.11,364.99 431.29,370.71C433.23,373.3 432.36,376.12 429.8,377.78C424.44,381.15 417.93,382.85 411.72,383.73C409.77,387.29 407.99,390.94 406.11,394.53C396.05,411.44 384.16,427.39 371.21,442.18C344.71,472.45 310.91,495.87 273.54,510.68C250.42,520.13 227.45,528.89 203.3,535.39C183.19,541.48 161.7,544.61 140.86,547.06C124.08,549.35 107.2,549.93 90.28,549.44C85.35,548.98 80.44,548.37 75.49,548.13C76.78,555.39 78.05,562.92 80.23,569.96C83.03,579.22 87.03,588.33 91.84,596.71C98.26,607.88 106.12,618.65 115.02,627.98C127.9,640.81 144.19,652.59 162.02,657.15C168.35,659.06 175.44,659.21 182.01,659.77C192.6,660.9 203.35,660.68 214,660.69C230.37,660.67 246.74,659.44 262.98,657.45C283.1,654.61 303.44,651.66 323.21,647.25C331.7,645.63 339.9,643.03 348.28,641.02C348.38,640.55 348.48,640.09 348.58,639.62C344.07,635.81 337.7,631.7 335.55,626.03C335.54,624.98 335.54,623.93 335.55,622.88C336.38,622.46 337.21,622.05 338.04,621.63C340.85,622.41 343.43,623.39 345.61,625.39C352.47,631.28 359.62,636.79 366.89,642.16C376.02,648.52 384.8,655.13 394.44,660.72C399.53,663.96 404.92,665.84 409.55,669.74C409.53,672.9 409.53,676.06 409.5,679.22C406.38,682.5 402.75,684.53 399.03,687.05C388.81,693.95 377.93,700 367.16,706.21C351.02,715.35 334.19,722.93 317.27,730.5C302.1,737.14 286.46,742.73 270.91,748.4C244.86,757.36 218.88,765.61 191.76,770.75C187.82,771.48 183.89,772.28 179.97,773.14C178.59,773.31 177.22,773.46 175.84,773.67C174.06,773.97 172.29,774.49 170.55,774.94C170.04,789.49 175.55,804.53 183,816.86C189.92,829.63 199.52,841.02 209.63,851.37C221.32,862.94 234.66,871.72 248.42,880.6C257.38,886.28 266.16,891.69 276.71,893.93C293.5,896.82 310.18,895.64 326.79,892.26C350.85,886.66 373.73,878.45 396.79,869.78C429.73,857.23 461.72,842.45 492.87,825.99C507.05,818.1 521.54,810.72 535.45,802.39C559.41,788.5 582.16,772.35 602.86,753.93C605.55,751.64 608.16,749.17 611.04,747.11C614.24,744.48 618.93,745.99 622.98,744.92C632.75,742.79 642.07,737.82 650.47,732.51C657.73,727.37 664.86,721.55 671.2,715.32C685.19,698.96 699.3,682.06 710.95,663.94C729.76,637.87 744.96,609.32 758.76,580.37C770.8,554.69 782.23,528.86 791.71,502.1C794.6,494.76 796.69,487.17 799.4,479.77C806.98,458.23 813.02,436.19 817.56,413.81C821.97,393.48 824.9,372.75 825.82,351.96C826.97,339.72 826.54,327.28 826.47,315C826.48,308.45 825.6,302.04 824.72,295.57C824.41,288.6 823.41,281.62 822.42,274.71C819.38,253.91 815.54,233.16 810.18,212.83C805.21,195.61 799.89,179.04 791.81,162.99C780.68,141.56 766.08,122.02 748.04,105.92C730.9,90.85 710.84,80.22 689.48,72.45C671.64,65.56 652.21,60.89 632.99,61.57C628.29,61.57 623.68,62.29 619,62.57C600.03,64.16 581.56,70.37 564.17,77.87C545.87,85.76 529.06,96.94 514.84,110.89C510.25,114.97 506.06,119.43 501.56,123.59C499.43,125.58 497.82,127.92 496.08,130.25ZM482.89,138.76C474.5,141.35 466.34,144.61 458.54,148.66C448.78,153.93 439.93,161.31 431.93,168.94C420.59,179.64 410.75,191.97 402.49,205.18C397,213.1 392.6,222.03 388.49,230.74C383.71,240.97 380.26,251.65 378.37,262.8C374.2,282.51 374.18,303.42 378.79,323.05C382.37,335.4 386.84,347.29 393.71,358.22C397.05,363.93 401.34,368.91 405.04,374.37C410.76,375.23 415.91,373.93 421.21,371.9C419.54,368.9 417.52,366.14 415.7,363.24C411.04,355.41 407.43,347.01 404.75,338.3C403.05,332.66 402.1,326.87 402.44,320.96C402.51,319.02 403.25,317.34 403.98,315.58L406.15,315.74C408.43,317.88 409,321.51 410.75,324.16C415.21,331.55 422.2,337.79 428.73,343.35C445.67,356.86 466.64,365.45 488.01,368.65C500.79,370.88 514.06,370.85 527,370.65C540.11,370.32 553.36,368.57 565.97,364.9C574.43,362.5 582.85,360.1 590.97,356.68C591.93,357.01 592.89,357.33 593.85,357.64C594.02,359.49 595.03,361.09 593.64,362.61C591.05,365.63 587.86,368.11 585.16,371.04C571.65,382.88 553.62,390.6 536.55,395.7C529.99,397.8 523.24,398.94 516.42,399.76C516.5,406.03 517.19,412.29 517.84,418.53C518.2,420.69 520.34,420.15 521.98,420.42C536.33,421.02 551.05,420.44 565.08,417.19C570.96,415.46 576.73,414 582.28,411.3C589.59,407.81 596.62,403.7 603.43,399.31C614.53,392.29 626.32,384.96 635.67,375.67C649.21,363.83 659.49,349.3 668.1,333.6C671.89,326.38 674.04,317.94 675.9,310.04C679.5,294.65 680.37,278.8 679.11,263.07C676.7,238.92 667.2,213.96 650.21,196.26C644.06,189.95 637.89,183.52 631.11,177.88C621.9,170.01 611.9,163.31 601.31,157.45C599.92,156.62 598.42,156.4 596.85,156.13C596.6,158.51 596.36,160.9 596.12,163.29C604.02,170.67 611.63,178.23 618.01,187C624.05,195.7 628.56,205.16 632.34,215.03C631.95,216.04 631.56,217.04 631.17,218.05C630.4,218.58 629.64,219.12 628.88,219.66C623.19,216.4 619.51,211.54 615.47,206.55C609.91,199.56 603.65,193.24 596.4,188.01L596.17,187.82C589.29,182.33 581.8,178.88 574.07,174.83C570.43,173.14 566.82,171.4 563.18,169.7C560.83,168.74 558.48,167.74 556.13,166.78C553.74,165.91 551.36,164.98 548.96,164.12C540.92,161.27 532.55,159.02 524.16,157.52C516.4,156.06 508.86,156.23 501,156.35C488.35,156.52 476.75,159.8 464.89,163.8C461,164.79 455.01,168.53 451.46,165.58C451.6,163.56 451.79,162.58 453.49,161.4C457.44,158.64 462.27,156.95 466.54,154.68C481.82,146.06 499.68,141.62 517.08,140.21C517.61,138.58 518.16,136.95 518.71,135.32C516.11,134.8 513.6,134.48 510.95,134.9C506.98,135.44 502.99,135.39 499,135.67C493.45,136.17 488.26,137.43 482.89,138.76ZM798.27,520.68C795.48,526.58 793.54,532.79 790.99,538.79C779.52,566.02 767.12,593.08 753.26,619.19C736.53,650.37 716.61,679.87 694.37,707.38C691.82,710.84 689.11,713.8 685.87,716.63C701.22,716.83 716.72,717.07 732,715.46C742.81,714.36 753.36,712.04 763.18,707.27C785.32,696.94 803.33,678.77 818.33,659.85C827.06,647.62 835.73,634.87 843.02,621.54C850.24,608.3 857.39,595.07 863.47,581.24C868.67,569.31 873.84,557.33 878.35,545.11C887.19,521.52 893.12,496.8 896.26,471.82C897.38,457.42 899.22,442.39 897.76,428.01C897.23,415.31 894.52,402.66 889.89,390.83C887.07,383.91 883.71,377.2 880.11,370.66C873.04,358.15 864.99,345.57 855.27,334.95C850.57,329.18 845.38,324.37 839.45,319.9C839.11,325.94 839.41,331.96 838.8,337.99C838.7,358.46 836.58,378.93 833.15,399.11C828.32,426.49 821.58,453.66 812.67,480.01C808.22,493.69 803.17,507.16 798.27,520.68Z" style="fill-rule:nonzero;stroke:black;stroke-width:10px;"/>
        <path id="p2" d="M619,62.57C623.68,62.29 628.29,61.57 632.99,61.57C652.21,60.89 671.64,65.56 689.48,72.45C710.84,80.22 730.9,90.85 748.04,105.92C766.08,122.02 780.68,141.56 791.81,162.99C799.89,179.04 805.21,195.61 810.18,212.83C815.54,233.16 819.38,253.91 822.42,274.71C823.41,281.62 824.41,288.6 824.72,295.57C823.28,305.84 823.38,316.57 822.85,327C822.21,347.6 818.27,368.4 815.38,389.12C811.85,409.56 806.15,429.77 799.3,449.34C789.92,477.83 777.35,504.85 763.22,531.26C756.65,543.22 749.54,554.86 742.47,566.53C725.42,594.67 706.24,621.66 683.75,645.74C678.96,650.82 674.73,655.94 669.64,660.64C654.91,674.14 638.92,686.29 622.19,697.2C611.75,703.98 600.55,709.49 588.84,713.71C585.17,715.07 581.37,714.85 577.63,715.7C575.96,716.49 574.57,718.01 573.25,719.27C563.1,729.74 551.49,738.99 540.17,748.18C510.94,770.83 480.27,791.75 448.19,810.18C427,822.5 405.37,833.91 383.03,844.03C369.98,850.02 356.65,855.26 342.67,858.68C326.28,863.14 308.41,863.56 292,859.01C273.45,853.86 255.61,847.73 238.82,838.16C230.77,833.61 223.51,827.53 216.53,821.47C201.62,808.21 188.23,792.27 179.66,774.15C178.39,773.97 177.12,773.81 175.84,773.67C177.22,773.46 178.59,773.31 179.97,773.14C183.89,772.28 187.82,771.48 191.76,770.75C218.88,765.61 244.86,757.36 270.91,748.4C286.46,742.73 302.1,737.14 317.27,730.5C334.19,722.93 351.02,715.35 367.16,706.21C377.93,700 388.81,693.95 399.03,687.05C402.75,684.53 406.38,682.5 409.5,679.22C411.76,676.82 414.18,674.75 417.04,673.08C422.04,670.12 426.76,666.73 431.73,663.72C433.48,662.49 435.67,661.46 435.67,659C435.47,655.16 431.86,653.57 428.89,652.04C403.25,639.55 378.69,626.49 356.11,608.87C352.54,606.35 349.06,602.66 344.91,601.19C340.44,600.85 335.65,604.18 331.41,605.5C312.9,613.02 293.66,616.42 273.99,619.19C241.51,623.11 208.57,621.62 176.87,613.29C159.82,608.85 142.83,602.47 127.8,593.19C116.25,585.99 105.28,578 95.81,568.17C90.17,562.53 87.21,559.38 82.18,553.2C85.56,553.02 86.91,549.68 90.28,549.44C107.2,549.93 124.08,549.35 140.86,547.06C161.7,544.61 183.19,541.48 203.3,535.39C227.45,528.89 250.42,520.13 273.54,510.68C310.91,495.87 344.71,472.45 371.21,442.18C384.16,427.39 396.05,411.44 406.11,394.53C412.25,390.89 419.2,390.94 425.51,387.67C429.53,385.97 432.96,382.95 437.01,381.45C440.79,381.99 444.41,383.86 448.09,384.91C458.15,387.91 468.34,390.44 478.65,392.45C484.22,393.6 489.88,394.12 495.41,395.48C496.73,403.71 498.16,411.91 499.71,420.11C500.5,423.99 500.8,428.15 502.16,431.87C502.67,433.56 504.82,434.19 506.28,434.83C512.88,437.05 520.08,437.75 527,437.86C537.06,437.91 546.98,438.1 557,437.04C571.85,435.51 587.31,433.84 601.62,429.55C609.22,427.32 616.63,423.33 623.72,419.75C633.38,414.84 642.13,408.45 650.03,401.05C662.06,390.69 670.64,377.76 677.57,363.59C684.34,349.01 687.37,333.04 687.27,317C687.41,312.83 687.9,308.73 687.52,304.55C688.11,300.73 688.81,296.92 689.26,293.08C690.12,281.24 691.11,269.92 689.76,258.02C689.31,249.34 687.14,240.71 684.47,232.46C680.5,220.54 673.77,210.49 666.03,200.73C659.4,192.51 652.14,184.81 644.19,177.84C631.52,165.78 615.86,156.4 600.2,148.76C598.01,147.83 595.23,146.09 592.82,146.63C590.24,147.64 589.17,149.84 588.25,152.29C587.14,155.46 586.04,158.76 585.65,162.1C586.18,165.23 588.57,166.32 590.67,168.31C594.47,171.73 597.62,176.02 600.74,180.05C595.15,175.19 588.9,172.28 582.43,168.78C563.44,159.19 543.26,151.28 522.12,148.21C524.36,141.85 527.18,136.21 524.56,129.45C515.4,127.45 505.23,128.63 496.08,130.25C497.82,127.92 499.43,125.58 501.56,123.59C506.06,119.43 510.25,114.97 514.84,110.89C529.06,96.94 545.87,85.76 564.17,77.87C581.56,70.37 600.03,64.16 619,62.57Z" style="fill-rule:nonzero;stroke:rgb(140,158,255);stroke-width:10px;"/>
        <path id="p3" d="M510.95,134.9C513.6,134.48 516.11,134.8 518.71,135.32C518.16,136.95 517.61,138.58 517.08,140.21C499.68,141.62 481.82,146.06 466.54,154.68C462.27,156.95 457.44,158.64 453.49,161.4C451.79,162.58 451.6,163.56 451.46,165.58C455.01,168.53 461,164.79 464.89,163.8C476.75,159.8 488.35,156.52 501,156.35C508.86,156.23 516.4,156.06 524.16,157.52C532.55,159.02 540.92,161.27 548.96,164.12C551.36,164.98 553.74,165.91 556.13,166.78C558.48,167.74 560.83,168.74 563.18,169.7C566.82,171.4 570.43,173.14 574.07,174.83C581.8,178.88 589.29,182.33 596.17,187.82L596.4,188.01C597.53,191.01 599.41,193.14 601.64,195.36C616.5,212.14 626.39,233.14 629.55,255.35C631.38,270.36 631.02,285.38 625.73,299.71C622.58,308.99 617.17,317.35 610.16,324.17C605.61,328.38 600.51,332.02 595.22,335.23C587.19,340.12 578.16,342.82 569.12,345.16C559.62,347.59 549.75,348.3 540,348.8C511.33,351.15 481.65,346.51 455.4,334.61C444.23,329.33 433.49,322.91 423.81,315.2C416.28,309.07 409.83,301.56 404.48,293.48C400.18,286.9 397.75,279.59 396.03,271.98C393.88,263.08 392.48,254.18 392.75,245C393.05,236.45 395.05,227.8 397.62,219.67C399.11,214.65 401.87,210.46 402.49,205.18C410.75,191.97 420.59,179.64 431.93,168.94C439.93,161.31 448.78,153.93 458.54,148.66C466.34,144.61 474.5,141.35 482.89,138.76C488.26,137.43 493.45,136.17 499,135.67C502.99,135.39 506.98,135.44 510.95,134.9ZM452.49,233.7C446.25,235.98 441.51,242.79 438.38,248.38C432.47,258.64 430.83,271.08 433.69,282.54C434.93,287.08 437.91,291.82 442.98,292.43C448.56,292.55 453.26,287.49 456.27,283.29C460.77,276.42 465.19,268.36 465.66,260.01C466.32,252.11 465.57,242.83 460.99,236.1C459.03,233.03 455.73,232.95 452.49,233.7ZM545.33,249.31C537.51,252.64 531.88,261.31 529.05,269.03C526.02,276.81 525.89,284.8 526.43,293.01C526.82,297.94 528.44,302.87 530.91,307.15C532.9,310.81 537.84,313.54 541.93,311.91C546.5,310.5 549.46,306.98 552.46,303.47C560.07,294.89 562.97,282.22 562.59,271C562.5,264.22 561.69,257.37 556.84,252.22C553.92,249.05 549.44,247.53 545.33,249.31Z" style="fill-rule:nonzero;stroke:rgb(254,254,254);stroke-width:10px;"/>
        <path id="p4" d="M601.31,157.45C611.9,163.31 621.9,170.01 631.11,177.88C637.89,183.52 644.06,189.95 650.21,196.26C650.81,198.71 651.52,201.11 652.6,203.4C657.53,213.71 660.9,224.8 663.12,235.99C665.47,247.72 665.12,260.17 663.83,272.01C662.67,286.41 658.29,300.68 653.11,314.11C645.25,333.56 630.15,347.32 613.91,359.87C605.84,365.63 596.37,369.72 586.9,372.59C586.32,372.07 585.74,371.56 585.16,371.04C587.86,368.11 591.05,365.63 593.64,362.61C595.03,361.09 594.02,359.49 593.85,357.64C592.89,357.33 591.93,357.01 590.97,356.68C582.85,360.1 574.43,362.5 565.97,364.9C553.36,368.57 540.11,370.32 527,370.65C514.06,370.85 500.79,370.88 488.01,368.65C466.64,365.45 445.67,356.86 428.73,343.35C422.2,337.79 415.21,331.55 410.75,324.16C409,321.51 408.43,317.88 406.15,315.74L403.98,315.58C404.14,315.18 404.31,314.78 404.48,314.37C395.22,306.63 388.11,296.26 384.09,284.9C382.2,279.8 382.12,274.46 380.53,269.32C379.86,267.13 379.05,264.99 378.37,262.8C380.26,251.65 383.71,240.97 388.49,230.74C392.6,222.03 397,213.1 402.49,205.18C401.87,210.46 399.11,214.65 397.62,219.67C395.05,227.8 393.05,236.45 392.75,245C392.48,254.18 393.88,263.08 396.03,271.98C397.75,279.59 400.18,286.9 404.48,293.48C409.83,301.56 416.28,309.07 423.81,315.2C433.49,322.91 444.23,329.33 455.4,334.61C481.65,346.51 511.33,351.15 540,348.8C549.75,348.3 559.62,347.59 569.12,345.16C578.16,342.82 587.19,340.12 595.22,335.23C600.51,332.02 605.61,328.38 610.16,324.17C617.17,317.35 622.58,308.99 625.73,299.71C631.02,285.38 631.38,270.36 629.55,255.35C626.39,233.14 616.5,212.14 601.64,195.36C599.41,193.14 597.53,191.01 596.4,188.01C603.65,193.24 609.91,199.56 615.47,206.55C619.51,211.54 623.19,216.4 628.88,219.66C629.64,219.12 630.4,218.58 631.17,218.05C631.56,217.04 631.95,216.04 632.34,215.03C628.56,205.16 624.05,195.7 618.01,187C611.63,178.23 604.02,170.67 596.12,163.29C596.36,160.9 596.6,158.51 596.85,156.13C598.42,156.4 599.92,156.62 601.31,157.45Z" style="fill-rule:nonzero;stroke:rgb(234,234,234);stroke-width:10px;"/>
        <path id="p5" d="M650.21,196.26C667.2,213.96 676.7,238.92 679.11,263.07C680.37,278.8 679.5,294.65 675.9,310.04C674.04,317.94 671.89,326.38 668.1,333.6C659.49,349.3 649.21,363.83 635.67,375.67C626.32,384.96 614.53,392.29 603.43,399.31C596.62,403.7 589.59,407.81 582.28,411.3C576.73,414 570.96,415.46 565.08,417.19C551.05,420.44 536.33,421.02 521.98,420.42C520.34,420.15 518.2,420.69 517.84,418.53C517.19,412.29 516.5,406.03 516.42,399.76C523.24,398.94 529.99,397.8 536.55,395.7C553.62,390.6 571.65,382.88 585.16,371.04C585.74,371.56 586.32,372.07 586.9,372.59C596.37,369.72 605.84,365.63 613.91,359.87C630.15,347.32 645.25,333.56 653.11,314.11C658.29,300.68 662.67,286.41 663.83,272.01C665.12,260.17 665.47,247.72 663.12,235.99C660.9,224.8 657.53,213.71 652.6,203.4C651.52,201.11 650.81,198.71 650.21,196.26Z" style="fill-rule:nonzero;stroke:rgb(209,209,209);stroke-width:10px;"/>
        <path id="p6" d="M452.49,233.7C455.73,232.95 459.03,233.03 460.99,236.1C465.57,242.83 466.32,252.11 465.66,260.01C465.19,268.36 460.77,276.42 456.27,283.29C453.26,287.49 448.56,292.55 442.98,292.43C437.91,291.82 434.93,287.08 433.69,282.54C430.83,271.08 432.47,258.64 438.38,248.38C441.51,242.79 446.25,235.98 452.49,233.7Z" style="fill-rule:nonzero;stroke:rgb(171,179,227);stroke-width:10px;"/>
        <path id="p7" d="M545.33,249.31C549.44,247.53 553.92,249.05 556.84,252.22C561.69,257.37 562.5,264.22 562.59,271C562.97,282.22 560.07,294.89 552.46,303.47C549.46,306.98 546.5,310.5 541.93,311.91C537.84,313.54 532.9,310.81 530.91,307.15C528.44,302.87 526.82,297.94 526.43,293.01C525.89,284.8 526.02,276.81 529.05,269.03C531.88,261.31 537.51,252.64 545.33,249.31Z" style="fill-rule:nonzero;stroke:rgb(171,179,227);stroke-width:10px;"/>
        <path id="p8" d="M378.37,262.8C379.05,264.99 379.86,267.13 380.53,269.32C382.12,274.46 382.2,279.8 384.09,284.9C388.11,296.26 395.22,306.63 404.48,314.37C404.31,314.78 404.14,315.18 403.98,315.58C403.25,317.34 402.51,319.02 402.44,320.96C402.1,326.87 403.05,332.66 404.75,338.3C407.43,347.01 411.04,355.41 415.7,363.24C417.52,366.14 419.54,368.9 421.21,371.9C415.91,373.93 410.76,375.23 405.04,374.37C401.34,368.91 397.05,363.93 393.71,358.22C386.84,347.29 382.37,335.4 378.79,323.05C374.18,303.42 374.2,282.51 378.37,262.8Z" style="fill-rule:nonzero;stroke:rgb(209,209,209);stroke-width:10px;"/>
        <path id="p9" d="M824.72,295.57C825.6,302.04 826.48,308.45 826.47,315C826.54,327.28 826.97,339.72 825.82,351.96C824.9,372.75 821.97,393.48 817.56,413.81C813.02,436.19 806.98,458.23 799.4,479.77C796.69,487.17 794.6,494.76 791.71,502.1C782.23,528.86 770.8,554.69 758.76,580.37C744.96,609.32 729.76,637.87 710.95,663.94C706.45,666.56 703.91,670.71 700.12,674.12C695.24,678.58 690.91,683.57 686,687.99C675.35,697.67 664.1,706.42 651.61,713.61C637.03,722.34 621.03,728.31 604.58,732.44C601.62,733.18 598.54,733.72 595.66,734.73C592.58,735.84 589.95,738.39 587.58,740.59C582.49,745.51 577.22,750.22 571.9,754.9C557.99,766.81 543.93,778.39 528.87,788.85C494.27,812.94 457.55,832.27 419.68,850.63C404.86,857.5 389.77,863.86 374.4,869.39C361.58,874.31 348.41,877.12 335.1,880.25C325.88,882.06 316.41,883.37 307,883.29C295.53,882.81 283.83,881.14 272.7,878.3C266.18,876.68 260.2,873.82 254.29,870.7C231.64,858.75 209.69,843.62 192.05,824.95C189.1,821.89 187.1,818.58 183,816.86C175.55,804.53 170.04,789.49 170.55,774.94C172.29,774.49 174.06,773.97 175.84,773.67C177.12,773.81 178.39,773.97 179.66,774.15C188.23,792.27 201.62,808.21 216.53,821.47C223.51,827.53 230.77,833.61 238.82,838.16C255.61,847.73 273.45,853.86 292,859.01C308.41,863.56 326.28,863.14 342.67,858.68C356.65,855.26 369.98,850.02 383.03,844.03C405.37,833.91 427,822.5 448.19,810.18C480.27,791.75 510.94,770.83 540.17,748.18C551.49,738.99 563.1,729.74 573.25,719.27C574.57,718.01 575.96,716.49 577.63,715.7C581.37,714.85 585.17,715.07 588.84,713.71C600.55,709.49 611.75,703.98 622.19,697.2C638.92,686.29 654.91,674.14 669.64,660.64C674.73,655.94 678.96,650.82 683.75,645.74C706.24,621.66 725.42,594.67 742.47,566.53C749.54,554.86 756.65,543.22 763.22,531.26C777.35,504.85 789.92,477.83 799.3,449.34C806.15,429.77 811.85,409.56 815.38,389.12C818.27,368.4 822.21,347.6 822.85,327C823.38,316.57 823.28,305.84 824.72,295.57Z" style="fill-rule:nonzero;stroke:rgb(130,146,234);stroke-width:10px;"/>
        <path id="p10" d="M687.52,304.55C687.9,308.73 687.41,312.83 687.27,317C687.37,333.04 684.34,349.01 677.57,363.59C670.64,377.76 662.06,390.69 650.03,401.05C642.13,408.45 633.38,414.84 623.72,419.75C616.63,423.33 609.22,427.32 601.62,429.55C587.31,433.84 571.85,435.51 557,437.04C546.98,438.1 537.06,437.91 527,437.86C520.08,437.75 512.88,437.05 506.28,434.83C504.82,434.19 502.67,433.56 502.16,431.87C500.8,428.15 500.5,423.99 499.71,420.11C498.16,411.91 496.73,403.71 495.41,395.48C489.88,394.12 484.22,393.6 478.65,392.45C468.34,390.44 458.15,387.91 448.09,384.91C444.41,383.86 440.79,381.99 437.01,381.45C432.96,382.95 429.53,385.97 425.51,387.67C419.2,390.94 412.25,390.89 406.11,394.53C407.99,390.94 409.77,387.29 411.72,383.73C417.93,382.85 424.44,381.15 429.8,377.78C432.36,376.12 433.23,373.3 431.29,370.71C427.11,364.99 423.13,359.23 419.98,352.85C418.28,349.33 417.24,345.63 415.17,342.28C426.44,353.94 440.03,362.18 454.7,368.85C471.37,376.14 488.94,379.8 507,381.44C518.43,381.89 529.8,382.05 540.99,379.94C548.97,378.48 557.47,377.51 564.98,374.35C555.36,379.87 545.06,383.87 534.54,387.31C527.79,389.34 521.02,391.22 514.02,392.15C511.39,392.41 509.64,393.27 507.51,394.74C506.76,403.74 508.61,412.17 509.93,421C510.3,424.51 512.83,426.73 516.15,427.47C531.23,430.67 546.65,431.54 561.81,428.29C573.11,425.8 584.41,422.01 594.83,416.99C603.26,412.98 610.93,407.67 619.15,403.1C627.76,398.33 634.77,391.66 642.14,385.05C647.27,380.53 651.83,375.37 656.32,370.23C665.58,358.94 674.57,346.25 679.93,332.6C683.41,323.68 684.76,313.79 687.52,304.55Z" style="fill-rule:nonzero;stroke:rgb(130,146,234);stroke-width:10px;"/>
        <path id="p11" d="M839.45,319.9C845.38,324.37 850.57,329.18 855.27,334.95C853.84,334.3 852.38,333.7 850.93,333.11C851.31,343.43 852.23,353.66 851.72,364.01C850.77,384.78 849.92,406.15 846.6,426.66C844.85,439.23 841.95,451.67 838.84,463.96C835.79,474.85 833.14,485.71 829.47,496.4C824.22,512.91 818.05,528.89 813.55,545.66C810.39,558.05 808.15,571.28 810.14,584.03C811.73,595.49 816.13,606.24 825.27,613.71C830.43,618.16 836.31,620.54 843.02,621.54C835.73,634.87 827.06,647.62 818.33,659.85C816.44,659.47 814.59,659.08 812.85,658.19C806.04,654.74 799.22,650.65 794.16,644.83C790.05,639.85 787.67,633.22 785.82,627.1C781.67,613.71 781.5,600.06 782.74,586.21C784.38,575.75 786.76,565.34 789.13,555.02C791.05,546.86 791.94,538.97 795.18,531.15C796.66,527.72 797.83,524.42 798.27,520.68C803.17,507.16 808.22,493.69 812.67,480.01C821.58,453.66 828.32,426.49 833.15,399.11C836.58,378.93 838.7,358.46 838.8,337.99C839.41,331.96 839.11,325.94 839.45,319.9Z" style="fill-rule:nonzero;stroke:rgb(130,146,234);stroke-width:10px;"/>
        <path id="p12" d="M850.93,333.11C852.38,333.7 853.84,334.3 855.27,334.95C864.99,345.57 873.04,358.15 880.11,370.66C883.71,377.2 887.07,383.91 889.89,390.83C894.52,402.66 897.23,415.31 897.76,428.01C899.22,442.39 897.38,457.42 896.26,471.82C893.12,496.8 887.19,521.52 878.35,545.11C873.84,557.33 868.67,569.31 863.47,581.24C857.39,595.07 850.24,608.3 843.02,621.54C836.31,620.54 830.43,618.16 825.27,613.71C816.13,606.24 811.73,595.49 810.14,584.03C808.15,571.28 810.39,558.05 813.55,545.66C818.05,528.89 824.22,512.91 829.47,496.4C833.14,485.71 835.79,474.85 838.84,463.96C841.95,451.67 844.85,439.23 846.6,426.66C849.92,406.15 850.77,384.78 851.72,364.01C852.23,353.66 851.31,343.43 850.93,333.11Z" style="fill-rule:nonzero;stroke:rgb(140,158,255);stroke-width:10px;"/>
        <path id="p13" d="M798.27,520.68C797.83,524.42 796.66,527.72 795.18,531.15C791.94,538.97 791.05,546.86 789.13,555.02C786.76,565.34 784.38,575.75 782.74,586.21C781.5,600.06 781.67,613.71 785.82,627.1C787.67,633.22 790.05,639.85 794.16,644.83C799.22,650.65 806.04,654.74 812.85,658.19C814.59,659.08 816.44,659.47 818.33,659.85C803.33,678.77 785.32,696.94 763.18,707.27C753.36,712.04 742.81,714.36 732,715.46C716.72,717.07 701.22,716.83 685.87,716.63C689.11,713.8 691.82,710.84 694.37,707.38C716.61,679.87 736.53,650.37 753.26,619.19C767.12,593.08 779.52,566.02 790.99,538.79C793.54,532.79 795.48,526.58 798.27,520.68Z" style="fill-rule:nonzero;stroke:rgb(100,115,201);stroke-width:10px;"/>
        <path id="p14" d="M77.49,554.13C82.44,554.37 85.35,548.98 90.28,549.44C86.91,549.68 85.417,552.667 82.037,552.847C87.067,559.027 90.17,562.53 95.81,568.17C105.28,578 116.25,585.99 127.8,593.19C142.83,602.47 159.82,608.85 176.87,613.29C208.57,621.62 241.51,623.11 273.99,619.19C293.66,616.42 312.9,613.02 331.41,605.5C335.65,604.18 340.44,600.85 344.91,601.19C349.06,602.66 352.54,606.35 356.11,608.87C378.69,626.49 403.25,639.55 428.89,652.04C431.86,653.57 435.47,655.16 435.67,659C435.67,661.46 433.48,662.49 431.73,663.72C426.76,666.73 422.04,670.12 417.04,673.08C414.18,674.75 411.76,676.82 409.5,679.22C409.53,676.06 409.53,672.9 409.55,669.74C404.92,665.84 399.53,663.96 394.44,660.72C384.8,655.13 376.02,648.52 366.89,642.16C359.62,636.79 352.47,631.28 345.61,625.39C343.43,623.39 340.85,622.41 338.04,621.63C337.21,622.05 336.38,622.46 335.55,622.88C335.54,623.93 335.54,624.98 335.55,626.03C316.55,632.1 296.6,635.83 276.9,638.71C266.33,640.49 255.7,640.93 244.99,642C236.66,642.89 228.35,642.51 220,643.04C213.96,643.43 208.03,642.79 202,642.72C188.36,642.77 174.67,640.75 161.42,637.55C147.05,633.65 132.56,629.16 119.98,621.03C111.49,615.54 103.19,609.15 96.62,601.42C95.14,599.74 93.49,598.23 91.84,596.71C87.03,588.33 83.03,579.22 80.23,569.96C78.05,562.92 78.78,561.39 77.49,554.13Z" style="fill-rule:nonzero;stroke:rgb(130,146,234);stroke-width:10px;"/>
        <path id="p15" d="M91.84,596.71C93.49,598.23 95.14,599.74 96.62,601.42C103.19,609.15 111.49,615.54 119.98,621.03C132.56,629.16 147.05,633.65 161.42,637.55C174.67,640.75 188.36,642.77 202,642.72C208.03,642.79 213.96,643.43 220,643.04C228.35,642.51 236.66,642.89 244.99,642C255.7,640.93 266.33,640.49 276.9,638.71C296.6,635.83 316.55,632.1 335.55,626.03C337.7,631.7 344.07,635.81 348.58,639.62C348.48,640.09 348.38,640.55 348.28,641.02C339.9,643.03 331.7,645.63 323.21,647.25C303.44,651.66 283.1,654.61 262.98,657.45C246.74,659.44 230.37,660.67 214,660.69C203.35,660.68 192.6,660.9 182.01,659.77C175.44,659.21 168.35,659.06 162.02,657.15C144.19,652.59 127.9,640.81 115.02,627.98C106.12,618.65 98.26,607.88 91.84,596.71Z" style="fill-rule:nonzero;stroke:rgb(100,115,201);stroke-width:10px;"/>
        <path id="p16" d="M710.95,663.94C699.3,682.06 685.19,698.96 671.2,715.32C664.86,721.55 657.73,727.37 650.47,732.51C642.07,737.82 632.75,742.79 622.98,744.92C618.93,745.99 614.24,744.48 611.04,747.11C608.16,749.17 605.55,751.64 602.86,753.93C582.16,772.35 559.41,788.5 535.45,802.39C521.54,810.72 507.05,818.1 492.87,825.99C461.72,842.45 429.73,857.23 396.79,869.78C373.73,878.45 350.85,886.66 326.79,892.26C310.18,895.64 293.5,896.82 276.71,893.93C266.16,891.69 257.38,886.28 248.42,880.6C234.66,871.72 221.32,862.94 209.63,851.37C199.52,841.02 189.92,829.63 183,816.86C187.1,818.58 189.1,821.89 192.05,824.95C209.69,843.62 231.64,858.75 254.29,870.7C260.2,873.82 266.18,876.68 272.7,878.3C283.83,881.14 295.53,882.81 307,883.29C316.41,883.37 325.88,882.06 335.1,880.25C348.41,877.12 361.58,874.31 374.4,869.39C389.77,863.86 404.86,857.5 419.68,850.63C457.55,832.27 494.27,812.94 528.87,788.85C543.93,778.39 557.99,766.81 571.9,754.9C577.22,750.22 582.49,745.51 587.58,740.59C589.95,738.39 592.58,735.84 595.66,734.73C598.54,733.72 601.62,733.18 604.58,732.44C621.03,728.31 637.03,722.34 651.61,713.61C664.1,706.42 675.35,697.67 686,687.99C690.91,683.57 695.24,678.58 700.12,674.12C703.91,670.71 706.45,666.56 710.95,663.94Z" style="fill-rule:nonzero;stroke:rgb(100,115,201);stroke-width:10px;"/>
    </g>
    <g>
        <path id="p17" serif:id="p1" d="M622.18,51.11C639.23,49.31 656.29,50.91 672.93,54.9C675.3,55.6 677.69,56.24 680.09,56.81C699.85,63.15 719.26,70.89 736.69,82.29C744.94,87.54 752.64,93.56 759.9,100.08C783.36,122.19 801.64,149.89 812.79,180.14C813.62,182.39 814.37,184.66 815.21,186.9C819.61,199.38 823.03,212.13 826.1,224.99C832.17,251.4 836.56,278.01 838.56,305.04C843.73,305.74 846.95,309.08 850.87,312.16C870.12,327.55 884.09,348.92 895.52,370.49C904.67,387.27 910.19,405.91 911.45,425C911.97,435.99 911.82,447.02 911.32,458C910.03,473.11 908.11,488.13 904.77,502.94C898.25,534.81 886.29,564.21 872.66,593.61C862.79,614.77 851.15,634.93 838.41,654.48C830.05,667.12 820.3,678.87 809.49,689.5C798.5,700.75 785.6,710.5 771.4,717.34C759.73,722.7 746.74,725.9 733.93,726.76C723.4,728.08 712.61,727.54 702,727.64C695.72,727.48 689.29,727.76 683.07,726.87C680.96,726.71 678.86,726.57 676.75,726.45C667.53,735.22 657.41,742.45 646.06,748.21C643.75,749.24 641.42,750.21 639.11,751.24C632.8,753.51 626.46,755.12 619.68,754.64C597.64,776.09 572.92,793.81 546.58,809.58C514.19,828.25 481.29,845.94 447.16,861.24C424.22,871.6 400.87,880.85 377.15,889.22C357.05,896.4 336.49,901.74 315.8,906.88C310.84,907.97 306.01,907.53 301.01,908C298.64,908.22 296.28,908.33 293.9,908.11C288.52,907.47 283.16,907.65 277.83,906.55C267.17,904.9 258.92,899.46 249.75,894.23C235.42,885.36 220.76,876.05 208.25,864.7C195.41,853.51 184.51,839.95 175.57,825.49C169.84,815.63 165.07,805.31 162.8,794.07C162.51,792.05 162.21,790.03 161.79,788.03C161.5,781.67 160.8,775.03 162.75,768.93C167.21,766.07 172.11,765.37 177.16,764.22C197.42,760.02 217.26,755.54 236.85,748.79C245.56,745.86 254.28,742.97 262.9,739.81C269.26,737.57 275.6,735.22 281.9,732.82C286.27,731.25 290.57,729.52 294.9,727.82C298.95,726.35 302.93,724.71 306.88,722.99C321.49,716.54 336.19,710.03 350.3,702.55C366.54,693.84 382.48,684.62 397.71,674.24C397.58,673.84 397.45,673.45 397.32,673.06C390.26,669.61 383.62,665.2 376.98,661C371.57,657.26 365.92,653.7 360.94,649.38C355.88,648.95 350.88,651.95 345.83,652.81L345.12,653.14C328.93,657.28 312.54,660.43 296.07,663.15C294.05,663.46 292.02,663.74 290.01,664.12C287.68,664.42 285.35,664.67 283.04,665.1C274.68,666.04 266.37,667.55 258,668.39C252.62,668.54 247.38,669.61 241.99,669.56C226.72,670.83 211.28,670.51 195.97,670.15C189.95,669.23 183.87,669.7 177.83,668.69C170.99,668.59 164.57,666.8 157.98,665.2C152.3,663.17 146.78,661.47 141.46,658.54C134.3,654.61 127.35,650.15 121.01,644.98C105.31,632.46 93.54,616.61 83.6,599.3C75.96,585.06 70.23,569.86 68.36,553.73C68.17,553.48 67.97,553.23 67.78,552.98C67.79,549.27 67.57,545.03 69.67,541.8C71.74,541.03 72.76,540.94 74.91,540.45C80.31,540.48 85.58,541.62 91.01,541.4C104.68,541.77 118.13,540.39 131.72,539.12C146.17,537.06 160.7,535.03 174.95,531.87C182.01,530.49 188.97,528.83 195.88,526.87C201.3,525.37 206.65,523.62 212.07,522.16C237.17,514.35 261.71,504.62 285.46,493.36C310.75,481.32 333.75,464.27 353.29,444.25C370.31,426.52 385.28,406.77 397.78,385.61C398.75,384.18 398.71,382.77 398.65,381.11C393.73,376.1 389.64,370.19 385.7,364.4C378.07,353.39 373.04,340.77 368.77,328.15C364.01,311.38 363.55,294.27 364.7,276.98C365.74,266.42 367.94,256.05 370.78,245.83C375.58,227.66 384.42,210.12 394.34,194.23C412.85,164.39 442.11,141.19 475.69,130.74C478.97,129.58 483.44,129.46 485.67,126.6C495.43,115.9 504.79,105.31 515.91,95.89C532.6,81.04 551.98,71.05 572.55,62.72C580.34,59.79 588.03,57.07 596.13,55.18C604.59,52.87 613.45,51.74 622.18,51.11ZM496.08,130.25C505.23,128.63 515.4,127.45 524.56,129.45C527.18,136.21 524.36,141.85 522.12,148.21C543.26,151.28 563.44,159.19 582.43,168.78C588.9,172.28 595.15,175.19 600.74,180.05C597.62,176.02 594.47,171.73 590.67,168.31C588.57,166.32 586.18,165.23 585.65,162.1C586.04,158.76 587.14,155.46 588.25,152.29C589.17,149.84 590.24,147.64 592.82,146.63C595.23,146.09 598.01,147.83 600.2,148.76C615.86,156.4 631.52,165.78 644.19,177.84C652.14,184.81 659.4,192.51 666.03,200.73C673.77,210.49 680.5,220.54 684.47,232.46C687.14,240.71 689.31,249.34 689.76,258.02C691.11,269.92 690.12,281.24 689.26,293.08C688.81,296.92 688.11,300.73 687.52,304.55C684.76,313.79 683.41,323.68 679.93,332.6C674.57,346.25 665.58,358.94 656.32,370.23C651.83,375.37 647.27,380.53 642.14,385.05C634.77,391.66 627.76,398.33 619.15,403.1C610.93,407.67 603.26,412.98 594.83,416.99C584.41,422.01 573.11,425.8 561.81,428.29C546.65,431.54 531.23,430.67 516.15,427.47C512.83,426.73 510.3,424.51 509.93,421C508.61,412.17 506.76,403.74 507.51,394.74C509.64,393.27 511.39,392.41 514.02,392.15C521.02,391.22 527.79,389.34 534.54,387.31C545.06,383.87 555.36,379.87 564.98,374.35C557.47,377.51 548.97,378.48 540.99,379.94C529.8,382.05 518.43,381.89 507,381.44C488.94,379.8 471.37,376.14 454.7,368.85C440.03,362.18 426.44,353.94 415.17,342.28C417.24,345.63 418.28,349.33 419.98,352.85C423.13,359.23 427.11,364.99 431.29,370.71C433.23,373.3 432.36,376.12 429.8,377.78C424.44,381.15 417.93,382.85 411.72,383.73C409.77,387.29 407.99,390.94 406.11,394.53C396.05,411.44 384.16,427.39 371.21,442.18C344.71,472.45 310.91,495.87 273.54,510.68C250.42,520.13 227.45,528.89 203.3,535.39C183.19,541.48 161.7,544.61 140.86,547.06C124.08,549.35 107.2,549.93 90.28,549.44C85.35,548.98 80.44,548.37 75.49,548.13C76.78,555.39 78.05,562.92 80.23,569.96C83.03,579.22 87.03,588.33 91.84,596.71C98.26,607.88 106.12,618.65 115.02,627.98C127.9,640.81 144.19,652.59 162.02,657.15C168.35,659.06 175.44,659.21 182.01,659.77C192.6,660.9 203.35,660.68 214,660.69C230.37,660.67 246.74,659.44 262.98,657.45C283.1,654.61 303.44,651.66 323.21,647.25C331.7,645.63 339.9,643.03 348.28,641.02C348.38,640.55 348.48,640.09 348.58,639.62C344.07,635.81 337.7,631.7 335.55,626.03C335.54,624.98 335.54,623.93 335.55,622.88C336.38,622.46 337.21,622.05 338.04,621.63C340.85,622.41 343.43,623.39 345.61,625.39C352.47,631.28 359.62,636.79 366.89,642.16C376.02,648.52 384.8,655.13 394.44,660.72C399.53,663.96 404.92,665.84 409.55,669.74C409.53,672.9 409.53,676.06 409.5,679.22C406.38,682.5 402.75,684.53 399.03,687.05C388.81,693.95 377.93,700 367.16,706.21C351.02,715.35 334.19,722.93 317.27,730.5C302.1,737.14 286.46,742.73 270.91,748.4C244.86,757.36 218.88,765.61 191.76,770.75C187.82,771.48 183.89,772.28 179.97,773.14C178.59,773.31 177.22,773.46 175.84,773.67C174.06,773.97 172.29,774.49 170.55,774.94C170.04,789.49 175.55,804.53 183,816.86C189.92,829.63 199.52,841.02 209.63,851.37C221.32,862.94 234.66,871.72 248.42,880.6C257.38,886.28 266.16,891.69 276.71,893.93C293.5,896.82 310.18,895.64 326.79,892.26C350.85,886.66 373.73,878.45 396.79,869.78C429.73,857.23 461.72,842.45 492.87,825.99C507.05,818.1 521.54,810.72 535.45,802.39C559.41,788.5 582.16,772.35 602.86,753.93C605.55,751.64 608.16,749.17 611.04,747.11C614.24,744.48 618.93,745.99 622.98,744.92C632.75,742.79 642.07,737.82 650.47,732.51C657.73,727.37 664.86,721.55 671.2,715.32C685.19,698.96 699.3,682.06 710.95,663.94C729.76,637.87 744.96,609.32 758.76,580.37C770.8,554.69 782.23,528.86 791.71,502.1C794.6,494.76 796.69,487.17 799.4,479.77C806.98,458.23 813.02,436.19 817.56,413.81C821.97,393.48 824.9,372.75 825.82,351.96C826.97,339.72 826.54,327.28 826.47,315C826.48,308.45 825.6,302.04 824.72,295.57C824.41,288.6 823.41,281.62 822.42,274.71C819.38,253.91 815.54,233.16 810.18,212.83C805.21,195.61 799.89,179.04 791.81,162.99C780.68,141.56 766.08,122.02 748.04,105.92C730.9,90.85 710.84,80.22 689.48,72.45C671.64,65.56 652.21,60.89 632.99,61.57C628.29,61.57 623.68,62.29 619,62.57C600.03,64.16 581.56,70.37 564.17,77.87C545.87,85.76 529.06,96.94 514.84,110.89C510.25,114.97 506.06,119.43 501.56,123.59C499.43,125.58 497.82,127.92 496.08,130.25ZM482.89,138.76C474.5,141.35 466.34,144.61 458.54,148.66C448.78,153.93 439.93,161.31 431.93,168.94C420.59,179.64 410.75,191.97 402.49,205.18C397,213.1 392.6,222.03 388.49,230.74C383.71,240.97 380.26,251.65 378.37,262.8C374.2,282.51 374.18,303.42 378.79,323.05C382.37,335.4 386.84,347.29 393.71,358.22C397.05,363.93 401.34,368.91 405.04,374.37C410.76,375.23 415.91,373.93 421.21,371.9C419.54,368.9 417.52,366.14 415.7,363.24C411.04,355.41 407.43,347.01 404.75,338.3C403.05,332.66 402.1,326.87 402.44,320.96C402.51,319.02 403.25,317.34 403.98,315.58L406.15,315.74C408.43,317.88 409,321.51 410.75,324.16C415.21,331.55 422.2,337.79 428.73,343.35C445.67,356.86 466.64,365.45 488.01,368.65C500.79,370.88 514.06,370.85 527,370.65C540.11,370.32 553.36,368.57 565.97,364.9C574.43,362.5 582.85,360.1 590.97,356.68C591.93,357.01 592.89,357.33 593.85,357.64C594.02,359.49 595.03,361.09 593.64,362.61C591.05,365.63 587.86,368.11 585.16,371.04C571.65,382.88 553.62,390.6 536.55,395.7C529.99,397.8 523.24,398.94 516.42,399.76C516.5,406.03 517.19,412.29 517.84,418.53C518.2,420.69 520.34,420.15 521.98,420.42C536.33,421.02 551.05,420.44 565.08,417.19C570.96,415.46 576.73,414 582.28,411.3C589.59,407.81 596.62,403.7 603.43,399.31C614.53,392.29 626.32,384.96 635.67,375.67C649.21,363.83 659.49,349.3 668.1,333.6C671.89,326.38 674.04,317.94 675.9,310.04C679.5,294.65 680.37,278.8 679.11,263.07C676.7,238.92 667.2,213.96 650.21,196.26C644.06,189.95 637.89,183.52 631.11,177.88C621.9,170.01 611.9,163.31 601.31,157.45C599.92,156.62 598.42,156.4 596.85,156.13C596.6,158.51 596.36,160.9 596.12,163.29C604.02,170.67 611.63,178.23 618.01,187C624.05,195.7 628.56,205.16 632.34,215.03C631.95,216.04 631.56,217.04 631.17,218.05C630.4,218.58 629.64,219.12 628.88,219.66C623.19,216.4 619.51,211.54 615.47,206.55C609.91,199.56 603.65,193.24 596.4,188.01L596.17,187.82C589.29,182.33 581.8,178.88 574.07,174.83C570.43,173.14 566.82,171.4 563.18,169.7C560.83,168.74 558.48,167.74 556.13,166.78C553.74,165.91 551.36,164.98 548.96,164.12C540.92,161.27 532.55,159.02 524.16,157.52C516.4,156.06 508.86,156.23 501,156.35C488.35,156.52 476.75,159.8 464.89,163.8C461,164.79 455.01,168.53 451.46,165.58C451.6,163.56 451.79,162.58 453.49,161.4C457.44,158.64 462.27,156.95 466.54,154.68C481.82,146.06 499.68,141.62 517.08,140.21C517.61,138.58 518.16,136.95 518.71,135.32C516.11,134.8 513.6,134.48 510.95,134.9C506.98,135.44 502.99,135.39 499,135.67C493.45,136.17 488.26,137.43 482.89,138.76ZM798.27,520.68C795.48,526.58 793.54,532.79 790.99,538.79C779.52,566.02 767.12,593.08 753.26,619.19C736.53,650.37 716.61,679.87 694.37,707.38C691.82,710.84 689.11,713.8 685.87,716.63C701.22,716.83 716.72,717.07 732,715.46C742.81,714.36 753.36,712.04 763.18,707.27C785.32,696.94 803.33,678.77 818.33,659.85C827.06,647.62 835.73,634.87 843.02,621.54C850.24,608.3 857.39,595.07 863.47,581.24C868.67,569.31 873.84,557.33 878.35,545.11C887.19,521.52 893.12,496.8 896.26,471.82C897.38,457.42 899.22,442.39 897.76,428.01C897.23,415.31 894.52,402.66 889.89,390.83C887.07,383.91 883.71,377.2 880.11,370.66C873.04,358.15 864.99,345.57 855.27,334.95C850.57,329.18 845.38,324.37 839.45,319.9C839.11,325.94 839.41,331.96 838.8,337.99C838.7,358.46 836.58,378.93 833.15,399.11C828.32,426.49 821.58,453.66 812.67,480.01C808.22,493.69 803.17,507.16 798.27,520.68Z" style="fill-rule:nonzero;"/>
        <path id="p21" serif:id="p2" d="M619,62.57C623.68,62.29 628.29,61.57 632.99,61.57C652.21,60.89 671.64,65.56 689.48,72.45C710.84,80.22 730.9,90.85 748.04,105.92C766.08,122.02 780.68,141.56 791.81,162.99C799.89,179.04 805.21,195.61 810.18,212.83C815.54,233.16 819.38,253.91 822.42,274.71C823.41,281.62 824.41,288.6 824.72,295.57C823.28,305.84 823.38,316.57 822.85,327C822.21,347.6 818.27,368.4 815.38,389.12C811.85,409.56 806.15,429.77 799.3,449.34C789.92,477.83 777.35,504.85 763.22,531.26C756.65,543.22 749.54,554.86 742.47,566.53C725.42,594.67 706.24,621.66 683.75,645.74C678.96,650.82 674.73,655.94 669.64,660.64C654.91,674.14 638.92,686.29 622.19,697.2C611.75,703.98 600.55,709.49 588.84,713.71C585.17,715.07 581.37,714.85 577.63,715.7C575.96,716.49 574.57,718.01 573.25,719.27C563.1,729.74 551.49,738.99 540.17,748.18C510.94,770.83 480.27,791.75 448.19,810.18C427,822.5 405.37,833.91 383.03,844.03C369.98,850.02 356.65,855.26 342.67,858.68C326.28,863.14 308.41,863.56 292,859.01C273.45,853.86 255.61,847.73 238.82,838.16C230.77,833.61 223.51,827.53 216.53,821.47C201.62,808.21 188.23,792.27 179.66,774.15C178.39,773.97 177.12,773.81 175.84,773.67C177.22,773.46 178.59,773.31 179.97,773.14C183.89,772.28 187.82,771.48 191.76,770.75C218.88,765.61 244.86,757.36 270.91,748.4C286.46,742.73 302.1,737.14 317.27,730.5C334.19,722.93 351.02,715.35 367.16,706.21C377.93,700 388.81,693.95 399.03,687.05C402.75,684.53 406.38,682.5 409.5,679.22C411.76,676.82 414.18,674.75 417.04,673.08C422.04,670.12 426.76,666.73 431.73,663.72C433.48,662.49 435.67,661.46 435.67,659C435.47,655.16 431.86,653.57 428.89,652.04C403.25,639.55 378.69,626.49 356.11,608.87C352.54,606.35 349.06,602.66 344.91,601.19C340.44,600.85 335.65,604.18 331.41,605.5C312.9,613.02 293.66,616.42 273.99,619.19C241.51,623.11 208.57,621.62 176.87,613.29C159.82,608.85 142.83,602.47 127.8,593.19C116.25,585.99 105.28,578 95.81,568.17C90.17,562.53 85.21,556.38 80.18,550.2C83.56,550.02 86.91,549.68 90.28,549.44C107.2,549.93 124.08,549.35 140.86,547.06C161.7,544.61 183.19,541.48 203.3,535.39C227.45,528.89 250.42,520.13 273.54,510.68C310.91,495.87 344.71,472.45 371.21,442.18C384.16,427.39 396.05,411.44 406.11,394.53C412.25,390.89 419.2,390.94 425.51,387.67C429.53,385.97 432.96,382.95 437.01,381.45C440.79,381.99 444.41,383.86 448.09,384.91C458.15,387.91 468.34,390.44 478.65,392.45C484.22,393.6 489.88,394.12 495.41,395.48C496.73,403.71 498.16,411.91 499.71,420.11C500.5,423.99 500.8,428.15 502.16,431.87C502.67,433.56 504.82,434.19 506.28,434.83C512.88,437.05 520.08,437.75 527,437.86C537.06,437.91 546.98,438.1 557,437.04C571.85,435.51 587.31,433.84 601.62,429.55C609.22,427.32 616.63,423.33 623.72,419.75C633.38,414.84 642.13,408.45 650.03,401.05C662.06,390.69 670.64,377.76 677.57,363.59C684.34,349.01 687.37,333.04 687.27,317C687.41,312.83 687.9,308.73 687.52,304.55C688.11,300.73 688.81,296.92 689.26,293.08C690.12,281.24 691.11,269.92 689.76,258.02C689.31,249.34 687.14,240.71 684.47,232.46C680.5,220.54 673.77,210.49 666.03,200.73C659.4,192.51 652.14,184.81 644.19,177.84C631.52,165.78 615.86,156.4 600.2,148.76C598.01,147.83 595.23,146.09 592.82,146.63C590.24,147.64 589.17,149.84 588.25,152.29C587.14,155.46 586.04,158.76 585.65,162.1C586.18,165.23 588.57,166.32 590.67,168.31C594.47,171.73 597.62,176.02 600.74,180.05C595.15,175.19 588.9,172.28 582.43,168.78C563.44,159.19 543.26,151.28 522.12,148.21C524.36,141.85 527.18,136.21 524.56,129.45C515.4,127.45 505.23,128.63 496.08,130.25C497.82,127.92 499.43,125.58 501.56,123.59C506.06,119.43 510.25,114.97 514.84,110.89C529.06,96.94 545.87,85.76 564.17,77.87C581.56,70.37 600.03,64.16 619,62.57Z" style="fill:rgb(140,158,255);fill-rule:nonzero;"/>
        <path id="p31" serif:id="p3" d="M510.95,134.9C513.6,134.48 516.11,134.8 518.71,135.32C518.16,136.95 517.61,138.58 517.08,140.21C499.68,141.62 481.82,146.06 466.54,154.68C462.27,156.95 457.44,158.64 453.49,161.4C451.79,162.58 451.6,163.56 451.46,165.58C455.01,168.53 461,164.79 464.89,163.8C476.75,159.8 488.35,156.52 501,156.35C508.86,156.23 516.4,156.06 524.16,157.52C532.55,159.02 540.92,161.27 548.96,164.12C551.36,164.98 553.74,165.91 556.13,166.78C558.48,167.74 560.83,168.74 563.18,169.7C566.82,171.4 570.43,173.14 574.07,174.83C581.8,178.88 589.29,182.33 596.17,187.82L596.4,188.01C597.53,191.01 599.41,193.14 601.64,195.36C616.5,212.14 626.39,233.14 629.55,255.35C631.38,270.36 631.02,285.38 625.73,299.71C622.58,308.99 617.17,317.35 610.16,324.17C605.61,328.38 600.51,332.02 595.22,335.23C587.19,340.12 578.16,342.82 569.12,345.16C559.62,347.59 549.75,348.3 540,348.8C511.33,351.15 481.65,346.51 455.4,334.61C444.23,329.33 433.49,322.91 423.81,315.2C416.28,309.07 409.83,301.56 404.48,293.48C400.18,286.9 397.75,279.59 396.03,271.98C393.88,263.08 392.48,254.18 392.75,245C393.05,236.45 395.05,227.8 397.62,219.67C399.11,214.65 401.87,210.46 402.49,205.18C410.75,191.97 420.59,179.64 431.93,168.94C439.93,161.31 448.78,153.93 458.54,148.66C466.34,144.61 474.5,141.35 482.89,138.76C488.26,137.43 493.45,136.17 499,135.67C502.99,135.39 506.98,135.44 510.95,134.9ZM452.49,233.7C446.25,235.98 441.51,242.79 438.38,248.38C432.47,258.64 430.83,271.08 433.69,282.54C434.93,287.08 437.91,291.82 442.98,292.43C448.56,292.55 453.26,287.49 456.27,283.29C460.77,276.42 465.19,268.36 465.66,260.01C466.32,252.11 465.57,242.83 460.99,236.1C459.03,233.03 455.73,232.95 452.49,233.7ZM545.33,249.31C537.51,252.64 531.88,261.31 529.05,269.03C526.02,276.81 525.89,284.8 526.43,293.01C526.82,297.94 528.44,302.87 530.91,307.15C532.9,310.81 537.84,313.54 541.93,311.91C546.5,310.5 549.46,306.98 552.46,303.47C560.07,294.89 562.97,282.22 562.59,271C562.5,264.22 561.69,257.37 556.84,252.22C553.92,249.05 549.44,247.53 545.33,249.31Z" style="fill:rgb(254,254,254);fill-rule:nonzero;"/>
        <path id="p41" serif:id="p4" d="M601.31,157.45C611.9,163.31 621.9,170.01 631.11,177.88C637.89,183.52 644.06,189.95 650.21,196.26C650.81,198.71 651.52,201.11 652.6,203.4C657.53,213.71 660.9,224.8 663.12,235.99C665.47,247.72 665.12,260.17 663.83,272.01C662.67,286.41 658.29,300.68 653.11,314.11C645.25,333.56 630.15,347.32 613.91,359.87C605.84,365.63 596.37,369.72 586.9,372.59C586.32,372.07 585.74,371.56 585.16,371.04C587.86,368.11 591.05,365.63 593.64,362.61C595.03,361.09 594.02,359.49 593.85,357.64C592.89,357.33 591.93,357.01 590.97,356.68C582.85,360.1 574.43,362.5 565.97,364.9C553.36,368.57 540.11,370.32 527,370.65C514.06,370.85 500.79,370.88 488.01,368.65C466.64,365.45 445.67,356.86 428.73,343.35C422.2,337.79 415.21,331.55 410.75,324.16C409,321.51 408.43,317.88 406.15,315.74L403.98,315.58C404.14,315.18 404.31,314.78 404.48,314.37C395.22,306.63 388.11,296.26 384.09,284.9C382.2,279.8 382.12,274.46 380.53,269.32C379.86,267.13 379.05,264.99 378.37,262.8C380.26,251.65 383.71,240.97 388.49,230.74C392.6,222.03 397,213.1 402.49,205.18C401.87,210.46 399.11,214.65 397.62,219.67C395.05,227.8 393.05,236.45 392.75,245C392.48,254.18 393.88,263.08 396.03,271.98C397.75,279.59 400.18,286.9 404.48,293.48C409.83,301.56 416.28,309.07 423.81,315.2C433.49,322.91 444.23,329.33 455.4,334.61C481.65,346.51 511.33,351.15 540,348.8C549.75,348.3 559.62,347.59 569.12,345.16C578.16,342.82 587.19,340.12 595.22,335.23C600.51,332.02 605.61,328.38 610.16,324.17C617.17,317.35 622.58,308.99 625.73,299.71C631.02,285.38 631.38,270.36 629.55,255.35C626.39,233.14 616.5,212.14 601.64,195.36C599.41,193.14 597.53,191.01 596.4,188.01C603.65,193.24 609.91,199.56 615.47,206.55C619.51,211.54 623.19,216.4 628.88,219.66C629.64,219.12 630.4,218.58 631.17,218.05C631.56,217.04 631.95,216.04 632.34,215.03C628.56,205.16 624.05,195.7 618.01,187C611.63,178.23 604.02,170.67 596.12,163.29C596.36,160.9 596.6,158.51 596.85,156.13C598.42,156.4 599.92,156.62 601.31,157.45Z" style="fill:rgb(234,234,234);fill-rule:nonzero;"/>
        <path id="p51" serif:id="p5" d="M650.21,196.26C667.2,213.96 676.7,238.92 679.11,263.07C680.37,278.8 679.5,294.65 675.9,310.04C674.04,317.94 671.89,326.38 668.1,333.6C659.49,349.3 649.21,363.83 635.67,375.67C626.32,384.96 614.53,392.29 603.43,399.31C596.62,403.7 589.59,407.81 582.28,411.3C576.73,414 570.96,415.46 565.08,417.19C551.05,420.44 536.33,421.02 521.98,420.42C520.34,420.15 518.2,420.69 517.84,418.53C517.19,412.29 516.5,406.03 516.42,399.76C523.24,398.94 529.99,397.8 536.55,395.7C553.62,390.6 571.65,382.88 585.16,371.04C585.74,371.56 586.32,372.07 586.9,372.59C596.37,369.72 605.84,365.63 613.91,359.87C630.15,347.32 645.25,333.56 653.11,314.11C658.29,300.68 662.67,286.41 663.83,272.01C665.12,260.17 665.47,247.72 663.12,235.99C660.9,224.8 657.53,213.71 652.6,203.4C651.52,201.11 650.81,198.71 650.21,196.26Z" style="fill:rgb(209,209,209);fill-rule:nonzero;"/>
        <path id="p61" serif:id="p6" d="M452.49,233.7C455.73,232.95 459.03,233.03 460.99,236.1C465.57,242.83 466.32,252.11 465.66,260.01C465.19,268.36 460.77,276.42 456.27,283.29C453.26,287.49 448.56,292.55 442.98,292.43C437.91,291.82 434.93,287.08 433.69,282.54C430.83,271.08 432.47,258.64 438.38,248.38C441.51,242.79 446.25,235.98 452.49,233.7Z" style="fill:rgb(171,179,227);fill-rule:nonzero;"/>
        <path id="p71" serif:id="p7" d="M545.33,249.31C549.44,247.53 553.92,249.05 556.84,252.22C561.69,257.37 562.5,264.22 562.59,271C562.97,282.22 560.07,294.89 552.46,303.47C549.46,306.98 546.5,310.5 541.93,311.91C537.84,313.54 532.9,310.81 530.91,307.15C528.44,302.87 526.82,297.94 526.43,293.01C525.89,284.8 526.02,276.81 529.05,269.03C531.88,261.31 537.51,252.64 545.33,249.31Z" style="fill:rgb(171,179,227);fill-rule:nonzero;"/>
        <path id="p81" serif:id="p8" d="M378.37,262.8C379.05,264.99 379.86,267.13 380.53,269.32C382.12,274.46 382.2,279.8 384.09,284.9C388.11,296.26 395.22,306.63 404.48,314.37C404.31,314.78 404.14,315.18 403.98,315.58C403.25,317.34 402.51,319.02 402.44,320.96C402.1,326.87 403.05,332.66 404.75,338.3C407.43,347.01 411.04,355.41 415.7,363.24C417.52,366.14 419.54,368.9 421.21,371.9C415.91,373.93 410.76,375.23 405.04,374.37C401.34,368.91 397.05,363.93 393.71,358.22C386.84,347.29 382.37,335.4 378.79,323.05C374.18,303.42 374.2,282.51 378.37,262.8Z" style="fill:rgb(209,209,209);fill-rule:nonzero;"/>
        <path id="p91" serif:id="p9" d="M824.72,295.57C825.6,302.04 826.48,308.45 826.47,315C826.54,327.28 826.97,339.72 825.82,351.96C824.9,372.75 821.97,393.48 817.56,413.81C813.02,436.19 806.98,458.23 799.4,479.77C796.69,487.17 794.6,494.76 791.71,502.1C782.23,528.86 770.8,554.69 758.76,580.37C744.96,609.32 729.76,637.87 710.95,663.94C706.45,666.56 703.91,670.71 700.12,674.12C695.24,678.58 690.91,683.57 686,687.99C675.35,697.67 664.1,706.42 651.61,713.61C637.03,722.34 621.03,728.31 604.58,732.44C601.62,733.18 598.54,733.72 595.66,734.73C592.58,735.84 589.95,738.39 587.58,740.59C582.49,745.51 577.22,750.22 571.9,754.9C557.99,766.81 543.93,778.39 528.87,788.85C494.27,812.94 457.55,832.27 419.68,850.63C404.86,857.5 389.77,863.86 374.4,869.39C361.58,874.31 348.41,877.12 335.1,880.25C325.88,882.06 316.41,883.37 307,883.29C295.53,882.81 283.83,881.14 272.7,878.3C266.18,876.68 260.2,873.82 254.29,870.7C231.64,858.75 209.69,843.62 192.05,824.95C189.1,821.89 187.1,818.58 183,816.86C175.55,804.53 170.04,789.49 170.55,774.94C172.29,774.49 174.06,773.97 175.84,773.67C177.12,773.81 178.39,773.97 179.66,774.15C188.23,792.27 201.62,808.21 216.53,821.47C223.51,827.53 230.77,833.61 238.82,838.16C255.61,847.73 273.45,853.86 292,859.01C308.41,863.56 326.28,863.14 342.67,858.68C356.65,855.26 369.98,850.02 383.03,844.03C405.37,833.91 427,822.5 448.19,810.18C480.27,791.75 510.94,770.83 540.17,748.18C551.49,738.99 563.1,729.74 573.25,719.27C574.57,718.01 575.96,716.49 577.63,715.7C581.37,714.85 585.17,715.07 588.84,713.71C600.55,709.49 611.75,703.98 622.19,697.2C638.92,686.29 654.91,674.14 669.64,660.64C674.73,655.94 678.96,650.82 683.75,645.74C706.24,621.66 725.42,594.67 742.47,566.53C749.54,554.86 756.65,543.22 763.22,531.26C777.35,504.85 789.92,477.83 799.3,449.34C806.15,429.77 811.85,409.56 815.38,389.12C818.27,368.4 822.21,347.6 822.85,327C823.38,316.57 823.28,305.84 824.72,295.57Z" style="fill:rgb(130,146,234);fill-rule:nonzero;"/>
        <path id="p101" serif:id="p10" d="M687.52,304.55C687.9,308.73 687.41,312.83 687.27,317C687.37,333.04 684.34,349.01 677.57,363.59C670.64,377.76 662.06,390.69 650.03,401.05C642.13,408.45 633.38,414.84 623.72,419.75C616.63,423.33 609.22,427.32 601.62,429.55C587.31,433.84 571.85,435.51 557,437.04C546.98,438.1 537.06,437.91 527,437.86C520.08,437.75 512.88,437.05 506.28,434.83C504.82,434.19 502.67,433.56 502.16,431.87C500.8,428.15 500.5,423.99 499.71,420.11C498.16,411.91 496.73,403.71 495.41,395.48C489.88,394.12 484.22,393.6 478.65,392.45C468.34,390.44 458.15,387.91 448.09,384.91C444.41,383.86 440.79,381.99 437.01,381.45C432.96,382.95 429.53,385.97 425.51,387.67C419.2,390.94 412.25,390.89 406.11,394.53C407.99,390.94 409.77,387.29 411.72,383.73C417.93,382.85 424.44,381.15 429.8,377.78C432.36,376.12 433.23,373.3 431.29,370.71C427.11,364.99 423.13,359.23 419.98,352.85C418.28,349.33 417.24,345.63 415.17,342.28C426.44,353.94 440.03,362.18 454.7,368.85C471.37,376.14 488.94,379.8 507,381.44C518.43,381.89 529.8,382.05 540.99,379.94C548.97,378.48 557.47,377.51 564.98,374.35C555.36,379.87 545.06,383.87 534.54,387.31C527.79,389.34 521.02,391.22 514.02,392.15C511.39,392.41 509.64,393.27 507.51,394.74C506.76,403.74 508.61,412.17 509.93,421C510.3,424.51 512.83,426.73 516.15,427.47C531.23,430.67 546.65,431.54 561.81,428.29C573.11,425.8 584.41,422.01 594.83,416.99C603.26,412.98 610.93,407.67 619.15,403.1C627.76,398.33 634.77,391.66 642.14,385.05C647.27,380.53 651.83,375.37 656.32,370.23C665.58,358.94 674.57,346.25 679.93,332.6C683.41,323.68 684.76,313.79 687.52,304.55Z" style="fill:rgb(130,146,234);fill-rule:nonzero;"/>
        <path id="p111" serif:id="p11" d="M839.45,319.9C845.38,324.37 850.57,329.18 855.27,334.95C853.84,334.3 852.38,333.7 850.93,333.11C851.31,343.43 852.23,353.66 851.72,364.01C850.77,384.78 849.92,406.15 846.6,426.66C844.85,439.23 841.95,451.67 838.84,463.96C835.79,474.85 833.14,485.71 829.47,496.4C824.22,512.91 818.05,528.89 813.55,545.66C810.39,558.05 808.15,571.28 810.14,584.03C811.73,595.49 816.13,606.24 825.27,613.71C830.43,618.16 836.31,620.54 843.02,621.54C835.73,634.87 827.06,647.62 818.33,659.85C816.44,659.47 814.59,659.08 812.85,658.19C806.04,654.74 799.22,650.65 794.16,644.83C790.05,639.85 787.67,633.22 785.82,627.1C781.67,613.71 781.5,600.06 782.74,586.21C784.38,575.75 786.76,565.34 789.13,555.02C791.05,546.86 791.94,538.97 795.18,531.15C796.66,527.72 797.83,524.42 798.27,520.68C803.17,507.16 808.22,493.69 812.67,480.01C821.58,453.66 828.32,426.49 833.15,399.11C836.58,378.93 838.7,358.46 838.8,337.99C839.41,331.96 839.11,325.94 839.45,319.9Z" style="fill:rgb(130,146,234);fill-rule:nonzero;"/>
        <path id="p121" serif:id="p12" d="M850.93,333.11C852.38,333.7 853.84,334.3 855.27,334.95C864.99,345.57 873.04,358.15 880.11,370.66C883.71,377.2 887.07,383.91 889.89,390.83C894.52,402.66 897.23,415.31 897.76,428.01C899.22,442.39 897.38,457.42 896.26,471.82C893.12,496.8 887.19,521.52 878.35,545.11C873.84,557.33 868.67,569.31 863.47,581.24C857.39,595.07 850.24,608.3 843.02,621.54C836.31,620.54 830.43,618.16 825.27,613.71C816.13,606.24 811.73,595.49 810.14,584.03C808.15,571.28 810.39,558.05 813.55,545.66C818.05,528.89 824.22,512.91 829.47,496.4C833.14,485.71 835.79,474.85 838.84,463.96C841.95,451.67 844.85,439.23 846.6,426.66C849.92,406.15 850.77,384.78 851.72,364.01C852.23,353.66 851.31,343.43 850.93,333.11Z" style="fill:rgb(140,158,255);fill-rule:nonzero;"/>
        <path id="p131" serif:id="p13" d="M798.27,520.68C797.83,524.42 796.66,527.72 795.18,531.15C791.94,538.97 791.05,546.86 789.13,555.02C786.76,565.34 784.38,575.75 782.74,586.21C781.5,600.06 781.67,613.71 785.82,627.1C787.67,633.22 790.05,639.85 794.16,644.83C799.22,650.65 806.04,654.74 812.85,658.19C814.59,659.08 816.44,659.47 818.33,659.85C803.33,678.77 785.32,696.94 763.18,707.27C753.36,712.04 742.81,714.36 732,715.46C716.72,717.07 701.22,716.83 685.87,716.63C689.11,713.8 691.82,710.84 694.37,707.38C716.61,679.87 736.53,650.37 753.26,619.19C767.12,593.08 779.52,566.02 790.99,538.79C793.54,532.79 795.48,526.58 798.27,520.68Z" style="fill:rgb(100,115,201);fill-rule:nonzero;"/>
        <path id="p141" serif:id="p14" d="M76.49,549.13C81.44,549.37 85.35,548.98 90.28,549.44C86.91,549.68 83.56,550.02 80.18,550.2C85.21,556.38 90.17,562.53 95.81,568.17C105.28,578 116.25,585.99 127.8,593.19C142.83,602.47 159.82,608.85 176.87,613.29C208.57,621.62 241.51,623.11 273.99,619.19C293.66,616.42 312.9,613.02 331.41,605.5C335.65,604.18 340.44,600.85 344.91,601.19C349.06,602.66 352.54,606.35 356.11,608.87C378.69,626.49 403.25,639.55 428.89,652.04C431.86,653.57 435.47,655.16 435.67,659C435.67,661.46 433.48,662.49 431.73,663.72C426.76,666.73 422.04,670.12 417.04,673.08C414.18,674.75 411.76,676.82 409.5,679.22C409.53,676.06 409.53,672.9 409.55,669.74C404.92,665.84 399.53,663.96 394.44,660.72C384.8,655.13 376.02,648.52 366.89,642.16C359.62,636.79 352.47,631.28 345.61,625.39C343.43,623.39 340.85,622.41 338.04,621.63C337.21,622.05 336.38,622.46 335.55,622.88C335.54,623.93 335.54,624.98 335.55,626.03C316.55,632.1 296.6,635.83 276.9,638.71C266.33,640.49 255.7,640.93 244.99,642C236.66,642.89 228.35,642.51 220,643.04C213.96,643.43 208.03,642.79 202,642.72C188.36,642.77 174.67,640.75 161.42,637.55C147.05,633.65 132.56,629.16 119.98,621.03C111.49,615.54 103.19,609.15 96.62,601.42C95.14,599.74 93.49,598.23 91.84,596.71C87.03,588.33 83.03,579.22 80.23,569.96C78.05,562.92 77.78,556.39 76.49,549.13Z" style="fill:rgb(130,146,234);fill-rule:nonzero;"/>
        <path id="p151" serif:id="p15" d="M91.84,596.71C93.49,598.23 95.14,599.74 96.62,601.42C103.19,609.15 111.49,615.54 119.98,621.03C132.56,629.16 147.05,633.65 161.42,637.55C174.67,640.75 188.36,642.77 202,642.72C208.03,642.79 213.96,643.43 220,643.04C228.35,642.51 236.66,642.89 244.99,642C255.7,640.93 266.33,640.49 276.9,638.71C296.6,635.83 316.55,632.1 335.55,626.03C337.7,631.7 344.07,635.81 348.58,639.62C348.48,640.09 348.38,640.55 348.28,641.02C339.9,643.03 331.7,645.63 323.21,647.25C303.44,651.66 283.1,654.61 262.98,657.45C246.74,659.44 230.37,660.67 214,660.69C203.35,660.68 192.6,660.9 182.01,659.77C175.44,659.21 168.35,659.06 162.02,657.15C144.19,652.59 127.9,640.81 115.02,627.98C106.12,618.65 98.26,607.88 91.84,596.71Z" style="fill:rgb(100,115,201);fill-rule:nonzero;"/>
        <path id="p161" serif:id="p16" d="M710.95,663.94C699.3,682.06 685.19,698.96 671.2,715.32C664.86,721.55 657.73,727.37 650.47,732.51C642.07,737.82 632.75,742.79 622.98,744.92C618.93,745.99 614.24,744.48 611.04,747.11C608.16,749.17 605.55,751.64 602.86,753.93C582.16,772.35 559.41,788.5 535.45,802.39C521.54,810.72 507.05,818.1 492.87,825.99C461.72,842.45 429.73,857.23 396.79,869.78C373.73,878.45 350.85,886.66 326.79,892.26C310.18,895.64 293.5,896.82 276.71,893.93C266.16,891.69 257.38,886.28 248.42,880.6C234.66,871.72 221.32,862.94 209.63,851.37C199.52,841.02 189.92,829.63 183,816.86C187.1,818.58 189.1,821.89 192.05,824.95C209.69,843.62 231.64,858.75 254.29,870.7C260.2,873.82 266.18,876.68 272.7,878.3C283.83,881.14 295.53,882.81 307,883.29C316.41,883.37 325.88,882.06 335.1,880.25C348.41,877.12 361.58,874.31 374.4,869.39C389.77,863.86 404.86,857.5 419.68,850.63C457.55,832.27 494.27,812.94 528.87,788.85C543.93,778.39 557.99,766.81 571.9,754.9C577.22,750.22 582.49,745.51 587.58,740.59C589.95,738.39 592.58,735.84 595.66,734.73C598.54,733.72 601.62,733.18 604.58,732.44C621.03,728.31 637.03,722.34 651.61,713.61C664.1,706.42 675.35,697.67 686,687.99C690.91,683.57 695.24,678.58 700.12,674.12C703.91,670.71 706.45,666.56 710.95,663.94Z" style="fill:rgb(100,115,201);fill-rule:nonzero;"/>
    </g>
</svg>
