<?xml version="1.0" encoding="UTF-8" standalone="no"?>
<!DOCTYPE svg PUBLIC "-//W3C//DTD SVG 1.1//EN" "http://www.w3.org/Graphics/SVG/1.1/DTD/svg11.dtd">
<svg width="100%" height="100%" viewBox="0 0 512 512" version="1.1" xmlns="http://www.w3.org/2000/svg" xmlns:xlink="http://www.w3.org/1999/xlink" xml:space="preserve" xmlns:serif="http://www.serif.com/" style="fill-rule:evenodd;clip-rule:evenodd;">
    <g>
        <path id="p1" d="M266,27.04C301.15,28.51 335.91,38.22 366.69,55.29C399.67,73.48 428,99.92 448.46,131.54C466.99,160.06 479,192.75 483.28,226.5C485.23,239.96 485.15,253.43 484.94,267C483.26,302.08 473.5,336.68 456.35,367.35C437.94,400.46 411.2,428.86 379.26,449.23C375.27,451.62 371.66,454.45 367.38,456.35C339.17,472.05 307.7,481.72 275.51,484.32C266.43,485.4 257.13,484.88 248,484.98C194.32,483.46 141.81,462.01 102.15,425.83C78.25,404.23 58.95,377.49 46.03,347.97C34.78,322.43 28.43,294.85 27.06,267C26.86,253.43 26.76,239.96 28.72,226.5C32.97,192.99 44.85,160.52 63.16,132.14C82.59,101.91 109.2,76.36 140.2,58.2C168.95,41.32 201.58,30.72 234.8,27.86C245.06,26.54 255.65,27.1 266,27.04ZM147.16,62.56C112.27,82.3 82.97,111.55 63.01,146.29C48.8,171.47 39.42,199.28 35.92,227.99C34.74,236.63 34.41,245.4 34.01,254.11C34.17,273 36.14,291.77 40.78,310.12C45.88,330.73 54.11,350.48 64.8,368.82C84.17,401.17 111.19,428.14 143.59,447.44C164.21,459.41 186.61,468.25 209.99,473.06C225.88,476.52 242.28,477.82 258.51,478C272.83,477.4 286.99,476.33 301.03,473.27C323.86,468.72 345.54,460.29 365.82,448.94C400.47,428.97 429.63,399.79 449.37,365C463.39,340.04 472.61,312.44 476.08,284C477.24,275.36 477.61,266.58 477.99,257.87C477.82,240.04 476.1,222.39 471.98,205.02C466.95,183.37 458.51,162.61 447.33,143.42C428.15,111.24 401.18,84.17 369.02,64.96C340.15,47.88 307.44,37.49 274,34.89C267.5,34.56 261.1,33.9 254.57,33.99C248.69,34.04 242.87,34.77 237,34.96C205.5,37.6 174.7,47.04 147.16,62.56Z" style="fill-rule:nonzero;stroke:black;stroke-width:10px;"/>
        <path id="p2" d="M254.57,33.99C254.54,50.12 254.48,66.26 254.53,82.4C247.7,82.28 241.08,82.23 234.45,84.21C220.54,88.55 206.63,94.39 194.62,102.74C189.11,106.48 184.32,111.35 179.65,116.07L178.86,116.89C168,98.97 157.94,80.53 147.16,62.56C174.7,47.04 205.5,37.6 237,34.96C242.87,34.77 248.69,34.04 254.57,33.99Z" style="fill-rule:nonzero;stroke:rgb(152,169,180);stroke-width:10px;"/>
        <path id="p3" d="M254.57,33.99C261.1,33.9 267.5,34.56 274,34.89C307.44,37.49 340.15,47.88 369.02,64.96C358.2,84.44 346.63,103.53 335.81,123C331.25,117.99 326.45,113.15 321.49,108.53C308.91,97.47 293.98,89.84 277.98,85.06C270.32,82.98 262.46,82.1 254.53,82.4C254.48,66.26 254.54,50.12 254.57,33.99Z" style="fill-rule:nonzero;stroke:rgb(43,46,50);stroke-width:10px;"/>
        <path id="p4" d="M147.16,62.56C157.94,80.53 168,98.97 178.86,116.89L179.65,116.07C169.19,126.57 161.09,138.61 152.8,150.81C146.19,161.03 140.85,171.87 136.03,183.04C134.33,187.48 133.28,192.14 131.55,196.58C129.66,201.39 128.8,206.77 126.15,211.16C127.79,203.11 131.04,195.3 133.96,187.63C110.48,173.59 86.46,160.39 63.01,146.29C82.97,111.55 112.27,82.3 147.16,62.56Z" style="fill-rule:nonzero;stroke:rgb(43,46,50);stroke-width:10px;"/>
        <path id="p5" d="M369.02,64.96C401.18,84.17 428.15,111.24 447.33,143.42C425.13,156.19 402.98,169 380.8,181.8C378.3,183.31 375.79,184.77 373.1,185.92C364.2,163.01 351.81,141.69 335.81,123C346.63,103.53 358.2,84.44 369.02,64.96Z" style="fill-rule:nonzero;stroke:rgb(152,169,180);stroke-width:10px;"/>
        <path id="p6" d="M254.53,82.4C262.46,82.1 270.32,82.98 277.98,85.06C293.98,89.84 308.91,97.47 321.49,108.53C326.45,113.15 331.25,117.99 335.81,123C351.81,141.69 364.2,163.01 373.1,185.92C382.4,207.42 387.69,229.58 392.54,252.41C393.17,255.62 393.21,258.87 393.76,262.09C397.71,283.32 401.28,304.63 404.31,326.02C405.11,330.76 404.54,335.33 406.36,339.9L406.38,340.17C406.47,345.8 406.87,351.38 407.23,357C407.51,371.32 407.54,385.68 407.17,400C406.8,402.8 407.13,406.95 405.17,409.18C401.8,411.39 397.38,412.22 393.56,413.45C378.32,417.29 362.82,420.2 347.3,422.66C336.46,425.14 325.01,425.85 314,427.39C309.61,427.39 305.36,428.27 301,428.5C293.35,428.47 285.86,429.82 278.19,429.57C267.12,428.83 256.03,430 245,429.12C239.61,428.43 234.19,428.75 228.8,428.11C208.99,426.22 189.6,424.06 170.16,419.64C167.07,418.9 163.93,418.52 160.82,417.9C153.56,415.94 146.22,414.33 139.01,412.2C127.88,409.47 117.13,405.15 106.44,401.06C101.9,399.4 102.85,394.98 102.65,391.13C102.76,386.08 102.81,381.05 102.8,376C102.8,370.61 104.07,365.39 104.2,360C104.43,353.6 105.5,347.39 105.27,340.98C105.17,334.42 105.51,328.12 107.29,321.76C107.28,317.93 107.69,314.78 108.48,311.04C109.36,291.81 112.19,272.82 115.64,253.91C118.68,239.57 121.93,225.2 126.15,211.16C128.8,206.77 129.66,201.39 131.55,196.58C133.28,192.14 134.33,187.48 136.03,183.04C140.85,171.87 146.19,161.03 152.8,150.81C161.09,138.61 169.19,126.57 179.65,116.07C184.32,111.35 189.11,106.48 194.62,102.74C206.63,94.39 220.54,88.55 234.45,84.21C241.08,82.23 247.7,82.28 254.53,82.4ZM168.99,140.27C168.64,140.73 168.3,141.19 167.97,141.66C159.93,152.79 152.68,164.44 146.84,176.88C140.84,190.07 135.75,203.69 131.81,217.63C130.86,221.14 129.7,224.46 129.22,228.09L128.7,228.84C128.54,229.91 128.38,230.98 128.21,232.05C127.65,233.92 127.18,235.83 126.79,237.75C123.03,252.95 120.18,268.5 118.17,284.03C116.67,297.37 114.81,310.63 113.55,323.98C113.49,326.36 113.43,328.7 112.89,331.03C112.21,334.34 112.69,337.72 111.9,341.04C111.15,344.65 111.78,348.3 111.02,351.93C110.11,356.56 110.85,361.22 109.87,365.86C109.23,371.85 109.42,377.98 109.37,384C109.53,387.8 108.3,391.38 108.59,395.21C113.86,396.86 118.89,399.16 124.18,400.77C135.56,403.83 146.65,407.43 158.24,409.82C169.85,412.3 181.39,415.4 192.99,416.95C217.47,420.48 242.25,422.88 267,422.64C293.81,422.76 320.64,420.22 347.02,415.48C351.42,414.91 355.66,413.61 360.06,413.26L360.89,412.72C365.26,412.42 369.48,411.17 373.83,410.43C382.16,408.57 390.38,407.07 398.45,404.22C398.87,385.49 398.74,366.73 398.47,347.99C398.52,344.6 397.47,341.38 397.54,337.99C397.59,335.61 397.37,333.48 396.87,331.16C395.48,313.78 392.58,296.89 389.39,279.74C386.09,262.54 382.77,245.31 378.68,228.28C374.38,210.54 367.84,193.25 360.35,176.63C353.67,162.22 345.65,148.65 335.95,136.06C332.51,131.2 328.21,127.17 324.41,122.61C314.89,112.36 303.44,104.07 290.7,98.26C278.55,92.75 264.45,88.49 251,89.41C238.14,89.97 225.1,95.07 213.6,100.63C201,106.36 189.75,115.19 180.91,125.82C176.51,130.31 172.87,135.35 168.99,140.27Z" style="fill-rule:nonzero;stroke:black;stroke-width:10px;"/>
        <path id="p7" d="M251,89.41C264.45,88.49 278.55,92.75 290.7,98.26C303.44,104.07 314.89,112.36 324.41,122.61C328.21,127.17 332.51,131.2 335.95,136.06C345.65,148.65 353.67,162.22 360.35,176.63C367.84,193.25 374.38,210.54 378.68,228.28C382.77,245.31 386.09,262.54 389.39,279.74C388.32,286.44 388.63,292.72 386.34,299.18C382.71,311.24 377.36,322.47 371.9,333.77C368.17,341.09 365,348.39 360.21,355.11C352.81,366.3 343.9,376.22 332.71,383.72C321.58,390.32 308.89,394.41 296.19,396.63C291.7,397.33 287.46,398.08 282.95,397.03C289.89,383.13 300.3,372.85 311.49,362.41C311.36,356.84 311.02,351.52 311.67,345.92C312.92,338.31 315.18,331.11 317.14,323.75C318.15,319.95 316.12,316.54 314.52,313.24C311.11,306.88 307.38,300.93 305.22,293.88C304.36,290.94 303.03,288.33 301.31,285.8C304.82,284.34 307.67,286.44 311.27,286.25C319.27,285.44 326.19,282.38 333.55,279.38C344.87,274.38 356.03,266.38 362.85,255.92C365.44,252.11 364.63,248.19 364.16,243.9C362.72,233.32 360.38,222.32 355.77,212.63C353.15,199.6 351.18,186.82 346.81,174.16C343.65,164.55 339.64,155.15 334.68,146.33C332.23,141.86 328.13,139.62 323.9,137.11C309.92,129.46 294.98,124.06 278.97,123.02C276.82,123.18 275.19,126.94 275.37,128.85C275.35,130.91 277.27,131.34 278.77,132.17C281.88,133.53 284.95,134.97 287.91,136.64C279.03,135.11 270.53,132.61 261.44,132.33C253.85,131.37 247.14,131.35 239.55,132.31C230.45,132.53 221.93,134.92 213.08,136.66C216.37,134.55 219.92,133.05 223.42,131.36C227.13,129.8 224.54,124.16 222,122.97C205.48,124.02 190.01,129.61 175.71,137.73C173.37,138.95 171.82,141.06 168.99,140.27C172.87,135.35 176.51,130.31 180.91,125.82C189.75,115.19 201,106.36 213.6,100.63C225.1,95.07 238.14,89.97 251,89.41Z" style="fill-rule:nonzero;stroke:rgb(140,158,255);stroke-width:10px;"/>
        <path id="p8" d="M222,122.97C224.54,124.16 227.13,129.8 223.42,131.36C219.92,133.05 216.37,134.55 213.08,136.66C221.93,134.92 230.45,132.53 239.55,132.31C247.14,131.35 253.85,131.37 261.44,132.33C270.53,132.61 279.03,135.11 287.91,136.64C284.95,134.97 281.88,133.53 278.77,132.17C277.27,131.34 275.35,130.91 275.37,128.85C275.19,126.94 276.82,123.18 278.97,123.02C294.98,124.06 309.92,129.46 323.9,137.11C328.13,139.62 332.23,141.86 334.68,146.33C339.64,155.15 343.65,164.55 346.81,174.16C351.18,186.82 353.15,199.6 355.77,212.63C356.1,224.42 358.41,236.1 358.07,248.02C357.95,249.7 357.7,251.23 356.55,252.53C351.48,258.6 345.24,263.36 338.46,267.37C330.76,271.74 322.71,273.85 314.25,276.25C309.86,277.34 304.85,278.37 300.35,277.57C297.79,276.11 295.95,273.21 293.86,271.13C291.61,268.54 288.43,266.09 287.01,262.94C287.17,260.81 288.84,260.44 290.46,259.58C296.14,257.08 302.45,255.07 307.21,250.98C301.49,251.83 297.05,254.72 291.53,256.38C281.73,259.51 271.32,262.35 261,262.68C254.87,263.02 248.22,263.92 242.14,262.62C241.02,261.26 241.88,258.32 241.68,256.61C255.88,257.41 270.13,256.38 283.93,252.85C295.36,250.58 306.38,247.09 316.78,241.79C318.76,240.87 320.79,239.51 322.95,239.13C324.99,239.18 324.82,240.59 325.71,242.03C316.92,251.07 304.99,257.99 294.03,264.09C297.03,267.39 300.18,270.55 303.18,273.86C305.39,273.63 307.58,273.33 309.72,272.71C318.37,270.3 327.38,267.84 335.13,263.16C341.51,259.31 347.82,254.41 352.38,248.47C352.96,245.16 352.48,241.53 352.28,238.19C351.27,229.86 350.42,221.51 349.32,213.18C346.15,192.94 340.75,172.79 331.61,154.38C329.37,150.51 327.69,145.55 323.71,143.27C317.66,139.23 310.29,136.42 303.72,133.27C296.43,129.7 287.86,128.2 279.85,127.28C280.57,129.43 283.45,129.81 285.31,130.72C289.9,132.31 293.99,134.8 298.34,136.89C302.39,139.01 306.32,141.31 310.07,143.92C313.95,146.65 317.93,148.72 321.38,152.04C313.79,149.98 306.52,145.96 298.8,144.41C296.09,142.34 293.1,142.03 289.92,141.13C276.33,137.82 262.98,135.42 249,134.81C241.83,135.77 234.71,136.06 227.6,137.52C222.02,138.68 216.49,139.59 211.02,141.05C205.8,142.49 200.67,143.36 195.94,146.16C190.01,147.83 184.39,150.53 178.58,152.58C184.07,147.94 190.86,143.36 197.16,139.92C201.86,137.82 205.9,134.63 210.68,132.66C214.01,131.02 218.27,130.14 220.8,127.44C212.79,128.09 204.44,129.67 197.16,133.17C190.25,136.39 182.84,139.3 176.5,143.53C172.95,145.86 171.47,149.89 169.5,153.47C165.65,161.29 161.76,169.45 159.71,177.95C157.84,185.19 155.59,192.39 154.28,199.74C151.02,209.94 150.22,221.4 149.1,232.01C148.52,236.67 148.12,241.36 147.76,246.04C147.42,248.22 149.33,249.88 150.59,251.42C158.85,260.12 169.6,266.47 181.09,269.87C185.51,271.14 189.91,272.64 194.41,273.54C195.63,273.66 197.17,274.17 198.08,273.08C200.69,270.32 203.43,267.68 205.97,264.87C206.38,263.38 204.49,262.96 203.55,262.3C193.98,257.16 184.36,251.01 176.39,243.58C175.21,242.64 174.98,241.06 175.79,239.82C177.26,238.7 178.57,239.21 180.06,239.91C188.7,244.31 197.85,248.49 207.35,250.62C207.57,247.76 207.74,244.9 207.77,242.04C208.07,235.36 207.42,228.85 206.42,222.26C206.11,221.04 205.76,219.83 205.46,218.61C205.2,214.41 203.98,210.25 204,206.05C204.51,205.6 205.05,205.17 205.61,204.76C205.35,205.51 205.08,206.25 204.81,206.99C205.93,214.16 207.23,221.33 208.18,228.51C208.77,238.29 208.74,248.21 207.5,257.94C207.22,271.43 206.53,284.7 205.64,298.16C205.74,293.76 205.16,289.55 205.69,285.31C206.91,280.81 206.76,276.35 206.18,271.76C204.28,273.63 202.6,275.77 200.54,277.46C194.14,278.77 186.55,276.57 180.45,274.57C172.41,272.29 164.39,269.31 157.49,264.47C154.18,262.14 151.04,259.54 147.84,257.05C146.03,254.78 142.32,252.15 142.46,249.04C142.02,236.36 143.63,223.52 145.45,210.99C147.88,193.66 152.14,176.2 159.12,160.11C162.04,153.93 164.59,147.62 167.97,141.66C168.3,141.19 168.64,140.73 168.99,140.27C171.82,141.06 173.37,138.95 175.71,137.73C190.01,129.61 205.48,124.02 222,122.97ZM206.96,257.84C206.78,257.18 206.6,256.52 206.42,255.85C201.67,253.92 196.85,252.13 192.06,250.3C196.84,253.05 201.81,255.89 206.96,257.84Z" style="fill-rule:nonzero;stroke:rgb(136,160,174);stroke-width:10px;"/>
        <path id="p9" d="M279.85,127.28C287.86,128.2 296.43,129.7 303.72,133.27C310.29,136.42 317.66,139.23 323.71,143.27C327.69,145.55 329.37,150.51 331.61,154.38C340.75,172.79 346.15,192.94 349.32,213.18C350.42,221.51 351.27,229.86 352.28,238.19C352.48,241.53 352.96,245.16 352.38,248.47C347.82,254.41 341.51,259.31 335.13,263.16C327.38,267.84 318.37,270.3 309.72,272.71C307.58,273.33 305.39,273.63 303.18,273.86C300.18,270.55 297.03,267.39 294.03,264.09C304.99,257.99 316.92,251.07 325.71,242.03C324.82,240.59 324.99,239.18 322.95,239.13C320.79,239.51 318.76,240.87 316.78,241.79C306.38,247.09 295.36,250.58 283.93,252.85C270.13,256.38 255.88,257.41 241.68,256.61C242.41,253.63 241.78,250.54 241.51,247.52C249.86,247.13 258.3,248.11 266.49,246.77C274.34,245.6 282.15,244.82 289.84,242.73C300.16,240.04 310.52,237.2 320.51,233.44C322.51,232.78 324.92,231.71 326.92,232.91C329.15,234.24 331.88,236.06 331.79,239C332.12,242.71 330.55,245.54 329.75,249.02C329.68,251.32 331.58,253.41 333.99,253.07C340.37,252.66 344.4,246.68 346.19,241.12C348.19,233.65 349.02,225.44 347.38,217.82C346.41,213.21 346.71,208.6 346.17,203.97C345.61,199.11 344.14,194.69 343.03,189.95C342.22,186.56 341.39,183.19 340.21,179.91C336.85,169.07 333.2,159.01 325.83,150.17C322.62,146.99 318.14,144.9 314.14,142.88C309.76,140.81 305.11,138.37 300.38,137.29C299.7,137.15 299.02,137.02 298.34,136.89C293.99,134.8 289.9,132.31 285.31,130.72C283.45,129.81 280.57,129.43 279.85,127.28Z" style="fill-rule:nonzero;stroke:rgb(196,212,222);stroke-width:10px;"/>
        <path id="p10" d="M220.8,127.44C218.27,130.14 214.01,131.02 210.68,132.66C205.9,134.63 201.86,137.82 197.16,139.92C195.51,139.37 194.5,139.08 192.89,139.86C189.42,141.29 186.08,143.06 182.75,144.78C179.65,146.47 176.27,148.21 174,151C167.83,159.02 164.1,168.12 161.04,177.69L159.71,177.95C161.76,169.45 165.65,161.29 169.5,153.47C171.47,149.89 172.95,145.86 176.5,143.53C182.84,139.3 190.25,136.39 197.16,133.17C204.44,129.67 212.79,128.09 220.8,127.44Z" style="fill-rule:nonzero;stroke:rgb(196,212,222);stroke-width:10px;"/>
        <path id="p11" d="M249,134.81C262.98,135.42 276.33,137.82 289.92,141.13C293.1,142.03 296.09,142.34 298.8,144.41C293.32,144.8 288.35,143.37 282.99,142.58C268.83,140.06 254.38,138.75 240,139.75C233.63,140.4 227.28,140.76 220.99,141.97C212.67,143.58 204.27,144.59 195.94,146.16C200.67,143.36 205.8,142.49 211.02,141.05C216.49,139.59 222.02,138.68 227.6,137.52C234.71,136.06 241.83,135.77 249,134.81Z" style="fill-rule:nonzero;stroke:rgb(196,212,222);stroke-width:10px;"/>
        <path id="p12" d="M300.38,137.29C305.11,138.37 309.76,140.81 314.14,142.88C318.14,144.9 322.62,146.99 325.83,150.17C333.2,159.01 336.85,169.07 340.21,179.91L339.85,181.97C335.79,179.24 332.04,176.29 327.48,174.39C318.12,170.31 307.75,167.94 297.71,166.26C290.45,164.64 283.09,164.04 275.7,163.37C264.57,161.96 253.2,162.14 242,162.28C231.32,162.22 220.63,163.75 210.01,164.92C193.19,167.96 174.76,170.59 161.15,181.8C161.09,180.43 161.05,179.06 161.04,177.69C164.1,168.12 167.83,159.02 174,151C176.27,148.21 179.65,146.47 182.75,144.78C186.08,143.06 189.42,141.29 192.89,139.86C194.5,139.08 195.51,139.37 197.16,139.92C190.86,143.36 184.07,147.94 178.58,152.58C184.39,150.53 190.01,147.83 195.94,146.16C204.27,144.59 212.67,143.58 220.99,141.97C227.28,140.76 233.63,140.4 240,139.75C254.38,138.75 268.83,140.06 282.99,142.58C288.35,143.37 293.32,144.8 298.8,144.41C306.52,145.96 313.79,149.98 321.38,152.04C317.93,148.72 313.95,146.65 310.07,143.92C306.32,141.31 302.39,139.01 298.34,136.89C299.02,137.02 299.7,137.15 300.38,137.29Z" style="fill-rule:nonzero;stroke:white;stroke-width:10px;"/>
        <path id="p13" d="M167.97,141.66C164.59,147.62 162.04,153.93 159.12,160.11C152.14,176.2 147.88,193.66 145.45,210.99C143.63,223.52 142.02,236.36 142.46,249.04C142.32,252.15 146.03,254.78 147.84,257.05C149.09,259.47 150.26,261.81 152.36,263.64C158.56,269.18 165.47,274.42 173.07,277.86C182.75,282.33 193.14,285.39 203.59,287.44C203.83,285.93 204.06,284.43 204.28,282.93C204.75,283.72 205.22,284.52 205.69,285.31C205.16,289.55 205.74,293.76 205.64,298.16C205.47,307.02 203.74,315.73 203.14,324.49C202.12,327.07 198.68,328.48 197.32,330.84C196.92,334.85 198.62,339.21 199.51,343.14C202.99,356.52 205.63,370.08 208.81,383.54C208.54,384.65 208.26,385.76 207.97,386.88C198.83,382.89 189.43,379.12 180.61,374.47C172.92,370.14 165.24,365.26 158.76,359.23C153.12,353.24 147.56,347.52 143.76,340.11C137.18,327.49 133.13,313.35 130.31,299.44C129.29,292.87 128.33,286.25 127.51,279.65C127.02,270.4 126.43,261.26 127.14,252C127.53,247.13 127.42,242.6 126.79,237.75C127.18,235.83 127.65,233.92 128.21,232.05C128.38,230.98 128.54,229.91 128.7,228.84L129.22,228.09C129.7,224.46 130.86,221.14 131.81,217.63C135.75,203.69 140.84,190.07 146.84,176.88C152.68,164.44 159.93,152.79 167.97,141.66Z" style="fill-rule:nonzero;stroke:rgb(140,158,255);stroke-width:10px;"/>
        <path id="p14" d="M447.33,143.42C458.51,162.61 466.95,183.37 471.98,205.02C476.1,222.39 477.82,240.04 477.99,257.87C450.06,258.14 422.12,258.07 394.18,258.01C394.53,261.82 395.43,265.51 396.12,269.26C399.68,288.25 402.83,307.34 405.18,326.51C405.59,330.99 406.24,335.4 406.36,339.9C404.54,335.33 405.11,330.76 404.31,326.02C401.28,304.63 397.71,283.32 393.76,262.09C393.21,258.87 393.17,255.62 392.54,252.41C387.69,229.58 382.4,207.42 373.1,185.92C375.79,184.77 378.3,183.31 380.8,181.8C402.98,169 425.13,156.19 447.33,143.42Z" style="fill-rule:nonzero;stroke:rgb(43,46,50);stroke-width:10px;"/>
        <path id="p15" d="M63.01,146.29C86.46,160.39 110.48,173.59 133.96,187.63C131.04,195.3 127.79,203.11 126.15,211.16C121.93,225.2 118.68,239.57 115.64,253.91C88.42,254 61.22,253.8 34.01,254.11C34.41,245.4 34.74,236.63 35.92,227.99C39.42,199.28 48.8,171.47 63.01,146.29Z" style="fill-rule:nonzero;stroke:rgb(152,169,180);stroke-width:10px;"/>
        <path id="p16" d="M242,162.28C253.2,162.14 264.57,161.96 275.7,163.37C283.09,164.04 290.45,164.64 297.71,166.26C307.75,167.94 318.12,170.31 327.48,174.39C332.04,176.29 335.79,179.24 339.85,181.97L340.21,179.91C341.39,183.19 342.22,186.56 343.03,189.95C344.14,194.69 345.61,199.11 346.17,203.97C345.6,203.44 345.01,202.93 344.41,202.44C340.87,207.03 337.2,211.26 332,214.05C322.98,218.85 312.44,221.16 302.39,222.5C297.41,223.39 292.74,223.76 287.68,223.71C292.9,221.44 297.5,218.45 300.33,213.34C306.06,203.66 305.41,190.43 298.47,181.51C295.12,177.23 290.51,174.24 285.03,173.71C278.29,172.98 271.83,176.59 267.9,181.91C261.31,190.87 260.85,203.95 266.47,213.49C269.01,217.91 273.15,221.23 277.9,223.03C280.5,223.81 283.36,223.87 286.05,224.04C274.52,225.6 262.64,225.71 251,225.78C246.91,225.88 243.33,225.12 239.47,226.65C238.68,221.61 237.56,216.66 235.59,211.93C236.24,207.44 238.14,203.64 238.21,199C237.72,190.35 234.74,181.76 227.29,176.71C220.5,172.11 211.32,172.79 205.2,178.2C196.96,185.67 194.13,198.52 198.2,208.84C199.77,212.85 201.41,216.55 205.46,218.61C205.76,219.83 206.11,221.04 206.42,222.26C202.07,223.82 198.34,222.42 193.98,221.81C184.46,220.18 173.89,217.68 165.78,212.23C161.28,209.35 158.82,205.18 154.78,201.77C154.62,201.09 154.45,200.42 154.28,199.74C155.59,192.39 157.84,185.19 159.71,177.95L161.04,177.69C161.05,179.06 161.09,180.43 161.15,181.8C174.76,170.59 193.19,167.96 210.01,164.92C220.63,163.75 231.32,162.22 242,162.28Z" style="fill-rule:nonzero;stroke:rgb(234,234,234);stroke-width:10px;"/>
        <path id="p17" d="M227.29,176.71C234.74,181.76 237.72,190.35 238.21,199C238.14,203.64 236.24,207.44 235.59,211.93C235.12,211.31 234.65,210.7 234.17,210.08C231.95,206.89 228.98,202.85 225.09,201.68C218.29,200.52 211.59,201.09 205.61,204.76C205.05,205.17 204.51,205.6 204,206.05C203.98,210.25 205.2,214.41 205.46,218.61C201.41,216.55 199.77,212.85 198.2,208.84C194.13,198.52 196.96,185.67 205.2,178.2C211.32,172.79 220.5,172.11 227.29,176.71Z" style="fill-rule:nonzero;stroke:rgb(171,179,227);stroke-width:10px;"/>
        <path id="p18" d="M285.03,173.71C290.51,174.24 295.12,177.23 298.47,181.51C305.41,190.43 306.06,203.66 300.33,213.34C297.5,218.45 292.9,221.44 287.68,223.71L286.05,224.04C283.36,223.87 280.5,223.81 277.9,223.03C273.15,221.23 269.01,217.91 266.47,213.49C260.85,203.95 261.31,190.87 267.9,181.91C271.83,176.59 278.29,172.98 285.03,173.71Z" style="fill-rule:nonzero;stroke:rgb(171,179,227);stroke-width:10px;"/>
        <path id="p19" d="M154.28,199.74C154.45,200.42 154.62,201.09 154.78,201.77C154.26,207.25 153.71,212.72 153.2,218.21C152.05,224.48 152.43,230.77 153.41,237.03C154.06,242.32 156.81,247.68 160.97,251.04C163.17,252.58 166.97,253.94 169.44,252.39C170.86,251.63 170.59,250.39 170.7,249C170.53,245.3 167.61,241.71 168.68,237.96C169.8,235.72 171.79,233.86 173.98,232.7C176.27,231.76 178.95,233.07 181.15,233.8C189.85,237.18 198.78,239.42 207.77,242.04C207.74,244.9 207.57,247.76 207.35,250.62C197.85,248.49 188.7,244.31 180.06,239.91C178.57,239.21 177.26,238.7 175.79,239.82C174.98,241.06 175.21,242.64 176.39,243.58C184.36,251.01 193.98,257.16 203.55,262.3C204.49,262.96 206.38,263.38 205.97,264.87C203.43,267.68 200.69,270.32 198.08,273.08C197.17,274.17 195.63,273.66 194.41,273.54C189.91,272.64 185.51,271.14 181.09,269.87C169.6,266.47 158.85,260.12 150.59,251.42C149.33,249.88 147.42,248.22 147.76,246.04C148.12,241.36 148.52,236.67 149.1,232.01C150.22,221.4 151.02,209.94 154.28,199.74Z" style="fill-rule:nonzero;stroke:rgb(196,212,222);stroke-width:10px;"/>
        <path id="p20" d="M154.78,201.77C158.82,205.18 161.28,209.35 165.78,212.23C173.89,217.68 184.46,220.18 193.98,221.81C198.34,222.42 202.07,223.82 206.42,222.26C207.42,228.85 208.07,235.36 207.77,242.04C198.78,239.42 189.85,237.18 181.15,233.8C178.95,233.07 176.27,231.76 173.98,232.7C171.79,233.86 169.8,235.72 168.68,237.96C167.61,241.71 170.53,245.3 170.7,249C170.59,250.39 170.86,251.63 169.44,252.39C166.97,253.94 163.17,252.58 160.97,251.04C156.81,247.68 154.06,242.32 153.41,237.03C152.43,230.77 152.05,224.48 153.2,218.21C153.71,212.72 154.26,207.25 154.78,201.77Z" style="fill-rule:nonzero;stroke:white;stroke-width:10px;"/>
        <path id="p21" d="M225.09,201.68C228.98,202.85 231.95,206.89 234.17,210.08C239.05,223.02 240.12,236.3 240.62,250C240.67,252.58 240.92,255.06 241.48,257.59C241.63,267.87 240.98,278.3 243.23,288.07C243.67,290.01 244.27,291.89 244.86,293.79C250.95,291.38 256.38,286.45 262.97,284.81C265.81,284.08 267.68,285.75 269.98,287.08C274.17,289.61 277.58,293.12 281.86,295.52C278.49,290.86 281.74,282.58 286.9,280.44C289.79,278.8 293.07,279.37 295.87,280.9C298.02,282.22 299.85,283.73 301.31,285.8C303.03,288.33 304.36,290.94 305.22,293.88C307.38,300.93 311.11,306.88 314.52,313.24C316.12,316.54 318.15,319.95 317.14,323.75C315.18,331.11 312.92,338.31 311.67,345.92C311.02,351.52 311.36,356.84 311.49,362.41C300.3,372.85 289.89,383.13 282.95,397.03C280.42,400.77 279.1,407.06 274.52,408.48C267.51,411.31 260.15,413.14 252.63,413.93C240.55,415.37 226.59,416.65 214.77,413.26C212.63,403.39 211.17,393.37 208.81,383.54C205.63,370.08 202.99,356.52 199.51,343.14C198.62,339.21 196.92,334.85 197.32,330.84C198.68,328.48 202.12,327.07 203.14,324.49C203.74,315.73 205.47,307.02 205.64,298.16C206.53,284.7 207.22,271.43 207.5,257.94C208.74,248.21 208.77,238.29 208.18,228.51C207.23,221.33 205.93,214.16 204.81,206.99C205.08,206.25 205.35,205.51 205.61,204.76C211.59,201.09 218.29,200.52 225.09,201.68ZM208.4,206.84C209.9,214.99 212.48,222.6 212.69,231.02C214.01,239.34 213.28,248.22 213.64,256.67C213.48,265.69 213.93,274.91 212.74,283.84C212.49,288.27 212.78,292.59 211.68,296.94C211.4,303.75 210.44,310.4 209.39,317.13C209.28,318.47 208.73,319.63 208.24,320.86C213.26,317.01 217.85,312.71 223.11,309.14C228.98,305.11 234.79,300.94 240.79,297.12C239.39,293.82 238.11,290.55 237.6,286.98C237.5,283.62 236.91,280.33 236.61,277C236.25,267.98 236.64,259 235.75,250.01C235.7,238.71 234.69,227.31 231.35,216.47C229.7,211.23 226.4,206.61 221.01,204.81C216.47,203.98 212.59,205.34 208.4,206.84ZM286.94,285.95C286.26,287.41 285.65,288.9 285.23,290.46C284.38,293.21 284.66,295.78 284.65,298.62C290.42,304.37 296.04,309.69 300.17,316.83C301.93,320.12 304.09,322.7 303.28,326.68C301.22,335.2 298.15,343.42 294.32,351.3C292.99,353.8 291.8,356.69 289.37,358.32C283.74,362.19 277.58,365.37 271.67,368.8C271.94,381.68 269.6,396.97 261.71,407.52C265.87,406.12 270.06,404.82 274.14,403.19C277.29,397.86 279.54,392.22 283.19,387.17C289.79,377.22 297.92,368.71 306.57,360.55C306.51,356.37 306.36,352.17 306.59,347.99C307.27,341.71 309.15,335.36 310.63,329.21C311.39,326.14 313.14,323.21 312.25,319.99C310.76,316.07 308.6,312.37 306.58,308.71C302.73,301.41 300.33,293.83 295.02,286.99C292.39,284.41 290.17,283.91 286.94,285.95ZM202.1,330.77C202.59,336.71 204.6,342.38 205.67,348.26C207.86,356.62 209.01,365.2 211.34,373.51C212.38,385.91 216.64,398.02 217.66,410.49C225.43,410.45 233.24,410.69 240.99,410.33C246.08,409.53 251.2,409.47 256.24,408.38C259.43,402.47 262.44,396.58 263.65,389.91C265.85,378.28 266.89,366.76 262.88,355.37C261.19,351.23 259.83,346.99 257.79,343.01C257.55,342.14 257.85,341.23 258.68,340.29C263.65,340.55 270.27,339.63 274.59,342.46C275.7,342.9 275.52,344.7 275.83,345.69C271.83,345.39 268.07,343.83 264.01,343.58C268.89,348.35 270.65,356.33 271.72,362.84C275.31,360.74 278.92,358.66 282.5,356.55C284.73,355.14 287.04,353.9 288.3,351.48C292.06,344.33 295.04,336.72 297.17,328.92C297.93,326.11 298.02,323.31 296.51,320.72C292.12,312.36 285.66,306.5 278.9,300.09C274.32,296.29 269.59,292.14 264.2,289.55C257.96,291.34 252.31,295.42 246.82,298.8C237.2,305.11 227.64,311.48 218.48,318.46C212.88,322.38 207.31,326.32 202.1,330.77Z" style="fill-rule:nonzero;stroke:black;stroke-width:10px;"/>
        <path id="p22" d="M344.41,202.44C345.01,202.93 345.6,203.44 346.17,203.97C346.71,208.6 346.41,213.21 347.38,217.82C349.02,225.44 348.19,233.65 346.19,241.12C344.4,246.68 340.37,252.66 333.99,253.07C331.58,253.41 329.68,251.32 329.75,249.02C330.55,245.54 332.12,242.71 331.79,239C331.88,236.06 329.15,234.24 326.92,232.91C324.92,231.71 322.51,232.78 320.51,233.44C310.52,237.2 300.16,240.04 289.84,242.73C282.15,244.82 274.34,245.6 266.49,246.77C258.3,248.11 249.86,247.13 241.51,247.52C241.07,240.52 240.79,233.56 239.47,226.65C243.33,225.12 246.91,225.88 251,225.78C262.64,225.71 274.52,225.6 286.05,224.04L287.68,223.71C292.74,223.76 297.41,223.39 302.39,222.5C312.44,221.16 322.98,218.85 332,214.05C337.2,211.26 340.87,207.03 344.41,202.44Z" style="fill-rule:nonzero;stroke:white;stroke-width:10px;"/>
        <path id="p23" d="M221.01,204.81C226.4,206.61 229.7,211.23 231.35,216.47C234.69,227.31 235.7,238.71 235.75,250.01C236.64,259 236.25,267.98 236.61,277C236.91,280.33 237.5,283.62 237.6,286.98C235.84,291.76 230.78,295.28 226.25,297.21C220.78,299.38 215.7,294.79 214.2,289.86C213.33,280.79 214.86,271.26 214.67,261.99C214.64,260.13 214.09,258.46 213.64,256.67C213.28,248.22 214.01,239.34 212.69,231.02C212.48,222.6 209.9,214.99 208.4,206.84C212.59,205.34 216.47,203.98 221.01,204.81Z" style="fill-rule:nonzero;stroke:rgb(140,158,255);stroke-width:10px;"/>
        <path id="p24" d="M234.17,210.08C234.65,210.7 235.12,211.31 235.59,211.93C237.56,216.66 238.68,221.61 239.47,226.65C240.79,233.56 241.07,240.52 241.51,247.52C241.78,250.54 242.41,253.63 241.68,256.61L241.48,257.59C240.92,255.06 240.67,252.58 240.62,250C240.12,236.3 239.05,223.02 234.17,210.08Z" style="fill-rule:nonzero;stroke:rgb(136,160,174);stroke-width:10px;"/>
        <path id="p25" d="M355.77,212.63C360.38,222.32 362.72,233.32 364.16,243.9C364.63,248.19 365.44,252.11 362.85,255.92C356.03,266.38 344.87,274.38 333.55,279.38C326.19,282.38 319.27,285.44 311.27,286.25C307.67,286.44 304.82,284.34 301.31,285.8C299.85,283.73 298.02,282.22 295.87,280.9C296.16,280.29 296.44,279.68 296.73,279.07C293.75,275.99 290.94,272.75 287.99,269.64C280.91,270.72 274.19,273.34 267.01,274.05C259,274.83 251.26,276.05 243.19,275.26C242.89,279.54 243.43,283.79 243.23,288.07C240.98,278.3 241.63,267.87 241.48,257.59L241.68,256.61C241.88,258.32 241.02,261.26 242.14,262.62C248.22,263.92 254.87,263.02 261,262.68C271.32,262.35 281.73,259.51 291.53,256.38C297.05,254.72 301.49,251.83 307.21,250.98C302.45,255.07 296.14,257.08 290.46,259.58C288.84,260.44 287.17,260.81 287.01,262.94C288.43,266.09 291.61,268.54 293.86,271.13C295.95,273.21 297.79,276.11 300.35,277.57C304.85,278.37 309.86,277.34 314.25,276.25C322.71,273.85 330.76,271.74 338.46,267.37C345.24,263.36 351.48,258.6 356.55,252.53C357.7,251.23 357.95,249.7 358.07,248.02C358.41,236.1 356.1,224.42 355.77,212.63Z" style="fill-rule:nonzero;stroke:rgb(133,150,221);stroke-width:10px;"/>
        <path id="p26" d="M126.79,237.75C127.42,242.6 127.53,247.13 127.14,252C126.43,261.26 127.02,270.4 127.51,279.65C128.33,286.25 129.29,292.87 130.31,299.44C133.13,313.35 137.18,327.49 143.76,340.11C147.56,347.52 153.12,353.24 158.76,359.23C165.24,365.26 172.92,370.14 180.61,374.47C189.43,379.12 198.83,382.89 207.97,386.88C208.26,385.76 208.54,384.65 208.81,383.54C211.17,393.37 212.63,403.39 214.77,413.26C226.59,416.65 240.55,415.37 252.63,413.93C260.15,413.14 267.51,411.31 274.52,408.48C279.1,407.06 280.42,400.77 282.95,397.03C287.46,398.08 291.7,397.33 296.19,396.63C308.89,394.41 321.58,390.32 332.71,383.72C343.9,376.22 352.81,366.3 360.21,355.11C365,348.39 368.17,341.09 371.9,333.77C377.36,322.47 382.71,311.24 386.34,299.18C388.63,292.72 388.32,286.44 389.39,279.74C392.58,296.89 395.48,313.78 396.87,331.16C397.37,333.48 397.59,335.61 397.54,337.99C397.47,341.38 398.52,344.6 398.47,347.99C398.74,366.73 398.87,385.49 398.45,404.22C390.38,407.07 382.16,408.57 373.83,410.43C369.48,411.17 365.26,412.42 360.89,412.72L360.06,413.26C355.66,413.61 351.42,414.91 347.02,415.48C320.64,420.22 293.81,422.76 267,422.64C242.25,422.88 217.47,420.48 192.99,416.95C181.39,415.4 169.85,412.3 158.24,409.82C146.65,407.43 135.56,403.83 124.18,400.77C118.89,399.16 113.86,396.86 108.59,395.21C108.3,391.38 109.53,387.8 109.37,384C109.42,377.98 109.23,371.85 109.87,365.86C110.85,361.22 110.11,356.56 111.02,351.93C111.78,348.3 111.15,344.65 111.9,341.04C112.69,337.72 112.21,334.34 112.89,331.03C113.43,328.7 113.49,326.36 113.55,323.98C114.81,310.63 116.67,297.37 118.17,284.03C120.18,268.5 123.03,252.95 126.79,237.75Z" style="fill-rule:nonzero;stroke:rgb(133,150,221);stroke-width:10px;"/>
        <path id="p27" d="M192.06,250.3C196.85,252.13 201.67,253.92 206.42,255.85C206.6,256.52 206.78,257.18 206.96,257.84C201.81,255.89 196.84,253.05 192.06,250.3Z" style="fill-rule:nonzero;stroke:rgb(140,158,255);stroke-width:10px;"/>
        <path id="p28" d="M34.01,254.11C61.22,253.8 88.42,254 115.64,253.91C112.19,272.82 109.36,291.81 108.48,311.04C107.69,314.78 107.28,317.93 107.29,321.76C105.51,328.12 105.17,334.42 105.27,340.98C105.5,347.39 104.43,353.6 104.2,360C104.07,365.39 102.8,370.61 102.8,376C102.81,381.05 102.76,386.08 102.65,391.13C102.39,380.12 102.34,369.01 103.48,358.05C103.63,354.07 103.69,350.11 104.33,346.16C91.1,353.62 78.01,361.32 64.8,368.82C54.11,350.48 45.88,330.73 40.78,310.12C36.14,291.77 34.17,273 34.01,254.11Z" style="fill-rule:nonzero;stroke:rgb(43,46,50);stroke-width:10px;"/>
        <path id="p29" d="M147.84,257.05C151.04,259.54 154.18,262.14 157.49,264.47C164.39,269.31 172.41,272.29 180.45,274.57C186.55,276.57 194.14,278.77 200.54,277.46C202.6,275.77 204.28,273.63 206.18,271.76C206.76,276.35 206.91,280.81 205.69,285.31C205.22,284.52 204.75,283.72 204.28,282.93C204.06,284.43 203.83,285.93 203.59,287.44C193.14,285.39 182.75,282.33 173.07,277.86C165.47,274.42 158.56,269.18 152.36,263.64C150.26,261.81 149.09,259.47 147.84,257.05Z" style="fill-rule:nonzero;stroke:rgb(133,150,221);stroke-width:10px;"/>
        <path id="p30" d="M213.64,256.67C214.09,258.46 214.64,260.13 214.67,261.99C214.86,271.26 213.33,280.79 214.2,289.86C215.7,294.79 220.78,299.38 226.25,297.21C230.78,295.28 235.84,291.76 237.6,286.98C238.11,290.55 239.39,293.82 240.79,297.12C234.79,300.94 228.98,305.11 223.11,309.14C217.85,312.71 213.26,317.01 208.24,320.86C208.73,319.63 209.28,318.47 209.39,317.13C210.44,310.4 211.4,303.75 211.68,296.94C212.78,292.59 212.49,288.27 212.74,283.84C213.93,274.91 213.48,265.69 213.64,256.67Z" style="fill-rule:nonzero;stroke:rgb(133,150,221);stroke-width:10px;"/>
        <path id="p31" d="M394.18,258.01C422.12,258.07 450.06,258.14 477.99,257.87C477.61,266.58 477.24,275.36 476.08,284C472.61,312.44 463.39,340.04 449.37,365C436.05,357.18 422.65,349.51 409.29,341.77C408.33,341.23 407.35,340.7 406.38,340.17L406.36,339.9C406.24,335.4 405.59,330.99 405.18,326.51C402.83,307.34 399.68,288.25 396.12,269.26C395.43,265.51 394.53,261.82 394.18,258.01Z" style="fill-rule:nonzero;stroke:rgb(152,169,180);stroke-width:10px;"/>
        <path id="p32" d="M287.99,269.64C290.94,272.75 293.75,275.99 296.73,279.07C296.44,279.68 296.16,280.29 295.87,280.9C293.07,279.37 289.79,278.8 286.9,280.44C281.74,282.58 278.49,290.86 281.86,295.52C277.58,293.12 274.17,289.61 269.98,287.08C267.68,285.75 265.81,284.08 262.97,284.81C256.38,286.45 250.95,291.38 244.86,293.79C244.27,291.89 243.67,290.01 243.23,288.07C243.43,283.79 242.89,279.54 243.19,275.26C251.26,276.05 259,274.83 267.01,274.05C274.19,273.34 280.91,270.72 287.99,269.64Z" style="fill-rule:nonzero;stroke:rgb(140,158,255);stroke-width:10px;"/>
        <path id="p33" d="M295.02,286.99C300.33,293.83 302.73,301.41 306.58,308.71C306.29,309.79 305.99,310.87 305.7,311.95C301.22,310.67 298.38,307 295.17,303.83C291.19,299.82 288.35,295.12 285.23,290.46C285.65,288.9 286.26,287.41 286.94,285.95C290.17,283.91 292.39,284.41 295.02,286.99Z" style="fill-rule:nonzero;stroke:rgb(140,158,255);stroke-width:10px;"/>
        <path id="p34" d="M264.2,289.55C269.59,292.14 274.32,296.29 278.9,300.09C285.66,306.5 292.12,312.36 296.51,320.72C295.25,324.96 293.75,329.13 292.09,333.23C291.84,333.96 291.33,334.55 290.58,335.01C289.85,331.95 289.54,328.56 288.27,325.67C286.33,322.81 282.33,321.15 279.26,319.76C274.48,317.93 269.12,316 263.95,316.11C264.8,317.41 265.45,318.48 267.06,318.91C273.02,320.93 278.53,322.22 283.26,326.75C284.88,328.25 284.74,330.96 284.83,332.99C284.79,337.65 284.31,342.01 280.22,344.93C278.94,342.59 277.99,339.77 276.22,337.78C274.1,336.74 271.33,336.81 269,336.65C264.18,336.58 259.02,336.32 254.3,337.42C252.43,337.92 251.05,338.87 251.12,341C251.34,346.43 254.48,351.79 255.92,357.02C257.53,362.72 260.1,368.99 257.85,374.86C255.49,381.29 251.6,387.88 246.16,392.17C239.64,396.66 230.71,393.18 224.79,389.23C218.35,385.12 216.12,379.07 211.34,373.51C209.01,365.2 207.86,356.62 205.67,348.26C204.6,342.38 202.59,336.71 202.1,330.77C207.31,326.32 212.88,322.38 218.48,318.46C227.64,311.48 237.2,305.11 246.82,298.8C252.31,295.42 257.96,291.34 264.2,289.55ZM221.45,342.51C222.24,342.61 223.03,342.72 223.83,342.82C226.56,338.26 225.84,333.06 230.66,330.69C235.9,327.89 241.33,325.32 246.7,322.74C249.88,321.13 254.51,320.56 257.02,318.02L256.99,316.98C253.76,316.31 250.03,318.02 246.92,318.86C238.61,321.29 229.14,323.68 222.14,329.14C219.31,332.31 219.94,338.81 221.45,342.51Z" style="fill-rule:nonzero;stroke:rgb(140,158,255);stroke-width:10px;"/>
        <path id="p35" d="M285.23,290.46C288.35,295.12 291.19,299.82 295.17,303.83C298.38,307 301.22,310.67 305.7,311.95C305.99,310.87 306.29,309.79 306.58,308.71C308.6,312.37 310.76,316.07 312.25,319.99C313.14,323.21 311.39,326.14 310.63,329.21C309.15,335.36 307.27,341.71 306.59,347.99C306.36,352.17 306.51,356.37 306.57,360.55C297.92,368.71 289.79,377.22 283.19,387.17C279.54,392.22 277.29,397.86 274.14,403.19C270.06,404.82 265.87,406.12 261.71,407.52C269.6,396.97 271.94,381.68 271.67,368.8C277.58,365.37 283.74,362.19 289.37,358.32C291.8,356.69 292.99,353.8 294.32,351.3C298.15,343.42 301.22,335.2 303.28,326.68C304.09,322.7 301.93,320.12 300.17,316.83C296.04,309.69 290.42,304.37 284.65,298.62C284.66,295.78 284.38,293.21 285.23,290.46Z" style="fill-rule:nonzero;stroke:rgb(133,150,221);stroke-width:10px;"/>
        <path id="p36" d="M263.95,316.11C269.12,316 274.48,317.93 279.26,319.76C282.33,321.15 286.33,322.81 288.27,325.67C289.54,328.56 289.85,331.95 290.58,335.01C291.33,334.55 291.84,333.96 292.09,333.23C293.75,329.13 295.25,324.96 296.51,320.72C298.02,323.31 297.93,326.11 297.17,328.92C295.04,336.72 292.06,344.33 288.3,351.48C287.04,353.9 284.73,355.14 282.5,356.55C278.92,358.66 275.31,360.74 271.72,362.84C270.65,356.33 268.89,348.35 264.01,343.58C268.07,343.83 271.83,345.39 275.83,345.69C275.52,344.7 275.7,342.9 274.59,342.46C270.27,339.63 263.65,340.55 258.68,340.29C257.85,341.23 257.55,342.14 257.79,343.01C259.83,346.99 261.19,351.23 262.88,355.37C266.89,366.76 265.85,378.28 263.65,389.91C262.44,396.58 259.43,402.47 256.24,408.38C251.2,409.47 246.08,409.53 240.99,410.33C233.24,410.69 225.43,410.45 217.66,410.49C216.64,398.02 212.38,385.91 211.34,373.51C216.12,379.07 218.35,385.12 224.79,389.23C230.71,393.18 239.64,396.66 246.16,392.17C251.6,387.88 255.49,381.29 257.85,374.86C260.1,368.99 257.53,362.72 255.92,357.02C254.48,351.79 251.34,346.43 251.12,341C251.05,338.87 252.43,337.92 254.3,337.42C259.02,336.32 264.18,336.58 269,336.65C271.33,336.81 274.1,336.74 276.22,337.78C277.99,339.77 278.94,342.59 280.22,344.93C284.31,342.01 284.79,337.65 284.83,332.99C284.74,330.96 284.88,328.25 283.26,326.75C278.53,322.22 273.02,320.93 267.06,318.91C265.45,318.48 264.8,317.41 263.95,316.11Z" style="fill-rule:nonzero;stroke:rgb(133,150,221);stroke-width:10px;"/>
        <path id="p37" d="M256.99,316.98L257.02,318.02C254.51,320.56 249.88,321.13 246.7,322.74C241.33,325.32 235.9,327.89 230.66,330.69C225.84,333.06 226.56,338.26 223.83,342.82C223.03,342.72 222.24,342.61 221.45,342.51C219.94,338.81 219.31,332.31 222.14,329.14C229.14,323.68 238.61,321.29 246.92,318.86C250.03,318.02 253.76,316.31 256.99,316.98Z" style="fill-rule:nonzero;stroke:rgb(133,150,221);stroke-width:10px;"/>
        <path id="p38" d="M406.38,340.17C407.35,340.7 408.33,341.23 409.29,341.77C422.65,349.51 436.05,357.18 449.37,365C429.63,399.79 400.47,428.97 365.82,448.94C360.7,440.24 355.6,431.51 350.63,422.71C349.52,422.67 348.41,422.65 347.3,422.66C362.82,420.2 378.32,417.29 393.56,413.45C397.38,412.22 401.8,411.39 405.17,409.18C407.13,406.95 406.8,402.8 407.17,400C407.54,385.68 407.51,371.32 407.23,357C406.87,351.38 406.47,345.8 406.38,340.17Z" style="fill-rule:nonzero;stroke:rgb(43,46,50);stroke-width:10px;"/>
        <path id="p39" d="M104.33,346.16C103.69,350.11 103.63,354.07 103.48,358.05C102.34,369.01 102.39,380.12 102.65,391.13C102.85,394.98 101.9,399.4 106.44,401.06C117.13,405.15 127.88,409.47 139.01,412.2C146.22,414.33 153.56,415.94 160.82,417.9C154.94,427.67 149.62,437.76 143.59,447.44C111.19,428.14 84.17,401.17 64.8,368.82C78.01,361.32 91.1,353.62 104.33,346.16Z" style="fill-rule:nonzero;stroke:rgb(152,169,180);stroke-width:10px;"/>
        <path id="p40" d="M170.16,419.64C189.6,424.06 208.99,426.22 228.8,428.11C234.19,428.75 239.61,428.43 245,429.12C256.03,430 267.12,428.83 278.19,429.57C271.66,429.86 265.15,429.82 258.62,429.67C258.46,445.78 258.59,461.89 258.51,478C242.28,477.82 225.88,476.52 209.99,473.06C186.61,468.25 164.21,459.41 143.59,447.44C149.62,437.76 154.94,427.67 160.82,417.9C163.93,418.52 167.07,418.9 170.16,419.64Z" style="fill-rule:nonzero;stroke:rgb(43,46,50);stroke-width:10px;"/>
        <path id="p41" d="M347.3,422.66C348.41,422.65 349.52,422.67 350.63,422.71C355.6,431.51 360.7,440.24 365.82,448.94C345.54,460.29 323.86,468.72 301.03,473.27C286.99,476.33 272.83,477.4 258.51,478C258.59,461.89 258.46,445.78 258.62,429.67C265.15,429.82 271.66,429.86 278.19,429.57C285.86,429.82 293.35,428.47 301,428.5C305.36,428.27 309.61,427.39 314,427.39C325.01,425.85 336.46,425.14 347.3,422.66Z" style="fill-rule:nonzero;stroke:rgb(152,169,180);stroke-width:10px;"/>
    </g>
    <g>
        <path id="p110" serif:id="p1" d="M266,27.04C301.15,28.51 335.91,38.22 366.69,55.29C399.67,73.48 428,99.92 448.46,131.54C466.99,160.06 479,192.75 483.28,226.5C485.23,239.96 485.15,253.43 484.94,267C483.26,302.08 473.5,336.68 456.35,367.35C437.94,400.46 411.2,428.86 379.26,449.23C375.27,451.62 371.66,454.45 367.38,456.35C339.17,472.05 307.7,481.72 275.51,484.32C266.43,485.4 257.13,484.88 248,484.98C194.32,483.46 141.81,462.01 102.15,425.83C78.25,404.23 58.95,377.49 46.03,347.97C34.78,322.43 28.43,294.85 27.06,267C26.86,253.43 26.76,239.96 28.72,226.5C32.97,192.99 44.85,160.52 63.16,132.14C82.59,101.91 109.2,76.36 140.2,58.2C168.95,41.32 201.58,30.72 234.8,27.86C245.06,26.54 255.65,27.1 266,27.04ZM147.16,62.56C112.27,82.3 82.97,111.55 63.01,146.29C48.8,171.47 39.42,199.28 35.92,227.99C34.74,236.63 34.41,245.4 34.01,254.11C34.17,273 36.14,291.77 40.78,310.12C45.88,330.73 54.11,350.48 64.8,368.82C84.17,401.17 111.19,428.14 143.59,447.44C164.21,459.41 186.61,468.25 209.99,473.06C225.88,476.52 242.28,477.82 258.51,478C272.83,477.4 286.99,476.33 301.03,473.27C323.86,468.72 345.54,460.29 365.82,448.94C400.47,428.97 429.63,399.79 449.37,365C463.39,340.04 472.61,312.44 476.08,284C477.24,275.36 477.61,266.58 477.99,257.87C477.82,240.04 476.1,222.39 471.98,205.02C466.95,183.37 458.51,162.61 447.33,143.42C428.15,111.24 401.18,84.17 369.02,64.96C340.15,47.88 307.44,37.49 274,34.89C267.5,34.56 261.1,33.9 254.57,33.99C248.69,34.04 242.87,34.77 237,34.96C205.5,37.6 174.7,47.04 147.16,62.56Z" style="fill-rule:nonzero;"/>
        <path id="p210" serif:id="p2" d="M254.57,33.99C254.54,50.12 254.48,66.26 254.53,82.4C247.7,82.28 241.08,82.23 234.45,84.21C220.54,88.55 206.63,94.39 194.62,102.74C189.11,106.48 184.32,111.35 179.65,116.07L178.86,116.89C168,98.97 157.94,80.53 147.16,62.56C174.7,47.04 205.5,37.6 237,34.96C242.87,34.77 248.69,34.04 254.57,33.99Z" style="fill:rgb(152,169,180);fill-rule:nonzero;"/>
        <path id="p310" serif:id="p3" d="M254.57,33.99C261.1,33.9 267.5,34.56 274,34.89C307.44,37.49 340.15,47.88 369.02,64.96C358.2,84.44 346.63,103.53 335.81,123C331.25,117.99 326.45,113.15 321.49,108.53C308.91,97.47 293.98,89.84 277.98,85.06C270.32,82.98 262.46,82.1 254.53,82.4C254.48,66.26 254.54,50.12 254.57,33.99Z" style="fill:rgb(43,46,50);fill-rule:nonzero;"/>
        <path id="p42" serif:id="p4" d="M147.16,62.56C157.94,80.53 168,98.97 178.86,116.89L179.65,116.07C169.19,126.57 161.09,138.61 152.8,150.81C146.19,161.03 140.85,171.87 136.03,183.04C134.33,187.48 133.28,192.14 131.55,196.58C129.66,201.39 128.8,206.77 126.15,211.16C127.79,203.11 131.04,195.3 133.96,187.63C110.48,173.59 86.46,160.39 63.01,146.29C82.97,111.55 112.27,82.3 147.16,62.56Z" style="fill:rgb(43,46,50);fill-rule:nonzero;"/>
        <path id="p51" serif:id="p5" d="M369.02,64.96C401.18,84.17 428.15,111.24 447.33,143.42C425.13,156.19 402.98,169 380.8,181.8C378.3,183.31 375.79,184.77 373.1,185.92C364.2,163.01 351.81,141.69 335.81,123C346.63,103.53 358.2,84.44 369.02,64.96Z" style="fill:rgb(152,169,180);fill-rule:nonzero;"/>
        <path id="p61" serif:id="p6" d="M254.53,82.4C262.46,82.1 270.32,82.98 277.98,85.06C293.98,89.84 308.91,97.47 321.49,108.53C326.45,113.15 331.25,117.99 335.81,123C351.81,141.69 364.2,163.01 373.1,185.92C382.4,207.42 387.69,229.58 392.54,252.41C393.17,255.62 393.21,258.87 393.76,262.09C397.71,283.32 401.28,304.63 404.31,326.02C405.11,330.76 404.54,335.33 406.36,339.9L406.38,340.17C406.47,345.8 406.87,351.38 407.23,357C407.51,371.32 407.54,385.68 407.17,400C406.8,402.8 407.13,406.95 405.17,409.18C401.8,411.39 397.38,412.22 393.56,413.45C378.32,417.29 362.82,420.2 347.3,422.66C336.46,425.14 325.01,425.85 314,427.39C309.61,427.39 305.36,428.27 301,428.5C293.35,428.47 285.86,429.82 278.19,429.57C267.12,428.83 256.03,430 245,429.12C239.61,428.43 234.19,428.75 228.8,428.11C208.99,426.22 189.6,424.06 170.16,419.64C167.07,418.9 163.93,418.52 160.82,417.9C153.56,415.94 146.22,414.33 139.01,412.2C127.88,409.47 117.13,405.15 106.44,401.06C101.9,399.4 102.85,394.98 102.65,391.13C102.76,386.08 102.81,381.05 102.8,376C102.8,370.61 104.07,365.39 104.2,360C104.43,353.6 105.5,347.39 105.27,340.98C105.17,334.42 105.51,328.12 107.29,321.76C107.28,317.93 107.69,314.78 108.48,311.04C109.36,291.81 112.19,272.82 115.64,253.91C118.68,239.57 121.93,225.2 126.15,211.16C128.8,206.77 129.66,201.39 131.55,196.58C133.28,192.14 134.33,187.48 136.03,183.04C140.85,171.87 146.19,161.03 152.8,150.81C161.09,138.61 169.19,126.57 179.65,116.07C184.32,111.35 189.11,106.48 194.62,102.74C206.63,94.39 220.54,88.55 234.45,84.21C241.08,82.23 247.7,82.28 254.53,82.4ZM168.99,140.27C168.64,140.73 168.3,141.19 167.97,141.66C159.93,152.79 152.68,164.44 146.84,176.88C140.84,190.07 135.75,203.69 131.81,217.63C130.86,221.14 129.7,224.46 129.22,228.09L128.7,228.84C128.54,229.91 128.38,230.98 128.21,232.05C127.65,233.92 127.18,235.83 126.79,237.75C123.03,252.95 120.18,268.5 118.17,284.03C116.67,297.37 114.81,310.63 113.55,323.98C113.49,326.36 113.43,328.7 112.89,331.03C112.21,334.34 112.69,337.72 111.9,341.04C111.15,344.65 111.78,348.3 111.02,351.93C110.11,356.56 110.85,361.22 109.87,365.86C109.23,371.85 109.42,377.98 109.37,384C109.53,387.8 108.3,391.38 108.59,395.21C113.86,396.86 118.89,399.16 124.18,400.77C135.56,403.83 146.65,407.43 158.24,409.82C169.85,412.3 181.39,415.4 192.99,416.95C217.47,420.48 242.25,422.88 267,422.64C293.81,422.76 320.64,420.22 347.02,415.48C351.42,414.91 355.66,413.61 360.06,413.26L360.89,412.72C365.26,412.42 369.48,411.17 373.83,410.43C382.16,408.57 390.38,407.07 398.45,404.22C398.87,385.49 398.74,366.73 398.47,347.99C398.52,344.6 397.47,341.38 397.54,337.99C397.59,335.61 397.37,333.48 396.87,331.16C395.48,313.78 392.58,296.89 389.39,279.74C386.09,262.54 382.77,245.31 378.68,228.28C374.38,210.54 367.84,193.25 360.35,176.63C353.67,162.22 345.65,148.65 335.95,136.06C332.51,131.2 328.21,127.17 324.41,122.61C314.89,112.36 303.44,104.07 290.7,98.26C278.55,92.75 264.45,88.49 251,89.41C238.14,89.97 225.1,95.07 213.6,100.63C201,106.36 189.75,115.19 180.91,125.82C176.51,130.31 172.87,135.35 168.99,140.27Z" style="fill-rule:nonzero;"/>
        <path id="p71" serif:id="p7" d="M251,89.41C264.45,88.49 278.55,92.75 290.7,98.26C303.44,104.07 314.89,112.36 324.41,122.61C328.21,127.17 332.51,131.2 335.95,136.06C345.65,148.65 353.67,162.22 360.35,176.63C367.84,193.25 374.38,210.54 378.68,228.28C382.77,245.31 386.09,262.54 389.39,279.74C388.32,286.44 388.63,292.72 386.34,299.18C382.71,311.24 377.36,322.47 371.9,333.77C368.17,341.09 365,348.39 360.21,355.11C352.81,366.3 343.9,376.22 332.71,383.72C321.58,390.32 308.89,394.41 296.19,396.63C291.7,397.33 287.46,398.08 282.95,397.03C289.89,383.13 300.3,372.85 311.49,362.41C311.36,356.84 311.02,351.52 311.67,345.92C312.92,338.31 315.18,331.11 317.14,323.75C318.15,319.95 316.12,316.54 314.52,313.24C311.11,306.88 307.38,300.93 305.22,293.88C304.36,290.94 303.03,288.33 301.31,285.8C304.82,284.34 307.67,286.44 311.27,286.25C319.27,285.44 326.19,282.38 333.55,279.38C344.87,274.38 356.03,266.38 362.85,255.92C365.44,252.11 364.63,248.19 364.16,243.9C362.72,233.32 360.38,222.32 355.77,212.63C353.15,199.6 351.18,186.82 346.81,174.16C343.65,164.55 339.64,155.15 334.68,146.33C332.23,141.86 328.13,139.62 323.9,137.11C309.92,129.46 294.98,124.06 278.97,123.02C276.82,123.18 275.19,126.94 275.37,128.85C275.35,130.91 277.27,131.34 278.77,132.17C281.88,133.53 284.95,134.97 287.91,136.64C279.03,135.11 270.53,132.61 261.44,132.33C253.85,131.37 247.14,131.35 239.55,132.31C230.45,132.53 221.93,134.92 213.08,136.66C216.37,134.55 219.92,133.05 223.42,131.36C227.13,129.8 224.54,124.16 222,122.97C205.48,124.02 190.01,129.61 175.71,137.73C173.37,138.95 171.82,141.06 168.99,140.27C172.87,135.35 176.51,130.31 180.91,125.82C189.75,115.19 201,106.36 213.6,100.63C225.1,95.07 238.14,89.97 251,89.41Z" style="fill:rgb(140,158,255);fill-rule:nonzero;"/>
        <path id="p81" serif:id="p8" d="M222,122.97C224.54,124.16 227.13,129.8 223.42,131.36C219.92,133.05 216.37,134.55 213.08,136.66C221.93,134.92 230.45,132.53 239.55,132.31C247.14,131.35 253.85,131.37 261.44,132.33C270.53,132.61 279.03,135.11 287.91,136.64C284.95,134.97 281.88,133.53 278.77,132.17C277.27,131.34 275.35,130.91 275.37,128.85C275.19,126.94 276.82,123.18 278.97,123.02C294.98,124.06 309.92,129.46 323.9,137.11C328.13,139.62 332.23,141.86 334.68,146.33C339.64,155.15 343.65,164.55 346.81,174.16C351.18,186.82 353.15,199.6 355.77,212.63C356.1,224.42 358.41,236.1 358.07,248.02C357.95,249.7 357.7,251.23 356.55,252.53C351.48,258.6 345.24,263.36 338.46,267.37C330.76,271.74 322.71,273.85 314.25,276.25C309.86,277.34 304.85,278.37 300.35,277.57C297.79,276.11 295.95,273.21 293.86,271.13C291.61,268.54 288.43,266.09 287.01,262.94C287.17,260.81 288.84,260.44 290.46,259.58C296.14,257.08 302.45,255.07 307.21,250.98C301.49,251.83 297.05,254.72 291.53,256.38C281.73,259.51 271.32,262.35 261,262.68C254.87,263.02 248.22,263.92 242.14,262.62C241.02,261.26 241.88,258.32 241.68,256.61C255.88,257.41 270.13,256.38 283.93,252.85C295.36,250.58 306.38,247.09 316.78,241.79C318.76,240.87 320.79,239.51 322.95,239.13C324.99,239.18 324.82,240.59 325.71,242.03C316.92,251.07 304.99,257.99 294.03,264.09C297.03,267.39 300.18,270.55 303.18,273.86C305.39,273.63 307.58,273.33 309.72,272.71C318.37,270.3 327.38,267.84 335.13,263.16C341.51,259.31 347.82,254.41 352.38,248.47C352.96,245.16 352.48,241.53 352.28,238.19C351.27,229.86 350.42,221.51 349.32,213.18C346.15,192.94 340.75,172.79 331.61,154.38C329.37,150.51 327.69,145.55 323.71,143.27C317.66,139.23 310.29,136.42 303.72,133.27C296.43,129.7 287.86,128.2 279.85,127.28C280.57,129.43 283.45,129.81 285.31,130.72C289.9,132.31 293.99,134.8 298.34,136.89C302.39,139.01 306.32,141.31 310.07,143.92C313.95,146.65 317.93,148.72 321.38,152.04C313.79,149.98 306.52,145.96 298.8,144.41C296.09,142.34 293.1,142.03 289.92,141.13C276.33,137.82 262.98,135.42 249,134.81C241.83,135.77 234.71,136.06 227.6,137.52C222.02,138.68 216.49,139.59 211.02,141.05C205.8,142.49 200.67,143.36 195.94,146.16C190.01,147.83 184.39,150.53 178.58,152.58C184.07,147.94 190.86,143.36 197.16,139.92C201.86,137.82 205.9,134.63 210.68,132.66C214.01,131.02 218.27,130.14 220.8,127.44C212.79,128.09 204.44,129.67 197.16,133.17C190.25,136.39 182.84,139.3 176.5,143.53C172.95,145.86 171.47,149.89 169.5,153.47C165.65,161.29 161.76,169.45 159.71,177.95C157.84,185.19 155.59,192.39 154.28,199.74C151.02,209.94 150.22,221.4 149.1,232.01C148.52,236.67 148.12,241.36 147.76,246.04C147.42,248.22 149.33,249.88 150.59,251.42C158.85,260.12 169.6,266.47 181.09,269.87C185.51,271.14 189.91,272.64 194.41,273.54C195.63,273.66 197.17,274.17 198.08,273.08C200.69,270.32 203.43,267.68 205.97,264.87C206.38,263.38 204.49,262.96 203.55,262.3C193.98,257.16 184.36,251.01 176.39,243.58C175.21,242.64 174.98,241.06 175.79,239.82C177.26,238.7 178.57,239.21 180.06,239.91C188.7,244.31 197.85,248.49 207.35,250.62C207.57,247.76 207.74,244.9 207.77,242.04C208.07,235.36 207.42,228.85 206.42,222.26C206.11,221.04 205.76,219.83 205.46,218.61C205.2,214.41 203.98,210.25 204,206.05C204.51,205.6 205.05,205.17 205.61,204.76C205.35,205.51 205.08,206.25 204.81,206.99C205.93,214.16 207.23,221.33 208.18,228.51C208.77,238.29 208.74,248.21 207.5,257.94C207.22,271.43 206.53,284.7 205.64,298.16C205.74,293.76 205.16,289.55 205.69,285.31C206.91,280.81 206.76,276.35 206.18,271.76C204.28,273.63 202.6,275.77 200.54,277.46C194.14,278.77 186.55,276.57 180.45,274.57C172.41,272.29 164.39,269.31 157.49,264.47C154.18,262.14 151.04,259.54 147.84,257.05C146.03,254.78 142.32,252.15 142.46,249.04C142.02,236.36 143.63,223.52 145.45,210.99C147.88,193.66 152.14,176.2 159.12,160.11C162.04,153.93 164.59,147.62 167.97,141.66C168.3,141.19 168.64,140.73 168.99,140.27C171.82,141.06 173.37,138.95 175.71,137.73C190.01,129.61 205.48,124.02 222,122.97ZM206.96,257.84C206.78,257.18 207.971,256.12 207.791,255.45C203.041,253.52 196.85,252.13 192.06,250.3C196.84,253.05 201.81,255.89 206.96,257.84Z" style="fill:rgb(136,160,174);fill-rule:nonzero;"/>
        <path id="p91" serif:id="p9" d="M279.85,127.28C287.86,128.2 296.43,129.7 303.72,133.27C310.29,136.42 317.66,139.23 323.71,143.27C327.69,145.55 329.37,150.51 331.61,154.38C340.75,172.79 346.15,192.94 349.32,213.18C350.42,221.51 351.27,229.86 352.28,238.19C352.48,241.53 352.96,245.16 352.38,248.47C347.82,254.41 341.51,259.31 335.13,263.16C327.38,267.84 318.37,270.3 309.72,272.71C307.58,273.33 305.39,273.63 303.18,273.86C300.18,270.55 297.03,267.39 294.03,264.09C304.99,257.99 316.92,251.07 325.71,242.03C324.82,240.59 324.99,239.18 322.95,239.13C320.79,239.51 318.76,240.87 316.78,241.79C306.38,247.09 295.36,250.58 283.93,252.85C270.13,256.38 255.88,257.41 241.68,256.61C242.41,253.63 241.78,250.54 241.51,247.52C249.86,247.13 258.3,248.11 266.49,246.77C274.34,245.6 282.15,244.82 289.84,242.73C300.16,240.04 310.52,237.2 320.51,233.44C322.51,232.78 324.92,231.71 326.92,232.91C329.15,234.24 331.88,236.06 331.79,239C332.12,242.71 330.55,245.54 329.75,249.02C329.68,251.32 331.58,253.41 333.99,253.07C340.37,252.66 344.4,246.68 346.19,241.12C348.19,233.65 349.02,225.44 347.38,217.82C346.41,213.21 346.71,208.6 346.17,203.97C345.61,199.11 344.14,194.69 343.03,189.95C342.22,186.56 341.39,183.19 340.21,179.91C336.85,169.07 333.2,159.01 325.83,150.17C322.62,146.99 318.14,144.9 314.14,142.88C309.76,140.81 305.11,138.37 300.38,137.29C299.7,137.15 299.02,137.02 298.34,136.89C293.99,134.8 289.9,132.31 285.31,130.72C283.45,129.81 280.57,129.43 279.85,127.28Z" style="fill:rgb(196,212,222);fill-rule:nonzero;"/>
        <path id="p101" serif:id="p10" d="M220.8,127.44C218.27,130.14 214.01,131.02 210.68,132.66C205.9,134.63 201.86,137.82 197.16,139.92C195.51,139.37 194.5,139.08 192.89,139.86C189.42,141.29 186.08,143.06 182.75,144.78C179.65,146.47 176.27,148.21 174,151C167.83,159.02 164.1,168.12 161.04,177.69L159.71,177.95C161.76,169.45 165.65,161.29 169.5,153.47C171.47,149.89 172.95,145.86 176.5,143.53C182.84,139.3 190.25,136.39 197.16,133.17C204.44,129.67 212.79,128.09 220.8,127.44Z" style="fill:rgb(196,212,222);fill-rule:nonzero;"/>
        <path id="p111" serif:id="p11" d="M249,134.81C262.98,135.42 276.33,137.82 289.92,141.13C293.1,142.03 296.09,142.34 298.8,144.41C293.32,144.8 288.35,143.37 282.99,142.58C268.83,140.06 254.38,138.75 240,139.75C233.63,140.4 227.28,140.76 220.99,141.97C212.67,143.58 204.27,144.59 195.94,146.16C200.67,143.36 205.8,142.49 211.02,141.05C216.49,139.59 222.02,138.68 227.6,137.52C234.71,136.06 241.83,135.77 249,134.81Z" style="fill:rgb(196,212,222);fill-rule:nonzero;"/>
        <path id="p121" serif:id="p12" d="M300.38,137.29C305.11,138.37 309.76,140.81 314.14,142.88C318.14,144.9 322.62,146.99 325.83,150.17C333.2,159.01 336.85,169.07 340.21,179.91L339.85,181.97C335.79,179.24 332.04,176.29 327.48,174.39C318.12,170.31 307.75,167.94 297.71,166.26C290.45,164.64 283.09,164.04 275.7,163.37C264.57,161.96 253.2,162.14 242,162.28C231.32,162.22 220.63,163.75 210.01,164.92C193.19,167.96 174.76,170.59 161.15,181.8C161.09,180.43 161.05,179.06 161.04,177.69C164.1,168.12 167.83,159.02 174,151C176.27,148.21 179.65,146.47 182.75,144.78C186.08,143.06 189.42,141.29 192.89,139.86C194.5,139.08 195.51,139.37 197.16,139.92C190.86,143.36 184.07,147.94 178.58,152.58C184.39,150.53 190.01,147.83 195.94,146.16C204.27,144.59 212.67,143.58 220.99,141.97C227.28,140.76 233.63,140.4 240,139.75C254.38,138.75 268.83,140.06 282.99,142.58C288.35,143.37 293.32,144.8 298.8,144.41C306.52,145.96 313.79,149.98 321.38,152.04C317.93,148.72 313.95,146.65 310.07,143.92C306.32,141.31 302.39,139.01 298.34,136.89C299.02,137.02 299.7,137.15 300.38,137.29Z" style="fill:white;fill-rule:nonzero;"/>
        <path id="p131" serif:id="p13" d="M167.97,141.66C164.59,147.62 162.04,153.93 159.12,160.11C152.14,176.2 147.88,193.66 145.45,210.99C143.63,223.52 142.02,236.36 142.46,249.04C142.32,252.15 146.03,254.78 147.84,257.05C149.09,259.47 150.26,261.81 152.36,263.64C158.56,269.18 165.47,274.42 173.07,277.86C182.75,282.33 193.14,285.39 203.59,287.44C203.83,285.93 204.06,284.43 204.28,282.93C204.75,283.72 205.22,284.52 205.69,285.31C205.16,289.55 205.74,293.76 205.64,298.16C205.47,307.02 203.74,315.73 203.14,324.49C202.12,327.07 198.68,328.48 197.32,330.84C196.92,334.85 198.62,339.21 199.51,343.14C202.99,356.52 205.63,370.08 208.81,383.54C208.54,384.65 208.26,385.76 207.97,386.88C198.83,382.89 189.43,379.12 180.61,374.47C172.92,370.14 165.24,365.26 158.76,359.23C153.12,353.24 147.56,347.52 143.76,340.11C137.18,327.49 133.13,313.35 130.31,299.44C129.29,292.87 128.33,286.25 127.51,279.65C127.02,270.4 126.43,261.26 127.14,252C127.53,247.13 127.42,242.6 126.79,237.75C127.18,235.83 127.65,233.92 128.21,232.05C128.38,230.98 128.54,229.91 128.7,228.84L129.22,228.09C129.7,224.46 130.86,221.14 131.81,217.63C135.75,203.69 140.84,190.07 146.84,176.88C152.68,164.44 159.93,152.79 167.97,141.66Z" style="fill:rgb(140,158,255);fill-rule:nonzero;"/>
        <path id="p141" serif:id="p14" d="M447.33,143.42C458.51,162.61 466.95,183.37 471.98,205.02C476.1,222.39 477.82,240.04 477.99,257.87C450.06,258.14 422.12,258.07 394.18,258.01C394.53,261.82 395.43,265.51 396.12,269.26C399.68,288.25 402.83,307.34 405.18,326.51C405.59,330.99 406.24,335.4 406.36,339.9C404.54,335.33 405.11,330.76 404.31,326.02C401.28,304.63 397.71,283.32 393.76,262.09C393.21,258.87 393.17,255.62 392.54,252.41C387.69,229.58 382.4,207.42 373.1,185.92C375.79,184.77 378.3,183.31 380.8,181.8C402.98,169 425.13,156.19 447.33,143.42Z" style="fill:rgb(43,46,50);fill-rule:nonzero;"/>
        <path id="p151" serif:id="p15" d="M63.01,146.29C86.46,160.39 110.48,173.59 133.96,187.63C131.04,195.3 127.79,203.11 126.15,211.16C121.93,225.2 118.68,239.57 115.64,253.91C88.42,254 61.22,253.8 34.01,254.11C34.41,245.4 34.74,236.63 35.92,227.99C39.42,199.28 48.8,171.47 63.01,146.29Z" style="fill:rgb(152,169,180);fill-rule:nonzero;"/>
        <path id="p161" serif:id="p16" d="M242,162.28C253.2,162.14 264.57,161.96 275.7,163.37C283.09,164.04 290.45,164.64 297.71,166.26C307.75,167.94 318.12,170.31 327.48,174.39C332.04,176.29 335.79,179.24 339.85,181.97L340.21,179.91C341.39,183.19 342.22,186.56 343.03,189.95C344.14,194.69 345.61,199.11 346.17,203.97C345.6,203.44 345.01,202.93 344.41,202.44C340.87,207.03 337.2,211.26 332,214.05C322.98,218.85 312.44,221.16 302.39,222.5C297.41,223.39 292.74,223.76 287.68,223.71C292.9,221.44 297.5,218.45 300.33,213.34C306.06,203.66 305.41,190.43 298.47,181.51C295.12,177.23 290.51,174.24 285.03,173.71C278.29,172.98 271.83,176.59 267.9,181.91C261.31,190.87 260.85,203.95 266.47,213.49C269.01,217.91 273.15,221.23 277.9,223.03C280.5,223.81 283.36,223.87 286.05,224.04C274.52,225.6 262.64,225.71 251,225.78C246.91,225.88 243.33,225.12 239.47,226.65C238.68,221.61 237.56,216.66 235.59,211.93C236.24,207.44 238.14,203.64 238.21,199C237.72,190.35 234.74,181.76 227.29,176.71C220.5,172.11 211.32,172.79 205.2,178.2C196.96,185.67 194.13,198.52 198.2,208.84C199.77,212.85 201.41,216.55 205.46,218.61C205.76,219.83 206.11,222.04 206.42,223.26C202.07,224.82 198.34,222.42 193.98,221.81C184.46,220.18 173.89,217.68 165.78,212.23C161.28,209.35 158.82,205.18 154.78,201.77C154.62,201.09 154.45,200.42 154.28,199.74C155.59,192.39 157.84,185.19 159.71,177.95L161.04,177.69C161.05,179.06 161.09,180.43 161.15,181.8C174.76,170.59 193.19,167.96 210.01,164.92C220.63,163.75 231.32,162.22 242,162.28Z" style="fill:rgb(234,234,234);fill-rule:nonzero;"/>
        <path id="p171" serif:id="p17" d="M227.29,176.71C234.74,181.76 237.72,190.35 238.21,199C238.14,203.64 236.24,207.44 235.59,211.93C235.12,211.31 234.65,210.7 234.17,210.08C231.95,206.89 228.98,202.85 225.09,201.68C218.29,200.52 211.59,201.09 205.61,204.76C205.05,205.17 204.51,205.6 204,206.05C203.98,210.25 205.2,214.41 205.46,218.61C201.41,216.55 199.77,212.85 198.2,208.84C194.13,198.52 196.96,185.67 205.2,178.2C211.32,172.79 220.5,172.11 227.29,176.71Z" style="fill:rgb(171,179,227);fill-rule:nonzero;"/>
        <path id="p181" serif:id="p18" d="M285.03,173.71C290.51,174.24 295.12,177.23 298.47,181.51C305.41,190.43 306.06,203.66 300.33,213.34C297.5,218.45 292.9,221.44 287.68,223.71L286.05,224.04C283.36,223.87 280.5,223.81 277.9,223.03C273.15,221.23 269.01,217.91 266.47,213.49C260.85,203.95 261.31,190.87 267.9,181.91C271.83,176.59 278.29,172.98 285.03,173.71Z" style="fill:rgb(171,179,227);fill-rule:nonzero;"/>
        <path id="p191" serif:id="p19" d="M154.28,199.74C154.45,200.42 154.62,201.09 154.78,201.77C154.26,207.25 153.71,212.72 153.2,218.21C152.05,224.48 152.43,230.77 153.41,237.03C154.06,242.32 156.81,247.68 160.97,251.04C163.17,252.58 166.97,253.94 169.44,252.39C170.86,251.63 170.59,250.39 170.7,249C170.53,245.3 167.61,241.71 168.68,237.96C169.8,235.72 171.79,233.86 173.98,232.7C176.27,231.76 178.95,233.07 181.15,233.8C189.85,237.18 198.78,238.42 207.77,241.04C207.74,243.9 207.57,247.76 207.35,250.62C197.85,248.49 188.7,244.31 180.06,239.91C178.57,239.21 177.26,238.7 175.79,239.82C174.98,241.06 175.21,242.64 176.39,243.58C184.36,251.01 193.98,257.16 203.55,262.3C204.49,262.96 206.38,263.38 205.97,264.87C203.43,267.68 200.69,270.32 198.08,273.08C197.17,274.17 195.63,273.66 194.41,273.54C189.91,272.64 185.51,271.14 181.09,269.87C169.6,266.47 158.85,260.12 150.59,251.42C149.33,249.88 147.42,248.22 147.76,246.04C148.12,241.36 148.52,236.67 149.1,232.01C150.22,221.4 151.02,209.94 154.28,199.74Z" style="fill:rgb(196,212,222);fill-rule:nonzero;"/>
        <path id="p201" serif:id="p20" d="M154.78,201.77C158.82,205.18 161.28,209.35 165.78,212.23C173.89,217.68 184.46,220.18 193.98,221.81C198.34,222.42 202.07,223.82 206.42,222.26C207.42,228.85 208.07,235.36 207.77,242.04C198.78,239.42 189.85,237.18 181.15,233.8C178.95,233.07 176.27,231.76 173.98,232.7C171.79,233.86 169.8,235.72 168.68,237.96C167.61,241.71 170.53,245.3 170.7,249C170.59,250.39 170.86,251.63 169.44,252.39C166.97,253.94 163.17,252.58 160.97,251.04C156.81,247.68 154.06,242.32 153.41,237.03C152.43,230.77 152.05,224.48 153.2,218.21C153.71,212.72 154.26,207.25 154.78,201.77Z" style="fill:white;fill-rule:nonzero;"/>
        <path id="p211" serif:id="p21" d="M225.09,201.68C228.98,202.85 231.95,206.89 234.17,210.08C239.05,223.02 240.12,236.3 240.62,250C240.67,252.58 240.92,255.06 241.48,257.59C241.63,267.87 240.98,278.3 243.23,288.07C243.67,290.01 244.27,291.89 244.86,293.79C250.95,291.38 256.38,286.45 262.97,284.81C265.81,284.08 267.68,285.75 269.98,287.08C274.17,289.61 277.58,293.12 281.86,295.52C278.49,290.86 281.74,282.58 286.9,280.44C289.79,278.8 293.07,279.37 295.87,280.9C298.02,282.22 299.85,283.73 301.31,285.8C303.03,288.33 304.36,290.94 305.22,293.88C307.38,300.93 311.11,306.88 314.52,313.24C316.12,316.54 318.15,319.95 317.14,323.75C315.18,331.11 312.92,338.31 311.67,345.92C311.02,351.52 311.36,356.84 311.49,362.41C300.3,372.85 289.89,383.13 282.95,397.03C280.42,400.77 279.1,407.06 274.52,408.48C267.51,411.31 260.15,413.14 252.63,413.93C240.55,415.37 226.59,416.65 214.77,413.26C212.63,403.39 211.17,393.37 208.81,383.54C205.63,370.08 202.99,356.52 199.51,343.14C198.62,339.21 196.92,334.85 197.32,330.84C198.68,328.48 202.12,327.07 203.14,324.49C203.74,315.73 205.47,307.02 205.64,298.16C206.53,284.7 207.22,271.43 207.5,257.94C208.74,248.21 208.77,238.29 208.18,228.51C207.23,221.33 205.93,214.16 204.81,206.99C205.08,206.25 205.35,205.51 205.61,204.76C211.59,201.09 218.29,200.52 225.09,201.68ZM208.4,206.84C209.9,214.99 212.48,222.6 212.69,231.02C214.01,239.34 213.28,248.22 213.64,256.67C213.48,265.69 213.93,274.91 212.74,283.84C212.49,288.27 212.78,292.59 211.68,296.94C211.4,303.75 210.44,310.4 209.39,317.13C209.28,318.47 208.73,319.63 208.24,320.86C213.26,317.01 217.85,312.71 223.11,309.14C228.98,305.11 234.79,300.94 240.79,297.12C239.39,293.82 238.11,290.55 237.6,286.98C237.5,283.62 236.91,280.33 236.61,277C236.25,267.98 236.64,259 235.75,250.01C235.7,238.71 234.69,227.31 231.35,216.47C229.7,211.23 226.4,206.61 221.01,204.81C216.47,203.98 212.59,205.34 208.4,206.84ZM286.94,285.95C286.26,287.41 285.65,288.9 285.23,290.46C284.38,293.21 284.66,295.78 284.65,298.62C290.42,304.37 296.04,309.69 300.17,316.83C301.93,320.12 304.09,322.7 303.28,326.68C301.22,335.2 298.15,343.42 294.32,351.3C292.99,353.8 291.8,356.69 289.37,358.32C283.74,362.19 277.58,365.37 271.67,368.8C271.94,381.68 269.6,396.97 261.71,407.52C265.87,406.12 270.06,404.82 274.14,403.19C277.29,397.86 279.54,392.22 283.19,387.17C289.79,377.22 297.92,368.71 306.57,360.55C306.51,356.37 306.36,352.17 306.59,347.99C307.27,341.71 309.15,335.36 310.63,329.21C311.39,326.14 313.14,323.21 312.25,319.99C310.76,316.07 308.6,312.37 306.58,308.71C302.73,301.41 300.33,293.83 295.02,286.99C292.39,284.41 290.17,283.91 286.94,285.95ZM202.1,330.77C202.59,336.71 204.6,342.38 205.67,348.26C207.86,356.62 209.01,365.2 211.34,373.51C212.38,385.91 216.64,398.02 217.66,410.49C225.43,410.45 233.24,410.69 240.99,410.33C246.08,409.53 251.2,409.47 256.24,408.38C259.43,402.47 262.44,396.58 263.65,389.91C265.85,378.28 266.89,366.76 262.88,355.37C261.19,351.23 259.83,346.99 257.79,343.01C257.55,342.14 257.85,341.23 258.68,340.29C263.65,340.55 270.27,339.63 274.59,342.46C275.7,342.9 275.52,344.7 275.83,345.69C271.83,345.39 268.07,343.83 264.01,343.58C268.89,348.35 270.65,356.33 271.72,362.84C275.31,360.74 278.92,358.66 282.5,356.55C284.73,355.14 287.04,353.9 288.3,351.48C292.06,344.33 295.04,336.72 297.17,328.92C297.93,326.11 298.02,323.31 296.51,320.72C292.12,312.36 285.66,306.5 278.9,300.09C274.32,296.29 269.59,292.14 264.2,289.55C257.96,291.34 252.31,295.42 246.82,298.8C237.2,305.11 227.64,311.48 218.48,318.46C212.88,322.38 207.31,326.32 202.1,330.77Z" style="fill-rule:nonzero;"/>
        <path id="p221" serif:id="p22" d="M344.41,202.44C345.01,202.93 345.6,203.44 346.17,203.97C346.71,208.6 346.41,213.21 347.38,217.82C349.02,225.44 348.19,233.65 346.19,241.12C344.4,246.68 340.37,252.66 333.99,253.07C331.58,253.41 329.68,251.32 329.75,249.02C330.55,245.54 332.12,242.71 331.79,239C331.88,236.06 329.15,234.24 326.92,232.91C324.92,231.71 322.51,232.78 320.51,233.44C310.52,237.2 300.16,240.04 289.84,242.73C282.15,244.82 274.34,245.6 266.49,246.77C258.3,248.11 249.86,247.13 241.51,247.52C241.07,240.52 240.79,233.56 239.47,226.65C243.33,225.12 246.91,225.88 251,225.78C262.64,225.71 274.52,225.6 286.05,224.04L287.68,223.71C292.74,223.76 297.41,223.39 302.39,222.5C312.44,221.16 322.98,218.85 332,214.05C337.2,211.26 340.87,207.03 344.41,202.44Z" style="fill:white;fill-rule:nonzero;"/>
        <path id="p231" serif:id="p23" d="M221.01,204.81C226.4,206.61 229.7,211.23 231.35,216.47C234.69,227.31 235.7,238.71 235.75,250.01C236.64,259 236.25,267.98 236.61,277C236.91,280.33 237.5,283.62 237.6,286.98C235.84,291.76 230.78,295.28 226.25,297.21C220.78,299.38 215.7,294.79 214.2,289.86C213.33,280.79 214.86,271.26 214.67,261.99C214.64,260.13 214.09,258.46 213.64,256.67C213.28,248.22 214.01,239.34 212.69,231.02C212.48,222.6 209.9,214.99 208.4,206.84C212.59,205.34 216.47,203.98 221.01,204.81Z" style="fill:rgb(140,158,255);fill-rule:nonzero;"/>
        <path id="p241" serif:id="p24" d="M234.17,210.08C234.65,210.7 235.12,211.31 235.59,211.93C237.56,216.66 238.68,221.61 239.47,226.65C240.79,233.56 241.07,240.52 241.51,247.52C241.78,250.54 242.41,253.63 241.68,256.61L241.48,257.59C240.92,255.06 240.67,252.58 240.62,250C240.12,236.3 239.05,223.02 234.17,210.08Z" style="fill:rgb(136,160,174);fill-rule:nonzero;"/>
        <path id="p251" serif:id="p25" d="M355.77,212.63C360.38,222.32 362.72,233.32 364.16,243.9C364.63,248.19 365.44,252.11 362.85,255.92C356.03,266.38 344.87,274.38 333.55,279.38C326.19,282.38 319.27,285.44 311.27,286.25C307.67,286.44 304.82,284.34 301.31,285.8C299.85,283.73 298.02,282.22 295.87,280.9C296.16,280.29 296.44,279.68 296.73,279.07C293.75,275.99 290.94,272.75 287.99,269.64C280.91,270.72 274.19,273.34 267.01,274.05C259,274.83 251.26,276.05 243.19,275.26C242.89,279.54 243.43,283.79 243.23,288.07C240.98,278.3 241.63,267.87 241.48,257.59L241.68,256.61C241.88,258.32 241.02,261.26 242.14,262.62C248.22,263.92 254.87,263.02 261,262.68C271.32,262.35 281.73,259.51 291.53,256.38C297.05,254.72 301.49,251.83 307.21,250.98C302.45,255.07 296.14,257.08 290.46,259.58C288.84,260.44 287.17,260.81 287.01,262.94C288.43,266.09 291.61,268.54 293.86,271.13C295.95,273.21 297.79,276.11 300.35,277.57C304.85,278.37 309.86,277.34 314.25,276.25C322.71,273.85 330.76,271.74 338.46,267.37C345.24,263.36 351.48,258.6 356.55,252.53C357.7,251.23 357.95,249.7 358.07,248.02C358.41,236.1 356.1,224.42 355.77,212.63Z" style="fill:rgb(133,150,221);fill-rule:nonzero;"/>
        <path id="p261" serif:id="p26" d="M126.79,237.75C127.42,242.6 127.53,247.13 127.14,252C126.43,261.26 127.02,270.4 127.51,279.65C128.33,286.25 129.29,292.87 130.31,299.44C133.13,313.35 137.18,327.49 143.76,340.11C147.56,347.52 153.12,353.24 158.76,359.23C165.24,365.26 172.92,370.14 180.61,374.47C189.43,379.12 198.83,382.89 207.97,386.88C208.26,385.76 208.54,384.65 208.81,383.54C211.17,393.37 212.63,403.39 214.77,413.26C226.59,416.65 240.55,415.37 252.63,413.93C260.15,413.14 267.51,411.31 274.52,408.48C279.1,407.06 280.42,400.77 282.95,397.03C287.46,398.08 291.7,397.33 296.19,396.63C308.89,394.41 321.58,390.32 332.71,383.72C343.9,376.22 352.81,366.3 360.21,355.11C365,348.39 368.17,341.09 371.9,333.77C377.36,322.47 382.71,311.24 386.34,299.18C388.63,292.72 388.32,286.44 389.39,279.74C392.58,296.89 395.48,313.78 396.87,331.16C397.37,333.48 397.59,335.61 397.54,337.99C397.47,341.38 398.52,344.6 398.47,347.99C398.74,366.73 398.87,385.49 398.45,404.22C390.38,407.07 382.16,408.57 373.83,410.43C369.48,411.17 365.26,412.42 360.89,412.72L360.06,413.26C355.66,413.61 351.42,414.91 347.02,415.48C320.64,420.22 293.81,422.76 267,422.64C242.25,422.88 217.47,420.48 192.99,416.95C181.39,415.4 169.85,412.3 158.24,409.82C146.65,407.43 135.56,403.83 124.18,400.77C118.89,399.16 113.86,396.86 108.59,395.21C108.3,391.38 109.53,387.8 109.37,384C109.42,377.98 109.23,371.85 109.87,365.86C110.85,361.22 110.11,356.56 111.02,351.93C111.78,348.3 111.15,344.65 111.9,341.04C112.69,337.72 112.21,334.34 112.89,331.03C113.43,328.7 113.49,326.36 113.55,323.98C114.81,310.63 116.67,297.37 118.17,284.03C120.18,268.5 123.03,252.95 126.79,237.75Z" style="fill:rgb(133,150,221);fill-rule:nonzero;"/>
        <path id="p271" serif:id="p27" d="M192.06,250.3C196.85,252.13 201.67,253.92 206.42,255.85C206.6,256.52 206.78,257.18 206.96,257.84C201.81,255.89 196.84,253.05 192.06,250.3Z" style="fill:rgb(140,158,255);fill-rule:nonzero;"/>
        <path id="p281" serif:id="p28" d="M34.01,254.11C61.22,253.8 88.42,254 115.64,253.91C112.19,272.82 109.36,291.81 108.48,311.04C107.69,314.78 107.28,317.93 107.29,321.76C105.51,328.12 105.17,334.42 105.27,340.98C105.5,347.39 104.43,353.6 104.2,360C104.07,365.39 102.8,370.61 102.8,376C102.81,381.05 102.76,386.08 102.65,391.13C102.39,380.12 102.34,369.01 103.48,358.05C103.63,354.07 103.69,350.11 104.33,346.16C91.1,353.62 78.01,361.32 64.8,368.82C54.11,350.48 45.88,330.73 40.78,310.12C36.14,291.77 34.17,273 34.01,254.11Z" style="fill:rgb(43,46,50);fill-rule:nonzero;"/>
        <path id="p291" serif:id="p29" d="M147.84,257.05C151.04,259.54 154.18,262.14 157.49,264.47C164.39,269.31 172.41,272.29 180.45,274.57C186.55,276.57 194.14,278.77 200.54,277.46C202.6,275.77 204.28,273.63 206.18,271.76C206.76,276.35 206.91,280.81 205.69,285.31C205.22,284.52 204.75,283.72 204.28,282.93C204.06,284.43 203.83,285.93 203.59,287.44C193.14,285.39 182.75,282.33 173.07,277.86C165.47,274.42 158.56,269.18 152.36,263.64C150.26,261.81 149.09,259.47 147.84,257.05Z" style="fill:rgb(133,150,221);fill-rule:nonzero;"/>
        <path id="p301" serif:id="p30" d="M213.64,256.67C214.09,258.46 214.64,260.13 214.67,261.99C214.86,271.26 213.33,280.79 214.2,289.86C215.7,294.79 220.78,299.38 226.25,297.21C230.78,295.28 235.84,291.76 237.6,286.98C238.11,290.55 239.39,293.82 240.79,297.12C234.79,300.94 228.98,305.11 223.11,309.14C217.85,312.71 213.26,317.01 208.24,320.86C208.73,319.63 209.28,318.47 209.39,317.13C210.44,310.4 211.4,303.75 211.68,296.94C212.78,292.59 212.49,288.27 212.74,283.84C213.93,274.91 213.48,265.69 213.64,256.67Z" style="fill:rgb(133,150,221);fill-rule:nonzero;"/>
        <path id="p311" serif:id="p31" d="M394.18,258.01C422.12,258.07 450.06,258.14 477.99,257.87C477.61,266.58 477.24,275.36 476.08,284C472.61,312.44 463.39,340.04 449.37,365C436.05,357.18 422.65,349.51 409.29,341.77C408.33,341.23 407.35,340.7 406.38,340.17L406.36,339.9C406.24,335.4 405.59,330.99 405.18,326.51C402.83,307.34 399.68,288.25 396.12,269.26C395.43,265.51 394.53,261.82 394.18,258.01Z" style="fill:rgb(152,169,180);fill-rule:nonzero;"/>
        <path id="p321" serif:id="p32" d="M287.99,269.64C290.94,272.75 293.75,275.99 296.73,279.07C296.44,279.68 296.16,280.29 295.87,280.9C293.07,279.37 289.79,278.8 286.9,280.44C281.74,282.58 278.49,290.86 281.86,295.52C277.58,293.12 274.17,289.61 269.98,287.08C267.68,285.75 265.81,284.08 262.97,284.81C256.38,286.45 250.95,291.38 244.86,293.79C244.27,291.89 243.67,290.01 243.23,288.07C243.43,283.79 242.89,279.54 243.19,275.26C251.26,276.05 259,274.83 267.01,274.05C274.19,273.34 280.91,270.72 287.99,269.64Z" style="fill:rgb(140,158,255);fill-rule:nonzero;"/>
        <path id="p331" serif:id="p33" d="M295.02,286.99C300.33,293.83 302.73,301.41 306.58,308.71C306.29,309.79 305.99,310.87 305.7,311.95C301.22,310.67 298.38,307 295.17,303.83C291.19,299.82 288.35,295.12 285.23,290.46C285.65,288.9 286.26,287.41 286.94,285.95C290.17,283.91 292.39,284.41 295.02,286.99Z" style="fill:rgb(140,158,255);fill-rule:nonzero;"/>
        <path id="p341" serif:id="p34" d="M264.2,289.55C269.59,292.14 274.32,296.29 278.9,300.09C285.66,306.5 292.12,312.36 296.51,320.72C295.25,324.96 293.75,329.13 292.09,333.23C291.84,333.96 291.33,334.55 290.58,335.01C289.85,331.95 289.54,328.56 288.27,325.67C286.33,322.81 282.33,321.15 279.26,319.76C274.48,317.93 269.12,316 263.95,316.11C264.8,317.41 265.45,318.48 267.06,318.91C273.02,320.93 278.53,322.22 283.26,326.75C284.88,328.25 284.74,330.96 284.83,332.99C284.79,337.65 284.31,342.01 280.22,344.93C278.94,342.59 277.99,339.77 276.22,337.78C274.1,336.74 271.33,336.81 269,336.65C264.18,336.58 259.02,336.32 254.3,337.42C252.43,337.92 251.05,338.87 251.12,341C251.34,346.43 254.48,351.79 255.92,357.02C257.53,362.72 260.1,368.99 257.85,374.86C255.49,381.29 251.6,387.88 246.16,392.17C239.64,396.66 230.71,393.18 224.79,389.23C218.35,385.12 216.12,379.07 211.34,373.51C209.01,365.2 207.86,356.62 205.67,348.26C204.6,342.38 202.59,336.71 202.1,330.77C207.31,326.32 212.88,322.38 218.48,318.46C227.64,311.48 237.2,305.11 246.82,298.8C252.31,295.42 257.96,291.34 264.2,289.55ZM221.45,342.51C222.24,342.61 223.03,342.72 223.83,342.82C226.56,338.26 225.84,333.06 230.66,330.69C235.9,327.89 241.33,325.32 246.7,322.74C249.88,321.13 254.51,320.56 257.02,318.02L256.99,316.98C253.76,316.31 250.03,318.02 246.92,318.86C238.61,321.29 229.14,323.68 222.14,329.14C219.31,332.31 219.94,338.81 221.45,342.51Z" style="fill:rgb(140,158,255);fill-rule:nonzero;"/>
        <path id="p351" serif:id="p35" d="M285.23,290.46C288.35,295.12 291.19,299.82 295.17,303.83C298.38,307 301.22,310.67 305.7,311.95C305.99,310.87 306.29,309.79 306.58,308.71C308.6,312.37 310.76,316.07 312.25,319.99C313.14,323.21 311.39,326.14 310.63,329.21C309.15,335.36 307.27,341.71 306.59,347.99C306.36,352.17 306.51,356.37 306.57,360.55C297.92,368.71 289.79,377.22 283.19,387.17C279.54,392.22 277.29,397.86 274.14,403.19C270.06,404.82 265.87,406.12 261.71,407.52C269.6,396.97 271.94,381.68 271.67,368.8C277.58,365.37 283.74,362.19 289.37,358.32C291.8,356.69 292.99,353.8 294.32,351.3C298.15,343.42 301.22,335.2 303.28,326.68C304.09,322.7 301.93,320.12 300.17,316.83C296.04,309.69 290.42,304.37 284.65,298.62C284.66,295.78 284.38,293.21 285.23,290.46Z" style="fill:rgb(133,150,221);fill-rule:nonzero;"/>
        <path id="p361" serif:id="p36" d="M263.95,316.11C269.12,316 274.48,317.93 279.26,319.76C282.33,321.15 286.33,322.81 288.27,325.67C289.54,328.56 289.85,331.95 290.58,335.01C291.33,334.55 291.84,333.96 292.09,333.23C293.75,329.13 295.25,324.96 296.51,320.72C298.02,323.31 297.93,326.11 297.17,328.92C295.04,336.72 292.06,344.33 288.3,351.48C287.04,353.9 284.73,355.14 282.5,356.55C278.92,358.66 275.31,360.74 271.72,362.84C270.65,356.33 268.89,348.35 264.01,343.58C268.07,343.83 271.83,345.39 275.83,345.69C275.52,344.7 275.7,342.9 274.59,342.46C270.27,339.63 263.65,340.55 258.68,340.29C257.85,341.23 257.55,342.14 257.79,343.01C259.83,346.99 261.19,351.23 262.88,355.37C266.89,366.76 265.85,378.28 263.65,389.91C262.44,396.58 259.43,402.47 256.24,408.38C251.2,409.47 246.08,409.53 240.99,410.33C233.24,410.69 225.43,410.45 217.66,410.49C216.64,398.02 212.38,385.91 211.34,373.51C216.12,379.07 218.35,385.12 224.79,389.23C230.71,393.18 239.64,396.66 246.16,392.17C251.6,387.88 255.49,381.29 257.85,374.86C260.1,368.99 257.53,362.72 255.92,357.02C254.48,351.79 251.34,346.43 251.12,341C251.05,338.87 252.43,337.92 254.3,337.42C259.02,336.32 264.18,336.58 269,336.65C271.33,336.81 274.1,336.74 276.22,337.78C277.99,339.77 278.94,342.59 280.22,344.93C284.31,342.01 284.79,337.65 284.83,332.99C284.74,330.96 284.88,328.25 283.26,326.75C278.53,322.22 273.02,320.93 267.06,318.91C265.45,318.48 264.8,317.41 263.95,316.11Z" style="fill:rgb(133,150,221);fill-rule:nonzero;"/>
        <path id="p371" serif:id="p37" d="M256.99,316.98L257.02,318.02C254.51,320.56 249.88,321.13 246.7,322.74C241.33,325.32 235.9,327.89 230.66,330.69C225.84,333.06 226.56,338.26 223.83,342.82C223.03,342.72 222.24,342.61 221.45,342.51C219.94,338.81 219.31,332.31 222.14,329.14C229.14,323.68 238.61,321.29 246.92,318.86C250.03,318.02 253.76,316.31 256.99,316.98Z" style="fill:rgb(133,150,221);fill-rule:nonzero;"/>
        <path id="p381" serif:id="p38" d="M406.38,340.17C407.35,340.7 408.33,341.23 409.29,341.77C422.65,349.51 436.05,357.18 449.37,365C429.63,399.79 400.47,428.97 365.82,448.94C360.7,440.24 355.6,431.51 350.63,422.71C349.52,422.67 348.41,422.65 347.3,422.66C362.82,420.2 378.32,417.29 393.56,413.45C397.38,412.22 401.8,411.39 405.17,409.18C407.13,406.95 406.8,402.8 407.17,400C407.54,385.68 407.51,371.32 407.23,357C406.87,351.38 406.47,345.8 406.38,340.17Z" style="fill:rgb(43,46,50);fill-rule:nonzero;"/>
        <path id="p391" serif:id="p39" d="M104.33,346.16C103.69,350.11 103.63,354.07 103.48,358.05C102.34,369.01 102.39,380.12 102.65,391.13C102.85,394.98 101.9,399.4 106.44,401.06C117.13,405.15 127.88,409.47 139.01,412.2C146.22,414.33 153.56,415.94 160.82,417.9C154.94,427.67 149.62,437.76 143.59,447.44C111.19,428.14 84.17,401.17 64.8,368.82C78.01,361.32 91.1,353.62 104.33,346.16Z" style="fill:rgb(152,169,180);fill-rule:nonzero;"/>
        <path id="p401" serif:id="p40" d="M170.16,419.64C189.6,424.06 208.99,426.22 228.8,428.11C234.19,428.75 239.61,428.43 245,429.12C256.03,430 267.12,428.83 278.19,429.57C271.66,429.86 265.15,429.82 258.62,429.67C258.46,445.78 258.59,461.89 258.51,478C242.28,477.82 225.88,476.52 209.99,473.06C186.61,468.25 164.21,459.41 143.59,447.44C149.62,437.76 154.94,427.67 160.82,417.9C163.93,418.52 167.07,418.9 170.16,419.64Z" style="fill:rgb(43,46,50);fill-rule:nonzero;"/>
        <path id="p411" serif:id="p41" d="M347.3,422.66C348.41,422.65 349.52,422.67 350.63,422.71C355.6,431.51 360.7,440.24 365.82,448.94C345.54,460.29 323.86,468.72 301.03,473.27C286.99,476.33 272.83,477.4 258.51,478C258.59,461.89 258.46,445.78 258.62,429.67C265.15,429.82 271.66,429.86 278.19,429.57C285.86,429.82 293.35,428.47 301,428.5C305.36,428.27 309.61,427.39 314,427.39C325.01,425.85 336.46,425.14 347.3,422.66Z" style="fill:rgb(152,169,180);fill-rule:nonzero;"/>
    </g>
</svg>
