<?xml version="1.0" encoding="UTF-8" standalone="no"?>
<!DOCTYPE svg PUBLIC "-//W3C//DTD SVG 1.1//EN" "http://www.w3.org/Graphics/SVG/1.1/DTD/svg11.dtd">
<svg width="100%" height="100%" viewBox="0 0 1031 972" version="1.1" xmlns="http://www.w3.org/2000/svg" xmlns:xlink="http://www.w3.org/1999/xlink" xml:space="preserve" xmlns:serif="http://www.serif.com/" style="fill-rule:evenodd;clip-rule:evenodd;">
<a href="https://youtu.be/dQw4w9WgXcQ" target="_blank" cursor="default">
    <g>
        <g>
            <path id="p1" d="M671.97,33.34C699.22,37.09 727.45,44.71 751.32,58.7C767.16,67.7 781.66,78.62 795.16,90.83C804.51,99.08 812.98,108.54 821.38,117.61C829.01,126.02 836.14,134.82 843.48,143.48C853.23,155.76 862.73,168.23 872.81,180.25C885.8,195.59 898.82,209.63 916.57,219.58C920.1,213.88 925.17,210.61 931.41,208.47C931.03,205.91 930.34,203.71 931.38,201.19C933.58,195.76 939.38,193.15 944.94,192.85C950.89,192.8 956.67,193.71 961.1,198C969.41,195.17 979.36,195.62 985.79,202.2C993.81,211.1 993.22,224.76 986.07,233.99C986.62,237.4 987.27,240.53 986.4,243.97C984.56,251.57 976.94,258.08 968.82,255.24C966.22,258.03 963.63,260.6 960,261.99C953.22,264.85 946.21,263.64 939.57,261.09C930.3,270.59 919.35,279.65 907.21,285.2C889.12,293.38 868.8,296.92 849,296.24C845.56,296.17 842.11,295.74 838.67,295.84L837.9,296.65C838.06,299.44 838.38,302.23 838.59,305.02C840.75,305.47 842.77,306.02 844.59,307.32C869.24,324.83 885.52,350.46 898.87,377.08C905.94,391.77 910.14,407.76 911.4,424C911.98,435.32 911.84,446.68 911.32,457.99C910.04,473.11 908.1,488.16 904.77,502.98C898.26,534.75 886.23,564.4 872.62,593.71C862.98,614.38 851.61,634.11 839.22,653.25C829,669.02 816.62,683.14 802.86,695.91C790.51,706.95 775.77,716.9 759.84,721.83C739.23,728.39 719.3,727.75 697.99,727.59C692.99,727.5 688.04,727.6 683.06,726.88C680.96,726.73 678.86,726.58 676.75,726.44C667.54,735.22 657.41,742.45 646.06,748.22C643.75,749.22 641.43,750.22 639.12,751.24C632.8,753.51 626.49,755.13 619.71,754.65C597.51,776.18 572.54,794.12 546.02,809.91C526.22,821.32 506.16,832.33 485.82,842.74C483.57,843.89 481.31,845.02 479.05,846.16C472.79,849.28 466.47,852.27 460.14,855.25C455.8,857.23 451.48,859.26 447.14,861.25C441.13,863.91 435.12,866.58 429.07,869.16C414.16,875.45 399.1,881.38 383.85,886.78C381.62,887.61 379.38,888.39 377.15,889.22C357.64,896.22 337.63,901.39 317.56,906.49C311.08,908.18 303.76,907.68 297.01,907.81C288.46,907.89 280.09,907.44 271.78,905.28C260.68,901.34 250.44,894.67 240.49,888.46C229.96,881.6 219.26,874.57 209.89,866.14C196.29,854.6 184.78,840.45 175.45,825.29C169.78,815.47 165.04,805.27 162.81,794.09C162.5,792.07 162.18,790.05 161.79,788.04C161.5,781.46 160.8,775.32 162.73,768.92C166.96,766.27 171.58,765.42 176.38,764.39C196.88,760.13 217.02,755.62 236.85,748.79C245.56,745.87 254.26,742.96 262.89,739.81C269,737.69 275.01,735.35 281.1,733.18C285.7,731.41 290.3,729.64 294.88,727.82C301.1,725.58 307.1,722.88 313.15,720.23C319.79,717.24 326.44,714.26 333.04,711.17C334.67,710.38 336.31,709.61 337.94,708.81C349.88,703.04 361.45,696.59 372.87,689.87C381.47,685.05 389.64,679.6 397.82,674.12C397.61,673.76 397.4,673.4 397.19,673.04C390.01,669.42 383.2,664.98 376.43,660.63C371.2,657.01 365.73,653.56 360.93,649.37C355.85,649 350.89,651.92 345.82,652.82L345.14,653.13C339.48,654.6 333.78,655.84 328.1,657.18C321.44,658.57 314.76,659.84 308.09,661.14C304.06,661.73 300.07,662.51 296.05,663.13C294.04,663.48 292.02,663.77 290.01,664.12C287.68,664.42 285.36,664.7 283.04,665.09C276.01,665.93 269.01,667.05 261.99,667.97C252,669.05 242.02,669.57 232,670.26C219.99,670.5 207.97,670.56 195.96,670.15C190.99,669.3 185.98,669.73 180.99,669.05C177.07,668.47 173.16,668.6 169.31,667.83C165.5,667.09 161.74,666.09 157.97,665.21C153.31,663.53 148.4,661.98 143.97,659.82C124.15,649.83 107.2,634.72 94.58,616.49C84.07,602.06 75.92,586.07 71.21,568.81C69.78,563.29 69,557.65 67.8,552.05C67.64,549.64 67.49,547.24 67.36,544.83C67.88,544.16 68.4,543.49 68.92,542.82C70.84,541.98 72.78,540.92 74.82,540.45C77.87,540.4 80.97,540.84 84,541.15C100.28,542.13 116.09,540.65 132.26,539.05C146.53,537 160.86,534.98 174.94,531.88C182,530.48 188.94,528.83 195.87,526.87C201.29,525.36 206.65,523.64 212.07,522.14C233.83,515.43 255.13,507.14 275.89,497.81C307.33,484.27 335.57,463.89 358.59,438.58C373.42,422.36 386.57,404.56 397.76,385.64C398.73,384.21 398.69,382.79 398.67,381.13C393.75,376.13 389.65,370.22 385.71,364.43C378.06,353.38 373.06,340.82 368.77,328.16C365.12,315.06 363.83,301.58 364.24,288.01C364.18,270.95 368.13,254.16 373.09,237.93C376.33,228.31 380.42,219.04 385.19,210.08C393.67,194.05 403.44,179.2 416.51,166.51C430.31,153.08 446.83,141.59 464.91,134.8C459.28,125.17 460.53,112.47 468.6,104.61C474.39,98.84 481.97,96.76 490.02,97.25C490.9,94.44 491.58,91.88 494.01,89.99C498.57,86.28 503.42,86.43 508.94,85.77C511.55,83.96 513.67,81.75 516.77,80.65C519.82,79.24 523.59,79.23 526.45,77.56C539.79,65.7 554.1,54.84 568.99,44.99C577.77,38.97 588.17,35.94 598.46,33.72C622.52,29.12 647.79,30.26 671.97,33.34ZM573.06,49.44C559.08,58.18 545.9,68.26 533.03,78.53C543.96,80.35 554.07,84 560.02,93.98C563.95,93.59 568.05,92.98 571.99,93.18C585.25,94.2 597.99,99.76 607.27,109.38C617.04,108.87 626.53,109.05 635.93,112.04C646.51,115.56 656.37,120.71 663.98,129.02C665.93,130.75 666.95,133.21 669.94,132.74C677.88,132.28 685.33,132.1 692.87,135.1C700.49,138.3 708.08,143.27 713.07,149.96C717.57,156.18 720.85,163.16 722.35,170.71C733.17,169.03 743.4,171.48 752.41,177.59C758.78,182.03 764.71,187.71 768.75,194.39C770,196.84 771.02,199.43 772.04,201.99C774.98,200.53 777.54,198.82 780.99,199.13C785.84,199.67 790.93,202.18 793.66,206.36C795.79,209.27 796.98,212.52 798.17,215.89C803.57,213.42 808.7,211.88 814.64,211.32C812.76,198.3 808.76,185.56 803.92,173.36C801.06,166.08 797.61,159.06 793.72,152.28C792.57,150.38 792.11,148.63 791.9,146.43C793.2,147.8 794.46,149.18 795.54,150.73C806.63,170.65 817.05,189.33 821.79,211.95C827.34,213.9 832.24,216.52 835.09,221.92C837.29,226.27 836.55,230.42 835.57,234.95C837.88,237 839.77,239.1 841.49,241.66C842.21,244.33 843.01,247.24 843.05,250.02C842.98,252.29 841.87,254.62 841.1,256.74C843.04,260.44 845.04,263.59 844.04,267.98C842.83,273.9 837.9,276.62 832.94,279.1C833.75,283.12 834.52,287.14 835.09,291.2C837.07,291.37 839.02,291.55 841,291.64C858.83,291.54 876.04,290.33 892.77,283.62C908.83,278.2 921.63,267.98 933.2,255.88C930.54,251.66 929.14,248.41 930.06,243.27L929.94,243.38C927.78,243.06 925.12,242.98 923.17,241.89C921.01,240.65 919.24,238.52 917.71,236.58C915.93,233.44 915.27,230.03 914.69,226.51C902.3,219.62 891.29,210.72 881.55,200.46C866.7,185.11 853.77,167.24 840.42,150.56C828.13,133.87 813.84,118.43 799.46,103.53C783.97,88.47 766.81,74.7 748.03,63.96C726.02,51.1 700.11,43.82 675.05,39.96C661.9,37.77 648.31,36.99 635,36.62C621.61,36.75 607.77,37.53 594.73,40.69C587.02,42.55 579.71,45.03 573.06,49.44ZM511.04,93.17C507.14,93.37 502.58,92.52 498.86,93.78C494.64,95.51 495.26,99.97 494.39,103.7C493.19,103.76 491.98,103.8 490.78,103.82C486.58,103.73 482.83,103.06 478.81,104.81C470.3,108.03 464.64,116.91 465.45,125.99C465.66,129.31 466.92,132.2 468.45,135.09C470.94,134.71 473.43,134.29 475.92,133.9C475.87,130.41 475.45,126.61 476.27,123.2C476.64,121.44 478.83,120.36 480.1,119.24C480.92,120.4 482.05,121.55 482.47,122.91C482.61,127.07 481.32,130.81 482.2,135.04C483.19,142.26 488.44,147.9 494.42,151.61C501.29,155.85 509.04,157.01 516.99,156.64C519.92,160.32 519.47,165.62 523.95,168.06C527.45,170.17 531.07,169.06 534.46,167.35C536.71,166.2 537.44,163.61 538.49,161.5C539.17,160.91 539.85,160.33 540.52,159.75C542.48,160.46 544.26,160.58 545.4,162.54C548.69,167.96 551.52,173.38 556.15,177.85C562.86,184.09 570.72,188.81 580,189.81C584.58,190.36 590.84,190.95 594.79,188.13C597.33,189.32 599.69,190.26 601.15,192.84C606.33,201.12 612.44,208.76 619.48,215.53C627.09,222.64 636.75,226.4 646.96,227.83C655.67,228.97 665.2,229.63 673.79,227.49C676.02,227.15 677.2,224.09 678.71,222.59C680.09,220.65 682.07,221.06 684.17,220.69C684.34,222.41 684.52,224.14 684.76,225.85C682.13,228.81 678.2,231.98 678.84,236.4C679.72,241.18 684.25,245.27 687.98,248.05C698.67,256.43 712.68,259.76 726.04,260.13C729.59,260.24 731.73,262.6 733.9,265.08C742.22,275.58 756.04,281.66 769.01,283.68C779.57,285.55 790.57,283.78 799.21,277.2C802.02,275.06 803.83,272.27 805.61,269.28C811.11,269.49 814.69,272.89 819.76,274.41C824.49,276.17 829.78,276.48 834.54,274.65C837.42,273.48 839.9,271.31 840.19,268.04C840.87,264.31 838.74,261.46 837.16,258.3C838.37,255.89 839.63,253.8 839.37,250.97C839.19,245.82 834.88,241.45 832.22,237.28C834.51,232.68 835.03,226.58 831.58,222.41C827.07,216.41 819.14,214.46 811.98,215.62C807.12,216.28 802.83,218.26 798.45,220.32C797.5,220.31 796.54,220.29 795.59,220.27C794.37,215.73 793.27,211.6 789.64,208.32C786.86,205.98 782.84,204.53 779.4,206.37C776.88,207.51 774.73,210.45 771.71,209.35C767.94,207.61 766.71,202.11 764.14,198.94C756.97,189.35 745.95,180.32 733.77,178.64C729.91,177.92 725.76,178.97 722.01,178.09C718.34,176.59 720.42,173.53 719.62,170.52C715.86,160.13 709.41,150.99 699.86,145.19C693.55,141.21 686.37,139.73 679,139.49C674.52,139.39 670.34,140.31 665.95,140.82C663.64,141.2 662.03,140.07 660.08,139.09C658.43,135.23 654.52,132.28 651.46,129.54C642.24,122.64 631.08,118.05 619.58,116.95C614.78,116.25 610,116.48 605.18,116.35C601.65,116.16 599.33,113.32 596.78,111.24C588.06,103.35 575.53,99.76 564,99.29C561.09,99.13 558.81,100.48 556.05,100.93C553.78,100.72 552.89,99 551.6,97.4C547.79,91.19 540.03,88.18 533.18,86.88C525.17,85.29 516.74,87.05 511.04,93.17ZM402.5,205.16C397.18,212.85 392.85,221.52 388.85,229.97C383.9,240.4 380.31,251.34 378.39,262.74C374.2,282.46 374.17,303.4 378.8,323.06C382.42,335.65 387.05,347.78 394.12,358.88C397.37,364.33 401.48,369.12 405.05,374.36C410.8,375.25 415.89,373.92 421.22,371.9C419.62,369.16 417.88,366.53 416.1,363.89C411.23,355.88 407.53,347.27 404.75,338.32C402.89,332.12 401.82,325.28 402.67,318.84C403.12,317.47 404.27,314.94 406.09,315.69C407.47,317.37 408.43,319.48 409.37,321.43C412.04,327.43 417.1,332.69 421.79,337.21C436.54,351.48 455.9,361.24 475.71,366.2C483.62,368.23 491.79,369.33 499.9,370.19C516.29,370.99 532.78,371.35 549.02,368.64C558.88,367.31 568.69,364.11 578.27,361.29C582.62,360.04 586.76,358.32 590.96,356.67C591.94,357.01 592.92,357.35 593.91,357.67C594.02,359.53 595.02,361.06 593.63,362.62C590.95,365.72 587.67,368.3 584.88,371.33C571.05,383.16 553.35,390.72 536.04,395.86C529.64,397.87 523.07,398.94 516.42,399.76C516.66,406.59 516.98,413.58 518.36,420.28C533.81,421.04 549.97,420.73 565.09,417.19C570.52,415.58 575.79,414.25 580.94,411.92C592.7,406.55 602.79,399.67 613.67,392.82C620.79,387.84 627.94,383.27 634.13,377.1C643.22,369.04 651.44,360.12 658.1,349.93C663.42,341.9 669.16,333.28 672.08,324.06C679.71,300.45 681.9,274.96 677.26,250.53C676.39,244.03 672.48,238.83 672.23,232.14C669.13,232.59 666.05,233.09 662.94,233.41C648.65,234.63 632.45,232.4 620.37,224.16C612.4,218.48 605.89,211.76 600.17,203.85C597.53,199.94 594.57,196.94 593.44,192.25C588.65,195.08 582.63,195.52 577.2,195.01C567.25,193.73 557.75,189.51 550.51,182.49C546.1,178.31 542.7,173.38 539.7,168.12C535.31,174.27 527.16,177.09 520.11,173.94C514.64,171.22 512.13,166.01 510.97,160.25C507.68,160.08 504.46,159.93 501.24,159.15C497.69,158.33 494.76,156.86 490.99,157.26C482.16,158.08 473.24,161.12 464.81,163.82L464.06,164.12C460.32,165.13 454.98,168.32 451.48,165.67C451.05,161.55 455.62,160.19 458.5,158.52C466.41,155.1 473.37,150.41 481.68,147.94C480.16,145.46 478.68,142.97 477.27,140.43C472.65,142.42 467.92,144.08 463.39,146.27C455.68,149.76 448.49,154.59 442.01,160C426.44,172.74 413.15,188.1 402.5,205.16ZM936.05,210.65C935.02,212.45 934.21,214 932.17,214.81C927.7,216.67 923.62,218.8 921.47,223.4C920.06,226.52 920.38,229.7 921.3,232.89C922.26,235.12 923.12,237.32 925.08,238.86C927.16,240.61 929.5,240.82 932.04,241.4C932.59,244.92 932.79,248.86 935.32,251.63C941.48,257.96 951.85,259.4 959.19,254.2C961.7,252.06 963.91,249.72 966.82,248.08C967.91,249.03 969,249.98 970.08,250.95C972.34,250.64 974.32,250.8 976.04,249.06C979.12,245.97 980.34,241.36 978.91,237.19C977.93,234.14 978.44,232.46 979.65,229.58C984.06,222.95 986.26,215.63 982.6,208.03C979.64,202.49 972.69,201.21 966.97,201.16C963.61,201.07 961.15,202.8 957.96,203.3C954.84,201.97 952.37,199.6 948.96,199.2C944.32,198.42 938.95,198.69 936.05,202.96C934.28,205.38 935.53,208.03 936.05,210.65ZM689.41,254.86C690.83,265.45 690.61,276.37 689.67,287C689.54,292.93 688.46,298.71 687.51,304.55C684.14,316.18 682.9,327.48 677.38,338.48C669.52,354.52 658.27,369.06 645.73,381.72C637.31,389.4 628.49,398.04 618.49,403.48C611.18,407.56 604.31,412.23 596.87,415.99C586,421.47 574.3,425.45 562.44,428.16C547.1,431.55 531.44,430.72 516.16,427.48C512.84,426.72 510.32,424.53 509.95,421.02C508.58,412.2 506.79,403.72 507.49,394.73C511.88,391.47 516.49,392.16 521.72,390.79C536.77,387.19 551.65,381.88 565.15,374.26C557.61,377.51 549.03,378.47 540.99,379.93C529.92,382.04 518.27,381.91 507,381.44C489.43,379.85 472.29,376.33 456,369.42C440.76,362.68 426.71,354.19 415.02,342.18C417.65,345.95 418.49,350.32 420.69,354.29C423.45,359.4 426.55,364.31 430.06,368.94C431.19,370.61 432.47,372.02 432.4,374.18C431.95,375.66 431.19,376.95 429.83,377.76C424.41,381.18 418,382.81 411.72,383.74C409.76,387.28 408.01,390.94 406.11,394.51C398.21,407.82 389.23,420.42 379.46,432.42C353.14,465.46 318.59,491.75 279.63,508.12C254.6,518.61 228.75,528.57 202.53,535.6C186.19,540.55 168.91,543.42 151.99,545.69C142.99,546.7 134.03,548.19 124.99,548.66C113.5,549.87 101.82,549.59 90.28,549.44C85.34,548.97 80.42,548.37 75.46,548.14C76.55,553.96 77.5,559.7 78.96,565.45C81.78,576.31 86.19,586.8 91.74,596.53C98.33,607.99 106.32,618.97 115.51,628.48C128.11,640.88 143.93,652.32 161.2,656.92C170,659.58 179.83,659.35 188.96,660.36C211,661.14 233.05,660.8 254.98,658.36C267.28,657.11 279.52,655.03 291.74,653.16C304.05,651.31 316.23,648.81 328.39,646.12C335.43,644.44 342.45,642.77 349.25,640.25C345.45,637.27 341.71,634.13 338.35,630.65C337.06,629.33 336.2,627.76 335.55,626.04C335.53,624.99 335.53,623.94 335.54,622.89C336.37,622.47 337.21,622.04 338.04,621.62C340.84,622.42 343.43,623.39 345.62,625.39C356.46,634.72 367.99,643.1 379.76,651.22C384.91,654.92 390.26,658.28 395.73,661.48C400.39,664.3 405.34,666.19 409.56,669.73C409.52,672.9 409.52,676.07 409.5,679.25C408.45,680.27 407.37,681.27 406.2,682.16C393.48,691.23 380.08,698.84 366.54,706.57C350.59,715.55 333.96,723.02 317.27,730.5C303.09,736.75 288.82,741.8 274.28,747.21C247.08,756.69 220.08,765.36 191.72,770.76C187.78,771.47 183.88,772.3 179.97,773.14C178.59,773.3 177.21,773.47 175.83,773.69C174.06,773.98 172.27,774.49 170.53,774.94C170.08,789.46 175.47,804.35 182.88,816.67C191.99,833.12 204.87,847.69 219.05,859.95C229.46,868.3 240.83,875.85 252.13,882.93C259.86,887.74 267.67,892.01 276.67,893.92C293.47,896.82 310.15,895.63 326.77,892.26C349.53,886.97 371.31,879.32 393.15,871.14C426.7,858.59 459.17,843.67 490.87,827.06C512.22,815.4 533.67,804.25 554.09,790.98C570.82,779.99 586.84,768.19 601.79,754.86C605.43,751.91 608.85,748.15 613.02,745.98C615.84,745.1 619.09,745.65 622.02,745.09C629.61,743.78 636.98,740.18 643.72,736.56C652.47,731.91 659.67,725.61 667.17,719.19C671.41,715.61 674.56,711.35 678.13,707.16C689.79,693.33 701.25,679.05 711.03,663.83C722.56,647.9 732.67,630.89 742.04,613.63C756.07,587.22 768.57,559.89 780.13,532.33C786.67,516.23 792.78,499.94 798.12,483.41C809.35,452.19 817.34,419.78 822.45,387.02C823.97,375.73 825.34,364.38 825.75,352.99C826.95,340.41 826.56,327.62 826.48,314.99C826.48,308.42 825.59,301.96 824.71,295.46C824.51,290.42 823.79,285.46 823.32,280.44C817.03,278.89 811.09,277.45 805.98,273.22C802.47,279.18 798.11,282.94 791.74,285.62C780.93,290.07 767.96,289.68 756.93,286.21C745.78,282.9 734.88,276.51 727.84,267.11C726.41,265.38 726.55,263.5 726.31,261.4C713.41,263.91 700.88,260.82 689.41,254.86ZM804.34,504.2C798.41,518.97 793.31,534.06 786.81,548.62C776.48,572.55 765.49,596.17 753.26,619.2C736.52,650.37 716.61,679.87 694.38,707.38C691.82,710.86 689.08,713.86 685.75,716.62C700.46,716.83 715.3,717.07 729.95,715.61C741.97,714.68 753.7,712.07 764.52,706.63C785.97,696.28 803.7,678.34 818.32,659.86C827.09,647.59 835.87,634.66 843.09,621.39C851.74,605.71 860.02,589.88 866.91,573.33C877,550.13 885.83,526.77 891.04,501.93C895.73,481.91 897.66,461.51 898.32,441C898.17,425.89 896.9,411.25 892.05,396.84C888.83,387.1 884.09,377.81 879.09,368.86C872.21,356.87 864.61,345.18 855.27,334.94C850.53,329.15 845.36,324.35 839.39,319.84C839.4,329.93 838.58,339.95 838.54,350.04C837.32,377.13 833.01,403.82 826.78,430.19C821.12,455.43 812.99,479.86 804.34,504.2Z" style="fill-rule:nonzero;stroke:black;stroke-width:10px;"/>
            <path id="p2" d="M635,36.62C648.31,36.99 661.9,37.77 675.05,39.96C700.11,43.82 726.02,51.1 748.03,63.96C766.81,74.7 783.97,88.47 799.46,103.53C813.84,118.43 828.13,133.87 840.42,150.56C853.77,167.24 866.7,185.11 881.55,200.46C891.29,210.72 902.3,219.62 914.69,226.51C915.27,230.03 915.93,233.44 917.71,236.58C913.71,239.17 909.58,238.83 905,239.14C890.87,239.49 878,234.95 865.8,228.18C852.54,220.87 840.56,211.84 831.17,199.86C821,187.22 813.95,172.7 804.24,159.77C802.33,157.14 800.48,154.33 798.32,151.91C797.4,151.5 796.47,151.11 795.54,150.73C794.46,149.18 793.2,147.8 791.9,146.43C790.05,153.37 786.93,160.57 781.1,165.08C774.72,169.94 767.16,171.28 759.31,171.55C754.51,171.73 750.22,168.72 745.72,167.24C739.86,165.14 734.07,165.14 727.94,165.13C724.96,159.27 722.73,153.58 718.71,148.3C707.97,133.72 688.94,125.7 671.02,127.19C668.68,127.46 667.32,125.7 665.56,124.42C653.76,114.18 638.52,107.79 623.11,105.62C618.96,104.98 614.68,105.93 610.59,105.24C607.9,103.85 605.64,101.57 603.13,99.86C596.39,95.02 588.85,92.28 580.89,90.18C577.89,89.25 574.77,88.87 572.76,86.23C567.38,79.36 564.2,70.29 566.63,61.62C568.01,57.29 570.79,53.35 573.06,49.44C579.71,45.03 587.02,42.55 594.73,40.69C607.77,37.53 621.61,36.75 635,36.62Z" style="fill-rule:nonzero;stroke:rgb(232,33,33);stroke-width:10px;"/>
            <path id="p3" d="M573.06,49.44C570.79,53.35 568.01,57.29 566.63,61.62C564.2,70.29 567.38,79.36 572.76,86.23C574.77,88.87 577.89,89.25 580.89,90.18C588.85,92.28 596.39,95.02 603.13,99.86C605.64,101.57 607.9,103.85 610.59,105.24C614.68,105.93 618.96,104.98 623.11,105.62C638.52,107.79 653.76,114.18 665.56,124.42C667.32,125.7 668.68,127.46 671.02,127.19C688.94,125.7 707.97,133.72 718.71,148.3C722.73,153.58 724.96,159.27 727.94,165.13C734.07,165.14 739.86,165.14 745.72,167.24C750.22,168.72 754.51,171.73 759.31,171.55C767.16,171.28 774.72,169.94 781.1,165.08C786.93,160.57 790.05,153.37 791.9,146.43C792.11,148.63 792.57,150.38 793.72,152.28C797.61,159.06 801.06,166.08 803.92,173.36C801.4,179.47 800.81,189.07 794.9,192.86C787.44,196.84 776.81,195.7 768.75,194.39C764.71,187.71 758.78,182.03 752.41,177.59C743.4,171.48 733.17,169.03 722.35,170.71C720.85,163.16 717.57,156.18 713.07,149.96C708.08,143.27 700.49,138.3 692.87,135.1C685.33,132.1 677.88,132.28 669.94,132.74C666.95,133.21 665.93,130.75 663.98,129.02C656.37,120.71 646.51,115.56 635.93,112.04C626.53,109.05 617.04,108.87 607.27,109.38C597.99,99.76 585.25,94.2 571.99,93.18C568.05,92.98 563.95,93.59 560.02,93.98C554.07,84 543.96,80.35 533.03,78.53C545.9,68.26 559.08,58.18 573.06,49.44Z" style="fill-rule:nonzero;stroke:rgb(190,25,25);stroke-width:10px;"/>
            <path id="p4" d="M533.18,86.88C540.03,88.18 547.79,91.19 551.6,97.4C552.89,99 553.78,100.72 556.05,100.93C558.81,100.48 561.09,99.13 564,99.29C575.53,99.76 588.06,103.35 596.78,111.24C599.33,113.32 601.65,116.16 605.18,116.35C610,116.48 614.78,116.25 619.58,116.95C631.08,118.05 642.24,122.64 651.46,129.54C654.52,132.28 658.43,135.23 660.08,139.09C662.03,140.07 663.64,141.2 665.95,140.82C670.34,140.31 674.52,139.39 679,139.49C686.37,139.73 693.55,141.21 699.86,145.19C709.41,150.99 715.86,160.13 719.62,170.52C720.42,173.53 718.34,176.59 722.01,178.09C725.76,178.97 729.91,177.92 733.77,178.64C745.95,180.32 756.97,189.35 764.14,198.94C766.71,202.11 767.94,207.61 771.71,209.35C774.73,210.45 776.88,207.51 779.4,206.37C782.84,204.53 786.86,205.98 789.64,208.32C793.27,211.6 794.37,215.73 795.59,220.27C796.54,220.29 797.5,220.31 798.45,220.32C802.57,220.92 807.49,220.8 811.22,222.76C816.56,226.18 818.68,234.03 818.01,240.01C817.6,243.82 814.44,247.59 810.31,246.68C807.65,245.55 805.55,243.24 802.96,241.93C800.56,242.05 798.19,243.96 796.14,245.11C788.45,250.04 779.14,252.39 770.07,250.83C765.71,250 761.22,248.19 758.49,244.52C756.59,242.23 755.19,239 752.78,237.24C750.28,236.79 747.47,237.57 744.99,237.98C736.74,239.73 728.03,239.4 719.92,237.11C707.06,233.24 697.28,222.62 692.85,210.15C691.62,206.96 690.79,203.04 688.64,200.35C685.22,199.11 681.34,203.07 678.16,204.18C667.38,208.34 654.34,209.09 643.57,204.44C635.12,200.83 627.4,194.76 624.03,185.96C622.4,181.91 622.42,177.31 620.71,173.33C619.42,170.82 615.84,172.3 613.68,172.62C604.49,175.16 594.69,175.1 585.54,172.42C580.17,170.78 574.26,167.7 571.18,162.82C568.47,158.6 569.59,153.1 568.47,148.41C567.88,146.98 566.51,146.45 565.04,146.8C561.99,147.28 559.08,148.35 556.03,148.9C550.25,150.04 544.13,149.4 538.62,147.37C535.12,146.05 531.44,143.62 529.88,140.1C528.96,136.94 529.88,133.31 528.98,130.13C528.26,128.35 525.61,128.6 524.04,128.31C518.53,127.94 513.45,127.53 508.82,124.2C503.42,120.54 500.59,113.79 502.48,107.42C504.11,102.23 507.97,97.62 511.04,93.17C516.74,87.05 525.17,85.29 533.18,86.88Z" style="fill-rule:nonzero;stroke:white;stroke-width:10px;"/>
            <path id="p5" d="M511.04,93.17C507.97,97.62 504.11,102.23 502.48,107.42C500.59,113.79 503.42,120.54 508.82,124.2C513.45,127.53 518.53,127.94 524.04,128.31C525.61,128.6 528.26,128.35 528.98,130.13C529.88,133.31 528.96,136.94 529.88,140.1C531.44,143.62 535.12,146.05 538.62,147.37C544.13,149.4 550.25,150.04 556.03,148.9C559.08,148.35 561.99,147.28 565.04,146.8C566.51,146.45 567.88,146.98 568.47,148.41C569.59,153.1 568.47,158.6 571.18,162.82C574.26,167.7 580.17,170.78 585.54,172.42C594.69,175.1 604.49,175.16 613.68,172.62C615.84,172.3 619.42,170.82 620.71,173.33C622.42,177.31 622.4,181.91 624.03,185.96C627.4,194.76 635.12,200.83 643.57,204.44C654.34,209.09 667.38,208.34 678.16,204.18C681.34,203.07 685.22,199.11 688.64,200.35C690.79,203.04 691.62,206.96 692.85,210.15C697.28,222.62 707.06,233.24 719.92,237.11C728.03,239.4 736.74,239.73 744.99,237.98C747.47,237.57 750.28,236.79 752.78,237.24C755.19,239 756.59,242.23 758.49,244.52C761.22,248.19 765.71,250 770.07,250.83C779.14,252.39 788.45,250.04 796.14,245.11C798.19,243.96 800.56,242.05 802.96,241.93C805.55,243.24 807.65,245.55 810.31,246.68C814.44,247.59 817.6,243.82 818.01,240.01C818.68,234.03 816.56,226.18 811.22,222.76C807.49,220.8 802.57,220.92 798.45,220.32C802.83,218.26 807.12,216.28 811.98,215.62C819.14,214.46 827.07,216.41 831.58,222.41C835.03,226.58 834.51,232.68 832.22,237.28C829.47,242.04 832.2,247.08 830.45,252.57C828.67,258.37 822.89,261.73 817,261.6C811.27,261.4 806.12,258.44 800.9,257.07C798.39,256.13 796.14,257.89 794.04,259.05C789.59,261.94 785.08,264.52 779.85,265.74C767.95,268.51 754.77,267.74 744.61,260.37C740.51,257.48 738.32,253.49 735.21,249.73C733.67,247.48 730.39,248.13 728,247.91C716.68,248.24 705.01,246.38 694.92,241.07C689.18,237.99 685.5,232.3 684.76,225.85C684.52,224.14 684.34,222.41 684.17,220.69C682.07,221.06 680.09,220.65 678.71,222.59C677.2,224.09 676.02,227.15 673.79,227.49C665.2,229.63 655.67,228.97 646.96,227.83C636.75,226.4 627.09,222.64 619.48,215.53C612.44,208.76 606.33,201.12 601.15,192.84C599.69,190.26 597.33,189.32 594.79,188.13C590.84,190.95 584.58,190.36 580,189.81C570.72,188.81 562.86,184.09 556.15,177.85C551.52,173.38 548.69,167.96 545.4,162.54C544.26,160.58 542.48,160.46 540.52,159.75C539.85,160.33 539.17,160.91 538.49,161.5C537.44,163.61 536.71,166.2 534.46,167.35C531.07,169.06 527.45,170.17 523.95,168.06C519.47,165.62 519.92,160.32 516.99,156.64C512.47,153.26 507.03,151.91 502.52,148.44C497.77,145.02 494.38,139.95 493.89,134.03C493.62,130.24 495.45,126.57 495.4,122.87C493.86,120 489.95,118.57 488.22,115.74C487.17,113.54 487.16,110.71 488.81,108.79C490.39,106.97 492.45,105.48 494.32,103.97C493.14,103.92 491.96,103.87 490.78,103.82C491.98,103.8 493.19,103.76 494.39,103.7C495.26,99.97 494.64,95.51 498.86,93.78C502.58,92.52 507.14,93.37 511.04,93.17Z" style="fill-rule:nonzero;stroke:rgb(234,234,234);stroke-width:10px;"/>
            <path id="p6" d="M490.78,103.82C491.96,103.87 493.14,103.92 494.32,103.97C492.45,105.48 490.39,106.97 488.81,108.79C487.16,110.71 487.17,113.54 488.22,115.74C489.95,118.57 493.86,120 495.4,122.87C495.45,126.57 493.62,130.24 493.89,134.03C494.38,139.95 497.77,145.02 502.52,148.44C507.03,151.91 512.47,153.26 516.99,156.64C509.04,157.01 501.29,155.85 494.42,151.61C488.44,147.9 483.19,142.26 482.2,135.04C481.32,130.81 482.61,127.07 482.47,122.91C482.05,121.55 480.92,120.4 480.1,119.24C478.83,120.36 476.64,121.44 476.27,123.2C475.45,126.61 475.87,130.41 475.92,133.9C473.43,134.29 473.94,132.71 471.45,133.09C469.92,130.2 470.66,129.31 470.45,125.99C469.64,116.91 473.3,110.03 481.81,106.81C485.83,105.06 486.58,103.73 490.78,103.82Z" style="fill-rule:nonzero;stroke:rgb(209,209,209);stroke-width:10px;"/>
            <path id="p7" d="M477.27,140.43C478.68,142.97 480.16,145.46 481.68,147.94C473.37,150.41 466.41,155.1 458.5,158.52C455.62,160.19 451.05,161.55 451.48,165.67C454.98,168.32 460.32,165.13 464.06,164.12L464.81,163.82C473.24,161.12 482.16,158.08 490.99,157.26C494.76,156.86 497.69,158.33 501.24,159.15C504.46,159.93 507.68,160.08 510.97,160.25C512.13,166.01 514.64,171.22 520.11,173.94C527.16,177.09 535.31,174.27 539.7,168.12C542.7,173.38 546.1,178.31 550.51,182.49C557.75,189.51 567.25,193.73 577.2,195.01C582.63,195.52 588.65,195.08 593.44,192.25C594.57,196.94 597.53,199.94 600.17,203.85C605.89,211.76 612.4,218.48 620.37,224.16C628.93,243.08 632.47,264.01 629.55,284.64C627.62,296.7 623.21,308.88 615.37,318.39C608.7,326.74 599.44,333.16 590,338.02C575.9,344.48 560.11,347.83 544.64,348.5C537.98,348.76 531.42,349.46 524.76,349.44C502.07,349.15 479.03,344.84 458.15,335.82C446.59,330.68 435.53,324.19 425.5,316.49C417.23,310.2 410.24,302.1 404.51,293.46C399.82,286.33 397.47,278.43 395.64,270.17C393.93,262.88 392.89,255.49 392.71,248C392.63,238.48 394.77,228.7 397.66,219.67C399.2,214.69 401.89,210.43 402.5,205.16C413.15,188.1 426.44,172.74 442.01,160C448.49,154.59 455.68,149.76 463.39,146.27C467.92,144.08 472.65,142.42 477.27,140.43ZM452.5,233.7C446.46,235.85 441.82,242.37 438.73,247.73C432.47,258.34 430.63,271.32 433.89,283.2C435.22,287.76 438.79,292.69 444.04,292.45C449.09,291.96 453.47,287.19 456.28,283.3C461.04,276.06 465.44,267.83 465.71,258.98C466.21,251.47 465.38,242.44 461.02,236.08C459.03,233.09 455.72,232.92 452.5,233.7ZM545.32,249.28C537.54,252.71 531.88,261.27 529.03,269.01C526.09,276.45 525.93,284.13 526.36,292C526.68,297.27 528.22,302.54 530.88,307.11C532.97,310.75 537.73,313.56 541.93,311.95C546.39,310.58 549.54,306.89 552.48,303.47C560.07,294.94 562.97,282.15 562.6,271C562.57,264.78 561.7,258.37 557.86,253.27C554.92,249.48 549.97,247.3 545.32,249.28Z" style="fill-rule:nonzero;stroke:white;stroke-width:10px;"/>
            <path id="p8" d="M795.54,150.73C796.47,151.11 797.4,151.5 798.32,151.91C800.48,154.33 802.33,157.14 804.24,159.77C813.95,172.7 821,187.22 831.17,199.86C840.56,211.84 852.54,220.87 865.8,228.18C878,234.95 890.87,239.49 905,239.14C909.58,238.83 913.71,239.17 917.71,236.58C919.24,238.52 921.01,240.65 923.17,241.89C925.12,242.98 927.78,243.06 929.94,243.38C928.39,244.84 926.91,246.22 924.9,247.05C918.8,249.71 912.48,252.4 905.96,253.76C898.16,255.41 889.91,255.57 881.99,254.88C873.49,254.14 865.28,252.81 857.29,249.72C852.59,247.97 848.49,245.45 844.08,243.13C843.21,242.66 842.34,242.17 841.49,241.66C839.77,239.1 837.88,237 835.57,234.95C836.55,230.42 837.29,226.27 835.09,221.92C832.24,216.52 827.34,213.9 821.79,211.95C817.05,189.33 806.63,170.65 795.54,150.73Z" style="fill-rule:nonzero;stroke:rgb(190,25,25);stroke-width:10px;"/>
            <path id="p9" d="M803.92,173.36C808.76,185.56 812.76,198.3 814.64,211.32C808.7,211.88 803.57,213.42 798.17,215.89C796.98,212.52 795.79,209.27 793.66,206.36C790.93,202.18 785.84,199.67 780.99,199.13C777.54,198.82 774.98,200.53 772.04,201.99C771.02,199.43 770,196.84 768.75,194.39C776.81,195.7 787.44,196.84 794.9,192.86C800.81,189.07 801.4,179.47 803.92,173.36Z" style="fill-rule:nonzero;stroke:rgb(155,23,23);stroke-width:10px;"/>
            <path id="p11" d="M402.5,205.16C401.89,210.43 399.2,214.69 397.66,219.67C394.77,228.7 392.63,238.48 392.71,248C392.89,255.49 393.93,262.88 395.64,270.17C397.47,278.43 399.82,286.33 404.51,293.46C410.24,302.1 417.23,310.2 425.5,316.49C435.53,324.19 446.59,330.68 458.15,335.82C479.03,344.84 502.07,349.15 524.76,349.44C531.42,349.46 537.98,348.76 544.64,348.5C560.11,347.83 575.9,344.48 590,338.02C599.44,333.16 608.7,326.74 615.37,318.39C623.21,308.88 627.62,296.7 629.55,284.64C632.47,264.01 628.93,243.08 620.37,224.16C632.45,232.4 648.65,234.63 662.94,233.41C664.39,242.95 665.22,252.36 664.63,262.02C663.99,272.86 662.91,283.39 659.83,293.84C656.72,304.69 653.14,316.47 647.02,326.01C639.32,338.43 628.58,348.16 617.28,357.26C609.34,363.84 599.48,368.43 589.78,371.72C587.88,372.49 586.66,372.01 584.88,371.33C587.67,368.3 590.95,365.72 593.63,362.62C595.02,361.06 594.02,359.53 593.91,357.67C592.92,357.35 591.94,357.01 590.96,356.67C586.76,358.32 582.62,360.04 578.27,361.29C568.69,364.11 558.88,367.31 549.02,368.64C532.78,371.35 516.29,370.99 499.9,370.19C491.79,369.33 483.62,368.23 475.71,366.2C455.9,361.24 436.54,351.48 421.79,337.21C417.1,332.69 412.04,327.43 409.37,321.43C408.95,319.8 409.4,317.08 407.8,316.11C404.51,313.69 401.02,311.85 398.35,308.63C390.34,299.62 383.66,288.08 381.99,275.99C381.33,271.41 379.87,267.1 378.39,262.74C380.31,251.34 383.9,240.4 388.85,229.97C392.85,221.52 397.18,212.85 402.5,205.16Z" style="fill-rule:nonzero;stroke:rgb(234,234,234);stroke-width:10px;"/>
            <path id="p12" d="M982.6,220.03C986.26,227.63 984.06,222.95 979.65,229.58C974.91,233.67 969.86,238.65 964.08,241.08C960.01,242.88 955.01,243.55 950.7,242.31C948.39,241.16 946.63,238.7 944.89,236.84C940.55,237.08 935.65,237.61 931.41,236.53C927.96,235.62 924.63,234.15 921.3,232.89C920.38,229.7 920.06,226.52 921.47,223.4C923.62,218.8 927.7,216.67 932.17,214.81C931.39,217.67 930.24,220.83 930.35,223.82C930.54,226.7 933.51,229.01 936.16,229.61C939.49,230.36 943.44,228.88 946.82,228.59C948.31,228.36 948.54,229.5 949.36,230.43C950.81,232.29 951.66,234.21 954,235.08C958.7,237.11 963.21,235.72 967.52,233.5C972.92,230.64 978.26,226.16 980.13,220.14C981.3,216.2 981.91,224.08 982.6,220.03Z" style="fill-rule:nonzero;stroke:rgb(234,234,234);stroke-width:10px;"/>
            <path id="p13" d="M684.76,225.85C685.5,232.3 689.18,237.99 694.92,241.07C705.01,246.38 716.68,248.24 728,247.91C730.39,248.13 733.67,247.48 735.21,249.73C738.32,253.49 740.51,257.48 744.61,260.37C754.77,267.74 767.95,268.51 779.85,265.74C785.08,264.52 789.59,261.94 794.04,259.05C796.14,257.89 798.39,256.13 800.9,257.07C806.12,258.44 811.27,261.4 817,261.6C822.89,261.73 828.67,258.37 830.45,252.57C832.2,247.08 829.47,242.04 832.22,237.28C834.88,241.45 839.19,245.82 839.37,250.97C839.63,253.8 838.37,255.89 837.16,258.3C838.74,261.46 840.87,264.31 840.19,268.04C839.9,271.31 837.42,273.48 834.54,274.65C829.78,276.48 824.49,276.17 819.76,274.41C814.69,272.89 811.11,269.49 805.61,269.28C803.83,272.27 802.02,275.06 799.21,277.2C790.57,283.78 779.57,285.55 769.01,283.68C756.04,281.66 742.22,275.58 733.9,265.08C731.73,262.6 729.59,260.24 726.04,260.13C712.68,259.76 698.67,256.43 687.98,248.05C684.25,245.27 679.72,241.18 678.84,236.4C678.2,231.98 682.13,228.81 684.76,225.85Z" style="fill-rule:nonzero;stroke:rgb(209,209,209);stroke-width:10px;"/>
            <path id="p14" d="M979.65,229.58C978.44,232.46 977.93,234.14 978.91,237.19C980.34,241.36 977.12,241.97 974.04,245.06C972.32,246.8 971.34,247.64 969.08,247.95C968,246.98 967.91,249.03 966.82,248.08C963.91,249.72 961.7,252.06 959.19,254.2C951.85,259.4 941.48,257.96 935.32,251.63C932.79,248.86 932.59,244.92 932.04,241.4C929.5,240.82 927.16,240.61 925.08,238.86C923.12,237.32 922.26,235.12 921.3,232.89C924.63,234.15 927.96,235.62 931.41,236.53C935.65,237.61 940.55,237.08 944.89,236.84C946.63,238.7 948.39,241.16 950.7,242.31C955.01,243.55 960.01,242.88 964.08,241.08C969.86,238.65 974.91,233.67 979.65,229.58Z" style="fill-rule:nonzero;stroke:rgb(209,209,209);stroke-width:10px;"/>
            <path id="p15" d="M452.5,233.7C455.72,232.92 459.03,233.09 461.02,236.08C465.38,242.44 466.21,251.47 465.71,258.98C465.44,267.83 461.04,276.06 456.28,283.3C453.47,287.19 449.09,291.96 444.04,292.45C438.79,292.69 435.22,287.76 433.89,283.2C430.63,271.32 432.47,258.34 438.73,247.73C441.82,242.37 446.46,235.85 452.5,233.7Z" style="fill-rule:nonzero;stroke:rgb(171,179,227);stroke-width:10px;"/>
            <path id="p16" d="M672.23,232.14C672.48,238.83 676.39,244.03 677.26,250.53C681.9,274.96 679.71,300.45 672.08,324.06C669.16,333.28 663.42,341.9 658.1,349.93C651.44,360.12 643.22,369.04 634.13,377.1C627.94,383.27 620.79,387.84 613.67,392.82C602.79,399.67 592.7,406.55 580.94,411.92C575.79,414.25 570.52,415.58 565.09,417.19C549.97,420.73 533.81,421.04 518.36,420.28C516.98,413.58 516.66,406.59 516.42,399.76C523.07,398.94 529.64,397.87 536.04,395.86C553.35,390.72 571.05,383.16 584.88,371.33C586.66,372.01 587.88,372.49 589.78,371.72C599.48,368.43 609.34,363.84 617.28,357.26C628.58,348.16 639.32,338.43 647.02,326.01C653.14,316.47 656.72,304.69 659.83,293.84C662.91,283.39 663.99,272.86 664.63,262.02C665.22,252.36 664.39,242.95 662.94,233.41C666.05,233.09 669.13,232.59 672.23,232.14Z" style="fill-rule:nonzero;stroke:rgb(209,209,209);stroke-width:10px;"/>
            <path id="p17" d="M841.49,241.66C842.34,242.17 843.21,242.66 844.08,243.13C848.49,245.45 852.59,247.97 857.29,249.72C865.28,252.81 873.49,254.14 881.99,254.88C889.91,255.57 898.16,255.41 905.96,253.76C912.48,252.4 918.8,249.71 924.9,247.05C926.91,246.22 928.39,244.84 929.94,243.38L930.06,243.27C929.14,248.41 930.54,251.66 933.2,255.88C921.63,267.98 908.83,278.2 892.77,283.62C876.04,290.33 858.83,291.54 841,291.64C839.02,291.55 837.07,291.37 835.09,291.2C834.52,287.14 833.75,283.12 832.94,279.1C837.9,276.62 842.83,273.9 844.04,267.98C845.04,263.59 843.04,260.44 841.1,256.74C841.87,254.62 842.98,252.29 843.05,250.02C843.01,247.24 842.21,244.33 841.49,241.66Z" style="fill-rule:nonzero;stroke:rgb(155,23,23);stroke-width:10px;"/>
            <path id="p18" d="M545.32,249.28C549.97,247.3 554.92,249.48 557.86,253.27C561.7,258.37 562.57,264.78 562.6,271C562.97,282.15 560.07,294.94 552.48,303.47C549.54,306.89 546.39,310.58 541.93,311.95C537.73,313.56 532.97,310.75 530.88,307.11C528.22,302.54 526.68,297.27 526.36,292C525.93,284.13 526.09,276.45 529.03,269.01C531.88,261.27 537.54,252.71 545.32,249.28Z" style="fill-rule:nonzero;stroke:rgb(171,179,227);stroke-width:10px;"/>
            <path id="p19" d="M689.41,254.86C700.88,260.82 713.41,263.91 726.31,261.4C726.55,263.5 726.41,265.38 727.84,267.11C734.88,276.51 745.78,282.9 756.93,286.21C767.96,289.68 780.93,290.07 791.74,285.62C798.11,282.94 802.47,279.18 805.98,273.22C811.09,277.45 817.03,278.89 823.32,280.44C823.79,285.46 824.51,290.42 824.71,295.46C824.31,298.3 823.85,301.11 823.73,303.98C823.34,314.44 823.01,324.89 822.4,335.35C821.16,353.63 817.75,371.85 815.23,390C811.83,409.12 806.67,427.98 800.32,446.33C787.41,485.82 768.79,523.67 747.02,559C729.56,588.43 709.8,617.39 686.6,642.6C680.21,649.49 674.03,656.87 667.02,663.02C654.09,674.6 640.24,685.17 625.82,694.82C617.23,700.58 608.27,705.73 598.73,709.76C594.03,711.72 589.04,714.14 583.98,714.77C581.88,715.09 579.69,715.22 577.65,715.81C575.76,716.6 574.2,718.36 572.74,719.75C563.15,729.65 551.94,738.6 541.26,747.29C523.46,761.33 504.85,774.38 485.99,786.96C463.13,801.92 439.5,815.57 415.35,828.33C397.68,837.29 379.71,846.24 361.11,853.11C345.41,858.48 329.76,862.88 313,862.18C297.98,861.91 283.34,856.57 269.14,851.88C253.88,846.29 237.83,839.18 225.22,828.76C206.39,813.72 190.26,796.03 179.62,774.22C178.36,774.03 177.1,773.85 175.83,773.69C177.21,773.47 178.59,773.3 179.97,773.14C183.88,772.3 187.78,771.47 191.72,770.76C220.08,765.36 247.08,756.69 274.28,747.21C288.82,741.8 303.09,736.75 317.27,730.5C333.96,723.02 350.59,715.55 366.54,706.57C380.08,698.84 393.48,691.23 406.2,682.16C407.37,681.27 408.45,680.27 409.5,679.25C414.2,674.11 419.99,671.51 425.63,667.61C428.71,665.45 432.48,663.73 435.07,660.99C437.16,657.2 433.33,654.26 430.29,652.75C405.23,640.47 381.27,628.03 358.97,611.03C354.91,608.14 351.2,604.63 346.93,602.07C343.84,600.05 340.25,601.96 337.22,603.1C321.82,609.84 305.57,614.25 288.99,616.84C246.45,624.55 202.45,622.43 161.35,608.68C150.13,604.73 139.22,600.16 129.04,593.94C117.57,586.92 106.26,578.8 96.82,569.19C90.84,563.26 85.51,556.81 80.23,550.27C83.58,550.05 86.93,549.71 90.28,549.44C101.82,549.59 113.5,549.87 124.99,548.66C134.03,548.19 142.99,546.7 151.99,545.69C168.91,543.42 186.19,540.55 202.53,535.6C228.75,528.57 254.6,518.61 279.63,508.12C318.59,491.75 353.14,465.46 379.46,432.42C389.23,420.42 398.21,407.82 406.11,394.51C412.32,391.04 419.24,390.79 425.53,387.68C429.13,386.02 432.3,383.59 435.87,381.9C437.34,381.06 439.14,381.94 440.65,382.32C452.1,386.55 464.09,389.42 476.03,391.93C482.44,393.35 488.98,393.91 495.37,395.49C497.33,406.88 499.27,418.31 501.46,429.64C502.13,432.45 502.81,433.52 505.58,434.55C516.28,438.56 528.76,437.78 540,437.86C550.54,437.95 560.92,436.72 571.36,435.46C583.85,433.83 597.22,431.75 608.91,426.92C622.65,420.79 635.66,414.07 646.89,403.88C655.42,396.65 662.99,388.46 668.97,378.99C673.14,372.27 677.17,365.3 679.97,357.92C685,345.34 687.2,331.5 687.3,318C687.49,313.49 688,309.08 687.51,304.55C688.46,298.71 689.54,292.93 689.67,287C690.61,276.37 690.83,265.45 689.41,254.86Z" style="fill-rule:nonzero;stroke:rgb(140,158,255);stroke-width:10px;"/>
            <path id="p20" d="M378.39,262.74C379.87,267.1 381.33,271.41 381.99,275.99C383.66,288.08 390.34,299.62 398.35,308.63C401.02,311.85 404.51,313.69 407.8,316.11C409.4,317.08 408.95,319.8 409.37,321.43C408.43,319.48 407.47,317.37 406.09,315.69C404.27,314.94 403.12,317.47 402.67,318.84C401.82,325.28 402.89,332.12 404.75,338.32C407.53,347.27 411.23,355.88 416.1,363.89C417.88,366.53 419.62,369.16 421.22,371.9C415.89,373.92 410.8,375.25 405.05,374.36C401.48,369.12 397.37,364.33 394.12,358.88C387.05,347.78 382.42,335.65 378.8,323.06C374.17,303.4 374.2,282.46 378.39,262.74Z" style="fill-rule:nonzero;stroke:rgb(209,209,209);stroke-width:10px;"/>
            <path id="p21" d="M824.71,295.46C825.59,301.96 826.48,308.42 826.48,314.99C826.56,327.62 826.95,340.41 825.75,352.99C825.34,364.38 823.97,375.73 822.45,387.02C817.34,419.78 809.35,452.19 798.12,483.41C792.78,499.94 786.67,516.23 780.13,532.33C768.57,559.89 756.07,587.22 742.04,613.63C732.67,630.89 722.56,647.9 711.03,663.83C705.46,667.5 701.62,673.16 696.61,677.61C679.46,695.3 660.3,710.38 637.89,720.85C627.2,725.82 616.01,729.58 604.58,732.43C601.62,733.17 598.53,733.73 595.66,734.76C592.55,735.9 589.95,738.35 587.56,740.57C575.94,751.87 563.2,762.39 550.6,772.62C516.24,799.93 476.95,822.18 437.72,841.71C414.24,853.8 389.85,864.33 364.79,872.7C346.89,877.87 327.67,882.9 309,883.36C297.13,883.04 284.94,881.34 273.41,878.49C263.66,876.12 255.3,871.28 246.53,866.49C224.75,854.01 204.36,839.21 187.78,820.22C186.4,818.65 184.66,817.71 182.88,816.67C175.47,804.35 170.08,789.46 170.53,774.94C172.27,774.49 174.06,773.98 175.83,773.69C177.1,773.85 178.36,774.03 179.62,774.22C190.26,796.03 206.39,813.72 225.22,828.76C237.83,839.18 253.88,846.29 269.14,851.88C283.34,856.57 297.98,861.91 313,862.18C329.76,862.88 345.41,858.48 361.11,853.11C379.71,846.24 397.68,837.29 415.35,828.33C439.5,815.57 463.13,801.92 485.99,786.96C504.85,774.38 523.46,761.33 541.26,747.29C551.94,738.6 563.15,729.65 572.74,719.75C574.2,718.36 575.76,716.6 577.65,715.81C579.69,715.22 581.88,715.09 583.98,714.77C589.04,714.14 594.03,711.72 598.73,709.76C608.27,705.73 617.23,700.58 625.82,694.82C640.24,685.17 654.09,674.6 667.02,663.02C674.03,656.87 680.21,649.49 686.6,642.6C709.8,617.39 729.56,588.43 747.02,559C768.79,523.67 787.41,485.82 800.32,446.33C806.67,427.98 811.83,409.12 815.23,390C817.75,371.85 821.16,353.63 822.4,335.35C823.01,324.89 823.34,314.44 823.73,303.98C823.85,301.11 824.31,298.3 824.71,295.46Z" style="fill-rule:nonzero;stroke:rgb(130,146,234);stroke-width:10px;"/>
            <path id="p22" d="M687.51,304.55C688,309.08 687.49,313.49 687.3,318C687.2,331.5 685,345.34 679.97,357.92C677.17,365.3 673.14,372.27 668.97,378.99C662.99,388.46 655.42,396.65 646.89,403.88C635.66,414.07 622.65,420.79 608.91,426.92C597.22,431.75 583.85,433.83 571.36,435.46C560.92,436.72 550.54,437.95 540,437.86C528.76,437.78 516.28,438.56 505.58,434.55C502.81,433.52 502.13,432.45 501.46,429.64C499.27,418.31 497.33,406.88 495.37,395.49C488.98,393.91 482.44,393.35 476.03,391.93C464.09,389.42 452.1,386.55 440.65,382.32C439.14,381.94 437.34,381.06 435.87,381.9C432.3,383.59 429.13,386.02 425.53,387.68C419.24,390.79 412.32,391.04 406.11,394.51C408.01,390.94 409.76,387.28 411.72,383.74C418,382.81 424.41,381.18 429.83,377.76C431.19,376.95 431.95,375.66 432.4,374.18C432.47,372.02 431.19,370.61 430.06,368.94C426.55,364.31 423.45,359.4 420.69,354.29C418.49,350.32 417.65,345.95 415.02,342.18C426.71,354.19 440.76,362.68 456,369.42C472.29,376.33 489.43,379.85 507,381.44C518.27,381.91 529.92,382.04 540.99,379.93C549.03,378.47 557.61,377.51 565.15,374.26C551.65,381.88 536.77,387.19 521.72,390.79C516.49,392.16 511.88,391.47 507.49,394.73C506.79,403.72 508.58,412.2 509.95,421.02C510.32,424.53 512.84,426.72 516.16,427.48C531.44,430.72 547.1,431.55 562.44,428.16C574.3,425.45 586,421.47 596.87,415.99C604.31,412.23 611.18,407.56 618.49,403.48C628.49,398.04 637.31,389.4 645.73,381.72C658.27,369.06 669.52,354.52 677.38,338.48C682.9,327.48 684.14,316.18 687.51,304.55Z" style="fill-rule:nonzero;stroke:rgb(130,146,234);stroke-width:10px;"/>
            <path id="p23" d="M839.39,319.84C845.36,324.35 850.53,329.15 855.27,334.94C853.85,334.31 852.41,333.73 850.95,333.2C851.04,338.8 851.59,344.39 851.72,350C852.09,363.96 851.12,378.07 850.25,392C848.87,417.11 844.81,442.03 838.21,466.29C835.41,476.38 832.86,486.5 829.48,496.42C824.03,513.53 817.72,529.67 813.16,547.13C809.76,561.1 807.83,574.78 811.03,589.01C813.3,599.8 818.88,609.62 828.13,615.88C832.59,619.16 837.65,620.66 843.09,621.39C835.87,634.66 827.09,647.59 818.32,659.86C813.11,658.89 808.93,656.21 804.49,653.49C798.55,649.63 793.3,645.26 790.24,638.71C784.57,626.73 781.8,613.25 782.21,600C781.53,582.22 787.72,563.58 791.03,546C792.57,536.95 796.22,528.86 799.38,520.32C801.32,514.9 803.96,510.07 804.34,504.2C812.99,479.86 821.12,455.43 826.78,430.19C833.01,403.82 837.32,377.13 838.54,350.04C838.58,339.95 839.4,329.93 839.39,319.84Z" style="fill-rule:nonzero;stroke:rgb(130,146,234);stroke-width:10px;"/>
            <path id="p24" d="M850.95,333.2C852.41,333.73 853.85,334.31 855.27,334.94C864.61,345.18 872.21,356.87 879.09,368.86C884.09,377.81 888.83,387.1 892.05,396.84C896.9,411.25 898.17,425.89 898.32,441C897.66,461.51 895.73,481.91 891.04,501.93C885.83,526.77 877,550.13 866.91,573.33C860.02,589.88 851.74,605.71 843.09,621.39C837.65,620.66 832.59,619.16 828.13,615.88C818.88,609.62 813.3,599.8 811.03,589.01C807.83,574.78 809.76,561.1 813.16,547.13C817.72,529.67 824.03,513.53 829.48,496.42C832.86,486.5 835.41,476.38 838.21,466.29C844.81,442.03 848.87,417.11 850.25,392C851.12,378.07 852.09,363.96 851.72,350C851.59,344.39 851.04,338.8 850.95,333.2Z" style="fill-rule:nonzero;stroke:rgb(140,158,255);stroke-width:10px;"/>
            <path id="p25" d="M804.34,504.2C803.96,510.07 801.32,514.9 799.38,520.32C796.22,528.86 792.57,536.95 791.03,546C787.72,563.58 781.53,582.22 782.21,600C781.8,613.25 784.57,626.73 790.24,638.71C793.3,645.26 798.55,649.63 804.49,653.49C808.93,656.21 813.11,658.89 818.32,659.86C803.7,678.34 785.97,696.28 764.52,706.63C753.7,712.07 741.97,714.68 729.95,715.61C715.3,717.07 700.46,716.83 685.75,716.62C689.08,713.86 691.82,710.86 694.38,707.38C716.61,679.87 736.52,650.37 753.26,619.2C765.49,596.17 776.48,572.55 786.81,548.62C793.31,534.06 798.41,518.97 804.34,504.2Z" style="fill-rule:nonzero;stroke:rgb(100,115,201);stroke-width:10px;"/>
            <path id="p26" d="M75.46,548.14C80.42,548.37 85.34,548.97 90.28,549.44C86.93,549.71 83.58,550.05 80.23,550.27C85.51,556.81 90.84,563.26 96.82,569.19C106.26,578.8 117.57,586.92 129.04,593.94C139.22,600.16 150.13,604.73 161.35,608.68C202.45,622.43 246.45,624.55 288.99,616.84C305.57,614.25 321.82,609.84 337.22,603.1C340.25,601.96 343.84,600.05 346.93,602.07C351.2,604.63 354.91,608.14 358.97,611.03C381.27,628.03 405.23,640.47 430.29,652.75C433.33,654.26 437.16,657.2 435.07,660.99C432.48,663.73 428.71,665.45 425.63,667.61C419.99,671.51 414.2,674.11 409.5,679.25C409.52,676.07 409.52,672.9 409.56,669.73C405.34,666.19 400.39,664.3 395.73,661.48C390.26,658.28 384.91,654.92 379.76,651.22C367.99,643.1 356.46,634.72 345.62,625.39C343.43,623.39 340.84,622.42 338.04,621.62C337.21,622.04 336.37,622.47 335.54,622.89C335.53,623.94 335.53,624.99 335.55,626.04C313.43,633.04 290.05,637.09 267.06,640.01C253.68,641.17 240.45,642.78 227,642.7C219.55,643.21 212.46,643.39 205,642.74C189.27,642.82 173.39,640.81 158.19,636.69C144.92,632.9 132.34,628.85 120.59,621.41C114.54,617.61 108.79,613.31 103.49,608.52C99.26,604.81 96.01,600.22 91.74,596.53C86.19,586.8 81.78,576.31 78.96,565.45C77.5,559.7 76.55,553.96 75.46,548.14Z" style="fill-rule:nonzero;stroke:rgb(130,146,234);stroke-width:10px;"/>
            <path id="p27" d="M91.74,596.53C96.01,600.22 99.26,604.81 103.49,608.52C108.79,613.31 114.54,617.61 120.59,621.41C132.34,628.85 144.92,632.9 158.19,636.69C173.39,640.81 189.27,642.82 205,642.74C212.46,643.39 219.55,643.21 227,642.7C240.45,642.78 253.68,641.17 267.06,640.01C290.05,637.09 313.43,633.04 335.55,626.04C336.2,627.76 337.06,629.33 338.35,630.65C341.71,634.13 345.45,637.27 349.25,640.25C342.45,642.77 335.43,644.44 328.39,646.12C316.23,648.81 304.05,651.31 291.74,653.16C279.52,655.03 267.28,657.11 254.98,658.36C233.05,660.8 211,661.14 188.96,660.36C179.83,659.35 170,659.58 161.2,656.92C143.93,652.32 128.11,640.88 115.51,628.48C106.32,618.97 98.33,607.99 91.74,596.53Z" style="fill-rule:nonzero;stroke:rgb(100,115,201);stroke-width:10px;"/>
            <path id="p28" d="M711.03,663.83C701.25,679.05 689.79,693.33 678.13,707.16C674.56,711.35 671.41,715.61 667.17,719.19C659.67,725.61 652.47,731.91 643.72,736.56C636.98,740.18 629.61,743.78 622.02,745.09C619.09,745.65 615.84,745.1 613.02,745.98C608.85,748.15 605.43,751.91 601.79,754.86C586.84,768.19 570.82,779.99 554.09,790.98C533.67,804.25 512.22,815.4 490.87,827.06C459.17,843.67 426.7,858.59 393.15,871.14C371.31,879.32 349.53,886.97 326.77,892.26C310.15,895.63 293.47,896.82 276.67,893.92C267.67,892.01 259.86,887.74 252.13,882.93C240.83,875.85 229.46,868.3 219.05,859.95C204.87,847.69 191.99,833.12 182.88,816.67C184.66,817.71 186.4,818.65 187.78,820.22C204.36,839.21 224.75,854.01 246.53,866.49C255.3,871.28 263.66,876.12 273.41,878.49C284.94,881.34 297.13,883.04 309,883.36C327.67,882.9 346.89,877.87 364.79,872.7C389.85,864.33 414.24,853.8 437.72,841.71C476.95,822.18 516.24,799.93 550.6,772.62C563.2,762.39 575.94,751.87 587.56,740.57C589.95,738.35 592.55,735.9 595.66,734.76C598.53,733.73 601.62,733.17 604.58,732.43C616.01,729.58 627.2,725.82 637.89,720.85C660.3,710.38 679.46,695.3 696.61,677.61C701.62,673.16 705.46,667.5 711.03,663.83Z" style="fill-rule:nonzero;stroke:rgb(100,115,201);stroke-width:10px;"/>
        </g>
        <g>
            <path id="p110" serif:id="p1" d="M671.97,33.34C699.22,37.09 727.45,44.71 751.32,58.7C767.16,67.7 781.66,78.62 795.16,90.83C804.51,99.08 812.98,108.54 821.38,117.61C829.01,126.02 836.14,134.82 843.48,143.48C853.23,155.76 862.73,168.23 872.81,180.25C885.8,195.59 898.82,209.63 916.57,219.58C920.1,213.88 925.17,210.61 931.41,208.47C931.03,205.91 930.34,203.71 931.38,201.19C933.58,195.76 939.38,193.15 944.94,192.85C950.89,192.8 956.67,193.71 961.1,198C969.41,195.17 979.36,195.62 985.79,202.2C993.81,211.1 993.22,224.76 986.07,233.99C986.62,237.4 987.27,240.53 986.4,243.97C984.56,251.57 976.94,258.08 968.82,255.24C966.22,258.03 963.63,260.6 960,261.99C953.22,264.85 946.21,263.64 939.57,261.09C930.3,270.59 919.35,279.65 907.21,285.2C889.12,293.38 868.8,297.92 849,297.24C845.56,297.17 843.34,296.55 837.9,299.65C838.06,304.071 838.38,302.286 838.59,305.02C840.75,305.47 842.77,306.02 844.59,307.32C869.24,324.83 885.52,350.46 898.87,377.08C905.94,391.77 910.14,407.76 911.4,424C911.98,435.32 911.84,446.68 911.32,457.99C910.04,473.11 908.1,488.16 904.77,502.98C898.26,534.75 886.23,564.4 872.62,593.71C862.98,614.38 851.61,634.11 839.22,653.25C829,669.02 816.62,683.14 802.86,695.91C790.51,706.95 775.77,716.9 759.84,721.83C739.23,728.39 719.3,727.75 697.99,727.59C692.99,727.5 688.04,727.6 683.06,726.88C680.96,726.73 678.86,726.58 676.75,726.44C667.54,735.22 657.41,742.45 646.06,748.22C643.75,749.22 641.43,750.22 639.12,751.24C632.8,753.51 626.49,755.13 619.71,754.65C597.51,776.18 572.54,794.12 546.02,809.91C526.22,821.32 506.16,832.33 485.82,842.74C483.57,843.89 481.31,845.02 479.05,846.16C472.79,849.28 466.47,852.27 460.14,855.25C455.8,857.23 451.48,859.26 447.14,861.25C441.13,863.91 435.12,866.58 429.07,869.16C414.16,875.45 399.1,881.38 383.85,886.78C381.62,887.61 379.38,888.39 377.15,889.22C357.64,896.22 337.63,901.39 317.56,906.49C311.08,908.18 303.76,907.68 297.01,907.81C288.46,907.89 280.09,907.44 271.78,905.28C260.68,901.34 250.44,894.67 240.49,888.46C229.96,881.6 219.26,874.57 209.89,866.14C196.29,854.6 184.78,840.45 175.45,825.29C169.78,815.47 165.04,805.27 162.81,794.09C162.5,792.07 162.18,790.05 161.79,788.04C161.5,781.46 160.8,775.32 162.73,768.92C166.96,766.27 171.58,765.42 176.38,764.39C196.88,760.13 217.02,755.62 236.85,748.79C245.56,745.87 254.26,742.96 262.89,739.81C269,737.69 275.01,735.35 281.1,733.18C285.7,731.41 290.3,729.64 294.88,727.82C301.1,725.58 307.1,722.88 313.15,720.23C319.79,717.24 326.44,714.26 333.04,711.17C334.67,710.38 336.31,709.61 337.94,708.81C349.88,703.04 361.45,696.59 372.87,689.87C381.47,685.05 389.64,679.6 397.82,674.12C397.61,673.76 397.4,673.4 397.19,673.04C390.01,669.42 383.2,664.98 376.43,660.63C371.2,657.01 365.73,653.56 360.93,649.37C355.85,649 350.89,651.92 345.82,652.82L345.14,653.13C339.48,654.6 333.78,655.84 328.1,657.18C321.44,658.57 314.76,659.84 308.09,661.14C304.06,661.73 300.07,662.51 296.05,663.13C294.04,663.48 292.02,663.77 290.01,664.12C287.68,664.42 285.36,664.7 283.04,665.09C276.01,665.93 269.01,667.05 261.99,667.97C252,669.05 242.02,669.57 232,670.26C219.99,670.5 207.97,670.56 195.96,670.15C190.99,669.3 185.98,669.73 180.99,669.05C177.07,668.47 173.16,668.6 169.31,667.83C165.5,667.09 161.74,666.09 157.97,665.21C153.31,663.53 148.4,661.98 143.97,659.82C124.15,649.83 107.2,634.72 94.58,616.49C84.07,602.06 75.92,586.07 71.21,568.81C69.78,563.29 69,557.65 67.8,552.05C67.64,549.64 67.49,547.24 67.36,544.83C67.88,544.16 68.4,543.49 68.92,542.82C70.84,541.98 72.78,540.92 74.82,540.45C77.87,540.4 80.97,540.84 84,541.15C100.28,542.13 116.09,540.65 132.26,539.05C146.53,537 160.86,534.98 174.94,531.88C182,530.48 188.94,528.83 195.87,526.87C201.29,525.36 206.65,523.64 212.07,522.14C233.83,515.43 255.13,507.14 275.89,497.81C307.33,484.27 335.57,463.89 358.59,438.58C373.42,422.36 386.57,404.56 397.76,385.64C398.73,384.21 398.69,382.79 398.67,381.13C393.75,376.13 389.65,370.22 385.71,364.43C378.06,353.38 373.06,340.82 368.77,328.16C365.12,315.06 363.83,301.58 364.24,288.01C364.18,270.95 368.13,254.16 373.09,237.93C376.33,228.31 380.42,219.04 385.19,210.08C393.67,194.05 403.44,179.2 416.51,166.51C430.31,153.08 446.83,141.59 464.91,134.8C459.28,125.17 460.53,112.47 468.6,104.61C474.39,98.84 480.97,95.76 489.02,96.25C489.9,93.44 491.58,91.88 494.01,89.99C498.57,86.28 503.42,86.43 508.94,85.77C511.55,83.96 513.67,81.75 516.77,80.65C519.82,79.24 523.59,77.23 526.45,75.56C539.79,63.7 554.1,54.84 568.99,44.99C577.77,38.97 588.17,35.94 598.46,33.72C622.52,29.12 647.79,30.26 671.97,33.34ZM573.06,49.44C559.08,58.18 545.9,68.26 533.03,78.53C543.96,80.35 554.07,84 560.02,93.98C563.95,93.59 568.05,92.98 571.99,93.18C585.25,94.2 597.99,99.76 607.27,109.38C617.04,108.87 626.53,109.05 635.93,112.04C646.51,115.56 656.37,120.71 663.98,129.02C665.93,130.75 666.95,133.21 669.94,132.74C677.88,132.28 685.33,132.1 692.87,135.1C700.49,138.3 708.08,143.27 713.07,149.96C717.57,156.18 720.85,163.16 722.35,170.71C733.17,169.03 743.4,171.48 752.41,177.59C758.78,182.03 764.71,187.71 768.75,194.39C770,196.84 771.02,199.43 772.04,201.99C774.98,200.53 777.54,198.82 780.99,199.13C785.84,199.67 790.93,202.18 793.66,206.36C795.79,209.27 796.98,212.52 798.17,215.89C803.57,213.42 808.7,211.88 814.64,211.32C812.76,198.3 808.76,185.56 803.92,173.36C801.06,166.08 797.61,159.06 793.72,152.28C792.57,150.38 792.11,148.63 791.9,146.43C793.2,147.8 794.46,149.18 795.54,150.73C806.63,170.65 817.05,189.33 821.79,211.95C827.34,213.9 832.24,216.52 835.09,221.92C837.29,226.27 836.55,230.42 835.57,234.95C837.88,237 839.77,239.1 841.49,241.66C842.21,244.33 843.01,247.24 843.05,250.02C842.98,252.29 841.87,254.62 841.1,256.74C843.04,260.44 845.04,263.59 844.04,267.98C842.83,273.9 837.9,276.62 832.94,279.1C833.75,283.12 834.52,287.14 835.09,291.2C837.07,291.37 839.02,291.55 841,291.64C858.83,291.54 876.04,290.33 892.77,283.62C908.83,278.2 921.63,267.98 933.2,255.88C930.54,251.66 929.14,248.41 930.06,243.27L929.94,243.38C927.78,243.06 925.12,242.98 923.17,241.89C921.01,240.65 919.24,238.52 917.71,236.58C915.93,233.44 915.27,230.03 914.69,226.51C902.3,219.62 891.29,210.72 881.55,200.46C866.7,185.11 853.77,167.24 840.42,150.56C828.13,133.87 813.84,118.43 799.46,103.53C783.97,88.47 766.81,74.7 748.03,63.96C726.02,51.1 700.11,43.82 675.05,39.96C661.9,37.77 648.31,36.99 635,36.62C621.61,36.75 607.77,37.53 594.73,40.69C587.02,42.55 579.71,45.03 573.06,49.44ZM511.04,93.17C507.14,93.37 502.58,92.52 498.86,93.78C494.64,95.51 495.26,99.97 494.39,103.7C493.19,103.76 491.98,103.8 490.78,103.82C486.58,103.73 482.83,103.06 478.81,104.81C470.3,108.03 464.64,116.91 465.45,125.99C465.66,129.31 466.92,132.2 468.45,135.09C470.94,134.71 473.43,134.29 475.92,133.9C475.87,130.41 475.45,126.61 476.27,123.2C476.64,121.44 478.83,120.36 480.1,119.24C480.92,120.4 482.05,121.55 482.47,122.91C482.61,127.07 481.32,130.81 482.2,135.04C483.19,142.26 488.44,147.9 494.42,151.61C501.29,155.85 509.04,157.01 516.99,156.64C519.92,160.32 519.47,165.62 523.95,168.06C527.45,170.17 531.07,169.06 534.46,167.35C536.71,166.2 537.44,163.61 538.49,161.5C539.17,160.91 539.85,160.33 540.52,159.75C542.48,160.46 544.26,160.58 545.4,162.54C548.69,167.96 551.52,173.38 556.15,177.85C562.86,184.09 570.72,188.81 580,189.81C584.58,190.36 590.84,190.95 594.79,188.13C597.33,189.32 599.69,190.26 601.15,192.84C606.33,201.12 612.44,208.76 619.48,215.53C627.09,222.64 636.75,226.4 646.96,227.83C655.67,228.97 665.2,229.63 673.79,227.49C676.02,227.15 677.2,224.09 678.71,222.59C680.09,220.65 682.07,221.06 684.17,220.69C684.34,222.41 684.52,224.14 684.76,225.85C682.13,228.81 678.2,231.98 678.84,236.4C679.72,241.18 684.25,245.27 687.98,248.05C698.67,256.43 713.68,258.76 727.04,259.13C730.59,259.24 731.73,262.6 733.9,265.08C742.22,275.58 756.04,281.66 769.01,283.68C779.57,285.55 790.57,283.78 799.21,277.2C802.02,275.06 803.83,272.27 805.61,269.28C811.11,269.49 814.69,272.89 819.76,274.41C824.49,276.17 829.78,276.48 834.54,274.65C837.42,273.48 839.9,271.31 840.19,268.04C840.87,264.31 838.74,261.46 837.16,258.3C838.37,255.89 839.63,253.8 839.37,250.97C839.19,245.82 834.88,241.45 832.22,237.28C834.51,232.68 834.03,227.58 830.58,223.41C826.07,217.41 819.14,214.46 811.98,215.62C807.12,216.28 802.83,218.26 798.45,220.32C797.5,220.31 796.54,220.29 795.59,220.27C794.37,215.73 793.27,211.6 789.64,208.32C786.86,205.98 782.84,204.53 779.4,206.37C776.88,207.51 774.73,210.45 771.71,209.35C767.94,207.61 766.71,202.11 764.14,198.94C756.97,189.35 745.95,180.32 733.77,178.64C729.91,177.92 725.76,178.97 722.01,178.09C718.34,176.59 720.42,173.53 719.62,170.52C715.86,160.13 709.41,150.99 699.86,145.19C693.55,141.21 686.37,139.73 679,139.49C674.52,139.39 670.34,140.31 665.95,140.82C663.64,141.2 662.03,140.07 660.08,139.09C658.43,135.23 654.52,132.28 651.46,129.54C642.24,122.64 631.08,118.05 619.58,116.95C614.78,116.25 610,116.48 605.18,116.35C601.65,116.16 599.33,113.32 596.78,111.24C588.06,103.35 575.53,99.76 564,99.29C561.09,99.13 558.81,100.48 556.05,100.93C553.78,100.72 552.89,99 551.6,97.4C547.79,91.19 540.03,88.18 533.18,86.88C525.17,85.29 516.74,87.05 511.04,93.17ZM402.5,205.16C397.18,212.85 392.85,221.52 388.85,229.97C383.9,240.4 380.31,251.34 378.39,262.74C374.2,282.46 374.17,303.4 378.8,323.06C382.42,335.65 387.05,347.78 394.12,358.88C397.37,364.33 401.48,369.12 405.05,374.36C410.8,375.25 415.89,373.92 421.22,371.9C419.62,369.16 417.88,366.53 416.1,363.89C411.23,355.88 407.53,347.27 404.75,338.32C402.89,332.12 401.82,325.28 402.67,318.84C403.12,317.47 404.27,314.94 406.09,315.69C407.47,317.37 408.43,319.48 409.37,321.43C412.04,327.43 417.1,332.69 421.79,337.21C436.54,351.48 455.9,361.24 475.71,366.2C483.62,368.23 491.79,369.33 499.9,370.19C516.29,370.99 532.78,371.35 549.02,368.64C558.88,367.31 568.69,364.11 578.27,361.29C582.62,360.04 586.76,358.32 590.96,356.67C591.94,357.01 592.92,357.35 593.91,357.67C594.02,359.53 595.02,361.06 593.63,362.62C590.95,365.72 587.67,368.3 584.88,371.33C571.05,383.16 553.35,390.72 536.04,395.86C529.64,397.87 523.07,398.94 516.42,399.76C516.66,406.59 516.98,413.58 518.36,420.28C533.81,421.04 549.97,420.73 565.09,417.19C570.52,415.58 575.79,414.25 580.94,411.92C592.7,406.55 602.79,399.67 613.67,392.82C620.79,387.84 627.94,383.27 634.13,377.1C643.22,369.04 651.44,360.12 658.1,349.93C663.42,341.9 669.16,333.28 672.08,324.06C679.71,300.45 681.9,274.96 677.26,250.53C676.39,244.03 672.48,238.83 672.23,232.14C669.13,232.59 666.05,233.09 662.94,233.41C648.65,234.63 632.45,232.4 620.37,224.16C612.4,218.48 605.89,211.76 600.17,203.85C597.53,199.94 594.57,196.94 593.44,192.25C588.65,195.08 582.63,195.52 577.2,195.01C567.25,193.73 557.75,189.51 550.51,182.49C546.1,178.31 542.7,173.38 539.7,168.12C535.31,174.27 527.16,177.09 520.11,173.94C514.64,171.22 512.13,166.01 510.97,160.25C507.68,160.08 504.46,159.93 501.24,159.15C497.69,158.33 494.76,156.86 490.99,157.26C482.16,158.08 473.24,161.12 464.81,163.82L464.06,164.12C460.32,165.13 454.98,168.32 451.48,165.67C451.05,161.55 455.62,160.19 458.5,158.52C466.41,155.1 473.37,150.41 481.68,147.94C480.16,145.46 478.68,142.97 477.27,140.43C472.65,142.42 467.92,144.08 463.39,146.27C455.68,149.76 448.49,154.59 442.01,160C426.44,172.74 413.15,188.1 402.5,205.16ZM936.05,210.65C935.02,212.45 934.21,214 932.17,214.81C927.7,216.67 923.62,218.8 921.47,223.4C920.06,226.52 920.38,229.7 921.3,232.89C922.26,235.12 923.12,237.32 925.08,238.86C927.16,240.61 929.5,240.82 932.04,241.4C932.59,244.92 932.79,248.86 935.32,251.63C941.48,257.96 951.85,259.4 959.19,254.2C961.7,252.06 963.91,249.72 966.82,248.08C967.91,249.03 969,249.98 970.08,250.95C972.34,250.64 974.32,250.8 976.04,249.06C979.12,245.97 980.34,241.36 978.91,237.19C977.93,234.14 978.44,232.46 979.65,229.58C984.06,222.95 986.26,215.63 982.6,208.03C979.64,202.49 972.69,201.21 966.97,201.16C963.61,201.07 961.15,202.8 957.96,203.3C954.84,201.97 952.37,199.6 948.96,199.2C944.32,198.42 938.95,198.69 936.05,202.96C934.28,205.38 935.53,208.03 936.05,210.65ZM689.41,254.86C690.83,265.45 690.61,276.37 689.67,287C689.54,292.93 688.46,298.71 687.51,304.55C684.14,316.18 682.9,327.48 677.38,338.48C669.52,354.52 658.27,369.06 645.73,381.72C637.31,389.4 628.49,398.04 618.49,403.48C611.18,407.56 604.31,412.23 596.87,415.99C586,421.47 574.3,425.45 562.44,428.16C547.1,431.55 531.44,430.72 516.16,427.48C512.84,426.72 510.32,424.53 509.95,421.02C508.58,412.2 506.79,403.72 507.49,394.73C511.88,391.47 516.49,392.16 521.72,390.79C536.77,387.19 551.65,381.88 565.15,374.26C557.61,377.51 549.03,378.47 540.99,379.93C529.92,382.04 518.27,381.91 507,381.44C489.43,379.85 472.29,376.33 456,369.42C440.76,362.68 426.71,354.19 415.02,342.18C417.65,345.95 418.49,350.32 420.69,354.29C423.45,359.4 426.55,364.31 430.06,368.94C431.19,370.61 432.47,372.02 432.4,374.18C431.95,375.66 431.19,376.95 429.83,377.76C424.41,381.18 418,382.81 411.72,383.74C409.76,387.28 408.01,390.94 406.11,394.51C398.21,407.82 389.23,420.42 379.46,432.42C353.14,465.46 318.59,491.75 279.63,508.12C254.6,518.61 228.75,528.57 202.53,535.6C186.19,540.55 168.91,543.42 151.99,545.69C142.99,546.7 134.03,548.19 124.99,548.66C113.5,549.87 101.82,549.59 90.28,549.44C85.34,548.97 80.42,548.37 75.46,548.14C76.55,553.96 77.5,559.7 78.96,565.45C81.78,576.31 86.19,586.8 91.74,596.53C98.33,607.99 106.32,618.97 115.51,628.48C128.11,640.88 143.93,652.32 161.2,656.92C170,659.58 179.83,659.35 188.96,660.36C211,661.14 233.05,660.8 254.98,658.36C267.28,657.11 279.52,655.03 291.74,653.16C304.05,651.31 316.23,648.81 328.39,646.12C335.43,644.44 342.45,642.77 349.25,640.25C345.45,637.27 341.71,634.13 338.35,630.65C337.06,629.33 336.2,627.76 335.55,626.04C335.53,624.99 335.53,623.94 335.54,622.89C336.37,622.47 337.21,622.04 338.04,621.62C340.84,622.42 343.43,623.39 345.62,625.39C356.46,634.72 367.99,643.1 379.76,651.22C384.91,654.92 390.26,658.28 395.73,661.48C400.39,664.3 405.34,666.19 409.56,669.73C409.52,672.9 409.52,676.07 409.5,679.25C408.45,680.27 407.37,681.27 406.2,682.16C393.48,691.23 380.08,698.84 366.54,706.57C350.59,715.55 333.96,723.02 317.27,730.5C303.09,736.75 288.82,741.8 274.28,747.21C247.08,756.69 220.08,765.36 191.72,770.76C187.78,771.47 183.88,772.3 179.97,773.14C178.59,773.3 177.21,773.47 175.83,773.69C174.06,773.98 172.27,774.49 170.53,774.94C170.08,789.46 175.47,804.35 182.88,816.67C191.99,833.12 204.87,847.69 219.05,859.95C229.46,868.3 240.83,875.85 252.13,882.93C259.86,887.74 267.67,892.01 276.67,893.92C293.47,896.82 310.15,895.63 326.77,892.26C349.53,886.97 371.31,879.32 393.15,871.14C426.7,858.59 459.17,843.67 490.87,827.06C512.22,815.4 533.67,804.25 554.09,790.98C570.82,779.99 586.84,768.19 601.79,754.86C605.43,751.91 608.85,748.15 613.02,745.98C615.84,745.1 619.09,745.65 622.02,745.09C629.61,743.78 636.98,740.18 643.72,736.56C652.47,731.91 659.67,725.61 667.17,719.19C671.41,715.61 674.56,711.35 678.13,707.16C689.79,693.33 701.25,679.05 711.03,663.83C722.56,647.9 732.67,630.89 742.04,613.63C756.07,587.22 768.57,559.89 780.13,532.33C786.67,516.23 792.78,499.94 798.12,483.41C809.35,452.19 817.34,419.78 822.45,387.02C823.97,375.73 825.34,364.38 825.75,352.99C826.95,340.41 826.56,327.62 826.48,314.99C826.48,308.42 825.59,301.96 824.71,295.46C824.51,290.42 823.79,285.46 823.32,280.44C817.03,278.89 811.09,277.45 805.98,273.22C802.47,279.18 798.11,282.94 791.74,285.62C780.93,290.07 767.96,289.68 756.93,286.21C745.78,282.9 734.88,276.51 727.84,267.11C726.41,265.38 726.55,263.5 726.31,261.4C713.41,263.91 700.88,260.82 689.41,254.86ZM804.34,504.2C798.41,518.97 793.31,534.06 786.81,548.62C776.48,572.55 765.49,596.17 753.26,619.2C736.52,650.37 716.61,679.87 694.38,707.38C691.82,710.86 689.08,713.86 685.75,716.62C700.46,716.83 715.3,717.07 729.95,715.61C741.97,714.68 753.7,712.07 764.52,706.63C785.97,696.28 803.7,678.34 818.32,659.86C827.09,647.59 835.87,634.66 843.09,621.39C851.74,605.71 860.02,589.88 866.91,573.33C877,550.13 885.83,526.77 891.04,501.93C895.73,481.91 897.66,461.51 898.32,441C898.17,425.89 896.9,411.25 892.05,396.84C888.83,387.1 884.09,377.81 879.09,368.86C872.21,356.87 864.61,345.18 855.27,334.94C850.53,329.15 845.36,324.35 839.39,319.84C839.4,329.93 838.58,339.95 838.54,350.04C837.32,377.13 833.01,403.82 826.78,430.19C821.12,455.43 812.99,479.86 804.34,504.2Z" style="fill-rule:nonzero;"/>
            <path id="p29" serif:id="p2" d="M635,36.62C648.31,36.99 661.9,37.77 675.05,39.96C700.11,43.82 726.02,51.1 748.03,63.96C766.81,74.7 783.97,88.47 799.46,103.53C813.84,118.43 828.13,133.87 840.42,150.56C853.77,167.24 866.7,185.11 881.55,200.46C891.29,210.72 902.3,219.62 914.69,226.51C915.27,230.03 915.93,233.44 917.71,236.58C913.71,239.17 909.58,238.83 905,239.14C890.87,239.49 878,234.95 865.8,228.18C852.54,220.87 840.56,211.84 831.17,199.86C821,187.22 813.95,172.7 804.24,159.77C802.33,157.14 800.48,154.33 798.32,151.91C797.4,151.5 796.47,151.11 795.54,150.73C794.46,149.18 793.2,147.8 791.9,146.43C790.05,153.37 786.93,160.57 781.1,165.08C774.72,169.94 767.16,171.28 759.31,171.55C754.51,171.73 750.22,168.72 745.72,167.24C739.86,165.14 734.07,165.14 727.94,165.13C724.96,159.27 722.73,153.58 718.71,148.3C707.97,133.72 688.94,125.7 671.02,127.19C668.68,127.46 667.32,125.7 665.56,124.42C653.76,114.18 638.52,107.79 623.11,105.62C618.96,104.98 614.68,105.93 610.59,105.24C607.9,103.85 605.64,101.57 603.13,99.86C596.39,95.02 588.85,92.28 580.89,90.18C577.89,89.25 574.77,88.87 572.76,86.23C567.38,79.36 564.2,70.29 566.63,61.62C568.01,57.29 570.79,53.35 573.06,49.44C579.71,45.03 587.02,42.55 594.73,40.69C607.77,37.53 621.61,36.75 635,36.62Z" style="fill:rgb(232,33,33);fill-rule:nonzero;"/>
            <path id="p31" serif:id="p3" d="M573.06,49.44C570.79,53.35 568.01,57.29 566.63,61.62C564.2,70.29 567.38,79.36 572.76,86.23C574.77,88.87 577.89,89.25 580.89,90.18C588.85,92.28 596.39,95.02 603.13,99.86C605.64,101.57 607.9,103.85 610.59,105.24C614.68,105.93 618.96,104.98 623.11,105.62C638.52,107.79 653.76,114.18 665.56,124.42C667.32,125.7 668.68,127.46 671.02,127.19C688.94,125.7 707.97,133.72 718.71,148.3C722.73,153.58 724.96,159.27 727.94,165.13C734.07,165.14 739.86,165.14 745.72,167.24C750.22,168.72 754.51,171.73 759.31,171.55C767.16,171.28 774.72,169.94 781.1,165.08C786.93,160.57 790.05,153.37 791.9,146.43C792.11,148.63 792.57,150.38 793.72,152.28C797.61,159.06 801.06,166.08 803.92,173.36C801.4,179.47 800.81,189.07 794.9,192.86C787.44,196.84 776.81,195.7 768.75,194.39C764.71,187.71 758.78,182.03 752.41,177.59C743.4,171.48 733.17,169.03 722.35,170.71C720.85,163.16 717.57,156.18 713.07,149.96C708.08,143.27 700.49,138.3 692.87,135.1C685.33,132.1 677.88,132.28 669.94,132.74C666.95,133.21 665.93,130.75 663.98,129.02C656.37,120.71 646.51,115.56 635.93,112.04C626.53,109.05 617.04,108.87 607.27,109.38C597.99,99.76 585.25,94.2 571.99,93.18C568.05,92.98 563.95,93.59 560.02,93.98C554.07,84 543.96,80.35 533.03,78.53C545.9,68.26 559.08,58.18 573.06,49.44Z" style="fill:rgb(190,25,25);fill-rule:nonzero;"/>
            <path id="p41" serif:id="p4" d="M533.18,86.88C540.03,88.18 547.79,91.19 551.6,97.4C552.89,99 553.78,100.72 556.05,100.93C558.81,100.48 561.09,99.13 564,99.29C575.53,99.76 588.06,103.35 596.78,111.24C599.33,113.32 601.65,116.16 605.18,116.35C610,116.48 614.78,116.25 619.58,116.95C631.08,118.05 642.24,122.64 651.46,129.54C654.52,132.28 658.43,135.23 660.08,139.09C662.03,140.07 663.64,141.2 665.95,140.82C670.34,140.31 674.52,139.39 679,139.49C686.37,139.73 693.55,141.21 699.86,145.19C709.41,150.99 715.86,160.13 719.62,170.52C720.42,173.53 718.34,176.59 722.01,178.09C725.76,178.97 729.91,177.92 733.77,178.64C745.95,180.32 756.97,189.35 764.14,198.94C766.71,202.11 767.94,207.61 771.71,209.35C774.73,210.45 776.88,207.51 779.4,206.37C782.84,204.53 786.86,205.98 789.64,208.32C793.27,211.6 794.37,215.73 795.59,220.27C796.54,220.29 797.5,220.31 798.45,220.32C802.57,220.92 807.49,220.8 811.22,222.76C816.56,226.18 818.68,234.03 818.01,240.01C817.6,243.82 814.44,247.59 810.31,246.68C807.65,245.55 805.55,243.24 802.96,241.93C800.56,242.05 798.19,243.96 796.14,245.11C788.45,250.04 779.14,252.39 770.07,250.83C765.71,250 761.22,248.19 758.49,244.52C756.59,242.23 755.19,239 752.78,237.24C750.28,236.79 747.47,237.57 744.99,237.98C736.74,239.73 728.03,239.4 719.92,237.11C707.06,233.24 697.28,222.62 692.85,210.15C691.62,206.96 690.79,203.04 688.64,200.35C685.22,199.11 681.34,203.07 678.16,204.18C667.38,208.34 654.34,209.09 643.57,204.44C635.12,200.83 627.4,194.76 624.03,185.96C622.4,181.91 622.42,177.31 620.71,173.33C619.42,170.82 615.84,172.3 613.68,172.62C604.49,175.16 594.69,175.1 585.54,172.42C580.17,170.78 574.26,167.7 571.18,162.82C568.47,158.6 569.59,153.1 568.47,148.41C567.88,146.98 566.51,146.45 565.04,146.8C561.99,147.28 559.08,148.35 556.03,148.9C550.25,150.04 544.13,149.4 538.62,147.37C535.12,146.05 531.44,143.62 529.88,140.1C528.96,136.94 529.88,133.31 528.98,130.13C528.26,128.35 525.61,128.6 524.04,128.31C518.53,127.94 513.45,127.53 508.82,124.2C503.42,120.54 500.59,113.79 502.48,107.42C504.11,102.23 507.97,97.62 511.04,93.17C516.74,87.05 525.17,85.29 533.18,86.88Z" style="fill:white;fill-rule:nonzero;"/>
            <path id="p51" serif:id="p5" d="M511.04,93.17C507.97,97.62 504.11,102.23 502.48,107.42C500.59,113.79 503.42,120.54 508.82,124.2C513.45,127.53 518.53,127.94 524.04,128.31C525.61,128.6 528.26,128.35 528.98,130.13C529.88,133.31 528.96,136.94 529.88,140.1C531.44,143.62 535.12,146.05 538.62,147.37C544.13,149.4 550.25,150.04 556.03,148.9C559.08,148.35 561.99,147.28 565.04,146.8C566.51,146.45 567.88,146.98 568.47,148.41C569.59,153.1 568.47,158.6 571.18,162.82C574.26,167.7 580.17,170.78 585.54,172.42C594.69,175.1 604.49,175.16 613.68,172.62C615.84,172.3 619.42,170.82 620.71,173.33C622.42,177.31 622.4,181.91 624.03,185.96C627.4,194.76 635.12,200.83 643.57,204.44C654.34,209.09 667.38,208.34 678.16,204.18C681.34,203.07 685.22,199.11 688.64,200.35C690.79,203.04 691.62,206.96 692.85,210.15C697.28,222.62 707.06,233.24 719.92,237.11C728.03,239.4 736.74,239.73 744.99,237.98C747.47,237.57 750.28,236.79 752.78,237.24C755.19,239 756.59,242.23 758.49,244.52C761.22,248.19 765.71,250 770.07,250.83C779.14,252.39 788.45,250.04 796.14,245.11C798.19,243.96 800.56,242.05 802.96,241.93C805.55,243.24 807.65,245.55 810.31,246.68C814.44,247.59 817.6,243.82 818.01,240.01C818.68,234.03 816.56,226.18 811.22,222.76C807.49,220.8 802.57,220.92 798.45,220.32C802.83,218.26 807.12,216.28 811.98,215.62C819.14,214.46 827.07,216.41 831.58,222.41C835.03,226.58 834.51,232.68 832.22,237.28C829.47,242.04 832.2,247.08 830.45,252.57C828.67,258.37 822.89,261.73 817,261.6C811.27,261.4 806.12,258.44 800.9,257.07C798.39,256.13 796.14,257.89 794.04,259.05C789.59,261.94 785.08,264.52 779.85,265.74C767.95,268.51 754.77,267.74 744.61,260.37C740.51,257.48 738.32,253.49 735.21,249.73C733.67,247.48 730.39,248.13 728,247.91C716.68,248.24 705.01,246.38 694.92,241.07C689.18,237.99 685.5,232.3 684.76,225.85C684.52,224.14 684.34,222.41 684.17,220.69C682.07,221.06 680.09,220.65 678.71,222.59C677.2,224.09 676.02,227.15 673.79,227.49C665.2,229.63 655.67,228.97 646.96,227.83C636.75,226.4 627.09,222.64 619.48,215.53C612.44,208.76 606.33,201.12 601.15,192.84C599.69,190.26 597.33,189.32 594.79,188.13C590.84,190.95 584.58,190.36 580,189.81C570.72,188.81 562.86,184.09 556.15,177.85C551.52,173.38 548.69,167.96 545.4,162.54C544.26,160.58 542.48,160.46 540.52,159.75C539.85,160.33 539.17,160.91 538.49,161.5C537.44,163.61 536.71,166.2 534.46,167.35C531.07,169.06 527.45,170.17 523.95,168.06C519.47,165.62 519.92,160.32 516.99,156.64C512.47,153.26 507.03,151.91 502.52,148.44C497.77,145.02 494.38,139.95 493.89,134.03C493.62,130.24 495.45,126.57 495.4,122.87C493.86,120 489.95,118.57 488.22,115.74C487.17,113.54 487.16,110.71 488.81,108.79C490.39,106.97 492.45,105.48 494.32,103.97C493.14,103.92 491.96,103.87 490.78,103.82C491.98,103.8 493.19,103.76 494.39,103.7C495.26,99.97 494.64,95.51 498.86,93.78C502.58,92.52 507.14,93.37 511.04,93.17Z" style="fill:rgb(234,234,234);fill-rule:nonzero;"/>
            <path id="p61" serif:id="p6" d="M490.78,103.82C491.96,103.87 493.14,103.92 494.32,103.97C492.45,105.48 490.39,106.97 488.81,108.79C487.16,110.71 487.17,113.54 488.22,115.74C489.95,118.57 493.86,120 495.4,122.87C495.45,126.57 493.62,130.24 493.89,134.03C494.38,139.95 497.77,145.02 502.52,148.44C507.03,151.91 512.47,153.26 516.99,156.64C509.04,157.01 501.29,155.85 494.42,151.61C488.44,147.9 483.19,142.26 482.2,135.04C481.32,130.81 482.61,127.07 482.47,122.91C482.05,121.55 480.92,120.4 480.1,119.24C478.83,120.36 476.64,121.44 476.27,123.2C475.45,126.61 475.87,130.41 475.92,133.9C473.43,134.29 470.94,134.71 468.45,135.09C466.92,132.2 465.66,129.31 465.45,125.99C464.64,116.91 470.3,108.03 478.81,104.81C482.83,103.06 486.58,103.73 490.78,103.82Z" style="fill:rgb(209,209,209);fill-rule:nonzero;"/>
            <path id="p71" serif:id="p7" d="M477.27,140.43C478.68,142.97 480.16,145.46 481.68,147.94C473.37,150.41 466.41,155.1 458.5,158.52C455.62,160.19 451.05,161.55 451.48,165.67C454.98,168.32 460.32,165.13 464.06,164.12L464.81,163.82C473.24,161.12 482.16,158.08 490.99,157.26C494.76,156.86 497.69,158.33 501.24,159.15C504.46,159.93 507.68,160.08 510.97,160.25C512.13,166.01 514.64,171.22 520.11,173.94C527.16,177.09 535.31,174.27 539.7,168.12C542.7,173.38 546.1,178.31 550.51,182.49C557.75,189.51 567.25,193.73 577.2,195.01C582.63,195.52 588.65,195.08 593.44,192.25C594.57,196.94 597.53,199.94 600.17,203.85C605.89,211.76 612.4,218.48 620.37,224.16C628.93,243.08 632.47,264.01 629.55,284.64C627.62,296.7 623.21,308.88 615.37,318.39C608.7,326.74 599.44,333.16 590,338.02C575.9,344.48 560.11,347.83 544.64,348.5C537.98,348.76 531.42,349.46 524.76,349.44C502.07,349.15 479.03,344.84 458.15,335.82C446.59,330.68 435.53,324.19 425.5,316.49C417.23,310.2 410.24,302.1 404.51,293.46C399.82,286.33 397.47,278.43 395.64,270.17C393.93,262.88 392.89,255.49 392.71,248C392.63,238.48 394.77,228.7 397.66,219.67C399.2,214.69 401.89,210.43 402.5,205.16C413.15,188.1 426.44,172.74 442.01,160C448.49,154.59 455.68,149.76 463.39,146.27C467.92,144.08 472.65,142.42 477.27,140.43ZM452.5,233.7C446.46,235.85 441.82,242.37 438.73,247.73C432.47,258.34 430.63,271.32 433.89,283.2C435.22,287.76 438.79,292.69 444.04,292.45C449.09,291.96 453.47,287.19 456.28,283.3C461.04,276.06 465.44,267.83 465.71,258.98C466.21,251.47 465.38,242.44 461.02,236.08C459.03,233.09 455.72,232.92 452.5,233.7ZM545.32,249.28C537.54,252.71 531.88,261.27 529.03,269.01C526.09,276.45 525.93,284.13 526.36,292C526.68,297.27 528.22,302.54 530.88,307.11C532.97,310.75 537.73,313.56 541.93,311.95C546.39,310.58 549.54,306.89 552.48,303.47C560.07,294.94 562.97,282.15 562.6,271C562.57,264.78 561.7,258.37 557.86,253.27C554.92,249.48 549.97,247.3 545.32,249.28Z" style="fill:white;fill-rule:nonzero;"/>
            <path id="p81" serif:id="p8" d="M795.54,150.73C796.47,151.11 797.4,151.5 798.32,151.91C800.48,154.33 802.33,157.14 804.24,159.77C813.95,172.7 821,187.22 831.17,199.86C840.56,211.84 852.54,220.87 865.8,228.18C878,234.95 890.87,239.49 905,239.14C909.58,238.83 913.71,239.17 917.71,236.58C919.24,238.52 921.01,240.65 923.17,241.89C925.12,242.98 927.78,243.06 929.94,243.38C928.39,244.84 926.91,246.22 924.9,247.05C918.8,249.71 912.48,252.4 905.96,253.76C898.16,255.41 889.91,255.57 881.99,254.88C873.49,254.14 865.28,252.81 857.29,249.72C852.59,247.97 848.49,245.45 844.08,243.13C843.21,242.66 842.34,242.17 841.49,241.66C839.77,239.1 837.88,237 835.57,234.95C836.55,230.42 837.29,226.27 835.09,221.92C832.24,216.52 827.34,213.9 821.79,211.95C817.05,189.33 806.63,170.65 795.54,150.73Z" style="fill:rgb(190,25,25);fill-rule:nonzero;"/>
            <path id="p91" serif:id="p9" d="M803.92,173.36C808.76,185.56 812.76,198.3 814.64,211.32C808.7,211.88 803.57,213.42 798.17,215.89C796.98,212.52 795.79,209.27 793.66,206.36C790.93,202.18 785.84,199.67 780.99,199.13C777.54,198.82 774.98,200.53 772.04,201.99C771.02,199.43 770,196.84 768.75,194.39C776.81,195.7 787.44,196.84 794.9,192.86C800.81,189.07 801.4,179.47 803.92,173.36Z" style="fill:rgb(155,23,23);fill-rule:nonzero;"/>
            <path id="p10" d="M948.96,199.2C952.37,199.6 954.84,201.97 957.96,203.3C961.15,202.8 963.61,201.07 966.97,201.16C972.69,201.21 979.64,202.49 982.6,208.03C981.91,212.08 981.3,216.2 980.13,220.14C978.26,226.16 972.92,230.64 967.52,233.5C963.21,235.72 958.7,237.11 954,235.08C951.66,234.21 950.81,232.29 949.36,230.43C948.54,229.5 948.31,228.36 946.82,228.59C943.44,228.88 939.49,230.36 936.16,229.61C933.51,229.01 930.54,226.7 930.35,223.82C930.24,220.83 931.39,217.67 932.17,214.81C934.21,214 935.02,212.45 936.05,210.65C935.53,208.03 934.28,205.38 936.05,202.96C938.95,198.69 944.32,198.42 948.96,199.2Z" style="fill:white;fill-rule:nonzero;"/>
            <path id="p111" serif:id="p11" d="M402.5,205.16C401.89,210.43 399.2,214.69 397.66,219.67C394.77,228.7 392.63,238.48 392.71,248C392.89,255.49 393.93,262.88 395.64,270.17C397.47,278.43 399.82,286.33 404.51,293.46C410.24,302.1 417.23,310.2 425.5,316.49C435.53,324.19 446.59,330.68 458.15,335.82C479.03,344.84 502.07,349.15 524.76,349.44C531.42,349.46 537.98,348.76 544.64,348.5C560.11,347.83 575.9,344.48 590,338.02C599.44,333.16 608.7,326.74 615.37,318.39C623.21,308.88 627.62,296.7 629.55,284.64C632.47,264.01 628.93,243.08 620.37,224.16C632.45,232.4 648.65,234.63 662.94,233.41C664.39,242.95 665.22,252.36 664.63,262.02C663.99,272.86 662.91,283.39 659.83,293.84C656.72,304.69 653.14,316.47 647.02,326.01C639.32,338.43 628.58,348.16 617.28,357.26C609.34,363.84 599.48,368.43 589.78,371.72C587.88,372.49 586.66,372.01 584.88,371.33C587.67,368.3 590.95,365.72 593.63,362.62C595.02,361.06 594.02,359.53 593.91,357.67C592.92,357.35 591.94,357.01 590.96,356.67C586.76,358.32 582.62,360.04 578.27,361.29C568.69,364.11 558.88,367.31 549.02,368.64C532.78,371.35 516.29,370.99 499.9,370.19C491.79,369.33 483.62,368.23 475.71,366.2C455.9,361.24 436.54,351.48 421.79,337.21C417.1,332.69 412.04,327.43 409.37,321.43C408.95,319.8 409.4,317.08 407.8,316.11C404.51,313.69 401.02,311.85 398.35,308.63C390.34,299.62 383.66,288.08 381.99,275.99C381.33,271.41 379.87,267.1 378.39,262.74C380.31,251.34 383.9,240.4 388.85,229.97C392.85,221.52 397.18,212.85 402.5,205.16Z" style="fill:rgb(234,234,234);fill-rule:nonzero;"/>
            <path id="p121" serif:id="p12" d="M982.6,208.03C986.26,215.63 984.06,222.95 979.65,229.58C974.91,233.67 969.86,238.65 964.08,241.08C960.01,242.88 955.01,243.55 950.7,242.31C948.39,241.16 946.63,238.7 944.89,236.84C940.55,237.08 935.65,238.61 931.41,237.53C927.96,236.62 924.63,234.15 921.3,232.89C920.38,229.7 920.06,226.52 921.47,223.4C923.62,218.8 927.7,216.67 932.17,214.81C931.39,217.67 930.24,220.83 930.35,223.82C930.54,226.7 933.51,229.01 936.16,229.61C939.49,230.36 943.44,228.88 946.82,228.59C948.31,228.36 948.54,229.5 949.36,230.43C950.81,232.29 951.66,234.21 954,235.08C958.7,237.11 963.21,235.72 967.52,233.5C972.92,230.64 978.26,226.16 980.13,220.14C981.3,216.2 981.91,212.08 982.6,208.03Z" style="fill:rgb(234,234,234);fill-rule:nonzero;"/>
            <path id="p131" serif:id="p13" d="M684.76,225.85C685.5,232.3 689.18,237.99 694.92,241.07C705.01,246.38 716.68,248.24 728,247.91C730.39,248.13 733.67,247.48 735.21,249.73C738.32,253.49 740.51,257.48 744.61,260.37C754.77,267.74 767.95,268.51 779.85,265.74C785.08,264.52 789.59,261.94 794.04,259.05C796.14,257.89 798.39,256.13 800.9,257.07C806.12,258.44 811.27,261.4 817,261.6C822.89,261.73 828.67,258.37 830.45,252.57C832.2,247.08 829.47,242.04 832.22,237.28C834.88,241.45 839.19,245.82 839.37,250.97C839.63,253.8 838.37,255.89 837.16,258.3C838.74,261.46 840.87,264.31 840.19,268.04C839.9,271.31 837.42,273.48 834.54,274.65C829.78,276.48 824.49,276.17 819.76,274.41C814.69,272.89 811.11,269.49 805.61,269.28C803.83,272.27 802.02,275.06 799.21,277.2C790.57,283.78 779.57,285.55 769.01,283.68C756.04,281.66 742.22,275.58 733.9,265.08C731.73,262.6 729.59,260.24 726.04,260.13C712.68,259.76 698.67,256.43 687.98,248.05C684.25,245.27 679.72,241.18 678.84,236.4C678.2,231.98 682.13,228.81 684.76,225.85Z" style="fill:rgb(209,209,209);fill-rule:nonzero;"/>
            <path id="p141" serif:id="p14" d="M979.65,229.58C978.44,232.46 977.93,234.14 978.91,237.19C980.34,241.36 979.12,245.97 976.04,249.06C974.32,250.8 972.34,250.64 970.08,250.95C969,249.98 967.91,249.03 966.82,248.08C963.91,249.72 961.7,252.06 959.19,254.2C951.85,259.4 941.48,257.96 935.32,251.63C932.79,248.86 932.59,244.92 932.04,241.4C929.5,240.82 927.16,240.61 925.08,238.86C923.12,237.32 922.26,235.12 921.3,232.89C924.63,234.15 927.96,235.62 931.41,236.53C935.65,237.61 940.55,237.08 944.89,236.84C946.63,238.7 948.39,241.16 950.7,242.31C955.01,243.55 960.01,242.88 964.08,241.08C969.86,238.65 974.91,233.67 979.65,229.58Z" style="fill:rgb(209,209,209);fill-rule:nonzero;"/>
            <path id="p151" serif:id="p15" d="M452.5,233.7C455.72,232.92 459.03,233.09 461.02,236.08C465.38,242.44 466.21,251.47 465.71,258.98C465.44,267.83 461.04,276.06 456.28,283.3C453.47,287.19 449.09,291.96 444.04,292.45C438.79,292.69 435.22,287.76 433.89,283.2C430.63,271.32 432.47,258.34 438.73,247.73C441.82,242.37 446.46,235.85 452.5,233.7Z" style="fill:rgb(171,179,227);fill-rule:nonzero;"/>
            <path id="p161" serif:id="p16" d="M672.23,232.14C672.48,238.83 676.39,244.03 677.26,250.53C681.9,274.96 679.71,300.45 672.08,324.06C669.16,333.28 663.42,341.9 658.1,349.93C651.44,360.12 643.22,369.04 634.13,377.1C627.94,383.27 620.79,387.84 613.67,392.82C602.79,399.67 592.7,406.55 580.94,411.92C575.79,414.25 570.52,415.58 565.09,417.19C549.97,420.73 533.81,421.04 518.36,420.28C516.98,413.58 516.66,406.59 516.42,399.76C523.07,398.94 529.64,397.87 536.04,395.86C553.35,390.72 571.05,383.16 584.88,371.33C586.66,372.01 587.88,372.49 589.78,371.72C599.48,368.43 609.34,363.84 617.28,357.26C628.58,348.16 639.32,338.43 647.02,326.01C653.14,316.47 656.72,304.69 659.83,293.84C662.91,283.39 663.99,272.86 664.63,262.02C665.22,252.36 664.39,242.95 662.94,233.41C666.05,233.09 669.13,232.59 672.23,232.14Z" style="fill:rgb(209,209,209);fill-rule:nonzero;"/>
            <path id="p171" serif:id="p17" d="M841.49,241.66C842.34,242.17 843.21,242.66 844.08,243.13C848.49,245.45 852.59,247.97 857.29,249.72C865.28,252.81 873.49,254.14 881.99,254.88C889.91,255.57 898.16,255.41 905.96,253.76C912.48,252.4 918.8,249.71 924.9,247.05C926.91,246.22 928.39,244.84 929.94,243.38L930.06,243.27C929.14,248.41 930.54,251.66 933.2,255.88C921.63,267.98 908.83,278.2 892.77,283.62C876.04,290.33 858.83,291.54 841,291.64C839.02,291.55 837.07,291.37 835.09,291.2C834.52,287.14 833.75,283.12 832.94,279.1C837.9,276.62 842.83,273.9 844.04,267.98C845.04,263.59 843.04,260.44 841.1,256.74C841.87,254.62 842.98,252.29 843.05,250.02C843.01,247.24 842.21,244.33 841.49,241.66Z" style="fill:rgb(155,23,23);fill-rule:nonzero;"/>
            <path id="p181" serif:id="p18" d="M545.32,249.28C549.97,247.3 554.92,249.48 557.86,253.27C561.7,258.37 562.57,264.78 562.6,271C562.97,282.15 560.07,294.94 552.48,303.47C549.54,306.89 546.39,310.58 541.93,311.95C537.73,313.56 532.97,310.75 530.88,307.11C528.22,302.54 526.68,297.27 526.36,292C525.93,284.13 526.09,276.45 529.03,269.01C531.88,261.27 537.54,252.71 545.32,249.28Z" style="fill:rgb(171,179,227);fill-rule:nonzero;"/>
            <path id="p191" serif:id="p19" d="M689.41,254.86C700.88,260.82 713.41,263.91 726.31,261.4C726.55,263.5 726.41,265.38 727.84,267.11C734.88,276.51 745.78,282.9 756.93,286.21C767.96,289.68 780.93,290.07 791.74,285.62C798.11,282.94 802.47,279.18 805.98,273.22C811.09,277.45 817.03,278.89 823.32,280.44C823.79,285.46 824.51,290.42 824.71,295.46C824.31,298.3 823.85,301.11 823.73,303.98C823.34,314.44 823.01,324.89 822.4,335.35C821.16,353.63 817.75,371.85 815.23,390C811.83,409.12 806.67,427.98 800.32,446.33C787.41,485.82 768.79,523.67 747.02,559C729.56,588.43 709.8,617.39 686.6,642.6C680.21,649.49 674.03,656.87 667.02,663.02C654.09,674.6 640.24,685.17 625.82,694.82C617.23,700.58 608.27,705.73 598.73,709.76C594.03,711.72 589.04,714.14 583.98,714.77C581.88,715.09 579.69,715.22 577.65,715.81C575.76,716.6 574.2,718.36 572.74,719.75C563.15,729.65 551.94,738.6 541.26,747.29C523.46,761.33 504.85,774.38 485.99,786.96C463.13,801.92 439.5,815.57 415.35,828.33C397.68,837.29 379.71,846.24 361.11,853.11C345.41,858.48 329.76,862.88 313,862.18C297.98,861.91 283.34,856.57 269.14,851.88C253.88,846.29 237.83,839.18 225.22,828.76C206.39,813.72 190.26,796.03 179.62,774.22C178.36,774.03 177.1,773.85 175.83,773.69C177.21,773.47 178.59,773.3 179.97,773.14C183.88,772.3 187.78,771.47 191.72,770.76C220.08,765.36 247.08,756.69 274.28,747.21C288.82,741.8 303.09,736.75 317.27,730.5C333.96,723.02 350.59,715.55 366.54,706.57C380.08,698.84 393.48,691.23 406.2,682.16C407.37,681.27 408.45,680.27 409.5,679.25C414.2,674.11 419.99,671.51 425.63,667.61C428.71,665.45 432.48,663.73 435.07,660.99C437.16,657.2 433.33,654.26 430.29,652.75C405.23,640.47 381.27,628.03 358.97,611.03C354.91,608.14 351.2,604.63 346.93,602.07C343.84,600.05 340.25,601.96 337.22,603.1C321.82,609.84 305.57,614.25 288.99,616.84C246.45,624.55 202.45,622.43 161.35,608.68C150.13,604.73 139.22,600.16 129.04,593.94C117.57,586.92 106.26,578.8 96.82,569.19C90.84,563.26 85.51,556.81 80.23,550.27C83.58,550.05 86.93,549.71 90.28,549.44C101.82,549.59 113.5,549.87 124.99,548.66C134.03,548.19 142.99,546.7 151.99,545.69C168.91,543.42 186.19,540.55 202.53,535.6C228.75,528.57 254.6,518.61 279.63,508.12C318.59,491.75 353.14,465.46 379.46,432.42C389.23,420.42 398.21,407.82 406.11,394.51C412.32,391.04 419.24,390.79 425.53,387.68C429.13,386.02 432.3,383.59 435.87,381.9C437.34,381.06 439.14,381.94 440.65,382.32C452.1,386.55 464.09,389.42 476.03,391.93C482.44,393.35 488.98,393.91 495.37,395.49C497.33,406.88 499.27,418.31 501.46,429.64C502.13,432.45 502.81,433.52 505.58,434.55C516.28,438.56 528.76,437.78 540,437.86C550.54,437.95 560.92,436.72 571.36,435.46C583.85,433.83 597.22,431.75 608.91,426.92C622.65,420.79 635.66,414.07 646.89,403.88C655.42,396.65 662.99,388.46 668.97,378.99C673.14,372.27 677.17,365.3 679.97,357.92C685,345.34 687.2,331.5 687.3,318C687.49,313.49 688,309.08 687.51,304.55C688.46,298.71 689.54,292.93 689.67,287C690.61,276.37 690.83,265.45 689.41,254.86Z" style="fill:rgb(140,158,255);fill-rule:nonzero;"/>
            <path id="p201" serif:id="p20" d="M378.39,262.74C379.87,267.1 381.33,271.41 381.99,275.99C383.66,288.08 390.34,299.62 398.35,308.63C401.02,311.85 404.51,313.69 407.8,316.11C409.4,317.08 408.95,319.8 409.37,321.43C408.43,319.48 407.47,317.37 406.09,315.69C404.27,314.94 403.12,317.47 402.67,318.84C401.82,325.28 402.89,332.12 404.75,338.32C407.53,347.27 411.23,355.88 416.1,363.89C417.88,366.53 419.62,369.16 421.22,371.9C415.89,373.92 410.8,375.25 405.05,374.36C401.48,369.12 397.37,364.33 394.12,358.88C387.05,347.78 382.42,335.65 378.8,323.06C374.17,303.4 374.2,282.46 378.39,262.74Z" style="fill:rgb(209,209,209);fill-rule:nonzero;"/>
            <path id="p211" serif:id="p21" d="M824.71,295.46C825.59,301.96 826.48,308.42 826.48,314.99C826.56,327.62 826.95,340.41 825.75,352.99C825.34,364.38 823.97,375.73 822.45,387.02C817.34,419.78 809.35,452.19 798.12,483.41C792.78,499.94 786.67,516.23 780.13,532.33C768.57,559.89 756.07,587.22 742.04,613.63C732.67,630.89 722.56,647.9 711.03,663.83C705.46,667.5 701.62,673.16 696.61,677.61C679.46,695.3 660.3,710.38 637.89,720.85C627.2,725.82 616.01,729.58 604.58,732.43C601.62,733.17 598.53,733.73 595.66,734.76C592.55,735.9 589.95,738.35 587.56,740.57C575.94,751.87 563.2,762.39 550.6,772.62C516.24,799.93 476.95,822.18 437.72,841.71C414.24,853.8 389.85,864.33 364.79,872.7C346.89,877.87 327.67,882.9 309,883.36C297.13,883.04 284.94,881.34 273.41,878.49C263.66,876.12 255.3,871.28 246.53,866.49C224.75,854.01 204.36,839.21 187.78,820.22C186.4,818.65 184.66,817.71 182.88,816.67C175.47,804.35 170.08,789.46 170.53,774.94C172.27,774.49 174.06,773.98 175.83,773.69C177.1,773.85 178.36,774.03 179.62,774.22C190.26,796.03 206.39,813.72 225.22,828.76C237.83,839.18 253.88,846.29 269.14,851.88C283.34,856.57 297.98,861.91 313,862.18C329.76,862.88 345.41,858.48 361.11,853.11C379.71,846.24 397.68,837.29 415.35,828.33C439.5,815.57 463.13,801.92 485.99,786.96C504.85,774.38 523.46,761.33 541.26,747.29C551.94,738.6 563.15,729.65 572.74,719.75C574.2,718.36 575.76,716.6 577.65,715.81C579.69,715.22 581.88,715.09 583.98,714.77C589.04,714.14 594.03,711.72 598.73,709.76C608.27,705.73 617.23,700.58 625.82,694.82C640.24,685.17 654.09,674.6 667.02,663.02C674.03,656.87 680.21,649.49 686.6,642.6C709.8,617.39 729.56,588.43 747.02,559C768.79,523.67 787.41,485.82 800.32,446.33C806.67,427.98 811.83,409.12 815.23,390C817.75,371.85 821.16,353.63 822.4,335.35C823.01,324.89 823.34,314.44 823.73,303.98C823.85,301.11 824.31,298.3 824.71,295.46Z" style="fill:rgb(130,146,234);fill-rule:nonzero;"/>
            <path id="p221" serif:id="p22" d="M687.51,304.55C688,309.08 687.49,313.49 687.3,318C687.2,331.5 685,345.34 679.97,357.92C677.17,365.3 673.14,372.27 668.97,378.99C662.99,388.46 655.42,396.65 646.89,403.88C635.66,414.07 622.65,420.79 608.91,426.92C597.22,431.75 583.85,433.83 571.36,435.46C560.92,436.72 550.54,437.95 540,437.86C528.76,437.78 516.28,438.56 505.58,434.55C502.81,433.52 502.13,432.45 501.46,429.64C499.27,418.31 497.33,406.88 495.37,395.49C488.98,393.91 482.44,393.35 476.03,391.93C464.09,389.42 452.1,386.55 440.65,382.32C439.14,381.94 437.34,381.06 435.87,381.9C432.3,383.59 429.13,386.02 425.53,387.68C419.24,390.79 412.32,391.04 406.11,394.51C408.01,390.94 409.76,387.28 411.72,383.74C418,382.81 424.41,381.18 429.83,377.76C431.19,376.95 431.95,375.66 432.4,374.18C432.47,372.02 431.19,370.61 430.06,368.94C426.55,364.31 423.45,359.4 420.69,354.29C418.49,350.32 417.65,345.95 415.02,342.18C426.71,354.19 440.76,362.68 456,369.42C472.29,376.33 489.43,379.85 507,381.44C518.27,381.91 529.92,382.04 540.99,379.93C549.03,378.47 557.61,377.51 565.15,374.26C551.65,381.88 536.77,387.19 521.72,390.79C516.49,392.16 511.88,391.47 507.49,394.73C506.79,403.72 508.58,412.2 509.95,421.02C510.32,424.53 512.84,426.72 516.16,427.48C531.44,430.72 547.1,431.55 562.44,428.16C574.3,425.45 586,421.47 596.87,415.99C604.31,412.23 611.18,407.56 618.49,403.48C628.49,398.04 637.31,389.4 645.73,381.72C658.27,369.06 669.52,354.52 677.38,338.48C682.9,327.48 684.14,316.18 687.51,304.55Z" style="fill:rgb(130,146,234);fill-rule:nonzero;"/>
            <path id="p231" serif:id="p23" d="M839.39,319.84C845.36,324.35 850.53,329.15 855.27,334.94C853.85,334.31 852.41,333.73 850.95,333.2C851.04,338.8 851.59,344.39 851.72,350C852.09,363.96 851.12,378.07 850.25,392C848.87,417.11 844.81,442.03 838.21,466.29C835.41,476.38 832.86,486.5 829.48,496.42C824.03,513.53 817.72,529.67 813.16,547.13C809.76,561.1 807.83,574.78 811.03,589.01C813.3,599.8 818.88,609.62 828.13,615.88C832.59,619.16 837.65,620.66 843.09,621.39C835.87,634.66 827.09,647.59 818.32,659.86C813.11,658.89 808.93,656.21 804.49,653.49C798.55,649.63 793.3,645.26 790.24,638.71C784.57,626.73 781.8,613.25 782.21,600C781.53,582.22 787.72,563.58 791.03,546C792.57,536.95 796.22,528.86 799.38,520.32C801.32,514.9 803.96,510.07 804.34,504.2C812.99,479.86 821.12,455.43 826.78,430.19C833.01,403.82 837.32,377.13 838.54,350.04C838.58,339.95 839.4,329.93 839.39,319.84Z" style="fill:rgb(130,146,234);fill-rule:nonzero;"/>
            <path id="p241" serif:id="p24" d="M850.95,333.2C852.41,333.73 853.85,334.31 855.27,334.94C864.61,345.18 872.21,356.87 879.09,368.86C884.09,377.81 888.83,387.1 892.05,396.84C896.9,411.25 898.17,425.89 898.32,441C897.66,461.51 895.73,481.91 891.04,501.93C885.83,526.77 877,550.13 866.91,573.33C860.02,589.88 851.74,605.71 843.09,621.39C837.65,620.66 832.59,619.16 828.13,615.88C818.88,609.62 813.3,599.8 811.03,589.01C807.83,574.78 809.76,561.1 813.16,547.13C817.72,529.67 824.03,513.53 829.48,496.42C832.86,486.5 835.41,476.38 838.21,466.29C844.81,442.03 848.87,417.11 850.25,392C851.12,378.07 852.09,363.96 851.72,350C851.59,344.39 851.04,338.8 850.95,333.2Z" style="fill:rgb(140,158,255);fill-rule:nonzero;"/>
            <path id="p251" serif:id="p25" d="M804.34,504.2C803.96,510.07 801.32,514.9 799.38,520.32C796.22,528.86 792.57,536.95 791.03,546C787.72,563.58 781.53,582.22 782.21,600C781.8,613.25 784.57,626.73 790.24,638.71C793.3,645.26 798.55,649.63 804.49,653.49C808.93,656.21 813.11,658.89 818.32,659.86C803.7,678.34 785.97,696.28 764.52,706.63C753.7,712.07 741.97,714.68 729.95,715.61C715.3,717.07 700.46,716.83 685.75,716.62C689.08,713.86 691.82,710.86 694.38,707.38C716.61,679.87 736.52,650.37 753.26,619.2C765.49,596.17 776.48,572.55 786.81,548.62C793.31,534.06 798.41,518.97 804.34,504.2Z" style="fill:rgb(100,115,201);fill-rule:nonzero;"/>
            <path id="p261" serif:id="p26" d="M75.46,548.14C80.42,548.37 85.34,548.97 90.28,549.44C86.93,549.71 83.58,550.05 80.23,550.27C85.51,556.81 90.84,563.26 96.82,569.19C106.26,578.8 117.57,586.92 129.04,593.94C139.22,600.16 150.13,604.73 161.35,608.68C202.45,622.43 246.45,624.55 288.99,616.84C305.57,614.25 321.82,609.84 337.22,603.1C340.25,601.96 343.84,600.05 346.93,602.07C351.2,604.63 354.91,608.14 358.97,611.03C381.27,628.03 405.23,640.47 430.29,652.75C433.33,654.26 437.16,657.2 435.07,660.99C432.48,663.73 428.71,665.45 425.63,667.61C419.99,671.51 414.2,674.11 409.5,679.25C409.52,676.07 409.52,672.9 409.56,669.73C405.34,666.19 400.39,664.3 395.73,661.48C390.26,658.28 384.91,654.92 379.76,651.22C367.99,643.1 356.46,634.72 345.62,625.39C343.43,623.39 340.84,622.42 338.04,621.62C337.21,622.04 336.37,622.47 335.54,622.89C335.53,623.94 335.53,624.99 335.55,626.04C313.43,633.04 290.05,637.09 267.06,640.01C253.68,641.17 240.45,642.78 227,642.7C219.55,643.21 212.46,643.39 205,642.74C189.27,642.82 173.39,640.81 158.19,636.69C144.92,632.9 132.34,628.85 120.59,621.41C114.54,617.61 108.79,613.31 103.49,608.52C99.26,604.81 96.01,600.22 91.74,596.53C86.19,586.8 81.78,576.31 78.96,565.45C77.5,559.7 76.55,553.96 75.46,548.14Z" style="fill:rgb(130,146,234);fill-rule:nonzero;"/>
            <path id="p271" serif:id="p27" d="M91.74,596.53C96.01,600.22 99.26,604.81 103.49,608.52C108.79,613.31 114.54,617.61 120.59,621.41C132.34,628.85 144.92,632.9 158.19,636.69C173.39,640.81 189.27,642.82 205,642.74C212.46,643.39 219.55,643.21 227,642.7C240.45,642.78 253.68,641.17 267.06,640.01C290.05,637.09 313.43,633.04 335.55,626.04C336.2,627.76 337.06,629.33 338.35,630.65C341.71,634.13 345.45,637.27 349.25,640.25C342.45,642.77 335.43,644.44 328.39,646.12C316.23,648.81 304.05,651.31 291.74,653.16C279.52,655.03 267.28,657.11 254.98,658.36C233.05,660.8 211,661.14 188.96,660.36C179.83,659.35 170,659.58 161.2,656.92C143.93,652.32 128.11,640.88 115.51,628.48C106.32,618.97 98.33,607.99 91.74,596.53Z" style="fill:rgb(100,115,201);fill-rule:nonzero;"/>
            <path id="p281" serif:id="p28" d="M711.03,663.83C701.25,679.05 689.79,693.33 678.13,707.16C674.56,711.35 671.41,715.61 667.17,719.19C659.67,725.61 652.47,731.91 643.72,736.56C636.98,740.18 629.61,743.78 622.02,745.09C619.09,745.65 615.84,745.1 613.02,745.98C608.85,748.15 605.43,751.91 601.79,754.86C586.84,768.19 570.82,779.99 554.09,790.98C533.67,804.25 512.22,815.4 490.87,827.06C459.17,843.67 426.7,858.59 393.15,871.14C371.31,879.32 349.53,886.97 326.77,892.26C310.15,895.63 293.47,896.82 276.67,893.92C267.67,892.01 259.86,887.74 252.13,882.93C240.83,875.85 229.46,868.3 219.05,859.95C204.87,847.69 191.99,833.12 182.88,816.67C184.66,817.71 186.4,818.65 187.78,820.22C204.36,839.21 224.75,854.01 246.53,866.49C255.3,871.28 263.66,876.12 273.41,878.49C284.94,881.34 297.13,883.04 309,883.36C327.67,882.9 346.89,877.87 364.79,872.7C389.85,864.33 414.24,853.8 437.72,841.71C476.95,822.18 516.24,799.93 550.6,772.62C563.2,762.39 575.94,751.87 587.56,740.57C589.95,738.35 592.55,735.9 595.66,734.76C598.53,733.73 601.62,733.17 604.58,732.43C616.01,729.58 627.2,725.82 637.89,720.85C660.3,710.38 679.46,695.3 696.61,677.61C701.62,673.16 705.46,667.5 711.03,663.83Z" style="fill:rgb(100,115,201);fill-rule:nonzero;"/>
        </g>
    </g>
</a>
</svg>
